<?xml version="1.0" standalone="no"?>
<!DOCTYPE svg PUBLIC "-//W3C//DTD SVG 1.1//EN" "http://www.w3.org/Graphics/SVG/1.1/DTD/svg11.dtd" >
<svg xmlns="http://www.w3.org/2000/svg" xmlns:xlink="http://www.w3.org/1999/xlink" version="1.1">
<metadata>
Created by FontForge 20170731 at Fri May  7 08:54:33 2021
 By Aleksey,,,
(c) 2020 Zoho Corporation Pvt. Ltd. All rights reserved.
</metadata>
<defs>
<font id="ZohoPuvi-Medium" horiz-adv-x="1228" >
  <font-face 
    font-family="Zoho Puvi Med"
    font-weight="500"
    font-stretch="normal"
    units-per-em="2048"
    panose-1="2 11 7 3 3 2 2 6 2 3"
    ascent="1638"
    descent="-410"
    x-height="1071"
    cap-height="1464"
    bbox="-477 -457 2294 2290"
    underline-thickness="102"
    underline-position="-307"
    unicode-range="U+000D-FB02"
  />
<missing-glyph horiz-adv-x="1032" 
 />
    <glyph glyph-name=".notdef" horiz-adv-x="1032" 
 />
    <glyph glyph-name="uni0000" horiz-adv-x="342" 
 />
    <glyph glyph-name="uni0000" horiz-adv-x="342" 
 />
    <glyph glyph-name="uni000D" unicode="&#xd;" horiz-adv-x="569" 
 />
    <glyph glyph-name="space" unicode=" " horiz-adv-x="395" 
 />
    <glyph glyph-name="exclam" unicode="!" horiz-adv-x="606" 
d="M186 1464h238l-35 -1036h-168zM453 133q0 -62 -44 -103.5t-106 -41.5t-105.5 41.5t-43.5 103.5q0 61 43.5 104.5t105.5 43.5q63 0 106.5 -42.5t43.5 -105.5z" />
    <glyph glyph-name="quotedbl" unicode="&#x22;" horiz-adv-x="804" 
d="M471 1464h219l-33 -514h-153zM117 1464h217l-33 -514h-151z" />
    <glyph glyph-name="numbersign" unicode="#" horiz-adv-x="1128" 
d="M641 440h-240l-59 -440h-162l60 440h-174v164h196l35 256h-176v166h198l60 438h162l-60 -438h240l59 438h162l-59 -438h180v-166h-201l-35 -256h181v-164h-205l-60 -440h-161zM455 866l-39 -268h254l39 268h-254z" />
    <glyph glyph-name="dollar" unicode="$" horiz-adv-x="1282" 
d="M1174 424q0 -97 -38.5 -178.5t-103.5 -136.5t-149 -88t-178 -39v-258h-130v258q-173 14 -309 116t-182 264l178 78q31 -113 116 -196t197 -90v512q-78 13 -139.5 31t-121.5 50t-99.5 75t-63.5 107.5t-24 145.5q0 91 37.5 166.5t101 125.5t143 79.5t166.5 34.5v184h130
v-186q160 -14 272.5 -95.5t163.5 -230.5l-166 -72q-31 94 -101.5 154.5t-168.5 73.5v-465q84 -14 147.5 -31t126.5 -49t103.5 -75.5t66 -111t25.5 -153.5zM332 1094q0 -45 13 -81t33.5 -59t54 -41t66 -28t76.5 -19v445q-101 -8 -172 -64t-71 -153zM958 403q0 60 -18.5 103
t-56.5 69.5t-78 41.5t-100 28v-491q106 13 179.5 80t73.5 169z" />
    <glyph glyph-name="percent" unicode="%" horiz-adv-x="1624" 
d="M760 1128q0 -147 -100.5 -249.5t-247.5 -102.5q-145 0 -245.5 101.5t-100.5 246.5q0 146 101.5 249.5t246.5 103.5q144 0 245 -102t101 -247zM1190 1464h166l-922 -1464h-166zM246 1126q0 -89 41 -144.5t127 -55.5q87 0 126.5 56t39.5 146q0 87 -41 144t-125 57
q-85 0 -126.5 -57t-41.5 -146zM1559 334q0 -147 -100 -249.5t-247 -102.5q-146 0 -247 101t-101 247t101.5 250t246.5 104q146 0 246.5 -101.5t100.5 -248.5zM1044 332q0 -88 41 -143.5t127 -55.5q87 0 126.5 55t39.5 146q0 89 -40.5 145t-125.5 56t-126.5 -57t-41.5 -146z
" />
    <glyph glyph-name="ampersand" unicode="&#x26;" horiz-adv-x="1437" 
d="M973 162q-166 -178 -404 -178q-95 0 -179.5 26.5t-150.5 76.5t-104.5 129t-38.5 177q0 80 25 148t73 120.5t104 92.5t130 77q-119 151 -119 297q0 159 109.5 253t271.5 94q141 0 243.5 -85.5t102.5 -224.5q0 -246 -309 -374l272 -330l181 309l159 -70l-225 -387l256 -313
h-264zM514 1126q0 -41 21.5 -87.5t38.5 -69t57 -72.5q103 45 157 105t54 159q0 67 -43 110.5t-111 43.5q-85 0 -129.5 -51t-44.5 -138zM315 416q0 -125 73.5 -191.5t199.5 -66.5q157 0 276 139l-336 410q-104 -52 -158.5 -119t-54.5 -172z" />
    <glyph glyph-name="quotesingle" unicode="'" horiz-adv-x="452" 
d="M117 1464h221l-35 -514h-153z" />
    <glyph glyph-name="parenleft" unicode="(" horiz-adv-x="694" 
d="M317 639q0 -506 340 -942h-194q-361 432 -361 942q0 512 361 944h194q-340 -436 -340 -944z" />
    <glyph glyph-name="parenright" unicode=")" horiz-adv-x="679" 
d="M580 647q0 -525 -349 -944h-194q328 421 328 944q0 267 -80.5 498t-247.5 444h194q349 -415 349 -942z" />
    <glyph glyph-name="asterisk" unicode="*" horiz-adv-x="872" 
d="M541 1139l172 -219l-138 -99l-143 244l-137 -244l-137 99l172 219l-250 51l51 162l238 -101l-21 271h178l-20 -271l235 101l52 -162z" />
    <glyph glyph-name="plus" unicode="+" horiz-adv-x="1085" 
d="M1012 614h-379v-409h-180v409h-379v170h379v410h180v-410h379v-170z" />
    <glyph glyph-name="comma" unicode="," horiz-adv-x="587" 
d="M256 279l203 -86l-260 -445l-133 64z" />
    <glyph glyph-name="hyphen" unicode="-" horiz-adv-x="704" 
d="M119 659h467v-184h-467v184z" />
    <glyph glyph-name="period" unicode="." horiz-adv-x="585" 
d="M440 135q0 -61 -43 -104t-104 -43q-63 0 -106.5 42t-43.5 105q0 62 44 104t106 42t104.5 -42.5t42.5 -103.5z" />
    <glyph glyph-name="slash" unicode="/" horiz-adv-x="839" 
d="M606 1589h185l-607 -1892h-184z" />
    <glyph glyph-name="zero" unicode="0" horiz-adv-x="1419" 
d="M1307 698q0 -114 -21 -218t-68 -196t-114.5 -159t-167.5 -106t-221 -39q-204 0 -350.5 111t-208.5 306q-43 133 -43 373q0 114 22.5 218t70 195t117 157.5t169.5 104.5t221 38q132 0 236 -45t170 -119t109.5 -177t61 -212t17.5 -232zM344 694q0 -79 9.5 -150t36 -142
t67 -121.5t107.5 -82.5t153 -32q55 0 101.5 13t81 34t61.5 54.5t45 67.5t31.5 80.5t20.5 86.5t11 92.5t5 91t1 88.5q0 76 -9.5 146t-35 141.5t-65 123.5t-104.5 85t-148 33q-70 0 -126.5 -21t-94.5 -54t-66 -84t-43.5 -101.5t-24.5 -115.5t-11.5 -117t-2.5 -116z" />
    <glyph glyph-name="one" unicode="1" horiz-adv-x="839" 
d="M406 1464h208v-1464h-229v1237l-317 -205v205z" />
    <glyph glyph-name="two" unicode="2" horiz-adv-x="1161" 
d="M375 180h682v-180h-1022v90l565 553q219 212 219 420q0 117 -61 178.5t-178 61.5q-229 0 -314 -295l-176 75q51 187 178 293.5t316 106.5q206 0 335.5 -110t129.5 -312q0 -265 -291 -531z" />
    <glyph glyph-name="three" unicode="3" horiz-adv-x="1241" 
d="M1128 414q0 -110 -44.5 -195t-120.5 -136t-169.5 -77t-197.5 -26q-186 0 -331.5 98t-188.5 272l178 78q37 -121 121 -195.5t205 -74.5q138 0 226.5 63t88.5 195q0 43 -7.5 77.5t-18.5 60t-32.5 45.5t-39.5 32.5t-50.5 21.5t-54.5 13.5t-62.5 6.5t-63.5 2.5t-68 0.5v174
q151 0 210 14q125 30 150 148q6 31 6 69q0 108 -69.5 166t-180.5 58q-126 0 -200 -59t-117 -181l-168 72q50 167 183 256.5t311 89.5q119 0 221.5 -43t170.5 -133.5t68 -212.5q0 -115 -63 -196t-174 -124q137 -34 209.5 -126.5t72.5 -233.5z" />
    <glyph glyph-name="four" unicode="4" horiz-adv-x="1290" 
d="M1223 319h-201v-319h-223v319h-727v89l657 1056h293v-968h201v-177zM801 1290l-473 -794h473v794z" />
    <glyph glyph-name="five" unicode="5" horiz-adv-x="1214" 
d="M1102 481q0 -150 -68 -264.5t-186.5 -175.5t-267.5 -61q-186 0 -320 85t-172 257l180 77q34 -123 106.5 -181t198.5 -58q140 0 217.5 90.5t77.5 232.5q0 137 -77 225.5t-211 88.5q-198 0 -314 -133h-110l6 800h858v-186h-678l-2 -420q116 113 309 113q209 0 331 -139
t122 -351z" />
    <glyph glyph-name="six" unicode="6" horiz-adv-x="1292" 
d="M1190 475q0 -228 -147.5 -361.5t-378.5 -133.5q-128 0 -226 38.5t-158.5 102.5t-99 157.5t-53 193t-14.5 220.5q0 116 18.5 225t62 213.5t109 181.5t167 124t228.5 47q337 0 467 -279l-184 -82q-37 90 -112 135.5t-175 45.5q-81 0 -144 -35.5t-101 -90.5t-63 -130
t-35 -144.5t-11 -142.5q56 96 153.5 144t215.5 48q211 0 346 -133.5t135 -343.5zM354 487q0 -147 82.5 -240t227.5 -93q137 0 215.5 87.5t78.5 225.5q0 141 -78.5 230t-217.5 89q-132 0 -220 -84t-88 -215z" />
    <glyph glyph-name="seven" unicode="7" horiz-adv-x="1097" 
d="M1059 1464v-94l-543 -1370h-235l514 1280h-734v184h998z" />
    <glyph glyph-name="eight" unicode="8" horiz-adv-x="1265" 
d="M1159 420q0 -106 -44.5 -191.5t-119 -139t-167.5 -81.5t-195 -28q-101 0 -194 27.5t-168.5 80t-121 137.5t-45.5 191q0 136 72.5 232t202.5 143q-103 40 -160 118.5t-57 186.5q0 73 27.5 136.5t74 109t107.5 78t128.5 48t135.5 15.5q86 0 168.5 -25t150 -71.5t109 -121
t41.5 -165.5q0 -212 -221 -307q132 -47 204 -141.5t72 -231.5zM385 1087q0 -103 74.5 -164t179.5 -61q110 0 177 60t67 170q0 99 -73.5 160t-174.5 61q-105 0 -177.5 -61t-72.5 -165zM336 430q0 -124 85.5 -198t211.5 -74q130 0 213.5 73t83.5 201q0 127 -82 197.5
t-211 70.5q-130 0 -215.5 -71.5t-85.5 -198.5z" />
    <glyph glyph-name="nine" unicode="9" horiz-adv-x="1294" 
d="M1180 733q0 -118 -16 -222t-56 -203t-102 -169.5t-161 -113.5t-227 -43q-112 0 -208.5 30t-175.5 100t-117 173l182 80q38 -101 122.5 -151t196.5 -50q82 0 144 35.5t97.5 89.5t58 129t30 142t8.5 142q-60 -95 -156.5 -142.5t-213.5 -47.5q-212 0 -348 133t-136 344
q0 228 148 362t379 134q97 0 176.5 -22t136 -59t99.5 -93.5t69 -118.5t42 -141t22 -154t6 -164zM332 997q0 -140 79 -228.5t218 -88.5q133 0 220 80t87 213q0 149 -81 244.5t-228 95.5q-136 0 -215.5 -88.5t-79.5 -227.5z" />
    <glyph glyph-name="colon" unicode=":" horiz-adv-x="604" 
d="M451 772q0 -63 -43.5 -105t-106.5 -42t-105 42t-42 105t42 105.5t105 42.5q62 0 106 -43.5t44 -104.5zM451 135q0 -63 -43.5 -105t-106.5 -42t-105 42t-42 105t42.5 104.5t104.5 41.5q61 0 105.5 -42.5t44.5 -103.5z" />
    <glyph glyph-name="semicolon" unicode=";" horiz-adv-x="610" 
d="M475 772q0 -63 -43 -105t-106 -42t-105.5 42t-42.5 105q0 62 43 105t105 43t105.5 -43.5t43.5 -104.5zM229 279l203 -86l-260 -445l-133 64z" />
    <glyph glyph-name="less" unicode="&#x3c;" horiz-adv-x="1036" 
d="M399 659l508 -292v-199l-803 469v47l803 467v-201z" />
    <glyph glyph-name="equal" unicode="=" horiz-adv-x="1021" 
d="M82 950h860v-168h-860v168zM82 541h860v-168h-860v168z" />
    <glyph glyph-name="greater" unicode="&#x3e;" horiz-adv-x="1036" 
d="M932 684v-47l-803 -467v199l508 290l-508 293v199z" />
    <glyph glyph-name="question" unicode="?" horiz-adv-x="1024" 
d="M930 1135q0 -59 -21 -113.5t-54 -96.5t-73.5 -82.5t-81.5 -79.5t-74.5 -79.5t-55.5 -90.5t-23 -104v-61h-193v88q0 69 26.5 132t65.5 108.5t85.5 93t85.5 86.5t65.5 88t26.5 98q0 85 -50 136t-135 51q-203 0 -276 -244q-88 41 -180 78q54 166 170 253t288 87
q83 0 155 -21.5t128 -63t88.5 -109t32.5 -154.5zM598 133q0 -62 -43.5 -103.5t-105.5 -41.5q-64 0 -108 41t-44 104q0 62 45 105t107 43q63 0 106 -42.5t43 -105.5z" />
    <glyph glyph-name="at" unicode="@" horiz-adv-x="1875" 
d="M1585 -57q-209 -248 -645 -248q-243 0 -437 103.5t-305.5 294t-111.5 435.5q0 242 117.5 445t320.5 320.5t445 117.5q166 0 315 -52t262 -146.5t179.5 -237.5t66.5 -313q0 -76 -13.5 -149t-44.5 -143t-76 -122.5t-113 -84.5t-150 -32q-106 0 -171.5 38.5t-78.5 135.5
q-45 -85 -125 -135.5t-174 -50.5q-157 0 -243.5 100.5t-86.5 259.5q0 70 17 139t51.5 130t82 107.5t113.5 73.5t140 27q187 0 241 -135l15 119h198l-63 -524q-2 -14 -2 -45q0 -113 98 -113q55 0 98 28t67.5 70.5t40.5 98.5t21.5 105.5t5.5 98.5q0 146 -51 263.5t-141.5 194
t-212 117t-264.5 40.5q-158 0 -293.5 -57t-230 -156.5t-148 -236.5t-53.5 -294q0 -206 86.5 -365t244.5 -247t365 -88q325 0 516 170zM719 485q0 -91 44.5 -152t131.5 -61q77 0 134 50t82.5 120t25.5 144q0 213 -195 213q-57 0 -102 -29.5t-70 -77.5t-38 -101t-13 -106z" />
    <glyph glyph-name="A" unicode="A" horiz-adv-x="1411" 
d="M995 369h-594l-122 -369h-216l492 1464h301l492 -1464h-232zM698 1276l-241 -733h481z" />
    <glyph glyph-name="B" unicode="B" horiz-adv-x="1339" 
d="M1243 410q0 -88 -25.5 -158t-69.5 -116.5t-106.5 -77.5t-134.5 -44.5t-155 -13.5h-576v1464h526q106 0 187.5 -18.5t149 -61t103.5 -120t36 -187.5q0 -240 -228 -311q151 -34 222 -118.5t71 -237.5zM399 1296v-458h285q140 0 206 53.5t66 189.5q0 64 -21 107.5t-61 66.5
t-86 32t-108 9h-281zM399 674v-504h332q140 0 213.5 60.5t73.5 197.5t-81.5 191.5t-225.5 54.5h-312z" />
    <glyph glyph-name="C" unicode="C" horiz-adv-x="1509" 
d="M1434 410q-70 -197 -239 -313.5t-380 -116.5q-227 0 -390 97.5t-243 267t-80 394.5q0 153 50.5 289.5t140.5 238t222.5 161t287.5 59.5q206 0 374 -107t240 -295l-186 -81q-56 138 -165 219.5t-253 81.5q-97 0 -176.5 -32t-133 -87t-90.5 -129.5t-54 -157.5t-17 -174
q0 -114 30 -213.5t87.5 -177.5t151 -123t212.5 -45q148 0 262.5 90t167.5 233z" />
    <glyph glyph-name="D" unicode="D" horiz-adv-x="1486" 
d="M1384 729q0 -348 -201.5 -538.5t-551.5 -190.5h-455v1464h459q356 0 552.5 -190t196.5 -545zM406 1282v-1100h219q266 0 394 146.5t128 416.5q0 537 -524 537h-217z" />
    <glyph glyph-name="E" unicode="E" horiz-adv-x="1220" 
d="M403 182h736v-182h-963v1464h928v-182h-701v-446h572v-179h-572v-475z" />
    <glyph glyph-name="F" unicode="F" horiz-adv-x="1173" 
d="M958 627h-552v-627h-230v1464h924v-184h-694v-473h552v-180z" />
    <glyph glyph-name="G" unicode="G" horiz-adv-x="1568" 
d="M1466 238q-255 -258 -637 -258q-225 0 -391 96.5t-251 267t-85 395.5q0 213 90.5 383t257 267.5t379.5 97.5q207 0 364 -93t241 -278l-201 -88q-58 133 -161 205t-245 72q-94 0 -174.5 -32.5t-137 -88t-97 -130t-59.5 -158.5t-19 -173q0 -120 30.5 -221t90 -177.5
t156 -119.5t219.5 -43q249 0 415 153v246h-395v180h610v-503z" />
    <glyph glyph-name="H" unicode="H" horiz-adv-x="1538" 
d="M1135 635h-729v-635h-230v1464h230v-641h729v641h229v-1464h-229v635z" />
    <glyph glyph-name="I" unicode="I" horiz-adv-x="600" 
d="M184 1464h232v-1464h-232v1464z" />
    <glyph glyph-name="J" unicode="J" horiz-adv-x="884" 
d="M725 422q0 -212 -110 -326t-322 -114q-133 0 -217 41v182q103 -39 190 -39q228 0 228 264v1034h231v-1042z" />
    <glyph glyph-name="K" unicode="K" horiz-adv-x="1316" 
d="M1016 0l-610 696v-696h-230v1464h230v-680l602 682h249l-634 -706l665 -760h-272z" />
    <glyph glyph-name="L" unicode="L" horiz-adv-x="1132" 
d="M406 184h665v-184h-895v1464h230v-1280z" />
    <glyph glyph-name="M" unicode="M" horiz-adv-x="1830" 
d="M860 0l-477 1165v-1165h-207v1464h311l435 -1093l426 1093h307v-1464h-228v1165l-466 -1165h-101z" />
    <glyph glyph-name="N" unicode="N" horiz-adv-x="1525" 
d="M1104 0l-717 1184v-1184h-211v1464h283l680 -1128v1128h213v-1464h-248z" />
    <glyph glyph-name="O" unicode="O" horiz-adv-x="1665" 
d="M1563 729q0 -158 -53.5 -296t-147.5 -238t-230.5 -157.5t-295.5 -57.5q-217 0 -385 99t-258.5 271.5t-90.5 388.5q0 210 93 380t261 267t378 97q216 0 383 -98.5t256.5 -269.5t89.5 -386zM340 725q0 -150 58 -275.5t173.5 -204.5t266.5 -79q99 0 180 31t137 85
t94.5 127.5t56 158t17.5 177.5q0 113 -32 212.5t-92 176t-154.5 121.5t-210.5 45q-125 0 -221.5 -45t-155 -125t-88 -182t-29.5 -223z" />
    <glyph glyph-name="P" unicode="P" horiz-adv-x="1255" 
d="M450 575h-47v-575h-227v1464h479q114 0 207.5 -24.5t167 -76.5t114 -140t40.5 -207q0 -106 -33.5 -186t-87 -128t-133 -78t-160.5 -40.5t-180 -10.5h-46zM403 1284v-539h259q145 0 220.5 66.5t75.5 210.5q0 140 -76.5 201t-219.5 61h-259z" />
    <glyph glyph-name="Q" unicode="Q" horiz-adv-x="1665" 
d="M1298 137l172 -190l-135 -131l-202 223q-135 -59 -297 -59q-217 0 -385 99t-258.5 271.5t-90.5 388.5q0 210 93 380t261 267t378 97q216 0 383 -98.5t256.5 -269.5t89.5 -386q0 -176 -67 -331t-198 -261zM340 725q0 -111 34 -212t96 -179t157.5 -124t210.5 -46
q83 0 157 26l-137 152l135 129l168 -184q162 157 162 458q0 113 -32 212.5t-92 176t-154.5 121.5t-210.5 45q-125 0 -221.5 -45t-155 -125t-88 -182t-29.5 -223z" />
    <glyph glyph-name="R" unicode="R" horiz-adv-x="1349" 
d="M637 612h-234v-612h-227v1464h502q88 0 164 -13.5t144.5 -45.5t117 -80.5t76.5 -122t28 -166.5q0 -158 -91.5 -259t-250.5 -136l428 -641h-250zM403 1284v-502h277q301 0 301 258q0 70 -22.5 119t-65 75.5t-94 38t-119.5 11.5h-277z" />
    <glyph glyph-name="S" unicode="S" horiz-adv-x="1282" 
d="M1176 424q0 -102 -45.5 -188t-120.5 -141t-168 -85t-191 -30q-439 0 -563 380l195 86q41 -135 135.5 -212.5t232.5 -77.5q120 0 211.5 66.5t91.5 183.5q0 65 -28.5 110t-76.5 70.5t-110.5 42t-131.5 29.5t-137.5 28t-131 43t-110.5 69t-76.5 111t-28.5 164
q0 95 42.5 174.5t113 130t157.5 78t178 27.5q181 0 317.5 -83.5t205.5 -246.5l-183 -80q-47 108 -136 171t-204 63q-53 0 -100.5 -11.5t-88 -35.5t-64 -66.5t-23.5 -99.5q0 -64 28.5 -108.5t77 -69.5t111.5 -41.5t132.5 -29t139 -28t132.5 -44t111.5 -70.5t77 -113
t28.5 -166z" />
    <glyph glyph-name="T" unicode="T" horiz-adv-x="1173" 
d="M1118 1282h-416v-1282h-231v1282h-416v182h1063v-182z" />
    <glyph glyph-name="U" unicode="U" horiz-adv-x="1454" 
d="M1292 565q0 -284 -147 -434.5t-430 -150.5q-269 0 -410 148.5t-141 418.5v917h229v-897q0 -74 8 -131.5t30 -110t58 -86t94 -53.5t136 -20q83 0 144 21t98.5 56.5t60.5 91t31 115.5t8 140v874h231v-899z" />
    <glyph glyph-name="V" unicode="V" horiz-adv-x="1363" 
d="M1094 1464h215l-496 -1464h-268l-492 1464h236l401 -1237z" />
    <glyph glyph-name="W" unicode="W" horiz-adv-x="1990" 
d="M1323 0l-324 1108l-331 -1108h-213l-394 1464h234l293 -1132l325 1132h185l325 -1136l295 1136h213l-387 -1464h-221z" />
    <glyph glyph-name="X" unicode="X" horiz-adv-x="1388" 
d="M1047 0l-367 592l-367 -592h-231l477 752l-444 712h256l336 -546l333 546h236l-442 -708l473 -756h-260z" />
    <glyph glyph-name="Y" unicode="Y" horiz-adv-x="1239" 
d="M1198 1464l-450 -839v-625h-230v627l-477 837h254l344 -651l334 651h225z" />
    <glyph glyph-name="Z" unicode="Z" horiz-adv-x="1232" 
d="M365 188h776v-188h-1090v92l811 1190h-737v182h1032v-92z" />
    <glyph glyph-name="bracketleft" unicode="[" horiz-adv-x="765" 
d="M383 -139h295v-164h-508v1892h508v-164h-295v-1564z" />
    <glyph glyph-name="backslash" unicode="\" horiz-adv-x="839" 
d="M47 1589h184l609 -1892h-185z" />
    <glyph glyph-name="bracketright" unicode="]" horiz-adv-x="765" 
d="M88 1589h508v-1892h-508v164h295v1564h-295v164z" />
    <glyph glyph-name="asciicircum" unicode="^" horiz-adv-x="1028" 
d="M745 829l-233 457l-233 -457h-197l330 635h204l332 -635h-203z" />
    <glyph glyph-name="underscore" unicode="_" horiz-adv-x="823" 
d="M-2 -180h827v-146h-827v146z" />
    <glyph glyph-name="grave" unicode="`" horiz-adv-x="819" 
d="M135 1552h246l123 -309h-156z" />
    <glyph glyph-name="a" unicode="a" horiz-adv-x="1122" 
d="M764 133q-57 -77 -143 -115t-187 -38q-155 0 -256.5 82.5t-101.5 234.5q0 70 26 124.5t63 89.5t101 59.5t114 36.5t130.5 18t123 7t116.5 1h12q0 57 -4 97t-18 79.5t-38 63.5t-66 38.5t-101 14.5q-83 0 -154 -46.5t-98 -123.5l-174 75q56 131 175 196t269 65
q190 0 305 -102.5t115 -289.5v-700h-209v133zM287 303q0 -164 186 -164q116 0 202.5 62.5t86.5 173.5v119h-135q-340 0 -340 -191z" />
    <glyph glyph-name="b" unicode="b" horiz-adv-x="1310" 
d="M1227 532q0 -112 -32 -211t-91.5 -175.5t-153.5 -121t-209 -44.5t-216 50t-154 144v-174h-213v1575h213v-680q54 90 158 143.5t212 53.5q119 0 213 -45t153 -122.5t89.5 -177.5t30.5 -215zM362 526q0 -167 87 -270.5t251 -103.5q69 0 123.5 21t89 56.5t57 86.5
t31.5 106.5t9 120.5q0 75 -18.5 141.5t-55.5 120.5t-98 85.5t-140 31.5q-86 0 -151.5 -31.5t-105 -86.5t-59.5 -125t-20 -153z" />
    <glyph glyph-name="c" unicode="c" horiz-adv-x="1171" 
d="M1098 307q-56 -159 -185.5 -243t-302.5 -84q-246 0 -386 156t-140 405q0 154 66.5 279.5t189 198.5t276.5 73q165 0 289 -75t187 -224l-181 -78q-32 93 -114 149t-181 56q-80 0 -142.5 -33.5t-99 -91t-55 -126t-18.5 -145.5q0 -105 33.5 -187.5t108 -134.5t180.5 -52
q108 0 188 63t115 168z" />
    <glyph glyph-name="d" unicode="d" horiz-adv-x="1310" 
d="M940 182q-51 -91 -159 -146.5t-216 -55.5q-119 0 -212 43.5t-151 120t-88 175t-30 213.5q0 112 33 213t94.5 178.5t156.5 123t210 45.5q114 0 210.5 -47.5t151.5 -141.5v672h213v-1575h-213v182zM303 524q0 -59 11 -113t35.5 -101.5t59.5 -82.5t86.5 -55t114.5 -20
q168 0 253 109.5t85 283.5q0 81 -19 148t-57.5 119t-101.5 81t-147 29q-87 0 -151 -32t-99.5 -88.5t-52.5 -125.5t-17 -152z" />
    <glyph glyph-name="e" unicode="e" horiz-adv-x="1175" 
d="M1075 240q-69 -131 -188 -195.5t-273 -64.5q-244 0 -387 157t-143 404q0 153 63 277.5t182 199t273 74.5q132 0 229.5 -44.5t154 -125.5t83.5 -184t27 -230v-16h-795q3 -156 84 -251.5t233 -95.5q92 0 165 44t116 126zM602 930q-124 0 -200.5 -79.5t-94.5 -207.5h578
q-8 135 -79 211t-204 76z" />
    <glyph glyph-name="f" unicode="f" horiz-adv-x="745" 
d="M664 905h-252v-905h-213v905h-150v166h150q0 55 0.5 87.5t4 82t9.5 80t18 71t29 65t43 51.5t59.5 41.5t78.5 24t100 9.5q81 0 155 -27l-65 -151q-50 8 -72 8q-153 0 -149 -190q2 -51 2 -152h252v-166z" />
    <glyph glyph-name="g" unicode="g" horiz-adv-x="1304" 
d="M1145 76q0 -118 -42.5 -209.5t-118 -147t-172 -84t-210.5 -28.5q-373 0 -491 260l168 74q40 -87 127 -126.5t194 -39.5q153 0 243.5 78t90.5 229v158q-56 -92 -158 -146.5t-213 -54.5q-146 0 -256.5 71.5t-166.5 189.5t-56 263q0 106 35.5 202t98 168.5t155 115.5
t200.5 43q114 0 210 -48t151 -141v168h211v-995zM301 553q0 -142 85.5 -244t225.5 -102q154 0 241 103.5t87 260.5q0 155 -83 253t-236 98q-155 0 -237.5 -105t-82.5 -264z" />
    <glyph glyph-name="h" unicode="h" horiz-adv-x="1257" 
d="M641 913q-125 0 -197.5 -74.5t-72.5 -199.5v-639h-213v1575h213v-674q47 95 139.5 143t204.5 48q191 0 292 -119t101 -314v-659h-213v653q0 126 -64.5 193t-189.5 67z" />
    <glyph glyph-name="i" unicode="i" horiz-adv-x="540" 
d="M399 1399q0 -55 -39 -92t-94 -37q-54 0 -92.5 37.5t-38.5 91.5t38.5 91.5t92.5 37.5q55 0 94 -37t39 -92zM164 1071h211v-1071h-211v1071z" />
    <glyph glyph-name="j" unicode="j" horiz-adv-x="540" 
d="M399 1397q0 -55 -39 -92t-94 -37q-54 0 -92.5 37.5t-38.5 91.5q0 56 37.5 92.5t93.5 36.5t94.5 -36.5t38.5 -92.5zM375 -51q0 -176 -91.5 -254t-271.5 -84v170q152 12 152 158v1132h211v-1122z" />
    <glyph glyph-name="k" unicode="k" horiz-adv-x="1097" 
d="M819 0l-448 539v-539h-213v1575h213v-983l424 479h237l-448 -493l485 -578h-250z" />
    <glyph glyph-name="l" unicode="l" horiz-adv-x="540" 
d="M164 1526l213 94v-1620h-213v1526z" />
    <glyph glyph-name="m" unicode="m" horiz-adv-x="1892" 
d="M614 911q-114 0 -178.5 -74t-64.5 -190v-647h-213v1071h213v-164q45 91 126.5 138t184.5 47q111 0 201.5 -50t128.5 -147q54 95 148.5 146t205.5 51q184 0 281.5 -116t97.5 -304v-672h-213v668q0 118 -58 180.5t-174 62.5q-114 0 -178.5 -74t-64.5 -190v-647h-211v668
q0 116 -58.5 179.5t-173.5 63.5z" />
    <glyph glyph-name="n" unicode="n" horiz-adv-x="1253" 
d="M645 913q-126 0 -200 -74t-74 -200v-639h-213v1071h213v-170q47 95 141 143t207 48q190 0 287.5 -119t97.5 -314v-659h-211v653q0 125 -62 192.5t-186 67.5z" />
    <glyph glyph-name="o" unicode="o" horiz-adv-x="1253" 
d="M1169 528q0 -237 -153.5 -392.5t-390.5 -155.5q-244 0 -392.5 159t-148.5 404q0 237 153 393t390 156q244 0 393 -159t149 -405zM301 528q0 -79 19.5 -146.5t58.5 -120t102.5 -82t145.5 -29.5q84 0 148 31.5t101.5 86.5t56.5 124t19 149q0 105 -33.5 189t-109 138
t-182.5 54q-84 0 -148.5 -31.5t-102.5 -87.5t-56.5 -125t-18.5 -150z" />
    <glyph glyph-name="p" unicode="p" horiz-adv-x="1310" 
d="M743 -20q-115 0 -217 49.5t-155 142.5v-543h-213v1442h213v-176q52 89 158 143t214 54q119 0 213 -45t152.5 -122.5t88.5 -177.5t30 -215q0 -112 -31.5 -211t-90.5 -175.5t-152.5 -121t-209.5 -44.5zM362 526q0 -166 86 -270t248 -104q86 0 149 31t98 87t51 123.5
t16 149.5q0 76 -19.5 143t-57 120.5t-99 84.5t-140.5 31q-86 0 -151 -31.5t-104 -87t-58 -125.5t-19 -152z" />
    <glyph glyph-name="q" unicode="q" horiz-adv-x="1310" 
d="M940 1071h213v-1442h-213v551q-51 -88 -160 -144t-215 -56q-119 0 -212 43.5t-151 120t-88 175t-30 213.5q0 112 33 213t94.5 178.5t156.5 123t210 45.5q114 0 210.5 -47.5t151.5 -141.5v168zM303 524q0 -74 19 -139.5t55.5 -118.5t97 -83.5t137.5 -30.5q86 0 151.5 31
t105.5 85.5t59.5 124t19.5 152.5q0 168 -80 272.5t-243 104.5q-87 0 -151 -32t-100.5 -88.5t-53.5 -125.5t-17 -152z" />
    <glyph glyph-name="r" unicode="r" horiz-adv-x="792" 
d="M721 891q-175 -6 -262.5 -78t-87.5 -242v-571h-213v1071h213v-197q57 108 142.5 160.5t207.5 55.5v-199z" />
    <glyph glyph-name="s" unicode="s" horiz-adv-x="995" 
d="M918 319q0 -88 -34.5 -155t-93.5 -106t-131.5 -58.5t-156.5 -19.5q-149 0 -266 67.5t-162 200.5l162 71q30 -83 102 -129.5t162 -46.5q42 0 78 7.5t68 24.5t50.5 49t18.5 77q0 40 -21 69t-57 46t-82.5 29.5t-97.5 23.5t-102.5 24t-98 35.5t-82.5 53.5t-57 81.5t-21 116.5
q0 73 35 134t91.5 99t124 58.5t136.5 20.5q133 0 243.5 -61t164.5 -177l-160 -70q-33 71 -100 108.5t-148 37.5q-73 0 -131.5 -35t-58.5 -104q0 -50 34.5 -82t89.5 -48t122 -28t133.5 -31t121.5 -49t89.5 -89.5t34.5 -144.5z" />
    <glyph glyph-name="t" unicode="t" horiz-adv-x="741" 
d="M664 8q-76 -24 -158 -24q-150 0 -228.5 75.5t-78.5 225.5v620h-150v166h150v211l211 92v-303h241v-166h-241v-600q0 -147 129 -147q64 0 125 22v-172z" />
    <glyph glyph-name="u" unicode="u" horiz-adv-x="1245" 
d="M877 170q-45 -94 -136 -142t-202 -48q-188 0 -288.5 109.5t-100.5 299.5v682h210v-663q0 -122 63 -187t185 -65q124 0 196.5 74t72.5 198v643h210v-1071h-210v170z" />
    <glyph glyph-name="v" unicode="v" horiz-adv-x="1107" 
d="M852 1071h213l-381 -1071h-256l-385 1071h229l291 -854z" />
    <glyph glyph-name="w" unicode="w" horiz-adv-x="1677" 
d="M1063 0l-219 760l-232 -760h-223l-340 1071h227l242 -815l242 815h180l234 -815l245 815h211l-344 -1071h-223z" />
    <glyph glyph-name="x" unicode="x" horiz-adv-x="1112" 
d="M815 0l-268 408l-275 -408h-223l379 549l-354 522h245l242 -366l240 366h225l-350 -506l387 -565h-248z" />
    <glyph glyph-name="y" unicode="y" horiz-adv-x="1103" 
d="M850 1071h211l-588 -1442h-211l199 482l-418 960h229l299 -727z" />
    <glyph glyph-name="z" unicode="z" horiz-adv-x="999" 
d="M338 176h604v-176h-903v88l623 811h-566v172h858v-88z" />
    <glyph glyph-name="braceleft" unicode="{" horiz-adv-x="796" 
d="M477 98q0 -135 48.5 -187.5t183.5 -53.5v-158q-106 0 -183 18t-136 60.5t-88.5 117.5t-29.5 183q0 49 7.5 148.5t7.5 148.5q0 107 -50 150.5t-159 43.5v156q108 0 158.5 46t50.5 153q0 49 -7.5 146.5t-7.5 146.5q0 108 29.5 183t88.5 117t136 60t183 18v-159
q-129 0 -180.5 -51.5t-51.5 -180.5q0 -51 7.5 -152.5t7.5 -152.5q0 -102 -42.5 -165t-138.5 -87q97 -24 139 -86t42 -164q0 -50 -7.5 -149.5t-7.5 -149.5z" />
    <glyph glyph-name="bar" unicode="|" horiz-adv-x="524" 
d="M180 1589h164v-1892h-164v1892z" />
    <glyph glyph-name="braceright" unicode="}" horiz-adv-x="796" 
d="M524 80q0 -109 -29 -184.5t-87.5 -118t-135.5 -60.5t-184 -18v158q131 2 181 52.5t50 180.5q0 51 -7 152.5t-7 152.5q0 103 42 165.5t138 86.5q-180 45 -180 250q0 50 7 149.5t7 149.5q0 137 -47.5 188.5t-183.5 51.5v159q101 0 176.5 -17.5t136 -57.5t92 -112.5
t31.5 -176.5q0 -52 -7 -155.5t-7 -155.5q0 -107 50 -151t159 -44v-156q-109 0 -159 -46t-50 -154q0 -48 7 -144.5t7 -144.5z" />
    <glyph glyph-name="asciitilde" unicode="~" horiz-adv-x="944" 
d="M334 559q-41 0 -64 -31t-30 -75h-156q4 54 19 103t41.5 93t71 70t101.5 26q51 0 109.5 -25.5t107 -51t76.5 -25.5q41 0 65 31.5t27 75.5h158q-3 -52 -18 -101.5t-41.5 -93.5t-70.5 -71t-99 -27q-52 0 -111.5 25.5t-109 51t-76.5 25.5z" />
    <glyph glyph-name="uni00A0" unicode="&#xa0;" horiz-adv-x="534" 
 />
    <glyph glyph-name="exclamdown" unicode="&#xa1;" horiz-adv-x="634" 
d="M467 1094q0 -63 -43.5 -105.5t-106.5 -42.5q-62 0 -105.5 43.5t-43.5 104.5t44 103t105 42q62 0 106 -41.5t44 -103.5zM231 799h168l35 -1037h-237z" />
    <glyph glyph-name="cent" unicode="&#xa2;" horiz-adv-x="1171" 
d="M1106 315q-57 -144 -166 -231t-260 -100v-260h-129v260q-224 23 -345.5 175t-121.5 382q0 215 127.5 367.5t339.5 178.5v201h129v-201q301 -24 420 -303l-172 -73q-69 180 -248 207v-768q204 35 266 233zM299 524q0 -68 13.5 -127t42.5 -110t79 -86.5t117 -48.5v763
q-69 -14 -119.5 -52.5t-78.5 -93t-41 -115.5t-13 -130z" />
    <glyph glyph-name="sterling" unicode="&#xa3;" horiz-adv-x="1249" 
d="M1169 252q-39 -123 -130.5 -196.5t-217.5 -73.5q-56 0 -119.5 19.5t-111 42.5t-106 42.5t-105.5 19.5q-52 0 -87.5 -27.5t-39.5 -78.5h-182q9 100 64.5 175t148.5 99q22 61 22 123q0 76 -41 236h-172v151h127q-35 154 -35 267q0 99 38 181t103.5 136.5t151.5 84.5t182 30
q172 0 286 -79.5t179 -240.5l-192 -84q-33 100 -102 162t-168 62q-113 0 -179.5 -72t-66.5 -187q0 -110 28 -260h422v-151h-389q27 -132 27 -238q0 -60 -27 -129q11 -3 130.5 -50.5t180.5 -47.5q76 0 128.5 43t76.5 117z" />
    <glyph glyph-name="yen" unicode="&#xa5;" horiz-adv-x="1196" 
d="M1065 305h-342v-305h-225v305h-342v125h342v148h-342v124h311l-418 762h250l319 -626l306 626h221l-393 -762h313v-124h-342v-148h342v-125z" />
    <glyph glyph-name="brokenbar" unicode="&#xa6;" horiz-adv-x="536" 
d="M180 1589h164v-835h-164v835zM180 610h164v-913h-164v913z" />
    <glyph glyph-name="section" unicode="&#xa7;" horiz-adv-x="1157" 
d="M958 59q0 -101 -56.5 -180.5t-144.5 -119.5t-188 -40q-144 0 -256.5 63.5t-144.5 192.5l160 70q24 -79 88.5 -119.5t150.5 -40.5q85 0 137 41t52 123q0 46 -23 80.5t-61.5 55.5t-88.5 38t-105 31.5t-110 31.5t-105 43.5t-88.5 61.5t-61.5 90.5t-23 126.5q0 104 62 174.5
t167 102.5q-118 84 -118 256q0 101 56.5 180.5t144 120.5t186.5 41q293 0 385 -248l-158 -70q-27 73 -87 112.5t-138 39.5q-86 0 -136.5 -41t-50.5 -125q0 -46 23 -80.5t61.5 -55.5t88.5 -37.5t105 -31t110 -31t105 -43t88.5 -61.5t61.5 -91t23 -128q0 -100 -63 -172
t-162 -105q114 -85 114 -256zM297 629q0 -32 15.5 -60t44.5 -49t60.5 -38t75 -30.5t75 -22.5t72.5 -19t58 -15q80 20 121 62t41 121q0 31 -15.5 58.5t-45.5 48t-61.5 36.5t-76 29.5t-75.5 21.5t-73 17.5t-56 13.5q-70 -13 -115 -58.5t-45 -115.5z" />
    <glyph glyph-name="dieresis" unicode="&#xa8;" horiz-adv-x="843" 
d="M723 1397q0 -50 -36.5 -85.5t-86.5 -35.5q-51 0 -87 35t-36 86t36 86t87 35q50 0 86.5 -35.5t36.5 -85.5zM367 1397q0 -51 -36 -86t-87 -35q-50 0 -86.5 35.5t-36.5 85.5t36.5 85.5t86.5 35.5q51 0 87 -35t36 -86z" />
    <glyph glyph-name="copyright" unicode="&#xa9;" horiz-adv-x="1728" 
d="M1624 735q0 -209 -101.5 -383.5t-276.5 -274.5t-384 -100q-208 0 -382 99.5t-275 273t-101 381.5t102 382t277 274t383 100t382 -99t275 -272t101 -381zM209 731q0 -182 84.5 -334t235 -240.5t333.5 -88.5q184 0 335 89t236 242t85 336t-84.5 335t-234.5 239.5t-333 87.5
q-184 0 -335 -88t-236.5 -241t-85.5 -337zM1233 551q-40 -115 -134.5 -175.5t-219.5 -60.5q-199 0 -300.5 111.5t-101.5 312.5q0 178 111.5 294t288.5 116q262 0 352 -219l-142 -60q-54 140 -204 140q-60 0 -104.5 -24t-69 -65.5t-36 -90t-11.5 -105.5q0 -117 55 -192.5
t168 -75.5q159 0 209 153z" />
    <glyph glyph-name="ordfeminine" unicode="&#xaa;" horiz-adv-x="911" 
d="M623 715q-92 -123 -263 -123q-128 0 -208 65.5t-80 190.5q0 55 19.5 98t48 70.5t76 47.5t87.5 30t99 15t94.5 6t89.5 1h35v12q0 101 -39 153t-138 52q-135 0 -184 -119l-149 66q84 203 344 203q164 0 262 -78t98 -238v-557h-192v105zM268 856q0 -65 36 -92t104 -27
q90 0 151.5 43.5t61.5 130.5v84h-105q-248 0 -248 -139z" />
    <glyph glyph-name="guillemotleft" unicode="&#xab;" horiz-adv-x="1046" 
d="M940 905l-254 -370l254 -371h-182l-264 371l264 370h182zM567 905l-254 -370l254 -371h-182l-264 371l264 370h182z" />
    <glyph glyph-name="registered" unicode="&#xae;" horiz-adv-x="1079" 
d="M997 1030q0 -191 -133.5 -321.5t-324.5 -130.5q-123 0 -228 59.5t-167 163t-62 227.5q0 189 134 322t323 133q124 0 229.5 -60t167 -164t61.5 -229zM166 1028q0 -162 105.5 -269.5t267.5 -107.5t268 108.5t106 270.5q0 167 -104 273t-270 106q-165 0 -269 -108t-104 -273
zM530 981h-43v-170h-108v449h164q78 0 127 -32t49 -106q0 -91 -90 -123l116 -188h-112zM487 1178v-125h52q73 0 73 63q0 62 -73 62h-52z" />
    <glyph glyph-name="macron" unicode="&#xaf;" horiz-adv-x="843" 
d="M143 1458h557v-147h-557v147z" />
    <glyph glyph-name="degree" unicode="&#xb0;" horiz-adv-x="909" 
d="M795 1149q0 -135 -101 -231.5t-237 -96.5q-137 0 -239.5 96t-102.5 232q0 138 101.5 236t240.5 98q138 0 238 -98t100 -236zM266 1149q0 -87 52.5 -146t138.5 -59q83 0 132.5 59.5t49.5 145.5q0 88 -48.5 148.5t-133.5 60.5q-88 0 -139.5 -60t-51.5 -149z" />
    <glyph glyph-name="plusminus" unicode="&#xb1;" horiz-adv-x="1110" 
d="M1024 690h-379v-366h-180v366h-379v168h379v367h180v-367h379v-168zM86 164h938v-164h-938v164z" />
    <glyph glyph-name="twosuperior" unicode="&#xb2;" horiz-adv-x="638" 
d="M289 872h286v-122h-548v41l262 260q117 113 117 200q0 46 -24.5 71.5t-70.5 25.5q-52 0 -90.5 -33.5t-56.5 -85.5l-117 51q27 93 99 143t171 50q112 0 182 -54t70 -162q0 -44 -18 -88.5t-53.5 -87.5t-65.5 -73.5t-77 -73.5t-66 -62z" />
    <glyph glyph-name="threesuperior" unicode="&#xb3;" horiz-adv-x="684" 
d="M616 956q0 -58 -24 -102t-65 -68.5t-89 -36.5t-104 -12q-97 0 -174.5 46.5t-106.5 134.5l127 53q12 -49 54.5 -81t93.5 -32q54 0 86 25t32 78q0 30 -10 50t-22 30.5t-37.5 15.5t-41 5.5t-47.5 0.5h-14v106h10q29 0 44.5 0.5t40 5.5t37 14.5t22.5 28.5t10 46
q0 44 -26.5 67t-71.5 23q-50 0 -87.5 -28.5t-55.5 -76.5l-121 56q30 83 102 125.5t164 42.5q47 0 91 -11t81 -33t59.5 -60.5t22.5 -88.5q0 -115 -121 -156q66 -14 103.5 -57.5t37.5 -110.5z" />
    <glyph glyph-name="acute" unicode="&#xb4;" horiz-adv-x="843" 
d="M451 1552h245l-213 -309h-155z" />
    <glyph glyph-name="paragraph" unicode="&#xb6;" horiz-adv-x="1212" 
d="M874 1346h-163v-1551h-142v905q-97 0 -178.5 19.5t-149.5 62t-106.5 117t-38.5 176.5q0 97 35 172.5t96.5 122t141.5 70.5t174 24h475v-1669h-144v1551z" />
    <glyph glyph-name="periodcentered" unicode="&#xb7;" horiz-adv-x="610" 
d="M453 670q0 -62 -43.5 -105t-104.5 -43q-63 0 -106 42.5t-43 105.5t43 105t106 42q62 0 105 -43t43 -104z" />
    <glyph glyph-name="cedilla" unicode="&#xb8;" horiz-adv-x="837" 
d="M647 -272q0 -85 -64.5 -128.5t-152.5 -43.5q-73 0 -131 32.5t-80 96.5l100 41q12 -28 42.5 -46t62.5 -18q33 0 55.5 19.5t22.5 52.5q0 30 -21 48.5t-51 18.5q-27 0 -59 -18l-70 63l88 154h117l-60 -104q86 8 143.5 -37.5t57.5 -130.5z" />
    <glyph glyph-name="onesuperior" unicode="&#xb9;" horiz-adv-x="522" 
d="M248 1464h145v-714h-168v553l-166 -97v142z" />
    <glyph glyph-name="ordmasculine" unicode="&#xba;" horiz-adv-x="1046" 
d="M963 1047q0 -201 -120.5 -328t-320.5 -127q-191 0 -314.5 122.5t-123.5 313.5q0 200 120.5 327.5t319.5 127.5q191 0 315 -122.5t124 -313.5zM287 1044q0 -130 56.5 -213t180.5 -83q80 0 135 40.5t78 102.5t23 141q0 61 -12.5 112t-39 93.5t-73.5 67t-111 24.5
q-119 0 -178 -80.5t-59 -204.5z" />
    <glyph glyph-name="guillemotright" unicode="&#xbb;" horiz-adv-x="1046" 
d="M662 905l264 -370l-264 -371h-183l254 371l-254 370h183zM291 905l262 -370l-262 -371h-182l251 371l-251 370h182z" />
    <glyph glyph-name="onequarter" unicode="&#xbc;" horiz-adv-x="1439" 
d="M1169 1464h148l-1061 -1464h-147zM242 1464h145v-714h-168v553l-166 -91v142zM1393 145h-95v-145h-157v145h-359v60l314 510h202v-453h95v-117zM1143 594l-195 -332h195v332z" />
    <glyph glyph-name="onehalf" unicode="&#xbd;" horiz-adv-x="1443" 
d="M1143 1464h147l-1061 -1464h-147zM242 1464h145v-714h-168v553l-166 -91v142zM1096 123h286v-123h-546v61l262 242q116 103 116 201q0 94 -94 94q-57 0 -89.5 -30.5t-51.5 -88.5l-121 51q57 193 268 193q110 0 180 -53.5t70 -161.5q0 -39 -14.5 -79t-32.5 -69.5
t-53.5 -68t-57.5 -59t-65 -58.5t-57 -51z" />
    <glyph glyph-name="threequarters" unicode="&#xbe;" horiz-adv-x="1449" 
d="M606 956q0 -58 -24 -102t-65 -68.5t-89 -36.5t-104 -12q-104 0 -179 42.5t-98 135.5l119 52q29 -109 147 -109q54 0 88.5 25.5t34.5 77.5q0 30 -10 50t-22.5 30.5t-38 15.5t-41 5.5t-46.5 0.5h-14v106h10q29 0 44.5 0.5t40 5.5t37 14.5t22.5 28.5t10 46q0 44 -28.5 67
t-73.5 23q-53 0 -86 -24.5t-52 -74.5l-116 52q28 85 96.5 125.5t163.5 40.5q47 0 91 -11t81 -33t59.5 -60.5t22.5 -88.5q0 -115 -121 -156q66 -14 103.5 -57.5t37.5 -110.5zM1239 1464h147l-1060 -1464h-148zM1397 145h-94v-145h-158v145h-359v60l314 510h203v-453h94v-117z
M1147 594l-195 -332h195v332z" />
    <glyph glyph-name="questiondown" unicode="&#xbf;" horiz-adv-x="1071" 
d="M737 1092q0 -61 -43.5 -104.5t-105.5 -43.5t-106 43.5t-44 104.5q0 62 44 103.5t106 41.5t105.5 -41.5t43.5 -103.5zM991 82q-56 -159 -181 -249.5t-292 -90.5q-180 0 -296 89.5t-116 264.5q0 66 27 126t68 103.5t89.5 91t90.5 89t72 97t34 114.5v53v27h193
q0 -92 -2 -109q-10 -79 -50 -150t-89.5 -123t-98 -101t-81.5 -102.5t-33 -107.5q0 -188 198 -188q102 0 186 68t119 168z" />
    <glyph glyph-name="Agrave" unicode="&#xc0;" horiz-adv-x="1411" 
d="M446 1841h250l111 -268h-158zM999 356h-602l-118 -356h-216l496 1464h301l488 -1464h-232zM698 1276l-245 -748h489z" />
    <glyph glyph-name="Aacute" unicode="&#xc1;" horiz-adv-x="1411" 
d="M731 1841h248l-203 -268h-158zM999 356h-602l-118 -356h-216l496 1464h301l488 -1464h-232zM698 1276l-245 -748h489z" />
    <glyph glyph-name="Acircumflex" unicode="&#xc2;" horiz-adv-x="1411" 
d="M866 1573l-164 117l-161 -117h-152l225 268h187l219 -268h-154zM999 356h-602l-118 -356h-216l496 1464h301l488 -1464h-232zM698 1276l-245 -748h489z" />
    <glyph glyph-name="Atilde" unicode="&#xc3;" horiz-adv-x="1411" 
d="M594 1663q-31 0 -51 -26.5t-27 -61.5h-141q10 102 66 178t151 76q38 0 80 -21t79.5 -42t65.5 -21q31 0 51 26t27 60h141q-5 -46 -20 -89t-41 -80.5t-66 -60t-88 -22.5q-51 0 -124 42t-103 42zM999 356h-602l-118 -356h-216l496 1464h301l488 -1464h-232zM698 1276
l-245 -748h489z" />
    <glyph glyph-name="Adieresis" unicode="&#xc4;" horiz-adv-x="1411" 
d="M614 1724q0 -51 -35.5 -86.5t-86.5 -35.5q-50 0 -86.5 36.5t-36.5 85.5q0 50 36.5 85.5t86.5 35.5q51 0 86.5 -35t35.5 -86zM1038 1724q0 -51 -36 -86.5t-87 -35.5q-50 0 -85 36t-35 86t35.5 85.5t84.5 35.5q51 0 87 -35t36 -86zM999 356h-602l-118 -356h-216l496 1464
h301l488 -1464h-232zM698 1276l-245 -748h489z" />
    <glyph glyph-name="Aring" unicode="&#xc5;" horiz-adv-x="1411" 
d="M930 1765q0 -90 -67.5 -153.5t-157.5 -63.5t-157 63.5t-67 153.5t66.5 155t157.5 65q92 0 158.5 -64.5t66.5 -155.5zM600 1765q0 -46 29.5 -80t75.5 -34t76 33.5t30 80.5q0 48 -29 82.5t-77 34.5t-76.5 -34.5t-28.5 -82.5zM999 356h-602l-118 -356h-216l496 1464h301
l488 -1464h-232zM698 1276l-245 -748h489z" />
    <glyph glyph-name="AE" unicode="&#xc6;" horiz-adv-x="1968" 
d="M967 342h-521l-167 -342h-228l737 1464h1063v-182h-655v-446h526v-179h-526v-475h692v-182h-921v342zM909 1282l-381 -770h439v770h-58z" />
    <glyph glyph-name="Ccedilla" unicode="&#xc7;" horiz-adv-x="1503" 
d="M995 -272q0 -86 -64 -128t-153 -42q-87 0 -147.5 46t-67.5 130h123q6 -32 30 -52t56 -20q33 0 55.5 19.5t22.5 52.5q0 30 -21 48.5t-51 18.5t-59 -16l-70 61l78 138q-154 12 -274.5 74t-196.5 162t-115 229t-39 280q0 156 49 294t138 241t222 163t292 60
q207 0 374.5 -106.5t239.5 -295.5l-186 -81q-59 140 -165.5 220.5t-252.5 80.5q-118 0 -210.5 -47.5t-148 -128.5t-84 -181t-28.5 -213q0 -126 29 -228t88.5 -179t157 -118.5t227.5 -41.5q148 0 262.5 88.5t167.5 232.5l180 -77q-72 -197 -236.5 -313t-373.5 -117l-49 -86
q85 11 142.5 -36t57.5 -132z" />
    <glyph glyph-name="Egrave" unicode="&#xc8;" horiz-adv-x="1220" 
d="M414 1841h250l110 -268h-158zM403 182h736v-182h-963v1464h928v-182h-701v-446h572v-179h-572v-475z" />
    <glyph glyph-name="Eacute" unicode="&#xc9;" horiz-adv-x="1191" 
d="M662 1841h247l-202 -268h-158zM403 182h709v-182h-936v1464h901v-182h-674v-446h545v-179h-545v-475z" />
    <glyph glyph-name="Ecircumflex" unicode="&#xca;" horiz-adv-x="1220" 
d="M784 1573l-163 117l-162 -117h-152l225 268h187l219 -268h-154zM403 182h736v-182h-963v1464h928v-182h-701v-446h572v-179h-572v-475z" />
    <glyph glyph-name="Edieresis" unicode="&#xcb;" horiz-adv-x="1220" 
d="M958 1724q0 -50 -36 -86t-86 -36t-86.5 36.5t-36.5 85.5q0 50 36.5 85.5t86.5 35.5t86 -36t36 -85zM535 1724q0 -49 -36.5 -85.5t-86.5 -36.5t-86.5 36.5t-36.5 85.5q0 50 36.5 85.5t86.5 35.5t86.5 -36t36.5 -85zM403 182h736v-182h-963v1464h928v-182h-701v-446h572
v-179h-572v-475z" />
    <glyph glyph-name="Igrave" unicode="&#xcc;" horiz-adv-x="600" 
d="M31 1841h250l110 -268h-158zM184 1464h232v-1464h-232v1464z" />
    <glyph glyph-name="Iacute" unicode="&#xcd;" horiz-adv-x="600" 
d="M319 1841h248l-202 -268h-158zM184 1464h232v-1464h-232v1464z" />
    <glyph glyph-name="Icircumflex" unicode="&#xce;" horiz-adv-x="600" 
d="M459 1573l-162 117l-164 -117h-149l223 268h186l221 -268h-155zM184 1464h232v-1464h-232v1464z" />
    <glyph glyph-name="Idieresis" unicode="&#xcf;" horiz-adv-x="600" 
d="M633 1724q0 -51 -36 -86.5t-87 -35.5t-87 35.5t-36 86.5t36 86t87 35t87 -35t36 -86zM209 1724q0 -51 -36 -86.5t-87 -35.5t-87 35.5t-36 86.5t36 86t87 35t87 -35t36 -86zM184 1464h232v-1464h-232v1464z" />
    <glyph glyph-name="Eth" unicode="&#xd0;" horiz-adv-x="1531" 
d="M1425 745q0 -358 -197.5 -551.5t-555.5 -193.5h-457v651h-147v168h147v645h459q347 0 549 -187t202 -532zM444 651v-469h222q256 0 388 144t132 403q0 553 -522 553h-220v-463h385v-168h-385z" />
    <glyph glyph-name="Ntilde" unicode="&#xd1;" horiz-adv-x="1525" 
d="M670 1663q-31 0 -52 -27t-26 -61h-141q6 64 29.5 119t72 95t113.5 40q48 0 121.5 -42t103.5 -42q31 0 52 26.5t26 59.5h141q-5 -47 -20 -90t-41 -80t-66 -59.5t-88 -22.5q-39 0 -82 21t-80.5 42t-62.5 21zM1104 0l-717 1184v-1184h-211v1464h283l680 -1128v1128h213
v-1464h-248z" />
    <glyph glyph-name="Ograve" unicode="&#xd2;" horiz-adv-x="1665" 
d="M563 1841h248l113 -268h-160zM1563 745q0 -217 -87.5 -390t-254.5 -274t-385 -101q-212 0 -380 96.5t-261 266t-93 380.5q0 215 90 387.5t257.5 272.5t384.5 100q211 0 377.5 -95t259 -263.5t92.5 -379.5zM340 741q0 -91 20 -175.5t61 -157t99.5 -126.5t140 -85
t177.5 -31q119 0 213.5 45.5t152.5 123.5t88.5 178.5t30.5 215.5q0 117 -30 218.5t-88.5 181t-154 125.5t-216.5 46q-120 0 -215 -44t-155.5 -121t-92 -177.5t-31.5 -216.5z" />
    <glyph glyph-name="Oacute" unicode="&#xd3;" horiz-adv-x="1665" 
d="M850 1841h250l-203 -268h-160zM1563 745q0 -217 -87.5 -390t-254.5 -274t-385 -101q-212 0 -380 96.5t-261 266t-93 380.5q0 215 90 387.5t257.5 272.5t384.5 100q211 0 377.5 -95t259 -263.5t92.5 -379.5zM340 741q0 -91 20 -175.5t61 -157t99.5 -126.5t140 -85
t177.5 -31q119 0 213.5 45.5t152.5 123.5t88.5 178.5t30.5 215.5q0 117 -30 218.5t-88.5 181t-154 125.5t-216.5 46q-120 0 -215 -44t-155.5 -121t-92 -177.5t-31.5 -216.5z" />
    <glyph glyph-name="Ocircumflex" unicode="&#xd4;" horiz-adv-x="1665" 
d="M991 1573l-162 117l-163 -117h-150l223 268h187l219 -268h-154zM1563 745q0 -217 -87.5 -390t-254.5 -274t-385 -101q-212 0 -380 96.5t-261 266t-93 380.5q0 215 90 387.5t257.5 272.5t384.5 100q211 0 377.5 -95t259 -263.5t92.5 -379.5zM340 741q0 -91 20 -175.5
t61 -157t99.5 -126.5t140 -85t177.5 -31q119 0 213.5 45.5t152.5 123.5t88.5 178.5t30.5 215.5q0 117 -30 218.5t-88.5 181t-154 125.5t-216.5 46q-120 0 -215 -44t-155.5 -121t-92 -177.5t-31.5 -216.5z" />
    <glyph glyph-name="Otilde" unicode="&#xd5;" horiz-adv-x="1665" 
d="M721 1663q-31 0 -52 -27t-28 -61h-139q4 47 18.5 91t40 81t66 59.5t90.5 22.5q48 0 121.5 -42t103.5 -42q31 0 51 26t27 60h141q-5 -47 -20 -90t-41 -80t-66 -59.5t-88 -22.5q-39 0 -82 21t-80.5 42t-62.5 21zM1563 745q0 -217 -87.5 -390t-254.5 -274t-385 -101
q-212 0 -380 96.5t-261 266t-93 380.5q0 215 90 387.5t257.5 272.5t384.5 100q211 0 377.5 -95t259 -263.5t92.5 -379.5zM340 741q0 -91 20 -175.5t61 -157t99.5 -126.5t140 -85t177.5 -31q119 0 213.5 45.5t152.5 123.5t88.5 178.5t30.5 215.5q0 117 -30 218.5t-88.5 181
t-154 125.5t-216.5 46q-120 0 -215 -44t-155.5 -121t-92 -177.5t-31.5 -216.5z" />
    <glyph glyph-name="Odieresis" unicode="&#xd6;" horiz-adv-x="1665" 
d="M1165 1724q0 -49 -36.5 -85.5t-86.5 -36.5q-51 0 -86.5 35.5t-35.5 86.5t35.5 86t86.5 35q50 0 86.5 -35.5t36.5 -85.5zM741 1724q0 -49 -36.5 -85.5t-86.5 -36.5q-51 0 -86.5 35.5t-35.5 86.5t35.5 86t86.5 35q50 0 86.5 -35.5t36.5 -85.5zM1563 745q0 -217 -87.5 -390
t-254.5 -274t-385 -101q-212 0 -380 96.5t-261 266t-93 380.5q0 215 90 387.5t257.5 272.5t384.5 100q211 0 377.5 -95t259 -263.5t92.5 -379.5zM340 741q0 -91 20 -175.5t61 -157t99.5 -126.5t140 -85t177.5 -31q119 0 213.5 45.5t152.5 123.5t88.5 178.5t30.5 215.5
q0 117 -30 218.5t-88.5 181t-154 125.5t-216.5 46q-120 0 -215 -44t-155.5 -121t-92 -177.5t-31.5 -216.5z" />
    <glyph glyph-name="multiply" unicode="&#xd7;" horiz-adv-x="1005" 
d="M621 684l315 -315l-119 -119l-315 317l-316 -317l-116 119l315 315l-315 315l116 119l316 -317l315 315l117 -119z" />
    <glyph glyph-name="Oslash" unicode="&#xd8;" horiz-adv-x="1665" 
d="M836 -20q-131 0 -255 40.5t-221 120.5l-192 -209l-98 99l194 209q-162 201 -162 483q0 215 90 387.5t257.5 272.5t384.5 100q255 0 444 -140l162 177l98 -99l-158 -172q89 -101 136 -233t47 -271q0 -217 -87.5 -390t-254.5 -274t-385 -101zM340 741q0 -194 76 -335
l727 792q-122 102 -309 102q-120 0 -215.5 -44t-155.5 -120.5t-91.5 -177t-31.5 -217.5zM502 293q133 -127 336 -127q119 0 213.5 45.5t153.5 123.5t89.5 178.5t30.5 215.5q0 219 -90 363z" />
    <glyph glyph-name="Ugrave" unicode="&#xd9;" horiz-adv-x="1454" 
d="M459 1841h248l112 -268h-160zM1292 565q0 -283 -147 -434t-430 -151q-267 0 -409 149t-142 418v917h229v-897q0 -74 8 -131.5t30 -110t58 -86t94 -53.5t136 -20q84 0 145 20.5t98.5 56t60 91t30.5 116t8 140.5v874h231v-899z" />
    <glyph glyph-name="Uacute" unicode="&#xda;" horiz-adv-x="1454" 
d="M745 1841h250l-202 -268h-160zM1292 565q0 -283 -147 -434t-430 -151q-267 0 -409 149t-142 418v917h229v-897q0 -74 8 -131.5t30 -110t58 -86t94 -53.5t136 -20q84 0 145 20.5t98.5 56t60 91t30.5 116t8 140.5v874h231v-899z" />
    <glyph glyph-name="Ucircumflex" unicode="&#xdb;" horiz-adv-x="1454" 
d="M887 1573l-162 117l-164 -117h-149l223 268h186l219 -268h-153zM1292 565q0 -283 -147 -434t-430 -151q-267 0 -409 149t-142 418v917h229v-897q0 -74 8 -131.5t30 -110t58 -86t94 -53.5t136 -20q84 0 145 20.5t98.5 56t60 91t30.5 116t8 140.5v874h231v-899z" />
    <glyph glyph-name="Udieresis" unicode="&#xdc;" horiz-adv-x="1454" 
d="M1061 1724q0 -49 -36.5 -85.5t-86.5 -36.5q-51 0 -87 35.5t-36 86.5t36 86t87 35q50 0 86.5 -35.5t36.5 -85.5zM637 1724q0 -49 -36.5 -85.5t-86.5 -36.5q-51 0 -87 35.5t-36 86.5t36 86t87 35q50 0 86.5 -35.5t36.5 -85.5zM1292 565q0 -283 -147 -434t-430 -151
q-267 0 -409 149t-142 418v917h229v-897q0 -74 8 -131.5t30 -110t58 -86t94 -53.5t136 -20q84 0 145 20.5t98.5 56t60 91t30.5 116t8 140.5v874h231v-899z" />
    <glyph glyph-name="Yacute" unicode="&#xdd;" horiz-adv-x="1245" 
d="M651 1841h250l-203 -268h-159zM1204 1464l-452 -835v-629h-232v629l-479 835h254l348 -647l336 647h225z" />
    <glyph glyph-name="Thorn" unicode="&#xde;" horiz-adv-x="1220" 
d="M625 326h-222v-326h-227v1464h227v-266h218q89 0 165.5 -14t144 -46t115.5 -80.5t75.5 -123t27.5 -168.5q0 -118 -40 -205t-113 -137t-165 -74t-206 -24zM403 1022v-524h224q137 0 217 63.5t80 196.5q0 144 -74.5 204t-222.5 60h-224z" />
    <glyph glyph-name="germandbls" unicode="&#xdf;" 
d="M1149 455q0 -223 -111 -348t-331 -125q-111 0 -191 30l68 152q52 -10 92 -10q254 0 254 290q0 172 -100.5 260.5t-274.5 86.5v172q121 -6 201 60.5t80 184.5q0 108 -60 162.5t-170 54.5q-113 0 -174 -74t-61 -188v-1163h-213v1149q0 195 129 316.5t325 121.5
q87 0 163 -23t134.5 -67.5t92.5 -116t34 -161.5q0 -113 -67.5 -202.5t-175.5 -125.5q158 -39 257 -157.5t99 -278.5z" />
    <glyph glyph-name="agrave" unicode="&#xe0;" horiz-adv-x="1122" 
d="M285 1552h245l123 -309h-155zM764 133q-118 -153 -330 -153q-159 0 -258.5 81t-99.5 236q0 70 26 124.5t62 89.5t99.5 59.5t113 36.5t130 18t122.5 7t117 1h8.5h7.5q0 52 -1.5 82.5t-8 69t-20.5 60.5t-37.5 42.5t-61 29.5t-88.5 9q-88 0 -155.5 -44t-96.5 -126l-172 75
q117 261 442 261q197 0 303.5 -96t106.5 -291v-705h-209v133zM287 303q0 -164 186 -164q119 0 204 60.5t85 175.5v119h-135q-340 0 -340 -191z" />
    <glyph glyph-name="aacute" unicode="&#xe1;" horiz-adv-x="1122" 
d="M598 1552h246l-213 -309h-158zM764 133q-118 -153 -330 -153q-159 0 -258.5 81t-99.5 236q0 70 26 124.5t62 89.5t99.5 59.5t113 36.5t130 18t122.5 7t117 1h8.5h7.5q0 52 -1.5 82.5t-8 69t-20.5 60.5t-37.5 42.5t-61 29.5t-88.5 9q-88 0 -155.5 -44t-96.5 -126l-172 75
q117 261 442 261q197 0 303.5 -96t106.5 -291v-705h-209v133zM287 303q0 -164 186 -164q119 0 204 60.5t85 175.5v119h-135q-340 0 -340 -191z" />
    <glyph glyph-name="acircumflex" unicode="&#xe2;" horiz-adv-x="1122" 
d="M719 1243l-164 146l-164 -146h-147l227 303h176l225 -303h-153zM764 133q-57 -77 -143 -115t-187 -38q-155 0 -256.5 82.5t-101.5 234.5q0 70 26 124.5t63 89.5t101 59.5t114 36.5t130.5 18t123 7t116.5 1h12q0 57 -4 97t-18 79.5t-38 63.5t-66 38.5t-101 14.5
q-83 0 -154 -46.5t-98 -123.5l-174 75q56 131 175 196t269 65q190 0 305 -102.5t115 -289.5v-700h-209v133zM287 303q0 -164 186 -164q72 0 136.5 25.5t108.5 81t44 129.5v119h-135q-340 0 -340 -191z" />
    <glyph glyph-name="atilde" unicode="&#xe3;" horiz-adv-x="1122" 
d="M453 1337q-32 0 -51.5 -25t-26.5 -61h-139q6 64 29 119t71 95t113 40q39 0 80.5 -21t78.5 -42t66 -21q30 0 51.5 28t26.5 60h139q-6 -63 -29.5 -118.5t-71.5 -96.5t-112 -41q-49 0 -121.5 42t-103.5 42zM764 133q-57 -77 -143 -115t-187 -38q-155 0 -256.5 82.5
t-101.5 234.5q0 70 26 124.5t63 89.5t101 59.5t114 36.5t130.5 18t123 7t116.5 1h12q0 57 -4 97t-18 79.5t-38 63.5t-66 38.5t-101 14.5q-83 0 -154 -46.5t-98 -123.5l-174 75q56 131 175 196t269 65q190 0 305 -102.5t115 -289.5v-700h-209v133zM287 303q0 -164 186 -164
q72 0 136.5 25.5t108.5 81t44 129.5v119h-135q-340 0 -340 -191z" />
    <glyph glyph-name="adieresis" unicode="&#xe4;" horiz-adv-x="1122" 
d="M508 1397q0 -51 -36 -86t-87 -35t-87 35t-36 86t36 86t87 35t87 -35t36 -86zM862 1397q0 -51 -36 -86t-87 -35q-50 0 -86.5 35.5t-36.5 85.5t36.5 85.5t86.5 35.5q51 0 87 -35t36 -86zM764 133q-57 -77 -143 -115t-187 -38q-155 0 -256.5 82.5t-101.5 234.5
q0 70 26 124.5t63 89.5t101 59.5t114 36.5t130.5 18t123 7t116.5 1h12q0 57 -4 97t-18 79.5t-38 63.5t-66 38.5t-101 14.5q-83 0 -154 -46.5t-98 -123.5l-174 75q56 131 175 196t269 65q190 0 305 -102.5t115 -289.5v-700h-209v133zM287 303q0 -164 186 -164
q72 0 136.5 25.5t108.5 81t44 129.5v119h-135q-340 0 -340 -191z" />
    <glyph glyph-name="aring" unicode="&#xe5;" horiz-adv-x="1122" 
d="M786 1434q0 -88 -67 -152.5t-156 -64.5q-90 0 -157.5 63.5t-67.5 153.5t67.5 153.5t157.5 63.5q89 0 156 -64.5t67 -152.5zM457 1434q0 -47 30 -81t76 -34q48 0 76.5 33.5t28.5 81.5q0 46 -29.5 80t-75.5 34t-76 -33.5t-30 -80.5zM764 133q-57 -77 -143 -115t-187 -38
q-155 0 -256.5 82.5t-101.5 234.5q0 70 26 124.5t63 89.5t101 59.5t114 36.5t130.5 18t123 7t116.5 1h12q0 57 -4 97t-18 79.5t-38 63.5t-66 38.5t-101 14.5q-83 0 -154 -46.5t-98 -123.5l-174 75q56 131 175 196t269 65q190 0 305 -102.5t115 -289.5v-700h-209v133z
M287 303q0 -164 186 -164q72 0 136.5 25.5t108.5 81t44 129.5v119h-135q-340 0 -340 -191z" />
    <glyph glyph-name="ae" unicode="&#xe6;" horiz-adv-x="1814" 
d="M1733 246q-36 -89 -111.5 -150.5t-164 -88.5t-187.5 -27q-129 0 -237.5 54.5t-172.5 160.5q-75 -114 -177 -164.5t-243 -50.5q-104 0 -184 33t-130 106t-50 178q0 71 26 126.5t62 91t99.5 60.5t113 37.5t130 18.5t123 7t118.5 1h16q0 59 -3 96.5t-15.5 77.5t-35.5 62
t-64.5 36.5t-100.5 14.5q-88 0 -154.5 -44t-95.5 -126l-174 75q119 261 438 261q251 0 338 -170q65 84 158 127t200 43q118 0 211 -41t151 -114t88 -170t30 -212v-61h-768q5 -156 80 -252.5t225 -96.5q97 0 181.5 42.5t123.5 123.5zM1255 930q-122 0 -194 -82t-88 -209h549
q-8 135 -72 213t-195 78zM287 305q0 -166 186 -166q76 0 140 24t107.5 79t43.5 133v119h-143q-38 0 -70 -2t-73.5 -8t-72.5 -19.5t-59.5 -33t-43.5 -52t-15 -74.5z" />
    <glyph glyph-name="ccedilla" unicode="&#xe7;" horiz-adv-x="1167" 
d="M799 -272q0 -86 -63 -128t-152 -42q-88 0 -149 45.5t-68 130.5h125q4 -32 27.5 -52t55.5 -20q33 0 55.5 19.5t22.5 52.5q0 31 -19.5 49t-51.5 18q-31 0 -60 -16l-67 61l77 140q-211 26 -329.5 175.5t-118.5 366.5q0 157 64.5 284.5t187 203.5t280.5 76q337 0 465 -299
l-180 -78q-29 90 -109 147.5t-176 57.5q-104 0 -177 -56t-105.5 -140.5t-32.5 -186.5q0 -81 18 -149t55 -122.5t100.5 -85t148.5 -30.5q112 0 191.5 62.5t119.5 170.5l160 -70q-43 -146 -167 -234.5t-280 -96.5l-47 -86q85 11 142 -36t57 -132z" />
    <glyph glyph-name="egrave" unicode="&#xe8;" horiz-adv-x="1175" 
d="M319 1552h246l125 -309h-158zM1075 240q-137 -260 -461 -260q-243 0 -386.5 151.5t-143.5 396.5q0 118 35.5 220.5t100 179t163.5 120.5t219 44q124 0 220 -42t155 -117t89 -175t30 -221v-45h-795q5 -159 83.5 -253t233.5 -94q192 0 281 170zM602 930q-125 0 -200 -79
t-95 -208h578q-9 137 -79 212t-204 75z" />
    <glyph glyph-name="eacute" unicode="&#xe9;" horiz-adv-x="1175" 
d="M633 1552h246l-213 -309h-156zM1075 240q-137 -260 -461 -260q-243 0 -386.5 151.5t-143.5 396.5q0 118 35.5 220.5t100 179t163.5 120.5t219 44q124 0 220 -42t155 -117t89 -175t30 -221v-45h-795q5 -159 83.5 -253t233.5 -94q192 0 281 170zM602 930q-125 0 -200 -79
t-95 -208h578q-9 137 -79 212t-204 75z" />
    <glyph glyph-name="ecircumflex" unicode="&#xea;" horiz-adv-x="1175" 
d="M760 1243l-162 146l-164 -146h-149l227 303h178l223 -303h-153zM1075 240q-137 -260 -461 -260q-243 0 -386.5 151.5t-143.5 396.5q0 118 35.5 220.5t100 179t163.5 120.5t219 44q124 0 220 -42t155 -117t89 -175t30 -221v-45h-795q5 -159 83.5 -253t233.5 -94
q192 0 281 170zM602 930q-125 0 -200 -79t-95 -208h578q-9 137 -79 212t-204 75z" />
    <glyph glyph-name="edieresis" unicode="&#xeb;" horiz-adv-x="1175" 
d="M537 1397q0 -51 -36 -86t-87 -35t-87 35t-36 86t36 86t87 35t87 -35t36 -86zM891 1397q0 -51 -36 -86t-87 -35q-50 0 -86.5 35.5t-36.5 85.5t36.5 85.5t86.5 35.5q51 0 87 -35t36 -86zM1075 240q-69 -131 -188 -195.5t-273 -64.5q-244 0 -387 157t-143 404
q0 153 63 277.5t182 199t273 74.5q132 0 229.5 -44.5t154 -125.5t83.5 -184t27 -230v-16h-795q3 -156 84 -251.5t233 -95.5q92 0 165 44t116 126zM602 930q-123 0 -200 -80.5t-95 -206.5h578q-6 135 -77.5 211t-205.5 76z" />
    <glyph glyph-name="igrave" unicode="&#xec;" horiz-adv-x="540" 
d="M-10 1552h246l124 -309h-157zM164 1071h211v-1071h-211v1071z" />
    <glyph glyph-name="iacute" unicode="&#xed;" horiz-adv-x="540" 
d="M303 1552h246l-213 -309h-156zM164 1071h211v-1071h-211v1071z" />
    <glyph glyph-name="icircumflex" unicode="&#xee;" horiz-adv-x="540" 
d="M430 1243l-162 146l-164 -146h-149l227 303h178l224 -303h-154zM164 1071h211v-1071h-211v1071z" />
    <glyph glyph-name="idieresis" unicode="&#xef;" horiz-adv-x="540" 
d="M201 1397q0 -51 -36 -86t-87 -35t-87 35t-36 86t36 86t87 35t87 -35t36 -86zM582 1397q0 -51 -36 -86t-87 -35q-49 0 -85 36t-36 85t36 85t85 36q51 0 87 -35t36 -86zM164 1071h211v-1071h-211v1071z" />
    <glyph glyph-name="eth" unicode="&#xf0;" horiz-adv-x="1245" 
d="M1161 545q0 -160 -66.5 -288.5t-191 -202.5t-285.5 -74q-156 0 -278 71.5t-189 196.5t-67 280q0 109 32.5 208.5t92.5 178t153.5 125.5t206.5 47q182 0 291 -135q-80 164 -258 342l-242 -129l-57 105l205 110q-104 91 -254 195h258q74 -43 164 -109l180 97l57 -107
l-139 -74q176 -163 281.5 -367.5t105.5 -424.5v-45zM301 545q0 -82 17.5 -150.5t54.5 -124.5t101 -88t149 -32q106 0 180.5 53t107.5 136t33 187q0 80 -18 149t-54.5 125.5t-99.5 89t-147 32.5q-80 0 -143.5 -30t-102 -82.5t-58.5 -119.5t-20 -145z" />
    <glyph glyph-name="ntilde" unicode="&#xf1;" horiz-adv-x="1239" 
d="M506 1337q-31 0 -51 -26t-27 -60h-139q6 64 29 119t71 95t113 40q48 0 121.5 -42t103.5 -42q31 0 51 26.5t27 61.5h139q-6 -64 -29 -119.5t-71 -96t-113 -40.5q-49 0 -122 42t-103 42zM645 913q-123 0 -198.5 -75.5t-75.5 -198.5v-639h-213v1071h213v-170q48 93 142 142
t204 49q190 0 288.5 -116t98.5 -310v-666h-211v659q0 124 -62.5 189t-185.5 65z" />
    <glyph glyph-name="ograve" unicode="&#xf2;" horiz-adv-x="1245" 
d="M342 1552h246l125 -309h-158zM1163 535q0 -241 -152 -398t-393 -157q-159 0 -283 73t-190.5 199.5t-66.5 284.5q0 240 152 397.5t391 157.5q242 0 392 -156.5t150 -400.5zM297 532q0 -167 81.5 -274.5t242.5 -107.5q82 0 146 31.5t102 85.5t57.5 122.5t19.5 147.5
t-19.5 147t-58 122t-102 85t-145.5 31q-110 0 -185 -55.5t-107 -141t-32 -193.5z" />
    <glyph glyph-name="oacute" unicode="&#xf3;" horiz-adv-x="1245" 
d="M655 1552h246l-213 -309h-156zM1163 535q0 -241 -152 -398t-393 -157q-159 0 -283 73t-190.5 199.5t-66.5 284.5q0 240 152 397.5t391 157.5q242 0 392 -156.5t150 -400.5zM297 532q0 -167 81.5 -274.5t242.5 -107.5q82 0 146 31.5t102 85.5t57.5 122.5t19.5 147.5
t-19.5 147t-58 122t-102 85t-145.5 31q-110 0 -185 -55.5t-107 -141t-32 -193.5z" />
    <glyph glyph-name="ocircumflex" unicode="&#xf4;" horiz-adv-x="1245" 
d="M782 1243l-161 146l-164 -146h-150l228 303h178l223 -303h-154zM1163 535q0 -157 -68.5 -283.5t-193.5 -199t-283 -72.5q-159 0 -283 73t-190.5 199.5t-66.5 284.5q0 240 152 397.5t391 157.5q159 0 283 -72.5t191.5 -199t67.5 -285.5zM297 532q0 -79 19.5 -146.5
t58 -121t101.5 -84t145 -30.5t146 31.5t102 85.5t57.5 122.5t19.5 147.5t-19.5 147t-58 122t-102 85t-145.5 31q-66 0 -120.5 -21t-92 -57t-63 -86t-37 -106.5t-11.5 -119.5z" />
    <glyph glyph-name="otilde" unicode="&#xf5;" horiz-adv-x="1245" 
d="M512 1337q-31 0 -52 -26.5t-26 -59.5h-139q6 64 29 119t71 95t113 40q38 0 80 -21t79.5 -42t65.5 -21q31 0 51 26.5t27 61.5h139q-6 -63 -29.5 -118.5t-71.5 -96.5t-112 -41q-51 0 -124 42t-101 42zM1163 535q0 -241 -152 -398t-393 -157q-159 0 -283 73t-190.5 199.5
t-66.5 284.5q0 240 152 397.5t391 157.5q242 0 392 -156.5t150 -400.5zM297 532q0 -167 81.5 -274.5t242.5 -107.5q82 0 146 31.5t102 85.5t57.5 122.5t19.5 147.5t-19.5 147t-58 122t-102 85t-145.5 31q-110 0 -185 -55.5t-107 -141t-32 -193.5z" />
    <glyph glyph-name="odieresis" unicode="&#xf6;" horiz-adv-x="1245" 
d="M547 1397q0 -51 -36 -86t-87 -35t-87 35t-36 86t36 86t87 35t87 -35t36 -86zM942 1397q0 -51 -36 -86t-87 -35q-50 0 -86.5 35.5t-36.5 85.5t36.5 85.5t86.5 35.5q51 0 87 -35t36 -86zM1163 535q0 -157 -68.5 -283.5t-193.5 -199t-283 -72.5q-159 0 -283 73t-190.5 199.5
t-66.5 284.5q0 240 152 397.5t391 157.5q159 0 283 -72.5t191.5 -199t67.5 -285.5zM297 532q0 -79 19.5 -146.5t58 -121t101.5 -84t145 -30.5t146 31.5t102 85.5t57.5 122.5t19.5 147.5t-19.5 147t-58 122t-102 85t-145.5 31q-66 0 -120.5 -21t-92 -57t-63 -86t-37 -106.5
t-11.5 -119.5z" />
    <glyph glyph-name="divide" unicode="&#xf7;" horiz-adv-x="1085" 
d="M686 1094q0 -60 -41.5 -102t-101.5 -42q-62 0 -104 41.5t-42 102.5t42 102t104 41q60 0 101.5 -41.5t41.5 -101.5zM74 782h938v-166h-938v166zM686 305q0 -60 -41.5 -101.5t-101.5 -41.5t-103 41.5t-43 101.5q0 61 42 102.5t104 41.5q60 0 101.5 -42t41.5 -102z" />
    <glyph glyph-name="oslash" unicode="&#xf8;" horiz-adv-x="1245" 
d="M621 -20q-194 0 -332 106l-150 -162l-92 82l152 166q-123 154 -123 354q0 161 67 289.5t192.5 202.5t287.5 74q190 0 323 -101l137 150l95 -82l-142 -152q64 -74 97.5 -168.5t33.5 -193.5q0 -248 -150 -406.5t-396 -158.5zM295 545q0 -117 45 -219l481 528
q-80 68 -198 68q-158 0 -243 -107.5t-85 -269.5zM412 223q82 -73 211 -73q105 0 180.5 53t111 136.5t35.5 186.5q0 117 -51 228z" />
    <glyph glyph-name="ugrave" unicode="&#xf9;" horiz-adv-x="1245" 
d="M352 1552h246l123 -309h-156zM877 170q-45 -93 -137.5 -141.5t-202.5 -48.5q-185 0 -286 111t-101 298v682h210v-663q0 -122 61.5 -187t182.5 -65q122 0 197.5 75.5t75.5 196.5v643h210v-1071h-210v170z" />
    <glyph glyph-name="uacute" unicode="&#xfa;" horiz-adv-x="1245" 
d="M664 1552h245l-213 -309h-157zM874 170q-45 -93 -137 -141.5t-202 -48.5q-185 0 -286.5 111t-101.5 298v682h211v-663q0 -123 62 -187.5t184 -64.5q121 0 195.5 75.5t74.5 196.5v643h211v-1071h-211v170z" />
    <glyph glyph-name="ucircumflex" unicode="&#xfb;" horiz-adv-x="1245" 
d="M793 1243l-164 146l-164 -146h-148l228 303h176l223 -303h-151zM877 170q-45 -93 -137.5 -141.5t-202.5 -48.5q-185 0 -286 111t-101 298v682h210v-663q0 -122 61.5 -187t182.5 -65q122 0 197.5 75.5t75.5 196.5v643h210v-1071h-210v170z" />
    <glyph glyph-name="udieresis" unicode="&#xfc;" horiz-adv-x="1245" 
d="M952 1397q0 -50 -36.5 -85.5t-86.5 -35.5q-51 0 -86.5 35t-35.5 86t35.5 86t86.5 35q50 0 86.5 -35.5t36.5 -85.5zM555 1397q0 -51 -36 -86t-87 -35q-50 0 -86.5 35.5t-36.5 85.5t36.5 85.5t86.5 35.5q51 0 87 -35t36 -86zM877 170q-45 -93 -137.5 -141.5t-202.5 -48.5
q-185 0 -286 111t-101 298v682h210v-663q0 -122 61.5 -187t182.5 -65q122 0 197.5 75.5t75.5 196.5v643h210v-1071h-210v170z" />
    <glyph glyph-name="yacute" unicode="&#xfd;" horiz-adv-x="1110" 
d="M604 1552h246l-213 -309h-156zM854 1071h211l-588 -1442h-209l197 482l-422 960h229l306 -727z" />
    <glyph glyph-name="thorn" unicode="&#xfe;" horiz-adv-x="1290" 
d="M727 -20q-111 0 -207.5 50t-148.5 142v-543h-213v1946h213v-680q54 90 151.5 143.5t204.5 53.5q114 0 206.5 -43.5t151 -118.5t90 -172.5t31.5 -208.5q0 -115 -29 -215.5t-86 -180.5t-150.5 -126.5t-213.5 -46.5zM362 543q0 -84 17 -152.5t53.5 -123t101 -85t152.5 -30.5
q82 0 142.5 29.5t94.5 82.5t50 118t16 144q0 78 -16.5 145.5t-50.5 125.5t-95 91.5t-143 33.5q-108 0 -182.5 -53t-107 -136t-32.5 -190z" />
    <glyph glyph-name="ydieresis" unicode="&#xff;" horiz-adv-x="1110" 
d="M893 1397q0 -50 -36.5 -85.5t-86.5 -35.5q-51 0 -87 35t-36 86t36 86t87 35q50 0 86.5 -35.5t36.5 -85.5zM496 1397q0 -51 -36 -86t-87 -35q-50 0 -86.5 35.5t-36.5 85.5t36.5 85.5t86.5 35.5q51 0 87 -35t36 -86zM854 1071h211l-588 -1442h-209l197 482l-422 960h229
l306 -727z" />
    <glyph glyph-name="Amacron" unicode="&#x100;" horiz-adv-x="1411" 
d="M420 1753h569v-149h-569v149zM999 356h-602l-118 -356h-216l496 1464h301l488 -1464h-232zM698 1276l-245 -748h489z" />
    <glyph glyph-name="amacron" unicode="&#x101;" horiz-adv-x="1122" 
d="M283 1458h557v-147h-557v147zM764 133q-57 -77 -143 -115t-187 -38q-155 0 -256.5 82.5t-101.5 234.5q0 70 26 124.5t63 89.5t101 59.5t114 36.5t130.5 18t123 7t116.5 1h12q0 57 -4 97t-18 79.5t-38 63.5t-66 38.5t-101 14.5q-83 0 -154 -46.5t-98 -123.5l-174 75
q56 131 175 196t269 65q190 0 305 -102.5t115 -289.5v-700h-209v133zM287 303q0 -164 186 -164q116 0 202.5 62.5t86.5 173.5v119h-135q-340 0 -340 -191z" />
    <glyph glyph-name="Abreve" unicode="&#x102;" horiz-adv-x="1411" 
d="M993 1843q-8 -119 -90 -198.5t-201 -79.5q-120 0 -199 78.5t-85 199.5h155q21 -123 129 -123q56 0 92.5 33.5t45.5 89.5h153zM999 356h-602l-118 -356h-216l496 1464h301l488 -1464h-232zM698 1276l-245 -748h489z" />
    <glyph glyph-name="abreve" unicode="&#x103;" horiz-adv-x="1122" 
d="M850 1536q-6 -121 -88 -202t-203 -81q-120 0 -198.5 81t-86.5 202h156q8 -58 40.5 -91.5t88.5 -33.5q58 0 94 33.5t45 91.5h152zM764 133q-57 -77 -143 -115t-187 -38q-155 0 -256.5 82.5t-101.5 234.5q0 70 26 124.5t63 89.5t101 59.5t114 36.5t130.5 18t123 7t116.5 1
h12q0 57 -4 97t-18 79.5t-38 63.5t-66 38.5t-101 14.5q-83 0 -154 -46.5t-98 -123.5l-174 75q56 131 175 196t269 65q190 0 305 -102.5t115 -289.5v-700h-209v133zM287 303q0 -164 186 -164q116 0 202.5 62.5t86.5 173.5v119h-135q-340 0 -340 -191z" />
    <glyph glyph-name="Aogonek" unicode="&#x104;" horiz-adv-x="1411" 
d="M1348 -346q-68 -27 -144 -27q-89 0 -155 40.5t-66 123.5q0 68 46.5 120.5t115.5 88.5h-29l-117 356h-602l-118 -356h-216l496 1464h301l486 -1458q-60 -11 -114 -61.5t-54 -108.5q0 -33 19.5 -51t53.5 -18q60 0 97 18v-131zM698 1276l-245 -748h489z" />
    <glyph glyph-name="aogonek" unicode="&#x105;" horiz-adv-x="1157" 
d="M1001 -346q-67 -27 -143 -27q-88 0 -153.5 41t-65.5 123q0 68 46.5 121t117.5 88h-39v133q-56 -75 -143.5 -113t-186.5 -38q-157 0 -257.5 81t-100.5 234q0 70 26 124.5t63 89.5t101 59.5t114 36.5t130.5 18t123 7t116.5 1h12q0 58 -4 97t-17 79.5t-37 64t-66 38
t-101 14.5q-84 0 -152.5 -46t-97.5 -124l-172 75q56 131 172 196t266 65q190 0 305 -102.5t115 -289.5v-690q-6 -4 -26 -18.5t-29 -21t-26 -21t-25.5 -25t-18.5 -25.5t-14.5 -31.5t-4.5 -33.5q0 -33 21.5 -51.5t54.5 -18.5q54 0 96 19v-129zM287 303q0 -164 186 -164
q72 0 136.5 25.5t108.5 81t44 129.5v119h-135q-340 0 -340 -191z" />
    <glyph glyph-name="Cacute" unicode="&#x106;" horiz-adv-x="1509" 
d="M733 1841h248l-203 -268h-157zM1434 410q-70 -197 -239 -313.5t-380 -116.5q-227 0 -390 97.5t-243 267t-80 394.5q0 153 50.5 289.5t140.5 238t222.5 161t287.5 59.5q206 0 374 -107t240 -295l-186 -81q-56 138 -165 219.5t-253 81.5q-97 0 -176.5 -32t-133 -87
t-90.5 -129.5t-54 -157.5t-17 -174q0 -114 30 -213.5t87.5 -177.5t151 -123t212.5 -45q148 0 262.5 90t167.5 233z" />
    <glyph glyph-name="cacute" unicode="&#x107;" horiz-adv-x="1171" 
d="M561 1552h246l-213 -309h-156zM1098 307q-56 -159 -185.5 -243t-302.5 -84q-246 0 -386 156t-140 405q0 154 66.5 279.5t189 198.5t276.5 73q165 0 289 -75t187 -224l-181 -78q-32 93 -114 149t-181 56q-80 0 -142.5 -33.5t-99 -91t-55 -126t-18.5 -145.5
q0 -105 33.5 -187.5t108 -134.5t180.5 -52q108 0 188 63t115 168z" />
    <glyph glyph-name="Ccircumflex" unicode="&#x108;" horiz-adv-x="1509" 
d="M932 1573l-162 117l-164 -117h-149l223 268h186l219 -268h-153zM1434 410q-70 -197 -239 -313.5t-380 -116.5q-227 0 -390 97.5t-243 267t-80 394.5q0 153 50.5 289.5t140.5 238t222.5 161t287.5 59.5q206 0 374 -107t240 -295l-186 -81q-56 138 -165 219.5t-253 81.5
q-97 0 -176.5 -32t-133 -87t-90.5 -129.5t-54 -157.5t-17 -174q0 -114 30 -213.5t87.5 -177.5t151 -123t212.5 -45q148 0 262.5 90t167.5 233z" />
    <glyph glyph-name="ccircumflex" unicode="&#x109;" horiz-adv-x="1171" 
d="M748 1243l-164 146l-164 -146h-148l228 303h176l225 -303h-153zM1098 307q-56 -159 -185.5 -243t-302.5 -84q-246 0 -386 156t-140 405q0 154 66.5 279.5t189 198.5t276.5 73q165 0 289 -75t187 -224l-181 -78q-32 93 -114 149t-181 56q-80 0 -142.5 -33.5t-99 -91
t-55 -126t-18.5 -145.5q0 -105 33.5 -187.5t108 -134.5t180.5 -52q108 0 188 63t115 168z" />
    <glyph glyph-name="Cdotaccent" unicode="&#x10a;" horiz-adv-x="1509" 
d="M899 1726q0 -52 -38 -89.5t-91 -37.5t-92 37t-39 90t39 90t92 37t91 -37.5t38 -89.5zM1434 410q-70 -197 -239 -313.5t-380 -116.5q-227 0 -390 97.5t-243 267t-80 394.5q0 153 50.5 289.5t140.5 238t222.5 161t287.5 59.5q206 0 374 -107t240 -295l-186 -81
q-56 138 -165 219.5t-253 81.5q-97 0 -176.5 -32t-133 -87t-90.5 -129.5t-54 -157.5t-17 -174q0 -114 30 -213.5t87.5 -177.5t151 -123t212.5 -45q148 0 262.5 90t167.5 233z" />
    <glyph glyph-name="cdotaccent" unicode="&#x10b;" horiz-adv-x="1171" 
d="M717 1399q0 -54 -38.5 -90.5t-92.5 -36.5q-53 0 -91 37.5t-38 89.5t38 89.5t91 37.5q54 0 92.5 -36.5t38.5 -90.5zM1098 307q-56 -159 -185.5 -243t-302.5 -84q-246 0 -386 156t-140 405q0 154 66.5 279.5t189 198.5t276.5 73q165 0 289 -75t187 -224l-181 -78
q-32 93 -114 149t-181 56q-80 0 -142.5 -33.5t-99 -91t-55 -126t-18.5 -145.5q0 -105 33.5 -187.5t108 -134.5t180.5 -52q108 0 188 63t115 168z" />
    <glyph glyph-name="Ccaron" unicode="&#x10c;" horiz-adv-x="1509" 
d="M936 1841h149l-223 -268h-186l-219 268h153l164 -115zM1434 410q-70 -197 -239 -313.5t-380 -116.5q-227 0 -390 97.5t-243 267t-80 394.5q0 153 50.5 289.5t140.5 238t222.5 161t287.5 59.5q206 0 374 -107t240 -295l-186 -81q-56 138 -165 219.5t-253 81.5
q-97 0 -176.5 -32t-133 -87t-90.5 -129.5t-54 -157.5t-17 -174q0 -114 30 -213.5t87.5 -177.5t151 -123t212.5 -45q148 0 262.5 90t167.5 233z" />
    <glyph glyph-name="ccaron" unicode="&#x10d;" horiz-adv-x="1171" 
d="M752 1546h149l-227 -303h-178l-224 303h154l162 -145zM1098 307q-56 -159 -185.5 -243t-302.5 -84q-246 0 -386 156t-140 405q0 154 66.5 279.5t189 198.5t276.5 73q165 0 289 -75t187 -224l-181 -78q-32 93 -114 149t-181 56q-80 0 -142.5 -33.5t-99 -91t-55 -126
t-18.5 -145.5q0 -105 33.5 -187.5t108 -134.5t180.5 -52q108 0 188 63t115 168z" />
    <glyph glyph-name="Dcaron" unicode="&#x10e;" horiz-adv-x="1486" 
d="M827 1841h150l-223 -268h-187l-219 268h154l164 -115zM1384 733q0 -351 -200 -542t-553 -191h-455v1464h459q354 0 551.5 -189t197.5 -542zM406 1282v-1100h219q262 0 392 146t130 411q0 543 -524 543h-217z" />
    <glyph glyph-name="dcaron" unicode="&#x10f;" horiz-adv-x="1460" 
d="M928 182q-52 -91 -153 -146.5t-208 -55.5q-152 0 -263 73t-165.5 193t-54.5 270q0 116 32 219t92.5 183t157 127t216.5 47q110 0 201 -48t145 -141v672h211v-1575h-211v182zM1255 1575h209l-98 -358h-133zM303 541q0 -78 16.5 -145t51.5 -123.5t96 -88.5t143 -32
q159 0 241.5 106t82.5 270q0 394 -311 394q-109 0 -183 -53.5t-105.5 -137t-31.5 -190.5z" />
    <glyph glyph-name="Dcroat" unicode="&#x110;" horiz-adv-x="1531" 
d="M1425 745q0 -358 -197.5 -551.5t-555.5 -193.5h-457v651h-147v168h147v645h459q347 0 549 -187t202 -532zM444 651v-469h222q256 0 388 144t132 403q0 553 -522 553h-220v-463h385v-168h-385z" />
    <glyph glyph-name="dcroat" unicode="&#x111;" horiz-adv-x="1298" 
d="M928 182q-52 -91 -153 -146.5t-208 -55.5q-152 0 -263 73t-165.5 193t-54.5 270q0 116 32 219t92.5 183t157 127t216.5 47q110 0 201 -48t145 -141v344h-355v139h355v189h211v-189h145v-139h-145v-1247h-211v182zM303 541q0 -78 16.5 -145t51.5 -123.5t96 -88.5t143 -32
q159 0 241.5 106t82.5 270q0 394 -311 394q-109 0 -183 -53.5t-105.5 -137t-31.5 -190.5z" />
    <glyph glyph-name="Emacron" unicode="&#x112;" horiz-adv-x="1191" 
d="M356 1753h570v-149h-570v149zM403 182h709v-182h-936v1464h901v-182h-674v-446h545v-179h-545v-475z" />
    <glyph glyph-name="emacron" unicode="&#x113;" horiz-adv-x="1175" 
d="M313 1458h555v-147h-555v147zM1073 240q-69 -131 -187 -195.5t-272 -64.5q-240 0 -385 156.5t-145 398.5q0 155 61.5 281t180.5 201t276 75q102 0 184 -28.5t139.5 -79t96 -121.5t56.5 -155.5t18 -181.5v-34h-795q3 -156 84 -251.5t233 -95.5q91 0 164.5 44.5
t114.5 125.5zM602 930q-123 0 -200 -80.5t-95 -206.5h578q-6 135 -77.5 211t-205.5 76z" />
    <glyph glyph-name="Ebreve" unicode="&#x114;" horiz-adv-x="1191" 
d="M940 1843q-8 -119 -90 -198.5t-201 -79.5q-120 0 -199 78.5t-85 199.5h155q20 -123 129 -123q56 0 92 33t45 90h154zM403 182h709v-182h-936v1464h901v-182h-674v-446h545v-179h-545v-475z" />
    <glyph glyph-name="ebreve" unicode="&#x115;" horiz-adv-x="1175" 
d="M877 1536q-8 -120 -89.5 -201.5t-201.5 -81.5t-199.5 81t-85.5 202h156q8 -56 41 -90.5t88 -34.5q116 0 139 125h152zM1075 240q-69 -131 -188 -195.5t-273 -64.5q-244 0 -387 157t-143 404q0 153 63 277.5t182 199t273 74.5q132 0 229.5 -44.5t154 -125.5t83.5 -184
t27 -230v-16h-795q3 -156 84 -251.5t233 -95.5q92 0 165 44t116 126zM602 930q-124 0 -200.5 -79.5t-94.5 -207.5h578q-8 135 -79 211t-204 76z" />
    <glyph glyph-name="Edotaccent" unicode="&#x116;" horiz-adv-x="1191" 
d="M770 1726q0 -52 -38 -89.5t-91 -37.5q-54 0 -92.5 36.5t-38.5 90.5t38.5 90.5t92.5 36.5q53 0 91 -37.5t38 -89.5zM403 182h709v-182h-936v1464h901v-182h-674v-446h545v-179h-545v-475z" />
    <glyph glyph-name="edotaccent" unicode="&#x117;" horiz-adv-x="1175" 
d="M723 1399q0 -53 -39 -90t-92 -37q-54 0 -92.5 36.5t-38.5 90.5t38.5 90.5t92.5 36.5t92.5 -36.5t38.5 -90.5zM1073 240q-69 -131 -187 -195.5t-272 -64.5q-240 0 -385 156.5t-145 398.5q0 155 61.5 281t180.5 201t276 75q102 0 184 -28.5t139.5 -79t96 -121.5
t56.5 -155.5t18 -181.5v-34h-795q3 -156 84 -251.5t233 -95.5q91 0 164.5 44.5t114.5 125.5zM602 930q-123 0 -200 -80.5t-95 -206.5h578q-6 135 -77.5 211t-205.5 76z" />
    <glyph glyph-name="Eogonek" unicode="&#x118;" horiz-adv-x="1220" 
d="M1130 -115q-66 -10 -161 -10q-162 0 -234 55q0 44 58 70h-617v1464h928v-182h-701v-446h572v-179h-572v-475h736v-133h-23q-1 -1 -6 -5t-7 -6t-6.5 -6t-6.5 -7t-4.5 -7t-3.5 -8t-1 -8q0 -20 23 -20q18 0 26 4v-101z" />
    <glyph glyph-name="eogonek" unicode="&#x119;" horiz-adv-x="1175" 
d="M944 -346q-61 -27 -141 -27q-88 0 -153.5 40.5t-65.5 123.5q0 61 42 112.5t103 84.5q-52 -8 -115 -8q-239 0 -384.5 152t-145.5 392q0 159 59 286.5t178.5 204.5t280.5 77q237 0 365.5 -148t128.5 -389v-63h-795q5 -157 84.5 -252t232.5 -95q96 0 177.5 44.5t119.5 127.5
l170 -75q-18 -48 -71.5 -107t-105 -104t-93 -99t-41.5 -98q0 -34 19.5 -52t54.5 -18q54 0 96 19v-129zM602 930q-125 0 -200 -79t-95 -208h578q-9 137 -79 212t-204 75z" />
    <glyph glyph-name="Ecaron" unicode="&#x11a;" horiz-adv-x="1191" 
d="M813 1841h150l-224 -268h-186l-221 268h155l162 -115zM403 182h709v-182h-936v1464h901v-182h-674v-446h545v-179h-545v-475z" />
    <glyph glyph-name="ecaron" unicode="&#x11b;" horiz-adv-x="1175" 
d="M756 1546h149l-227 -303h-176l-226 303h154l164 -145zM1073 240q-69 -131 -187 -195.5t-272 -64.5q-240 0 -385 156.5t-145 398.5q0 155 61.5 281t180.5 201t276 75q102 0 184 -28.5t139.5 -79t96 -121.5t56.5 -155.5t18 -181.5v-34h-795q3 -156 84 -251.5t233 -95.5
q91 0 164.5 44.5t114.5 125.5zM602 930q-123 0 -200 -80.5t-95 -206.5h578q-6 135 -77.5 211t-205.5 76z" />
    <glyph glyph-name="Gcircumflex" unicode="&#x11c;" horiz-adv-x="1568" 
d="M958 1573l-163 117l-162 -117h-152l226 268h186l219 -268h-154zM1466 238q-255 -258 -637 -258q-225 0 -391 96.5t-251 267t-85 395.5q0 213 90.5 383t257 267.5t379.5 97.5q207 0 364 -93t241 -278l-201 -88q-58 133 -161 205t-245 72q-94 0 -174.5 -32.5t-137 -88
t-97 -130t-59.5 -158.5t-19 -173q0 -120 30.5 -221t90 -177.5t156 -119.5t219.5 -43q249 0 415 153v246h-395v180h610v-503z" />
    <glyph glyph-name="gcircumflex" unicode="&#x11d;" horiz-adv-x="1304" 
d="M803 1243l-164 146l-164 -146h-147l227 303h176l223 -303h-151zM1145 76q0 -117 -43 -208.5t-118.5 -147.5t-172 -84.5t-209.5 -28.5q-373 0 -491 260l168 74q40 -87 127 -126.5t194 -39.5q153 0 243.5 78t90.5 229v158q-56 -92 -158 -146.5t-213 -54.5
q-144 0 -254.5 70.5t-167.5 187.5t-57 260t59 264.5t172 196t258 74.5q112 0 209 -48.5t152 -140.5v168h211v-995zM301 557q0 -92 36.5 -171t108.5 -129t166 -50q153 0 240.5 102t87.5 258q0 158 -82.5 256.5t-236.5 98.5q-153 0 -236.5 -104t-83.5 -261z" />
    <glyph glyph-name="Gbreve" unicode="&#x11e;" horiz-adv-x="1568" 
d="M1085 1843q-8 -119 -89.5 -198.5t-200.5 -79.5q-121 0 -200.5 78.5t-84.5 199.5h156q8 -56 41 -89.5t88 -33.5t90.5 33.5t46.5 89.5h153zM1466 238q-255 -258 -637 -258q-225 0 -391 96.5t-251 267t-85 395.5q0 213 90.5 383t257 267.5t379.5 97.5q207 0 364 -93
t241 -278l-201 -88q-58 133 -161 205t-245 72q-94 0 -174.5 -32.5t-137 -88t-97 -130t-59.5 -158.5t-19 -173q0 -120 30.5 -221t90 -177.5t156 -119.5t219.5 -43q249 0 415 153v246h-395v180h610v-503z" />
    <glyph glyph-name="gbreve" unicode="&#x11f;" horiz-adv-x="1304" 
d="M940 1536q-8 -120 -89.5 -201.5t-201.5 -81.5t-199 81t-85 202h155q8 -56 41 -90.5t88 -34.5q59 0 94.5 32.5t44.5 92.5h152zM1145 76q0 -118 -42.5 -209.5t-118 -147t-172 -84t-210.5 -28.5q-373 0 -491 260l168 74q40 -87 127 -126.5t194 -39.5q153 0 243.5 78
t90.5 229v158q-56 -92 -158 -146.5t-213 -54.5q-146 0 -256.5 71.5t-166.5 189.5t-56 263q0 106 35.5 202t98 168.5t155 115.5t200.5 43q114 0 210 -48t151 -141v168h211v-995zM301 553q0 -142 85.5 -244t225.5 -102q154 0 241 103.5t87 260.5q0 155 -83 253t-236 98
q-155 0 -237.5 -105t-82.5 -264z" />
    <glyph glyph-name="Gdotaccent" unicode="&#x120;" horiz-adv-x="1568" 
d="M928 1726q0 -52 -39 -89.5t-92 -37.5t-91 37.5t-38 89.5t38 89.5t91 37.5t92 -37.5t39 -89.5zM1466 238q-255 -258 -637 -258q-225 0 -391 96.5t-251 267t-85 395.5q0 213 90.5 383t257 267.5t379.5 97.5q207 0 364 -93t241 -278l-201 -88q-58 133 -161 205t-245 72
q-94 0 -174.5 -32.5t-137 -88t-97 -130t-59.5 -158.5t-19 -173q0 -120 30.5 -221t90 -177.5t156 -119.5t219.5 -43q249 0 415 153v246h-395v180h610v-503z" />
    <glyph glyph-name="gdotaccent" unicode="&#x121;" horiz-adv-x="1304" 
d="M772 1399q0 -53 -39 -90t-92 -37q-54 0 -92.5 36.5t-38.5 90.5t38.5 90.5t92.5 36.5q53 0 92 -37t39 -90zM1145 76q0 -117 -43 -208.5t-118.5 -147.5t-172 -84.5t-209.5 -28.5q-373 0 -491 260l168 74q40 -87 127 -126.5t194 -39.5q153 0 243.5 78t90.5 229v158
q-56 -92 -158 -146.5t-213 -54.5q-144 0 -254.5 70.5t-167.5 187.5t-57 260t59 264.5t172 196t258 74.5q112 0 209 -48.5t152 -140.5v168h211v-995zM301 557q0 -92 36.5 -171t108.5 -129t166 -50q153 0 240.5 102t87.5 258q0 158 -82.5 256.5t-236.5 98.5
q-153 0 -236.5 -104t-83.5 -261z" />
    <glyph glyph-name="uni0122" unicode="&#x122;" horiz-adv-x="1568" 
d="M1466 238q-255 -258 -637 -258q-225 0 -391 96.5t-251 267t-85 395.5q0 213 90.5 383t257 267.5t379.5 97.5q207 0 364 -93t241 -278l-201 -88q-58 133 -161 205t-245 72q-94 0 -174.5 -32.5t-137 -88t-97 -130t-59.5 -158.5t-19 -173q0 -120 30.5 -221t90 -177.5
t156 -119.5t219.5 -43q249 0 415 153v246h-395v180h610v-503zM737 -72l199 -47l-184 -338l-125 56z" />
    <glyph glyph-name="uni0123" unicode="&#x123;" horiz-adv-x="1304" 
d="M709 1782l125 -53l-154 -406l-197 63zM1145 76q0 -117 -43 -208.5t-118.5 -147.5t-172 -84.5t-209.5 -28.5q-373 0 -491 260l168 74q40 -87 127 -126.5t194 -39.5q153 0 243.5 78t90.5 229v158q-56 -92 -158 -146.5t-213 -54.5q-144 0 -254.5 70.5t-167.5 187.5t-57 260
t59 264.5t172 196t258 74.5q112 0 209 -48.5t152 -140.5v168h211v-995zM301 557q0 -92 36.5 -171t108.5 -129t166 -50q153 0 240.5 102t87.5 258q0 158 -82.5 256.5t-236.5 98.5q-153 0 -236.5 -104t-83.5 -261z" />
    <glyph glyph-name="Hcircumflex" unicode="&#x124;" horiz-adv-x="1538" 
d="M930 1573l-162 117l-164 -117h-149l223 268h186l219 -268h-153zM1135 635h-729v-635h-230v1464h230v-641h729v641h229v-1464h-229v635z" />
    <glyph glyph-name="hcircumflex" unicode="&#x125;" horiz-adv-x="1236" 
d="M801 1677l-164 123l-164 -123h-147l227 281h176l225 -281h-153zM645 913q-123 0 -198.5 -75.5t-75.5 -198.5v-639h-213v1575h213v-674q48 93 142 142t204 49q190 0 287.5 -116t97.5 -310v-666h-211v659q0 123 -61.5 188.5t-184.5 65.5z" />
    <glyph glyph-name="Hbar" unicode="&#x126;" horiz-adv-x="1538" 
d="M1135 635h-729v-635h-230v1022h-139v149h139v293h230v-293h729v293h229v-293h139v-149h-139v-1022h-229v635zM406 1022v-199h729v199h-729z" />
    <glyph glyph-name="hbar" unicode="&#x127;" horiz-adv-x="1236" 
d="M645 913q-123 0 -198.5 -75.5t-75.5 -198.5v-639h-213v1247h-146v139h146v189h213v-189h354v-139h-354v-346q48 93 142 142t204 49q190 0 287.5 -116t97.5 -310v-666h-213v659q0 124 -60.5 189t-183.5 65z" />
    <glyph glyph-name="Itilde" unicode="&#x128;" horiz-adv-x="600" 
d="M193 1663q-31 0 -52 -27t-26 -61h-142q6 64 29.5 119t72 95t113.5 40q48 0 122 -42t104 -42q31 0 52 26.5t26 59.5h141q-5 -47 -20 -90t-41 -80t-66 -59.5t-88 -22.5q-39 0 -82 21t-80.5 42t-62.5 21zM184 1464h232v-1464h-232v1464z" />
    <glyph glyph-name="itilde" unicode="&#x129;" horiz-adv-x="540" 
d="M162 1337q-31 0 -52 -26t-28 -60h-137q8 102 63 178t150 76q48 0 120.5 -42t102.5 -42q31 0 52 27t26 61h139q-5 -64 -28 -119.5t-71.5 -96t-113.5 -40.5q-39 0 -81.5 21t-79.5 42t-62 21zM164 1071h211v-1071h-211v1071z" />
    <glyph glyph-name="Imacron" unicode="&#x12a;" horiz-adv-x="600" 
d="M14 1753h570v-149h-570v149zM184 1464h232v-1464h-232v1464z" />
    <glyph glyph-name="imacron" unicode="&#x12b;" horiz-adv-x="540" 
d="M59 1458h420v-147h-420v147zM164 1071h211v-1071h-211v1071z" />
    <glyph glyph-name="Ibreve" unicode="&#x12c;" horiz-adv-x="600" 
d="M592 1843q-8 -119 -91 -198.5t-202 -79.5q-120 0 -198.5 79t-86.5 199h158q8 -56 40 -89.5t87 -33.5q57 0 92.5 33t46.5 90h154zM184 1464h232v-1464h-232v1464z" />
    <glyph glyph-name="ibreve" unicode="&#x12d;" horiz-adv-x="540" 
d="M559 1536q-8 -120 -89.5 -201.5t-201.5 -81.5q-121 0 -199.5 80.5t-84.5 202.5h155q8 -58 40.5 -91.5t88.5 -33.5q57 0 93 34t47 91h151zM164 1071h211v-1071h-211v1071z" />
    <glyph glyph-name="Iogonek" unicode="&#x12e;" horiz-adv-x="712" 
d="M532 -346q-71 -27 -145 -27q-54 0 -102 15.5t-83.5 54t-35.5 94.5q0 67 47 120t117 89h-19v1464h215v-1435q-13 -10 -43 -29t-46.5 -32t-37 -33t-30 -44.5t-9.5 -54.5q0 -34 20.5 -51.5t55.5 -17.5q56 0 96 18v-131z" />
    <glyph glyph-name="iogonek" unicode="&#x12f;" horiz-adv-x="620" 
d="M467 1399q0 -54 -38.5 -91.5t-92.5 -37.5t-92.5 37.5t-38.5 91.5t38.5 91.5t92.5 37.5t92.5 -37.5t38.5 -91.5zM481 -346q-68 -27 -143 -27q-88 0 -153.5 41t-65.5 123q0 68 46.5 121t117.5 88h-52v1071h213v-1067q-59 -37 -97 -77.5t-38 -92.5q0 -33 21.5 -51.5
t54.5 -18.5q54 0 96 19v-129z" />
    <glyph glyph-name="Idotaccent" unicode="&#x130;" horiz-adv-x="600" 
d="M430 1726q0 -54 -38.5 -90.5t-92.5 -36.5q-53 0 -91 37.5t-38 89.5t38 89.5t91 37.5q54 0 92.5 -36.5t38.5 -90.5zM184 1464h232v-1464h-232v1464z" />
    <glyph glyph-name="dotlessi" unicode="&#x131;" horiz-adv-x="540" 
d="M164 1071h211v-1071h-211v1071z" />
    <glyph glyph-name="IJ" unicode="&#x132;" horiz-adv-x="1409" 
d="M1247 422q0 -208 -111.5 -324t-318.5 -116q-140 0 -217 41v182q95 -39 191 -39q118 0 172.5 71t54.5 193v1034h229v-1042zM184 1464h232v-1464h-232v1464z" />
    <glyph glyph-name="ij" unicode="&#x133;" horiz-adv-x="1079" 
d="M399 1397q0 -54 -39.5 -91.5t-93.5 -37.5t-92.5 37.5t-38.5 91.5t38.5 91.5t92.5 37.5q55 0 94 -37t39 -92zM938 1397q0 -54 -38.5 -91.5t-92.5 -37.5t-92.5 37.5t-38.5 91.5t38.5 91.5t92.5 37.5t92.5 -37.5t38.5 -91.5zM915 -51q0 -176 -92 -254.5t-272 -83.5v170
q76 6 113.5 44.5t37.5 113.5v1132h213v-1122zM164 1071h211v-1071h-211v1071z" />
    <glyph glyph-name="Jcircumflex" unicode="&#x134;" horiz-adv-x="884" 
d="M764 1573l-162 117l-164 -117h-149l223 268h186l222 -268h-156zM725 422q0 -209 -112 -324.5t-320 -115.5q-137 0 -217 41v182q95 -39 190 -39q118 0 173 71t55 193v1034h231v-1042z" />
    <glyph glyph-name="jcircumflex" unicode="&#x135;" horiz-adv-x="540" 
d="M428 1243l-162 146l-164 -146h-149l227 303h178l224 -303h-154zM375 -51q0 -176 -91.5 -254.5t-271.5 -83.5v170q152 12 152 158v1132h211v-1122z" />
    <glyph glyph-name="uni0136" unicode="&#x136;" horiz-adv-x="1316" 
d="M1016 0l-610 696v-696h-230v1464h230v-680l602 682h249l-634 -706l665 -760h-272zM606 -72l199 -47l-184 -338l-125 56z" />
    <glyph glyph-name="uni0137" unicode="&#x137;" horiz-adv-x="1083" 
d="M805 0l-434 539v-539h-213v1575h213v-983l411 479h238l-436 -493l471 -578h-250zM492 -72l198 -47l-184 -338l-125 56z" />
    <glyph glyph-name="Lacute" unicode="&#x139;" horiz-adv-x="1146" 
d="M313 1841h250l-203 -268h-159zM406 184h677v-184h-907v1464h230v-1280z" />
    <glyph glyph-name="lacute" unicode="&#x13a;" horiz-adv-x="540" 
d="M291 1962h246l-205 -283h-156zM164 1499l213 94v-1593h-213v1499z" />
    <glyph glyph-name="uni013B" unicode="&#x13b;" horiz-adv-x="1146" 
d="M406 184h677v-184h-907v1464h230v-1280zM543 -72l196 -47l-182 -338l-127 56z" />
    <glyph glyph-name="uni013C" unicode="&#x13c;" horiz-adv-x="540" 
d="M164 1499l213 94v-1593h-213v1499zM197 -72l198 -47l-184 -338l-125 56z" />
    <glyph glyph-name="Lcaron" unicode="&#x13d;" horiz-adv-x="1146" 
d="M406 184h677v-184h-907v1464h230v-1280zM672 1464h215l-119 -329h-139z" />
    <glyph glyph-name="lcaron" unicode="&#x13e;" horiz-adv-x="540" 
d="M164 1499l213 94v-1593h-213v1499zM494 1575h208l-98 -358h-133z" />
    <glyph glyph-name="Ldot" unicode="&#x13f;" horiz-adv-x="1159" 
d="M406 184h677v-184h-907v1464h230v-1280zM1008 795q0 -61 -44 -104.5t-106 -43.5q-61 0 -104 43t-43 105q0 60 43.5 102.5t103.5 42.5q61 0 105.5 -42t44.5 -103z" />
    <glyph glyph-name="ldot" unicode="&#x140;" horiz-adv-x="727" 
d="M164 1499l213 94v-1593h-213v1499zM778 748q0 -61 -43.5 -104.5t-105.5 -43.5q-60 0 -104 44t-44 104t44 103.5t104 43.5q62 0 105.5 -43t43.5 -104z" />
    <glyph glyph-name="Lslash" unicode="&#x141;" horiz-adv-x="1187" 
d="M444 184h680v-184h-909v555l-137 -51v158l137 49v753h229v-671l400 145v-156l-400 -145v-453z" />
    <glyph glyph-name="lslash" unicode="&#x142;" horiz-adv-x="589" 
d="M559 899l-158 -86v-813h-213v696l-149 -82v164l149 82v639l213 94v-618l158 88v-164z" />
    <glyph glyph-name="Nacute" unicode="&#x143;" horiz-adv-x="1525" 
d="M801 1841h248l-203 -268h-158zM1104 0l-717 1184v-1184h-211v1464h283l680 -1128v1128h213v-1464h-248z" />
    <glyph glyph-name="nacute" unicode="&#x144;" horiz-adv-x="1239" 
d="M649 1552h246l-213 -309h-156zM645 913q-123 0 -198.5 -75.5t-75.5 -198.5v-639h-213v1071h213v-170q48 93 142 142t204 49q190 0 288.5 -116t98.5 -310v-666h-211v659q0 124 -62.5 189t-185.5 65z" />
    <glyph glyph-name="uni0145" unicode="&#x145;" horiz-adv-x="1525" 
d="M1104 0l-717 1184v-1184h-211v1464h283l680 -1128v1128h213v-1464h-248zM662 -72l196 -47l-182 -338l-127 56z" />
    <glyph glyph-name="uni0146" unicode="&#x146;" horiz-adv-x="1239" 
d="M645 913q-123 0 -198.5 -75.5t-75.5 -198.5v-639h-213v1071h213v-170q48 93 142 142t204 49q190 0 288.5 -116t98.5 -310v-666h-211v659q0 124 -62.5 189t-185.5 65zM543 -72l196 -47l-182 -338l-127 56z" />
    <glyph glyph-name="Ncaron" unicode="&#x147;" horiz-adv-x="1525" 
d="M944 1841h152l-226 -268h-186l-219 268h153l164 -115zM1104 0l-717 1184v-1184h-211v1464h283l680 -1128v1128h213v-1464h-248z" />
    <glyph glyph-name="ncaron" unicode="&#x148;" horiz-adv-x="1239" 
d="M782 1546h148l-228 -303h-176l-223 303h152l163 -145zM645 913q-123 0 -198.5 -75.5t-75.5 -198.5v-639h-213v1071h213v-170q48 93 142 142t204 49q190 0 288.5 -116t98.5 -310v-666h-211v659q0 124 -62.5 189t-185.5 65z" />
    <glyph glyph-name="napostrophe" unicode="&#x149;" horiz-adv-x="1290" 
d="M94 1487l195 -80l-248 -434l-125 59zM696 913q-123 0 -198.5 -75.5t-75.5 -198.5v-639h-213v1071h213v-170q48 93 142 142t204 49q190 0 288.5 -116t98.5 -310v-666h-211v659q0 124 -62.5 189t-185.5 65z" />
    <glyph glyph-name="Eng" unicode="&#x14a;" horiz-adv-x="1505" 
d="M1331 27q0 -198 -113 -310t-311 -112q-138 0 -215 41v180q85 -39 187 -39q103 0 161.5 57.5t63.5 161.5l-715 1186v-1192h-213v1464h283l657 -1095v1095h215v-1437z" />
    <glyph glyph-name="eng" unicode="&#x14b;" horiz-adv-x="1239" 
d="M1092 -51q0 -176 -92.5 -254.5t-272.5 -83.5v170q152 9 152 158v720q0 125 -54.5 189.5t-177.5 64.5q-124 0 -200 -75t-76 -199v-639h-213v1071h213v-170q47 93 142.5 142t205.5 49q97 0 170 -31.5t116.5 -89.5t65 -134t21.5 -171v-717z" />
    <glyph glyph-name="Omacron" unicode="&#x14c;" horiz-adv-x="1665" 
d="M547 1753h569v-149h-569v149zM1563 745q0 -217 -87.5 -390t-254.5 -274t-385 -101q-212 0 -380 96.5t-261 266t-93 380.5q0 215 90 387.5t257.5 272.5t384.5 100q211 0 377.5 -95t259 -263.5t92.5 -379.5zM340 741q0 -91 20 -175.5t61 -157t99.5 -126.5t140 -85
t177.5 -31q119 0 213.5 45.5t152.5 123.5t88.5 178.5t30.5 215.5q0 117 -30 218.5t-88.5 181t-154 125.5t-216.5 46q-120 0 -215 -44t-155.5 -121t-92 -177.5t-31.5 -216.5z" />
    <glyph glyph-name="omacron" unicode="&#x14d;" horiz-adv-x="1245" 
d="M344 1458h555v-147h-555v147zM1163 535q0 -241 -152 -398t-393 -157q-159 0 -283 73t-190.5 199.5t-66.5 284.5q0 240 152 397.5t391 157.5q242 0 392 -156.5t150 -400.5zM297 532q0 -167 81.5 -274.5t242.5 -107.5q82 0 146 31.5t102 85.5t57.5 122.5t19.5 147.5
t-19.5 147t-58 122t-102 85t-145.5 31q-110 0 -185 -55.5t-107 -141t-32 -193.5z" />
    <glyph glyph-name="Obreve" unicode="&#x14e;" horiz-adv-x="1665" 
d="M1118 1843q-6 -120 -88.5 -199t-202.5 -79t-199 78.5t-85 199.5h155q20 -123 129 -123q57 0 93 33t47 90h151zM1563 745q0 -217 -87.5 -390t-254.5 -274t-385 -101q-212 0 -380 96.5t-261 266t-93 380.5q0 215 90 387.5t257.5 272.5t384.5 100q211 0 377.5 -95
t259 -263.5t92.5 -379.5zM340 741q0 -91 20 -175.5t61 -157t99.5 -126.5t140 -85t177.5 -31q119 0 213.5 45.5t152.5 123.5t88.5 178.5t30.5 215.5q0 117 -30 218.5t-88.5 181t-154 125.5t-216.5 46q-120 0 -215 -44t-155.5 -121t-92 -177.5t-31.5 -216.5z" />
    <glyph glyph-name="obreve" unicode="&#x14f;" horiz-adv-x="1245" 
d="M909 1536q-6 -121 -88 -202t-203 -81q-120 0 -198 81t-86 202h155q8 -58 40.5 -91.5t88.5 -33.5q58 0 94.5 33.5t45.5 91.5h151zM1163 535q0 -157 -68.5 -283.5t-193.5 -199t-283 -72.5q-159 0 -283 73t-190.5 199.5t-66.5 284.5q0 240 152 397.5t391 157.5
q159 0 283 -72.5t191.5 -199t67.5 -285.5zM297 532q0 -79 19.5 -146.5t58 -121t101.5 -84t145 -30.5t146 31.5t102 85.5t57.5 122.5t19.5 147.5t-19.5 147t-58 122t-102 85t-145.5 31q-66 0 -120.5 -21t-92 -57t-63 -86t-37 -106.5t-11.5 -119.5z" />
    <glyph glyph-name="Ohungarumlaut" unicode="&#x150;" horiz-adv-x="1665" 
d="M987 1841h219l-147 -268h-150zM653 1841h221l-149 -268h-147zM1563 745q0 -217 -87.5 -390t-254.5 -274t-385 -101q-212 0 -380 96.5t-261 266t-93 380.5q0 215 90 387.5t257.5 272.5t384.5 100q211 0 377.5 -95t259 -263.5t92.5 -379.5zM340 741q0 -91 20 -175.5
t61 -157t99.5 -126.5t140 -85t177.5 -31q119 0 213.5 45.5t152.5 123.5t88.5 178.5t30.5 215.5q0 117 -30 218.5t-88.5 181t-154 125.5t-216.5 46q-120 0 -215 -44t-155.5 -121t-92 -177.5t-31.5 -216.5z" />
    <glyph glyph-name="ohungarumlaut" unicode="&#x151;" horiz-adv-x="1245" 
d="M782 1552h215l-153 -309h-144zM459 1552h213l-154 -309h-143zM1163 535q0 -241 -152 -398t-393 -157q-159 0 -283 73t-190.5 199.5t-66.5 284.5q0 240 152 397.5t391 157.5q242 0 392 -156.5t150 -400.5zM297 532q0 -167 81.5 -274.5t242.5 -107.5q82 0 146 31.5
t102 85.5t57.5 122.5t19.5 147.5t-19.5 147t-58 122t-102 85t-145.5 31q-110 0 -185 -55.5t-107 -141t-32 -193.5z" />
    <glyph glyph-name="OE" unicode="&#x152;" horiz-adv-x="2000" 
d="M1225 182h696v-182h-1069q-347 0 -548.5 187t-201.5 532q0 356 198.5 550.5t555.5 194.5h1028v-182h-659v-446h530v-179h-530v-475zM340 735q0 -553 524 -553h131v1100h-133q-258 0 -390 -143.5t-132 -403.5z" />
    <glyph glyph-name="oe" unicode="&#x153;" horiz-adv-x="2033" 
d="M1942 240q-57 -130 -185.5 -195t-281.5 -65q-137 0 -250.5 59t-177.5 174q-66 -114 -178 -173.5t-248 -59.5q-235 0 -386 155t-151 391q0 246 148 406t391 160q136 0 249 -60.5t177 -175.5q62 114 169.5 175t239.5 61q159 0 272.5 -70t168.5 -189.5t55 -277.5v-63h-797
q6 -158 87 -252.5t235 -94.5q97 0 181 41t122 121zM1458 930q-123 0 -199 -80t-96 -207h578q-8 136 -78.5 211.5t-204.5 75.5zM301 545q0 -82 17.5 -150.5t54.5 -124.5t101 -88t149 -32q106 0 180.5 53t107.5 136t33 187q0 81 -18 150t-54.5 125t-100.5 88.5t-148 32.5
q-80 0 -143 -30.5t-101.5 -83t-58 -119.5t-19.5 -144z" />
    <glyph glyph-name="Racute" unicode="&#x154;" horiz-adv-x="1349" 
d="M670 1841h250l-203 -268h-160zM637 612h-234v-612h-227v1464h502q85 0 160.5 -13.5t144 -44.5t118 -78.5t78.5 -120t29 -163.5q0 -164 -89 -265.5t-253 -137.5l428 -641h-250zM403 1284v-502h281q66 0 118 13t93 41.5t63.5 78t22.5 117.5q0 141 -75.5 196.5t-221.5 55.5
h-281z" />
    <glyph glyph-name="racute" unicode="&#x155;" horiz-adv-x="792" 
d="M465 1552h246l-213 -309h-156zM721 891q-175 -5 -262.5 -77t-87.5 -243v-571h-213v1071h213v-197q57 108 142.5 160.5t207.5 55.5v-199z" />
    <glyph glyph-name="uni0156" unicode="&#x156;" horiz-adv-x="1349" 
d="M637 612h-234v-612h-227v1464h502q85 0 160.5 -13.5t144 -44.5t118 -78.5t78.5 -120t29 -163.5q0 -164 -89 -265.5t-253 -137.5l428 -641h-250zM403 1284v-502h281q66 0 118 13t93 41.5t63.5 78t22.5 117.5q0 141 -75.5 196.5t-221.5 55.5h-281zM588 -72l198 -47
l-184 -338l-125 56z" />
    <glyph glyph-name="uni0157" unicode="&#x157;" horiz-adv-x="792" 
d="M721 891q-175 -5 -262.5 -77t-87.5 -243v-571h-213v1071h213v-197q57 108 142.5 160.5t207.5 55.5v-199zM188 -72l197 -47l-182 -338l-127 56z" />
    <glyph glyph-name="Rcaron" unicode="&#x158;" horiz-adv-x="1349" 
d="M815 1841h150l-224 -268h-186l-221 268h155l162 -115zM637 612h-234v-612h-227v1464h502q85 0 160.5 -13.5t144 -44.5t118 -78.5t78.5 -120t29 -163.5q0 -164 -89 -265.5t-253 -137.5l428 -641h-250zM403 1284v-502h281q66 0 118 13t93 41.5t63.5 78t22.5 117.5
q0 141 -75.5 196.5t-221.5 55.5h-281z" />
    <glyph glyph-name="rcaron" unicode="&#x159;" horiz-adv-x="792" 
d="M598 1546h147l-227 -303h-176l-223 303h151l164 -145zM721 891q-175 -5 -262.5 -77t-87.5 -243v-571h-213v1071h213v-197q57 108 142.5 160.5t207.5 55.5v-199z" />
    <glyph glyph-name="Sacute" unicode="&#x15a;" horiz-adv-x="1286" 
d="M600 1841h250l-203 -268h-160zM1176 424q0 -102 -45.5 -188t-120.5 -141t-168 -85t-191 -30q-439 0 -563 380l195 86q41 -135 135.5 -212.5t232.5 -77.5q120 0 211.5 66.5t91.5 183.5q0 65 -28.5 110t-76.5 70.5t-110.5 42t-131.5 29.5t-137.5 28t-131 43t-110.5 69
t-76.5 111t-28.5 164q0 95 42.5 174.5t113 130t157.5 78t178 27.5q181 0 317.5 -83.5t205.5 -246.5l-183 -80q-47 108 -136 171t-204 63q-53 0 -100.5 -11.5t-88 -35.5t-64 -66.5t-23.5 -99.5q0 -64 28.5 -108.5t77 -69.5t111.5 -41.5t132.5 -29t139 -28t132.5 -44
t111.5 -70.5t77 -113t28.5 -166z" />
    <glyph glyph-name="sacute" unicode="&#x15b;" horiz-adv-x="993" 
d="M465 1552h246l-213 -309h-156zM918 319q0 -88 -34.5 -155t-93.5 -106t-131.5 -58.5t-156.5 -19.5q-149 0 -266 67.5t-162 200.5l162 71q30 -83 102 -129.5t162 -46.5q42 0 78 7.5t68 24.5t50.5 49t18.5 77q0 40 -21 69t-57 46t-82.5 29.5t-97.5 23.5t-102.5 24t-98 35.5
t-82.5 53.5t-57 81.5t-21 116.5q0 73 35 134t91.5 99t124 58.5t136.5 20.5q133 0 243.5 -61t164.5 -177l-160 -70q-33 71 -100 108.5t-148 37.5q-73 0 -131.5 -35t-58.5 -104q0 -50 34.5 -82t89.5 -48t122 -28t133.5 -31t121.5 -49t89.5 -89.5t34.5 -144.5z" />
    <glyph glyph-name="Scircumflex" unicode="&#x15c;" horiz-adv-x="1286" 
d="M799 1573l-162 117l-164 -117h-149l223 268h186l221 -268h-155zM1176 424q0 -102 -45.5 -188t-120.5 -141t-168 -85t-191 -30q-439 0 -563 380l195 86q41 -135 135.5 -212.5t232.5 -77.5q120 0 211.5 66.5t91.5 183.5q0 65 -28.5 110t-76.5 70.5t-110.5 42t-131.5 29.5
t-137.5 28t-131 43t-110.5 69t-76.5 111t-28.5 164q0 95 42.5 174.5t113 130t157.5 78t178 27.5q181 0 317.5 -83.5t205.5 -246.5l-183 -80q-47 108 -136 171t-204 63q-53 0 -100.5 -11.5t-88 -35.5t-64 -66.5t-23.5 -99.5q0 -64 28.5 -108.5t77 -69.5t111.5 -41.5
t132.5 -29t139 -28t132.5 -44t111.5 -70.5t77 -113t28.5 -166z" />
    <glyph glyph-name="scircumflex" unicode="&#x15d;" horiz-adv-x="993" 
d="M655 1243l-163 146l-164 -146h-148l228 303h176l225 -303h-154zM918 319q0 -88 -34.5 -155t-93.5 -106t-131.5 -58.5t-156.5 -19.5q-149 0 -266 67.5t-162 200.5l162 71q30 -83 102 -129.5t162 -46.5q42 0 78 7.5t68 24.5t50.5 49t18.5 77q0 40 -21 69t-57 46t-82.5 29.5
t-97.5 23.5t-102.5 24t-98 35.5t-82.5 53.5t-57 81.5t-21 116.5q0 73 35 134t91.5 99t124 58.5t136.5 20.5q133 0 243.5 -61t164.5 -177l-160 -70q-33 71 -100 108.5t-148 37.5q-73 0 -131.5 -35t-58.5 -104q0 -50 34.5 -82t89.5 -48t122 -28t133.5 -31t121.5 -49
t89.5 -89.5t34.5 -144.5z" />
    <glyph glyph-name="Scedilla" unicode="&#x15e;" horiz-adv-x="1286" 
d="M842 -272q0 -84 -63.5 -128t-151.5 -44q-80 0 -138.5 36.5t-72.5 110.5l110 25q9 -29 35 -47.5t57 -18.5q33 0 55.5 19.5t22.5 52.5q0 29 -20.5 48t-50.5 19q-28 0 -60 -18l-67 63l77 138q-373 27 -487 376l195 86q41 -135 135.5 -212.5t232.5 -77.5q76 0 143.5 27.5
t113.5 86t46 136.5q0 65 -28.5 110t-76.5 70.5t-110.5 42t-131.5 29.5t-137.5 28t-131 43t-110.5 69t-76.5 111t-28.5 164q0 95 43 174t113.5 129.5t157.5 78.5t177 28q181 0 317.5 -83.5t205.5 -246.5l-183 -80q-47 108 -136 171t-204 63q-53 0 -100.5 -11.5t-88 -35.5
t-64 -66.5t-23.5 -99.5q0 -63 28.5 -107.5t77 -69.5t111 -41.5t132 -30t139 -29.5t132 -44.5t111 -69.5t77 -111.5t28.5 -164.5q0 -98 -41 -180.5t-110 -137.5t-155 -87.5t-180 -38.5h2l-47 -86q85 9 142 -36.5t57 -131.5z" />
    <glyph glyph-name="scedilla" unicode="&#x15f;" horiz-adv-x="993" 
d="M698 -272q0 -83 -64 -126.5t-151 -43.5q-80 0 -138.5 36t-72.5 109l111 25q9 -29 35 -47.5t57 -18.5q33 0 55.5 19.5t22.5 52.5q0 31 -20 49t-52 18q-27 0 -59 -18l-68 63l78 138h2q-128 13 -224 80t-136 184l162 71q30 -83 102 -129.5t162 -46.5q42 0 78 7.5t68 24.5
t50.5 49t18.5 77q0 40 -21 69t-57 46t-82.5 29.5t-97.5 23.5t-102.5 24t-98 35.5t-82.5 53.5t-57 81.5t-21 116.5q0 73 35 134t91.5 99t124 58.5t136.5 20.5q133 0 243.5 -61t164.5 -177l-160 -70q-33 71 -100 108.5t-148 37.5q-73 0 -131.5 -35t-58.5 -104q0 -50 34.5 -82
t89.5 -48t122 -28t133.5 -31t121.5 -49t89.5 -89.5t34.5 -144.5q0 -81 -29.5 -144.5t-81.5 -103t-117.5 -62t-144.5 -27.5h2l-47 -86q85 9 141.5 -36.5t56.5 -131.5z" />
    <glyph glyph-name="Scaron" unicode="&#x160;" horiz-adv-x="1292" 
d="M791 1841h151l-225 -268h-187l-219 268h154l164 -115zM1182 424q0 -104 -45 -190t-119.5 -140.5t-167.5 -84t-193 -29.5q-104 0 -193 20t-166.5 63t-132 118.5t-77.5 178.5l186 82q68 -286 383 -286q122 0 213 66.5t91 183.5q0 67 -28.5 114t-76.5 72.5t-110 42.5
t-131 29t-138 26.5t-131 41.5t-110 67t-76.5 110t-28.5 164q0 98 42.5 177.5t112.5 129.5t157 76.5t180 26.5q183 0 315 -82.5t205 -247.5l-182 -80q-108 234 -338 234q-53 0 -100.5 -11.5t-88 -35.5t-64.5 -66.5t-24 -99.5q0 -65 28.5 -110t77 -68.5t111 -39t132 -27.5
t139 -26.5t132 -42.5t111 -70t77 -114.5t28.5 -171.5z" />
    <glyph glyph-name="scaron" unicode="&#x161;" horiz-adv-x="995" 
d="M659 1546h150l-227 -303h-179l-223 303h154l162 -145zM918 319q0 -88 -34.5 -155t-93.5 -106t-131.5 -58.5t-156.5 -19.5q-149 0 -266 67.5t-162 200.5l162 71q30 -83 102 -129.5t162 -46.5q42 0 78 7.5t68 24.5t50.5 49t18.5 77q0 40 -21 69t-57 46t-82.5 29.5
t-97.5 23.5t-102.5 24t-98 35.5t-82.5 53.5t-57 81.5t-21 116.5q0 73 35 134t91.5 99t124 58.5t136.5 20.5q133 0 243.5 -61t164.5 -177l-160 -70q-33 71 -100 108.5t-148 37.5q-73 0 -131.5 -35t-58.5 -104q0 -50 34.5 -82t89.5 -48t122 -28t133.5 -31t121.5 -49
t89.5 -89.5t34.5 -144.5z" />
    <glyph glyph-name="Tcaron" unicode="&#x164;" horiz-adv-x="1173" 
d="M750 1841h151l-225 -268h-187l-219 268h154l164 -115zM1118 1282h-416v-1282h-231v1282h-416v182h1063v-182z" />
    <glyph glyph-name="tcaron" unicode="&#x165;" horiz-adv-x="741" 
d="M569 1575h209l-98 -358h-135zM664 8q-68 -24 -158 -24q-146 0 -226.5 78t-80.5 223v620h-150v166h150v211l211 92v-303h241v-166h-241v-600q0 -147 129 -147q71 0 125 22v-172z" />
    <glyph glyph-name="Tbar" unicode="&#x166;" horiz-adv-x="1173" 
d="M991 666h-289v-666h-231v666h-289v163h289v453h-416v182h1063v-182h-416v-453h289v-163z" />
    <glyph glyph-name="tbar" unicode="&#x167;" horiz-adv-x="741" 
d="M664 8q-76 -24 -158 -24q-53 0 -96 9.5t-74 24t-55 40t-39 50t-24.5 62.5t-14 68t-6 76.5t-1 77.5t1.5 81.5t1 79.5h-150v139h150v213h-150v166h150v211l211 92v-303h241v-166h-241v-213h241v-139h-241v-248q0 -147 129 -147q71 0 125 22v-172z" />
    <glyph glyph-name="Utilde" unicode="&#x168;" horiz-adv-x="1454" 
d="M616 1663q-31 0 -51.5 -27t-27.5 -61h-140q4 47 18.5 91t40 81t66 59.5t90.5 22.5q48 0 122 -42t104 -42q31 0 50.5 25.5t26.5 60.5h142q-5 -47 -20 -90t-41 -80t-66 -59.5t-88 -22.5q-39 0 -82 21t-81 42t-63 21zM1292 565q0 -283 -147 -434t-430 -151q-267 0 -409 149
t-142 418v917h229v-897q0 -74 8 -131.5t30 -110t58 -86t94 -53.5t136 -20q84 0 145 20.5t98.5 56t60 91t30.5 116t8 140.5v874h231v-899z" />
    <glyph glyph-name="utilde" unicode="&#x169;" horiz-adv-x="1245" 
d="M520 1337q-31 0 -51 -26t-27 -60h-139q6 64 29 119t71 95t113 40q48 0 121.5 -42t103.5 -42q31 0 51 26.5t27 61.5h139q-6 -64 -29 -119.5t-71 -96t-113 -40.5q-49 0 -122 42t-103 42zM877 170q-45 -93 -137.5 -141.5t-202.5 -48.5q-185 0 -286 111t-101 298v682h210
v-663q0 -122 61.5 -187t182.5 -65q122 0 197.5 75.5t75.5 196.5v643h210v-1071h-210v170z" />
    <glyph glyph-name="Umacron" unicode="&#x16a;" horiz-adv-x="1454" 
d="M442 1753h570v-149h-570v149zM1292 565q0 -283 -147 -434t-430 -151q-267 0 -409 149t-142 418v917h229v-897q0 -74 8 -131.5t30 -110t58 -86t94 -53.5t136 -20q84 0 145 20.5t98.5 56t60 91t30.5 116t8 140.5v874h231v-899z" />
    <glyph glyph-name="umacron" unicode="&#x16b;" horiz-adv-x="1245" 
d="M352 1458h557v-147h-557v147zM877 170q-45 -93 -137.5 -141.5t-202.5 -48.5q-185 0 -286 111t-101 298v682h210v-663q0 -122 61.5 -187t182.5 -65q122 0 197.5 75.5t75.5 196.5v643h210v-1071h-210v170z" />
    <glyph glyph-name="Ubreve" unicode="&#x16c;" horiz-adv-x="1454" 
d="M1014 1843q-6 -120 -88.5 -199t-202.5 -79t-199.5 78.5t-85.5 199.5h156q20 -123 129 -123q57 0 92.5 33t46.5 90h152zM1292 565q0 -283 -147 -434t-430 -151q-267 0 -409 149t-142 418v917h229v-897q0 -74 8 -131.5t30 -110t58 -86t94 -53.5t136 -20q84 0 145 20.5
t98.5 56t60 91t30.5 116t8 140.5v874h231v-899z" />
    <glyph glyph-name="ubreve" unicode="&#x16d;" horiz-adv-x="1245" 
d="M918 1536q-6 -121 -88 -202t-203 -81t-199 80.5t-84 202.5h154q21 -125 129 -125q59 0 94.5 33t46.5 92h150zM877 170q-45 -93 -137.5 -141.5t-202.5 -48.5q-185 0 -286 111t-101 298v682h210v-663q0 -122 61.5 -187t182.5 -65q122 0 197.5 75.5t75.5 196.5v643h210
v-1071h-210v170z" />
    <glyph glyph-name="Uring" unicode="&#x16e;" horiz-adv-x="1454" 
d="M950 1724q0 -90 -66.5 -153.5t-156.5 -63.5t-157.5 63.5t-67.5 153.5q0 91 66.5 155.5t158.5 64.5q91 0 157 -65t66 -155zM621 1724q0 -47 30 -80.5t76 -33.5t75 34t29 80t-29.5 81.5t-74.5 35.5q-48 0 -77 -34.5t-29 -82.5zM1292 565q0 -283 -147 -434t-430 -151
q-267 0 -409 149t-142 418v917h229v-897q0 -74 8 -131.5t30 -110t58 -86t94 -53.5t136 -20q84 0 145 20.5t98.5 56t60 91t30.5 116t8 140.5v874h231v-899z" />
    <glyph glyph-name="uring" unicode="&#x16f;" horiz-adv-x="1245" 
d="M850 1376q0 -91 -66.5 -155t-158.5 -64q-91 0 -157.5 64.5t-66.5 154.5t67 153.5t157 63.5t157.5 -63.5t67.5 -153.5zM520 1376q0 -46 29.5 -81t75.5 -35q48 0 77 34t29 82q0 47 -30 81t-76 34t-75.5 -34.5t-29.5 -80.5zM877 170q-45 -93 -137.5 -141.5t-202.5 -48.5
q-185 0 -286 111t-101 298v682h210v-663q0 -122 61.5 -187t182.5 -65q122 0 197.5 75.5t75.5 196.5v643h210v-1071h-210v170z" />
    <glyph glyph-name="Uhungarumlaut" unicode="&#x170;" horiz-adv-x="1454" 
d="M883 1841h219l-148 -268h-149zM549 1841h221l-149 -268h-148zM1292 565q0 -283 -147 -434t-430 -151q-267 0 -409 149t-142 418v917h229v-897q0 -74 8 -131.5t30 -110t58 -86t94 -53.5t136 -20q84 0 145 20.5t98.5 56t60 91t30.5 116t8 140.5v874h231v-899z" />
    <glyph glyph-name="uhungarumlaut" unicode="&#x171;" horiz-adv-x="1245" 
d="M793 1552h213l-154 -309h-143zM467 1552h213l-154 -309h-143zM877 170q-45 -93 -137.5 -141.5t-202.5 -48.5q-185 0 -286 111t-101 298v682h210v-663q0 -122 61.5 -187t182.5 -65q122 0 197.5 75.5t75.5 196.5v643h210v-1071h-210v170z" />
    <glyph glyph-name="Uogonek" unicode="&#x172;" horiz-adv-x="1454" 
d="M948 -346q-61 -27 -145 -27q-89 0 -155 40.5t-66 123.5q0 57 36.5 105.5t92.5 83.5q-267 1 -407 149.5t-140 417.5v917h229v-897q0 -74 8 -131.5t30 -110t58 -86t94 -53.5t136 -20q83 0 144 21t98.5 56.5t60.5 91t31 115.5t8 140v874h231v-899q0 -100 -17.5 -182
t-47.5 -136.5t-68.5 -98t-81.5 -71t-86 -50t-81.5 -41.5t-68.5 -39t-47.5 -47.5t-17.5 -63.5q0 -33 20.5 -51t53.5 -18q58 0 98 18v-131z" />
    <glyph glyph-name="uogonek" unicode="&#x173;" horiz-adv-x="1245" 
d="M1094 -346q-68 -27 -144 -27q-88 0 -153.5 41t-65.5 123q0 39 17 72.5t48 59t60.5 43t67.5 34.5h-47v170q-45 -94 -134 -141t-200 -47q-189 0 -291 108.5t-102 298.5v682h210v-663q0 -123 64.5 -187.5t187.5 -64.5q122 0 193.5 75t71.5 197v643h210v-1057
q-6 -5 -36 -25.5t-46 -33.5t-38.5 -34t-33.5 -42t-11 -43q0 -32 21 -52t54 -20q55 0 97 19v-129z" />
    <glyph glyph-name="Wcircumflex" unicode="&#x174;" horiz-adv-x="1990" 
d="M1167 1573l-163 117l-162 -117h-152l225 268h187l219 -268h-154zM1323 0l-324 1108l-331 -1108h-213l-394 1464h234l293 -1132l325 1132h185l325 -1136l295 1136h213l-387 -1464h-221z" />
    <glyph glyph-name="wcircumflex" unicode="&#x175;" horiz-adv-x="1675" 
d="M1014 1243l-164 146l-164 -146h-147l227 303h176l223 -303h-151zM1061 0l-217 760l-234 -760h-221l-340 1071h227l240 -815l244 815h178l233 -815l244 815h211l-342 -1071h-223z" />
    <glyph glyph-name="Ycircumflex" unicode="&#x176;" horiz-adv-x="1245" 
d="M793 1573l-162 117l-164 -117h-150l224 268h186l219 -268h-153zM1204 1464l-452 -835v-629h-232v629l-479 835h254l348 -647l336 647h225z" />
    <glyph glyph-name="ycircumflex" unicode="&#x177;" horiz-adv-x="1110" 
d="M719 1243l-164 146l-164 -146h-147l227 303h176l223 -303h-151zM854 1071h211l-588 -1442h-209l197 482l-422 960h229l306 -727z" />
    <glyph glyph-name="Ydieresis" unicode="&#x178;" horiz-adv-x="1245" 
d="M967 1724q0 -49 -36.5 -85.5t-86.5 -36.5q-51 0 -87 35.5t-36 86.5t36 86t87 35q50 0 86.5 -35.5t36.5 -85.5zM543 1724q0 -49 -36.5 -85.5t-86.5 -36.5q-51 0 -87 35.5t-36 86.5t36 86t87 35q50 0 86.5 -35.5t36.5 -85.5zM1204 1464l-452 -835v-629h-232v629l-479 835
h254l348 -647l336 647h225z" />
    <glyph glyph-name="Zacute" unicode="&#x179;" horiz-adv-x="1232" 
d="M635 1841h250l-203 -268h-160zM365 188h776v-188h-1090v94l811 1188h-737v182h1032v-90z" />
    <glyph glyph-name="zacute" unicode="&#x17a;" horiz-adv-x="999" 
d="M463 1552h246l-213 -309h-156zM338 176h604v-176h-903v88l623 811h-566v172h858v-88z" />
    <glyph glyph-name="Zdotaccent" unicode="&#x17b;" horiz-adv-x="1232" 
d="M745 1726q0 -52 -38 -89.5t-91 -37.5q-54 0 -92.5 36.5t-38.5 90.5t38.5 90.5t92.5 36.5q53 0 91 -37.5t38 -89.5zM365 188h776v-188h-1090v94l811 1188h-737v182h1032v-90z" />
    <glyph glyph-name="zdotaccent" unicode="&#x17c;" horiz-adv-x="999" 
d="M631 1399q0 -52 -38 -89.5t-91 -37.5q-54 0 -92.5 36.5t-38.5 90.5t38.5 90.5t92.5 36.5q53 0 91 -37.5t38 -89.5zM338 176h604v-176h-903v88l623 811h-566v172h858v-88z" />
    <glyph glyph-name="Zcaron" unicode="&#x17d;" horiz-adv-x="1232" 
d="M780 1841h150l-223 -268h-187l-221 268h156l161 -115zM365 188h776v-188h-1090v94l811 1188h-737v182h1032v-90z" />
    <glyph glyph-name="zcaron" unicode="&#x17e;" horiz-adv-x="999" 
d="M678 1546h149l-227 -303h-178l-223 303h153l162 -145zM338 176h604v-176h-903v88l623 811h-566v172h858v-88z" />
    <glyph glyph-name="florin" unicode="&#x192;" horiz-adv-x="835" 
d="M725 684h-287l-157 -1057h-211l157 1057h-170v162h195q5 34 12 86t11.5 89t13.5 86.5t18.5 85t25.5 77t35.5 70.5t48.5 58t64 46.5t82 28t103 10.5q78 0 143 -23v-170q-67 23 -129 23q-78 0 -120.5 -49t-53.5 -131l-43 -287h262v-162z" />
    <glyph glyph-name="Aringacute" unicode="&#x1fa;" horiz-adv-x="1411" 
d="M748 2290h249l-202 -269h-160zM942 1749q0 -90 -66.5 -153.5t-156.5 -63.5t-157.5 63.5t-67.5 153.5q0 91 66.5 155t158.5 64q91 0 157 -64.5t66 -154.5zM612 1749q0 -47 30.5 -81t76.5 -34t75 34.5t29 80.5t-29.5 81.5t-74.5 35.5q-48 0 -77.5 -34.5t-29.5 -82.5z
M999 356h-602l-118 -356h-216l496 1464h301l488 -1464h-232zM698 1276l-245 -748h489z" />
    <glyph glyph-name="aringacute" unicode="&#x1fb;" horiz-adv-x="1122" 
d="M610 1966h250l-203 -268h-159zM791 1399q0 -90 -67 -153.5t-157 -63.5t-156.5 63.5t-66.5 153.5t66.5 153.5t156.5 63.5t157 -63.5t67 -153.5zM463 1399q0 -46 29 -80.5t75 -34.5t75.5 34.5t29.5 80.5t-29.5 80t-75.5 34t-75 -34t-29 -80zM764 133q-57 -76 -144 -114.5
t-186 -38.5q-155 0 -256.5 82.5t-101.5 234.5q0 70 26 124.5t63 89.5t101 59.5t114 36.5t130.5 18t123 7t116.5 1h12q0 57 -4 96.5t-18 79.5t-38 63.5t-65.5 38.5t-99.5 15q-84 0 -152.5 -46t-97.5 -124l-172 75q56 131 172 196t266 65q190 0 305 -102.5t115 -289.5v-700
h-209v133zM287 303q0 -164 186 -164q72 0 136.5 25.5t108.5 81t44 129.5v119h-135q-340 0 -340 -191z" />
    <glyph glyph-name="AEacute" unicode="&#x1fc;" horiz-adv-x="1968" 
d="M1270 1841h250l-203 -268h-160zM967 342h-521l-167 -342h-228l737 1464h1063v-182h-655v-446h526v-179h-526v-475h692v-182h-921v342zM909 1282l-381 -770h439v770h-58z" />
    <glyph glyph-name="aeacute" unicode="&#x1fd;" horiz-adv-x="1814" 
d="M954 1552h246l-213 -309h-158zM1710 246q-47 -134 -169 -200t-275 -66q-128 0 -235 54.5t-171 160.5q-75 -114 -177 -164.5t-243 -50.5q-104 0 -184 33t-130 106t-50 178q0 71 26 126.5t62 91t99.5 60.5t113 37.5t130 18.5t123 7t118.5 1h16q0 58 -4 97.5t-18 78
t-38.5 61t-66 36.5t-100.5 14q-87 0 -153.5 -44.5t-96.5 -125.5l-172 75q117 261 438 261q113 0 205.5 -40t138.5 -130q65 84 158 127t200 43q118 0 211 -41t151 -114t88 -170t30 -212v-61h-768q2 -75 20 -136.5t52.5 -110t93 -75.5t135.5 -27q224 0 270 174zM1255 930
q-122 0 -194 -82t-88 -209h549q-8 135 -72 213t-195 78zM287 305q0 -166 186 -166q76 0 140 24t107.5 79t43.5 133v119h-143q-38 0 -70 -2t-73.5 -8t-72.5 -19.5t-59.5 -33t-43.5 -52t-15 -74.5z" />
    <glyph glyph-name="Oslashacute" unicode="&#x1fe;" horiz-adv-x="1665" 
d="M852 1841h250l-203 -268h-160zM836 -20q-131 0 -255 40.5t-221 120.5l-192 -209l-98 99l194 209q-162 201 -162 483q0 215 90 387.5t257.5 272.5t384.5 100q255 0 444 -140l162 177l98 -99l-158 -172q89 -101 136 -233t47 -271q0 -217 -87.5 -390t-254.5 -274t-385 -101z
M340 741q0 -194 76 -335l727 792q-122 102 -309 102q-120 0 -215.5 -44t-155.5 -120.5t-91.5 -177t-31.5 -217.5zM502 293q133 -127 336 -127q119 0 213.5 45.5t153.5 123.5t89.5 178.5t30.5 215.5q0 219 -90 363z" />
    <glyph glyph-name="oslashacute" unicode="&#x1ff;" horiz-adv-x="1245" 
d="M653 1552h246l-213 -309h-156zM621 -20q-194 0 -332 106l-150 -162l-92 82l152 166q-123 154 -123 354q0 161 67 289.5t192.5 202.5t287.5 74q190 0 323 -101l137 150l95 -82l-142 -152q64 -74 97.5 -168.5t33.5 -193.5q0 -248 -150 -406.5t-396 -158.5zM295 545
q0 -117 45 -219l481 528q-80 68 -198 68q-158 0 -243 -107t-85 -270zM412 223q82 -73 211 -73q157 0 242 107.5t85 268.5q0 117 -51 228z" />
    <glyph glyph-name="uni0218" unicode="&#x218;" horiz-adv-x="1288" 
d="M1176 424q0 -102 -45.5 -188t-120.5 -141t-168 -85t-191 -30q-439 0 -563 380l195 86q41 -135 135.5 -212.5t232.5 -77.5q120 0 211.5 66.5t91.5 183.5q0 65 -28.5 110t-76.5 70.5t-110.5 42t-131.5 29.5t-137.5 28t-131 43t-110.5 69t-76.5 111t-28.5 164
q0 95 42.5 174.5t113 130t157.5 78t178 27.5q181 0 317.5 -83.5t205.5 -246.5l-183 -80q-47 108 -136 171t-204 63q-53 0 -100.5 -11.5t-88 -35.5t-64 -66.5t-23.5 -99.5q0 -64 28.5 -108.5t77 -69.5t111.5 -41.5t132.5 -29t139 -28t132.5 -44t111.5 -70.5t77 -113
t28.5 -166zM563 -72l199 -47l-184 -338l-125 56z" />
    <glyph glyph-name="uni0219" unicode="&#x219;" horiz-adv-x="997" 
d="M918 319q0 -88 -34.5 -155t-93.5 -106t-131.5 -58.5t-156.5 -19.5q-149 0 -266 67.5t-162 200.5l162 71q30 -83 102 -129.5t162 -46.5q42 0 78 7.5t68 24.5t50.5 49t18.5 77q0 40 -21 69t-57 46t-82.5 29.5t-97.5 23.5t-102.5 24t-98 35.5t-82.5 53.5t-57 81.5t-21 116.5
q0 73 35 134t91.5 99t124 58.5t136.5 20.5q133 0 243.5 -61t164.5 -177l-160 -70q-33 71 -100 108.5t-148 37.5q-73 0 -131.5 -35t-58.5 -104q0 -50 34.5 -82t89.5 -48t122 -28t133.5 -31t121.5 -49t89.5 -89.5t34.5 -144.5zM420 -72l198 -47l-184 -338l-125 56z" />
    <glyph glyph-name="uni021A" unicode="&#x21a;" horiz-adv-x="1173" 
d="M1118 1282h-416v-1282h-231v1282h-416v182h1063v-182zM512 -72l197 -47l-183 -338l-127 56z" />
    <glyph glyph-name="uni021B" unicode="&#x21b;" horiz-adv-x="741" 
d="M664 8q-68 -24 -158 -24q-146 0 -226.5 78t-80.5 223v620h-150v166h150v211l211 92v-303h241v-166h-241v-600q0 -147 129 -147q71 0 125 22v-172zM326 -72l196 -47l-182 -338l-127 56z" />
    <glyph glyph-name="uni0237" unicode="&#x237;" horiz-adv-x="540" 
d="M375 -51q0 -176 -91.5 -254.5t-271.5 -83.5v170q152 12 152 158v1132h211v-1122z" />
    <glyph glyph-name="circumflex" unicode="&#x2c6;" horiz-adv-x="843" 
d="M584 1243l-164 146l-164 -146h-147l227 303h176l223 -303h-151z" />
    <glyph glyph-name="caron" unicode="&#x2c7;" horiz-adv-x="843" 
d="M588 1546h147l-227 -303h-176l-223 303h151l164 -145z" />
    <glyph glyph-name="breve" unicode="&#x2d8;" horiz-adv-x="843" 
d="M709 1536q-8 -122 -89 -202.5t-202 -80.5q-120 0 -199 81.5t-84 201.5h154q10 -56 42.5 -90.5t86.5 -34.5q59 0 94.5 33t46.5 92h150z" />
    <glyph glyph-name="dotaccent" unicode="&#x2d9;" horiz-adv-x="843" 
d="M551 1399q0 -54 -37.5 -90.5t-91.5 -36.5t-92.5 36.5t-38.5 90.5t38.5 90.5t92.5 36.5t91.5 -36.5t37.5 -90.5z" />
    <glyph glyph-name="ring" unicode="&#x2da;" horiz-adv-x="843" 
d="M647 1434q0 -90 -67.5 -153.5t-157.5 -63.5q-89 0 -156 64.5t-67 152.5q0 89 66.5 154t156.5 65t157.5 -64.5t67.5 -154.5zM317 1434q0 -48 28.5 -81.5t76.5 -33.5q46 0 76 34t30 81q0 48 -29 82t-77 34t-76.5 -34t-28.5 -82z" />
    <glyph glyph-name="ogonek" unicode="&#x2db;" horiz-adv-x="843" 
d="M602 -346q-68 -27 -143 -27q-54 0 -101.5 15.5t-82.5 54t-35 94.5q0 66 47 120t116 89h156q-57 -37 -93 -76t-36 -90q0 -33 21.5 -51.5t54.5 -18.5q57 0 96 19v-129z" />
    <glyph glyph-name="tilde" unicode="&#x2dc;" horiz-adv-x="843" 
d="M311 1337q-31 0 -51 -26t-27 -60h-139q6 64 29 119t71 95t113 40q38 0 79.5 -21t79 -42t66.5 -21q32 0 51.5 26.5t26.5 61.5h140q-6 -64 -29 -119.5t-71 -96t-113 -40.5q-47 0 -120 42t-106 42z" />
    <glyph glyph-name="hungarumlaut" unicode="&#x2dd;" horiz-adv-x="843" 
d="M600 1552h213l-154 -309h-143zM274 1552h213l-153 -309h-144z" />
    <glyph glyph-name="uni0394" unicode="&#x394;" horiz-adv-x="1437" 
d="M885 1464l473 -1401v-63h-1284v63l481 1401h330zM711 1298l-379 -1110h755z" />
    <glyph glyph-name="Sigma" unicode="&#x3a3;" horiz-adv-x="1202" 
d="M379 193h735v-193h-1008v152l439 587l-430 541v184h964v-182h-700l426 -524z" />
    <glyph glyph-name="uni03A9" unicode="&#x3a9;" horiz-adv-x="1675" 
d="M348 756q0 -219 91 -374.5t282 -272.5v-109h-615v180h281q-134 85 -209.5 242t-75.5 323q0 212 95 381t264 263t381 94q208 0 375 -90.5t262.5 -255t95.5 -373.5q0 -180 -71 -336t-212 -246h279v-182h-615v109q373 203 373 630q0 115 -31 214.5t-90 176t-153.5 120.5
t-214.5 44q-155 0 -268 -72t-168.5 -192t-55.5 -274z" />
    <glyph glyph-name="lambda" unicode="&#x3bb;" horiz-adv-x="1159" 
d="M1133 6q-44 -16 -105 -16q-40 0 -74.5 9t-59.5 22t-47.5 37.5t-37 45.5t-30.5 57t-25 60t-23 66l-176 524l-285 -811h-227l408 1063q-7 20 -22.5 63.5t-24.5 69.5t-23.5 62t-28.5 65q-39 82 -131 82q-44 0 -115 -23v174q83 25 166 25q60 0 108 -19t79 -47t57.5 -74.5
t42.5 -86.5t36 -97q9 -26 13 -38l342 -947q14 -42 41 -72t66 -30q26 0 76 12v-176z" />
    <glyph glyph-name="uni03BC" unicode="&#x3bc;" horiz-adv-x="1241" 
d="M575 -10q-140 0 -200 104v-463h-219v1440h219v-676q0 -117 54 -177t171 -60q121 0 193.5 74.5t72.5 195.5v643h219v-1071h-217v164q-40 -85 -118 -129.5t-175 -44.5z" />
    <glyph glyph-name="pi" unicode="&#x3c0;" horiz-adv-x="1253" 
d="M836 897h-418v-897h-219v897h-150v174h1155v-174h-149v-897h-219v897z" />
    <glyph glyph-name="Wgrave" unicode="&#x1e80;" horiz-adv-x="1990" 
d="M717 1841h248l112 -268h-159zM1323 0l-324 1108l-331 -1108h-213l-394 1464h234l293 -1132l325 1132h185l325 -1136l295 1136h213l-387 -1464h-221z" />
    <glyph glyph-name="wgrave" unicode="&#x1e81;" horiz-adv-x="1675" 
d="M559 1552h246l123 -309h-156zM1061 0l-217 760l-234 -760h-221l-340 1071h227l240 -815l244 815h178l233 -815l244 815h211l-342 -1071h-223z" />
    <glyph glyph-name="Wacute" unicode="&#x1e82;" horiz-adv-x="1990" 
d="M1049 1841h249l-202 -268h-160zM1323 0l-324 1108l-331 -1108h-213l-394 1464h234l293 -1132l325 1132h185l325 -1136l295 1136h213l-387 -1464h-221z" />
    <glyph glyph-name="wacute" unicode="&#x1e83;" horiz-adv-x="1675" 
d="M895 1552h246l-213 -309h-156zM1061 0l-217 760l-234 -760h-221l-340 1071h227l240 -815l244 815h178l233 -815l244 815h211l-342 -1071h-223z" />
    <glyph glyph-name="Wdieresis" unicode="&#x1e84;" horiz-adv-x="1990" 
d="M1346 1724q0 -51 -36 -86.5t-87 -35.5t-87 35.5t-36 86.5t36 86t87 35t87 -35t36 -86zM922 1724q0 -51 -36 -86.5t-87 -35.5t-87 35.5t-36 86.5t36 86t87 35t87 -35t36 -86zM1323 0l-324 1108l-331 -1108h-213l-394 1464h234l293 -1132l325 1132h185l325 -1136l295 1136
h213l-387 -1464h-221z" />
    <glyph glyph-name="wdieresis" unicode="&#x1e85;" horiz-adv-x="1675" 
d="M1163 1397q0 -51 -36 -86t-87 -35t-86.5 35t-35.5 86t35.5 86t86.5 35t87 -35t36 -86zM768 1397q0 -50 -36.5 -85.5t-86.5 -35.5q-51 0 -87 35t-36 86t36 86t87 35q50 0 86.5 -35.5t36.5 -85.5zM1061 0l-217 760l-234 -760h-221l-340 1071h227l240 -815l244 815h178
l233 -815l244 815h211l-342 -1071h-223z" />
    <glyph glyph-name="Ygrave" unicode="&#x1ef2;" horiz-adv-x="1245" 
d="M381 1841h250l110 -268h-157zM1204 1464l-452 -835v-629h-232v629l-479 835h254l348 -647l336 647h225z" />
    <glyph glyph-name="ygrave" unicode="&#x1ef3;" horiz-adv-x="1110" 
d="M285 1552h245l125 -309h-157zM854 1071h211l-588 -1442h-209l197 482l-422 960h229l306 -727z" />
    <glyph glyph-name="uni2009" unicode="&#x2009;" horiz-adv-x="186" 
 />
    <glyph glyph-name="endash" unicode="&#x2013;" horiz-adv-x="1396" 
d="M123 614h1149v-143h-1149v143z" />
    <glyph glyph-name="emdash" unicode="&#x2014;" horiz-adv-x="1988" 
d="M123 614h1741v-143h-1741v143z" />
    <glyph glyph-name="quoteleft" unicode="&#x2018;" horiz-adv-x="546" 
d="M326 1487l127 -57l-179 -457l-196 82z" />
    <glyph glyph-name="quoteright" unicode="&#x2019;" horiz-adv-x="546" 
d="M272 1487l197 -80l-248 -434l-127 59z" />
    <glyph glyph-name="quotesinglbase" unicode="&#x201a;" horiz-adv-x="569" 
d="M283 285l196 -82l-248 -432l-127 57z" />
    <glyph glyph-name="quotedblleft" unicode="&#x201c;" horiz-adv-x="929" 
d="M326 1487l127 -57l-179 -457l-196 82zM711 1487l125 -57l-179 -457l-194 82z" />
    <glyph glyph-name="quotedblright" unicode="&#x201d;" horiz-adv-x="929" 
d="M272 1487l197 -80l-248 -434l-127 59zM657 1487l195 -80l-248 -434l-125 59z" />
    <glyph glyph-name="quotedblbase" unicode="&#x201e;" horiz-adv-x="954" 
d="M283 285l196 -82l-248 -432l-127 57zM668 285l196 -82l-250 -432l-125 57z" />
    <glyph glyph-name="dagger" unicode="&#x2020;" horiz-adv-x="804" 
d="M727 1042h-231v-606h-185v606h-233v164h233v258h185v-258h231v-164z" />
    <glyph glyph-name="daggerdbl" unicode="&#x2021;" horiz-adv-x="804" 
d="M727 688h-231v-252h-185v252h-233v158h233v209h-233v157h233v252h185v-252h231v-157h-231v-209h231v-158z" />
    <glyph glyph-name="bullet" unicode="&#x2022;" horiz-adv-x="696" 
d="M600 625q0 -106 -73 -178t-179 -72q-104 0 -177 73t-73 177q0 105 72.5 178.5t177.5 73.5q107 0 179.5 -72.5t72.5 -179.5z" />
    <glyph glyph-name="ellipsis" unicode="&#x2026;" horiz-adv-x="1712" 
d="M1556 135q0 -61 -43 -104t-104 -43q-63 0 -106 42t-43 105q0 62 43.5 104t105.5 42t104.5 -42.5t42.5 -103.5zM1006 135q0 -63 -43.5 -105t-106.5 -42q-62 0 -104.5 43t-42.5 104t42.5 103.5t104.5 42.5t106 -42t44 -104zM453 135q0 -61 -43 -104t-105 -43q-63 0 -106 42
t-43 105q0 62 43.5 104t105.5 42t105 -42.5t43 -103.5z" />
    <glyph glyph-name="perthousand" unicode="&#x2030;" horiz-adv-x="2371" 
d="M754 1139q0 -142 -98 -242t-240 -100q-140 0 -239 99.5t-99 238.5q0 142 98 242t240 100q141 0 239.5 -98.5t98.5 -239.5zM1186 1464h166l-922 -1464h-164zM256 1137q0 -84 39.5 -137.5t120.5 -53.5t120 54.5t39 138.5q0 81 -40 135.5t-119 54.5q-81 0 -120.5 -54
t-39.5 -138zM1526 324q0 -142 -98 -242t-240 -100q-140 0 -239 99t-99 238q0 144 97 243.5t241 99.5q141 0 239.5 -98.5t98.5 -239.5zM2294 324q0 -143 -98 -242.5t-240 -99.5q-140 0 -239 99t-99 238q0 143 98 243t240 100q141 0 239.5 -98.5t98.5 -239.5zM1796 322
q0 -84 39.5 -137.5t120.5 -53.5q82 0 122 54.5t40 138.5q0 81 -41.5 135.5t-120.5 54.5q-81 0 -120.5 -54t-39.5 -138zM1026 322q0 -85 39.5 -138t122.5 -53q80 0 120 55t40 138q0 81 -40.5 135.5t-119.5 54.5q-82 0 -122 -54t-40 -138z" />
    <glyph glyph-name="minute" unicode="&#x2032;" horiz-adv-x="475" 
d="M152 1464h217l-115 -514h-152z" />
    <glyph glyph-name="second" unicode="&#x2033;" horiz-adv-x="829" 
d="M506 1464h219l-117 -514h-151zM152 1464h217l-115 -514h-152z" />
    <glyph glyph-name="guilsinglleft" unicode="&#x2039;" horiz-adv-x="677" 
d="M569 905l-254 -370l254 -371h-184l-264 371l264 370h184z" />
    <glyph glyph-name="guilsinglright" unicode="&#x203a;" horiz-adv-x="677" 
d="M293 905l264 -370l-264 -371h-184l251 371l-251 370h184z" />
    <glyph glyph-name="fraction" unicode="&#x2044;" horiz-adv-x="256" 
d="M584 1464h147l-1061 -1464h-147z" />
    <glyph glyph-name="Euro" unicode="&#x20ac;" horiz-adv-x="1402" 
d="M1311 393q-55 -195 -191 -304t-336 -109q-159 0 -284 72.5t-198 195.5t-93 280h-148v125h140v148h-140v125h148q18 158 88 282.5t194.5 199.5t284.5 75q199 0 323 -93.5t195 -283.5l-184 -78q-42 136 -121 207.5t-213 71.5q-81 0 -144.5 -31t-104 -85.5t-64 -120.5
t-31.5 -144h453l-23 -125h-436v-148h408l-23 -125h-379q18 -164 107 -264t247 -100q253 0 351 305z" />
    <glyph glyph-name="uni20B9" unicode="&#x20b9;" horiz-adv-x="1126" 
d="M793 928q-23 -120 -108 -210t-204 -126l416 -592h-266l-350 549h-191v158h26q53 0 81 0.5t78.5 4.5t80 12t69 24t63.5 39t46 59t33 82h-477v153h479q-9 56 -31.5 97.5t-54.5 65t-73 39t-85.5 20t-92.5 7t-94 -0.5h-48v155h944v-155h-377q117 -87 136 -228h241v-153h-241z
" />
    <glyph glyph-name="trademark" unicode="&#x2122;" horiz-adv-x="1509" 
d="M1034 805l-198 485v-485h-123v659h180l170 -434l168 434h182v-659h-137v485l-197 -485h-45zM604 1356h-192v-551h-138v551h-194v108h524v-108z" />
    <glyph glyph-name="onethird" unicode="&#x2153;" horiz-adv-x="1519" 
d="M1159 1464h148l-1061 -1464h-148zM242 1464h145v-714h-168v553l-166 -107v141zM1454 207q0 -111 -81.5 -165t-198.5 -54q-102 0 -178.5 43t-98.5 135l131 55q20 -112 139 -112q53 0 86 25.5t33 76.5q0 22 -6.5 39t-13 27.5t-24 18t-26 11t-34 5t-32.5 1.5h-36v107
q84 0 112 10q52 20 52 84q0 43 -27.5 66.5t-70.5 23.5q-51 0 -85 -26.5t-44 -75.5l-127 55q23 83 94.5 124.5t163.5 41.5q47 0 90.5 -11t81 -33t60 -60.5t22.5 -88.5q0 -113 -123 -155q65 -12 103 -57t38 -111z" />
    <glyph glyph-name="twothirds" unicode="&#x2154;" horiz-adv-x="1599" 
d="M281 874h286v-122h-547v43l263 258q116 112 116 200q0 44 -25 69.5t-69 25.5q-102 0 -131 -123l-135 28q20 109 90.5 165.5t181.5 56.5q110 0 180 -53.5t70 -161.5q0 -39 -14.5 -79.5t-32.5 -70.5t-53 -68t-57.5 -59t-65 -58t-57.5 -51zM1268 1464h147l-1061 -1464h-147z
M1536 207q0 -77 -42 -128t-102.5 -71t-136.5 -20q-103 0 -178 42.5t-98 135.5l119 51q29 -108 147 -108q54 0 88.5 25t34.5 77q0 22 -6.5 39t-13 27.5t-24 18t-26 11t-34 5t-32.5 1.5h-36v107q84 0 112 10q52 20 52 84q0 42 -29.5 66t-73.5 24q-54 0 -87 -23.5t-52 -74.5
l-117 51q56 166 263 166q47 0 90.5 -11t81 -33t60 -60.5t22.5 -88.5q0 -115 -123 -155q66 -14 103.5 -57.5t37.5 -110.5z" />
    <glyph glyph-name="oneeighth" unicode="&#x215b;" horiz-adv-x="1503" 
d="M1155 1464h148l-1061 -1464h-148zM242 1464h145v-714h-168v553l-166 -107v141zM1442 205q0 -74 -44.5 -124.5t-105.5 -70.5t-133 -20q-53 0 -101 11.5t-89.5 35t-66.5 66t-25 98.5q0 64 34.5 112t96.5 68q-105 45 -105 147q0 64 41 110t98 65.5t119 19.5q46 0 89.5 -11.5
t81 -33.5t60.5 -60.5t23 -87.5q0 -102 -104 -147q61 -22 96 -68.5t35 -109.5zM1059 516q0 -41 30 -65.5t72 -24.5t70.5 25t28.5 67q0 40 -29 66t-70 26q-42 0 -72 -26t-30 -68zM1042 217q0 -50 33 -79t84 -29q54 0 86.5 28.5t32.5 81.5q0 50 -34 79.5t-85 29.5t-84 -30.5
t-33 -80.5z" />
    <glyph glyph-name="threeeighths" unicode="&#x215c;" horiz-adv-x="1564" 
d="M606 956q0 -58 -24 -102t-65 -68.5t-89 -36.5t-104 -12q-104 0 -179 42.5t-98 135.5l119 52q29 -109 147 -109q54 0 88.5 25.5t34.5 77.5q0 30 -10 50t-22.5 30.5t-38 15.5t-41 5.5t-46.5 0.5h-14v106h10q29 0 44.5 0.5t40 5.5t37 14.5t22.5 28.5t10 46q0 44 -28.5 67
t-73.5 23q-53 0 -86 -24.5t-52 -74.5l-116 52q28 85 96.5 125.5t163.5 40.5q47 0 91 -11t81 -33t59.5 -60.5t22.5 -88.5q0 -115 -121 -156q66 -14 103.5 -57.5t37.5 -110.5zM1241 1464h148l-1061 -1464h-148zM1505 205q0 -57 -25 -100t-67 -67t-90.5 -36t-101.5 -12
q-72 0 -133 19t-105.5 68.5t-44.5 123.5q0 64 34.5 112t96.5 68q-102 44 -102 147q0 64 40.5 110t97 65.5t118.5 19.5q46 0 89.5 -11.5t81 -33.5t60.5 -60.5t23 -87.5q0 -104 -105 -147q63 -22 98 -67.5t35 -110.5zM1120 516q0 -40 31.5 -65t71.5 -25q43 0 71.5 25t28.5 67
q0 40 -29.5 66t-70.5 26q-43 0 -73 -26t-30 -68zM1104 217q0 -51 33.5 -79.5t85.5 -28.5t84 29t32 81q0 50 -32.5 79.5t-83.5 29.5t-85 -30t-34 -81z" />
    <glyph glyph-name="fiveeighths" unicode="&#x215d;" horiz-adv-x="1552" 
d="M594 989q0 -119 -78 -185.5t-199 -66.5q-93 0 -166 40t-96 124l138 60q23 -97 124 -97q53 0 81 35.5t28 89.5t-29.5 88.5t-83.5 34.5q-86 0 -129 -57h-102l10 409h461v-125h-338l-4 -182q59 70 164 70q103 0 161 -66.5t58 -171.5zM1227 1464h147l-1061 -1464h-147z
M1493 205q0 -57 -25 -100t-67 -67t-91 -36t-102 -12q-71 0 -132 19t-105.5 68.5t-44.5 123.5q0 64 35.5 112t97.5 68q-105 45 -105 147q0 64 40.5 110t97 65.5t118.5 19.5q46 0 89.5 -11.5t82 -33.5t61.5 -60.5t23 -87.5q0 -104 -106 -147q63 -22 98 -67.5t35 -110.5z
M1110 516q0 -40 29.5 -65t70.5 -25q43 0 72 25t29 67t-29 67t-72 25q-42 0 -71 -26t-29 -68zM1092 217q0 -51 33.5 -79.5t84.5 -28.5q53 0 86 29t33 81q0 50 -34 79.5t-85 29.5t-84.5 -30.5t-33.5 -80.5z" />
    <glyph glyph-name="seveneighths" unicode="&#x215e;" horiz-adv-x="1495" 
d="M1130 1464h148l-1061 -1464h-147zM567 1464v-65l-260 -649h-166l234 581h-334v133h526zM1434 205q0 -74 -44.5 -124.5t-105.5 -70.5t-133 -20t-133 19t-105.5 68.5t-44.5 123.5q0 64 34.5 112t96.5 68q-104 45 -104 147q0 64 41 110t98 65.5t119 19.5q46 0 89.5 -11.5
t81 -33.5t60.5 -60.5t23 -87.5q0 -102 -104 -147q61 -22 96 -68.5t35 -109.5zM1051 516q0 -41 30 -65.5t72 -24.5t70 25t28 67q0 40 -28.5 66t-69.5 26q-42 0 -72 -26t-30 -68zM1034 217q0 -50 33 -79t84 -29q54 0 86.5 28.5t32.5 81.5q0 50 -34 79.5t-85 29.5t-84 -30.5
t-33 -80.5z" />
    <glyph glyph-name="minus" unicode="&#x2212;" horiz-adv-x="1085" 
d="M74 786h938v-174h-938v174z" />
    <glyph glyph-name="approxequal" unicode="&#x2248;" horiz-adv-x="1079" 
d="M340 809q-39 0 -63.5 -26.5t-30.5 -67.5h-146q8 113 69 191.5t169 78.5q71 0 202.5 -44t200.5 -44q40 0 65 25.5t28 66.5h145q-3 -52 -18.5 -99t-42.5 -85.5t-71 -61t-99 -22.5q-70 0 -204 44t-204 44zM340 414q-39 0 -63.5 -27t-30.5 -68h-146q8 113 69 192t169 79
q71 0 202.5 -44t200.5 -44q39 0 64.5 26.5t28.5 65.5h145q-3 -52 -18.5 -99t-42.5 -85.5t-71 -61t-99 -22.5q-70 0 -204 44t-204 44z" />
    <glyph glyph-name="notequal" unicode="&#x2260;" horiz-adv-x="1046" 
d="M954 379h-448l-78 -199h-172l76 199h-238v168h303l88 227h-391v170h457l76 199h174l-78 -199h231v-170h-297l-86 -227h383v-168z" />
    <glyph glyph-name="lessequal" unicode="&#x2264;" horiz-adv-x="1060" 
d="M428 721l492 -254v-199l-803 428v47l803 428v-196zM117 164h803v-164h-803v164z" />
    <glyph glyph-name="greaterequal" unicode="&#x2265;" horiz-adv-x="1060" 
d="M944 743v-47l-803 -428v199l492 254l-492 254v196zM141 164h803v-164h-803v164z" />
    <glyph glyph-name="uni24C5" unicode="&#x24c5;" horiz-adv-x="1753" 
d="M1636 735q0 -158 -59.5 -298.5t-161 -241.5t-242.5 -159.5t-299 -58.5q-156 0 -296 58.5t-241 159t-160.5 240.5t-59.5 296q0 208 102 382t277 274t383 100t382 -99t274.5 -272t100.5 -381zM221 731q0 -182 84.5 -334t235 -240.5t333.5 -88.5q184 0 335 89t236 242
t85 336q0 137 -49.5 259.5t-135.5 211t-207.5 140t-258.5 51.5q-138 0 -260.5 -52t-209.5 -141t-137.5 -212t-50.5 -261zM1208 887q0 -41 -8 -75.5t-20 -59.5t-34 -44.5t-42 -32.5t-52.5 -22t-57 -13.5t-63.5 -7t-64 -3t-66 -0.5v-299h-176v813h274q139 0 224 -61t85 -195z
M801 1006v-252h96q143 0 143 127q0 69 -36.5 97t-106.5 28h-96z" />
    <glyph glyph-name="f_f" unicode="&#xfb00;" horiz-adv-x="1333" 
d="M807 905h-395v-905h-213v905h-150v166h150q0 51 1 85.5t4.5 81t10 78t19 69t29.5 62.5t43 50t58.5 39.5t77 23.5t97.5 9q81 0 155 -27l-63 -151q-50 8 -72 8q-75 0 -111 -46.5t-36 -123.5v-158h395q0 63 1 98.5t5 91.5t13.5 89t25 75t41 66.5t60.5 48t84.5 33.5t111.5 10
q83 0 156 -27l-66 -151q-50 8 -72 8q-75 0 -111 -46.5t-36 -123.5v-172h252v-166h-252v-905h-213v905z" />
    <glyph glyph-name="fi" unicode="&#xfb01;" horiz-adv-x="1257" 
d="M664 905h-252v-905h-213v905h-150v166h150q0 62 1 97.5t5 91t13 88.5t24.5 75.5t41 67t60 48t83.5 34t110 10.5q81 0 155 -27l-65 -151q-46 8 -72 8q-74 0 -108.5 -47t-34.5 -123v-172h252v-166zM1114 1397q0 -54 -38.5 -91.5t-92.5 -37.5t-92.5 37.5t-38.5 91.5
t38.5 91.5t92.5 37.5t92.5 -37.5t38.5 -91.5zM881 1071h211v-1071h-211v1071z" />
    <glyph glyph-name="fl" unicode="&#xfb02;" horiz-adv-x="1257" 
d="M664 905h-252v-905h-213v905h-150v166h150q0 62 1 97.5t5 91t13 88.5t24.5 75.5t41 67t60 48t83.5 34t110 10.5q81 0 155 -27l-65 -151q-46 8 -72 8q-74 0 -108.5 -47t-34.5 -123v-172h252v-166zM881 1575h213v-1575h-213v1575z" />
    <glyph glyph-name="dollar.tab" 
d="M1139 422q0 -97 -37.5 -177.5t-101.5 -135t-147 -87t-177 -40.5v-258h-129v258q-184 14 -311 111.5t-173 271.5l173 73q82 -262 311 -286v514q-98 18 -171 44.5t-138 72.5t-99.5 119.5t-34.5 172.5q0 118 64 210t163.5 140.5t215.5 55.5v184h129v-186q166 -14 271 -93.5
t159 -234.5l-170 -74q-26 99 -92.5 159t-167.5 73v-465q83 -13 147 -30.5t125.5 -50t101.5 -76.5t64.5 -111.5t24.5 -153.5zM305 1094q0 -57 18 -97.5t54.5 -65.5t74.5 -38.5t95 -26.5v445q-102 -8 -172 -63.5t-70 -153.5zM928 403q0 60 -18.5 103t-55 69.5t-78 41.5
t-100.5 26v-491q109 16 180.5 81t71.5 170z" />
    <glyph glyph-name="Euro.tab" 
d="M1137 379q-37 -191 -158.5 -295t-314.5 -104q-124 0 -219.5 41t-157 116t-95 173t-40.5 218h-121v125h121v148h-121v125h121q6 117 40.5 216.5t96.5 176.5t158 120.5t217 43.5q364 0 452 -369l-170 -74q-17 64 -37 109t-52 83.5t-80 57.5t-113 19t-116 -22t-83 -57.5
t-53.5 -87t-30.5 -103.5t-12 -113h417l-22 -125h-397v-148h368l-22 -125h-344q15 -368 299 -368q68 0 120 21.5t87.5 62.5t58 90.5t39.5 116.5z" />
    <glyph glyph-name="sterling.tab" 
d="M1145 256q-27 -127 -113 -200.5t-215 -73.5q-56 0 -119.5 19.5t-111 42.5t-105.5 42.5t-104 19.5q-52 0 -85.5 -27.5t-37.5 -78.5h-180q8 98 62 172t145 98q22 54 22 125q0 80 -41 240h-166v147h125q-35 154 -35 269q0 129 63 229t168 151.5t234 51.5q175 0 286 -79
t163 -245l-174 -74q-41 113 -101 165.5t-172 52.5q-116 0 -179.5 -71t-63.5 -188q0 -101 30 -262h414v-147h-383q27 -135 27 -242q0 -69 -27 -127q30 -9 96 -36t120 -43.5t97 -16.5q85 0 133 36.5t68 119.5z" />
    <glyph glyph-name="yen.tab" 
d="M1075 309h-338v-309h-223v309h-336v123h336v150h-336v125h314l-396 757h242l297 -614l283 614h215l-373 -757h315v-125h-338v-150h338v-123z" />
    <glyph glyph-name="zero.tab" 
d="M1128 598q0 -103 -16.5 -192.5t-54.5 -169t-95.5 -135.5t-144 -88.5t-196.5 -32.5q-108 0 -195.5 31.5t-147.5 87.5t-100.5 133.5t-59 167.5t-18.5 192v268q0 103 17.5 193.5t57.5 170t99 136.5t147 90t197 33q108 0 194.5 -31.5t145 -87t97 -133t56 -166.5t17.5 -191
v-276zM326 594q0 -69 6 -125t25.5 -115t51 -99t86.5 -65.5t128 -25.5q55 0 98 14t72.5 36t50.5 57t32.5 69.5t18 82.5t8.5 86t2 89v276q0 429 -287 429q-74 0 -128.5 -27t-85 -68.5t-49 -103t-24 -117t-5.5 -125.5v-268z" />
    <glyph glyph-name="one.tab" 
d="M621 1464h225v-1464h-230v1235l-405 -291v205z" />
    <glyph glyph-name="two.tab" 
d="M410 182h673v-182h-1005v92l510 506q54 53 94.5 100.5t81 108t62.5 126.5t22 132q0 113 -61.5 176.5t-174.5 63.5q-53 0 -97.5 -16.5t-75.5 -43t-57 -67t-43 -81t-32 -91.5l-176 77q49 188 172.5 294t312.5 106q205 0 333 -107t128 -309q0 -54 -13.5 -109t-32 -99.5
t-53.5 -96t-62.5 -86.5t-75.5 -85t-75.5 -76t-78.5 -74l-184 -172q-63 -59 -92 -87z" />
    <glyph glyph-name="three.tab" 
d="M1116 414q0 -109 -43.5 -194t-118 -136.5t-166.5 -77.5t-196 -26q-185 0 -324.5 97.5t-181.5 272.5l176 78q85 -270 322 -270q137 0 220 63t83 195q0 43 -7.5 77.5t-17.5 60t-31 45.5t-38.5 32.5t-49 21.5t-53 13.5t-61.5 6.5t-62.5 2.5t-67.5 0.5h-5v174q151 0 211 15
q124 31 147 149q6 29 6 65q0 110 -64.5 168t-175.5 58q-125 0 -200.5 -59.5t-114.5 -182.5l-166 74q49 168 177 257t307 89q70 0 136 -16t123.5 -48t100.5 -78t67.5 -109.5t24.5 -137.5q0 -117 -61.5 -197t-173.5 -123q136 -34 207 -127t71 -233z" />
    <glyph glyph-name="four.tab" 
d="M1149 319h-166v-319h-215v319h-694v87l622 1058h287v-972h166v-173zM768 1282l-453 -790h453v790z" />
    <glyph glyph-name="five.tab" 
d="M1100 485q0 -227 -142.5 -366t-371.5 -139q-189 0 -318.5 85t-167.5 261l179 75q34 -126 105 -182.5t200 -56.5q141 0 214.5 90t73.5 233q0 138 -73.5 225t-208.5 87q-99 0 -174.5 -31t-136.5 -102h-111l6 800h846v-186h-668l-2 -422q116 113 303 113q139 0 241.5 -64.5
t154 -173.5t51.5 -246z" />
    <glyph glyph-name="six.tab" 
d="M1145 475q0 -226 -142.5 -360.5t-369.5 -134.5q-126 0 -222 38t-155 101.5t-95.5 156t-50.5 190t-14 216.5q0 83 8 162t27.5 160t49 150t75.5 130.5t104 105t137 68.5t173 25q335 0 446 -287l-174 -78q-35 94 -108 141.5t-175 47.5q-68 0 -123.5 -25t-91.5 -69t-62 -97
t-40 -118t-20 -122.5t-7 -117.5q56 98 152.5 145t216.5 47q203 0 332 -135t129 -340zM324 487q0 -147 81 -239t226 -92q135 0 215 87.5t80 223.5q0 142 -78 229.5t-219 87.5q-132 0 -218.5 -82.5t-86.5 -214.5z" />
    <glyph glyph-name="seven.tab" 
d="M1120 1464v-92l-571 -1372h-234l537 1280h-723v184h991z" />
    <glyph glyph-name="eight.tab" 
d="M1133 420q0 -105 -43.5 -190t-116.5 -139t-164.5 -82.5t-192.5 -28.5q-100 0 -191.5 28t-165 81t-117.5 137.5t-44 189.5q0 134 71.5 230.5t199.5 144.5q-103 40 -159 118t-56 187q0 90 40.5 164.5t106.5 122.5t147.5 74t167.5 26q85 0 166.5 -25.5t147.5 -72.5
t106.5 -121t40.5 -164q0 -209 -217 -307q130 -48 201.5 -143t71.5 -230zM371 1087q0 -102 74 -163.5t178 -61.5q108 0 173.5 60.5t65.5 167.5q0 101 -72 162t-174 61q-103 0 -174 -62.5t-71 -163.5zM322 430q0 -122 85 -196t209 -74q130 0 211.5 72.5t81.5 199.5
q0 126 -80.5 197t-207.5 71q-128 0 -213.5 -72t-85.5 -198z" />
    <glyph glyph-name="nine.tab" 
d="M1133 819q0 -92 -4.5 -168t-18.5 -165t-38 -158t-65.5 -136.5t-98 -111.5t-138.5 -71t-184 -27q-173 0 -301 75.5t-183 231.5l177 78q77 -209 309 -209q325 0 330 544q-56 -93 -152.5 -139.5t-210.5 -46.5q-210 0 -340.5 131.5t-130.5 341.5q0 226 142.5 361t369.5 135
q120 0 213.5 -34.5t154 -94t99 -145.5t54.5 -182t16 -210zM303 997q0 -141 78.5 -228t218.5 -87q133 0 219 79t86 212q0 148 -80.5 243t-226.5 95q-137 0 -216 -88t-79 -226z" />
    <glyph glyph-name="cent.tab" 
d="M1128 315q-50 -147 -158 -232.5t-261 -98.5v-260h-129v260q-224 23 -345.5 175t-121.5 382q0 215 127.5 367.5t339.5 178.5v201h129v-201q140 -4 250.5 -87t160.5 -216l-166 -71q-31 87 -94.5 143t-150.5 62v-768q104 17 166.5 75t93.5 160zM328 524q0 -68 13.5 -127
t42.5 -110t79 -86.5t117 -48.5v763q-69 -14 -119.5 -52.5t-78.5 -93t-41 -115.5t-13 -130z" />
    <glyph glyph-name="percent.tab" horiz-adv-x="1366" 
d="M590 1145q0 -67 -14.5 -126.5t-45 -110.5t-84 -81t-124.5 -30q-70 0 -123.5 29.5t-83.5 80t-45 109.5t-15 125q0 64 16 124t46.5 111t83.5 82t121 31t121.5 -30t84.5 -80t46.5 -109.5t15.5 -124.5zM981 1464h147l-886 -1464h-150zM213 1143q0 -199 109 -199
q112 0 112 201q0 198 -112 198q-109 0 -109 -200zM1184 330q0 -67 -15 -126.5t-45.5 -110.5t-84 -81t-124.5 -30q-57 0 -102.5 20t-75.5 53t-50.5 77.5t-29 93t-8.5 100.5q0 65 15 125t45 111.5t83.5 82.5t122.5 31t122.5 -30t84.5 -80.5t46.5 -110t15.5 -125.5zM805 328
q0 -199 110 -199q111 0 111 201q0 198 -111 198q-110 0 -110 -200z" />
    <glyph glyph-name="plus.tab" 
d="M1081 614h-376v-405h-181v405h-374v170h374v406h181v-406h376v-170z" />
    <glyph glyph-name="minus.tab" 
d="M150 786h931v-174h-931v174z" />
    <glyph glyph-name="multiply.tab" 
d="M733 684l316 -315l-119 -119l-316 317l-315 -317l-117 119l316 315l-316 315l117 119l315 -317l316 315l119 -119z" />
    <glyph glyph-name="divide.tab" 
d="M758 1094q0 -62 -41 -103t-103 -41q-61 0 -102 41t-41 103t40.5 102.5t102.5 40.5t103 -41t41 -102zM147 782h936v-166h-936v166zM758 305q0 -60 -42 -101.5t-102 -41.5t-101.5 41.5t-41.5 101.5t41.5 102t101.5 42t102 -42t42 -102z" />
    <glyph glyph-name="equal.tab" 
d="M186 950h856v-168h-856v168zM186 541h856v-168h-856v168z" />
    <glyph glyph-name="less.tab" 
d="M496 659l514 -292v-199l-813 469v47l813 467v-201z" />
    <glyph glyph-name="greater.tab" 
d="M1032 684v-47l-811 -471v199l512 294l-512 297v199z" />
    <glyph glyph-name="parenleft.tab" horiz-adv-x="614" 
d="M299 639q0 -488 276 -942h-188q-297 449 -297 942q0 499 297 944h188q-276 -451 -276 -944z" />
    <glyph glyph-name="parenright.tab" horiz-adv-x="614" 
d="M524 639q0 -493 -297 -942h-188q276 454 276 942q0 493 -276 944h188q297 -442 297 -944z" />
    <glyph glyph-name="bracketleft.tab" horiz-adv-x="614" 
d="M334 -145h219v-158h-424v1892h424v-157h-219v-1577z" />
    <glyph glyph-name="bracketright.tab" horiz-adv-x="614" 
d="M61 1589h424v-1892h-424v158h222v1577h-222v157z" />
    <glyph glyph-name="braceleft.tab" horiz-adv-x="614" 
d="M371 47q0 -104 38 -150t140 -47v-151q-192 0 -282.5 79t-90.5 269q0 54 12 158l7 45q12 104 12 158q0 75 -40 112t-118 53v148q79 19 118.5 54.5t39.5 109.5q0 63 -13 163l-7 47q-13 100 -13 162q0 185 93 261.5t282 76.5v-153q-101 -1 -139.5 -45.5t-38.5 -147.5
q0 -54 9 -133l10 -89q9 -81 9 -134q0 -98 -45.5 -153.5t-142.5 -92.5q97 -35 142.5 -91t45.5 -155q0 -59 -14 -176.5t-14 -177.5z" />
    <glyph glyph-name="braceright.tab" horiz-adv-x="614" 
d="M440 39q0 -187 -91.5 -263.5t-282.5 -76.5v151q59 1 95 14.5t54 44.5t23.5 66.5t5.5 94.5q0 55 -14.5 166.5t-14.5 166.5q0 99 45.5 153.5t142.5 90.5q-100 38 -143 94.5t-43 159.5q0 59 13.5 174t13.5 174q0 103 -38.5 147.5t-139.5 45.5v153q188 0 281 -78t93 -262
q0 -63 -13 -161l-6 -47q-13 -98 -13 -162q0 -73 40 -109t117 -55v-148q-79 -19 -118 -55t-39 -110q0 -63 16 -185.5t16 -183.5z" />
    <glyph glyph-name="period.tab" horiz-adv-x="614" 
d="M455 135q0 -61 -43 -104t-105 -43q-63 0 -105 42t-42 105t42.5 104.5t104.5 41.5t105 -42.5t43 -103.5z" />
    <glyph glyph-name="comma.tab" horiz-adv-x="614" 
d="M268 279l203 -86l-260 -445l-133 64z" />
    <glyph glyph-name="colon.tab" horiz-adv-x="614" 
d="M455 772q0 -61 -43 -104t-105 -43q-63 0 -105 42t-42 105t42 105.5t105 42.5q61 0 104.5 -43t43.5 -105zM455 135q0 -61 -43 -104t-105 -43q-63 0 -105 42t-42 105t42.5 104.5t104.5 41.5t105 -42.5t43 -103.5z" />
    <glyph glyph-name="semicolon.tab" horiz-adv-x="614" 
d="M471 772q0 -63 -43 -105t-106 -42q-62 0 -105 43t-43 104q0 62 43 105t105 43q63 0 106 -42.5t43 -105.5zM229 279l203 -86l-262 -445l-133 64z" />
    <glyph glyph-name="uni20B9.tab" 
d="M852 928q-26 -125 -114 -212.5t-214 -123.5l437 -594h-277l-367 551h-198v158q165 0 218 6q192 23 257 148q15 31 24 67h-499v153h502q-10 56 -34.5 98t-59 65.5t-77 39t-89 19.5t-96 6.5t-95.5 -0.5h-51v155l983 -2v-153h-391q120 -89 141 -228h250v-153h-250z" />
    <glyph glyph-name="space_uni0326" horiz-adv-x="843" 
d="M373 -72l196 -47l-182 -338l-127 56z" />
    <glyph glyph-name="caron.alt" horiz-adv-x="843" 
d="M395 1575h209l-98 -358h-135z" />
    <glyph glyph-name="space_uni0326.alt" horiz-adv-x="843" 
d="M489 1602l125 -54l-110 -331l-199 47z" />
    <glyph glyph-name="registered.alt" horiz-adv-x="1728" 
d="M1624 735q0 -158 -59.5 -298.5t-161 -241.5t-242.5 -159.5t-299 -58.5q-208 0 -382 99.5t-275 273t-101 381.5t102 382t277 274t383 100t382 -99t275 -272t101 -381zM209 731q0 -182 84.5 -334t235 -240.5t333.5 -88.5q184 0 335 89t236 242t85 336t-84.5 335
t-234.5 239.5t-333 87.5q-184 0 -335 -88t-236.5 -241t-85.5 -337zM840 649h-88v-317h-177v813h289q64 0 117.5 -12.5t98.5 -39.5t70.5 -76t25.5 -116q0 -174 -170 -221l217 -348h-185zM752 1010v-240h108q141 0 141 119q0 68 -35 94.5t-106 26.5h-108z" />
    <glyph glyph-name="perthousand.tab" horiz-adv-x="2072" 
d="M664 1143q0 -89 -31 -164t-97.5 -124.5t-156.5 -49.5q-89 0 -155.5 48.5t-98 123.5t-31.5 162q0 137 76.5 237.5t208.5 100.5q134 0 209.5 -98t75.5 -236zM1094 1464h163l-913 -1464h-164zM264 1141q0 -33 4.5 -63t16 -61.5t35.5 -50t59 -18.5t60 18.5t36.5 50.5t16 62
t4.5 64q0 33 -5 63t-16.5 61t-36 49.5t-59.5 18.5t-59 -19t-35.5 -50.5t-16 -61.5t-4.5 -63zM1335 319q0 -89 -30.5 -164t-96.5 -124t-157 -49q-89 0 -155.5 48.5t-98 123t-31.5 161.5q0 137 76.5 237.5t208.5 100.5q89 0 155 -48.5t97.5 -123.5t31.5 -162zM1978 319
q0 -89 -31 -164t-97 -124t-156 -49q-89 0 -155.5 48.5t-98 123t-31.5 161.5q0 137 76.5 237.5t208.5 100.5q89 0 155 -48.5t97.5 -123.5t31.5 -162zM936 317q0 -33 4.5 -63t16 -61t35.5 -49.5t59 -18.5q116 0 116 194q0 26 -2.5 49.5t-10 51t-20 47t-34 32.5t-49.5 13
q-35 0 -59 -19t-35.5 -51t-16 -62t-4.5 -63zM1577 317q0 -33 5 -63t16.5 -61t36 -49.5t59.5 -18.5t59 19t35 50.5t15.5 61.5t4.5 63t-4.5 63t-15.5 61.5t-35 50t-59 18.5t-59.5 -19t-36 -50.5t-16.5 -62t-5 -63.5z" />
    <glyph glyph-name="plusminus.tab" horiz-adv-x="1253" 
d="M1096 690h-379v-366h-180v366h-377v168h377v367h180v-367h379v-168zM160 164h938v-164h-938v164z" />
    <glyph glyph-name="notequal.tab" horiz-adv-x="1253" 
d="M1057 385h-447l-78 -205h-174l80 205h-241v170h307l84 219h-391v170h456l78 199h172l-78 -199h232v-170h-297l-84 -219h381v-170z" />
    <glyph glyph-name="approxequal.tab" horiz-adv-x="1253" 
d="M428 809q-39 0 -63.5 -26.5t-30.5 -67.5h-146q8 111 69.5 190.5t168.5 79.5q70 0 201 -44t200 -44q40 0 65 25.5t28 66.5h145q-7 -113 -65 -190.5t-166 -77.5q-69 0 -179 36l-49 16q-110 36 -178 36zM428 414q-39 0 -63.5 -27t-30.5 -68h-146q8 113 69 192t169 79
q70 0 201 -44t200 -44q39 0 64.5 26.5t28.5 65.5h145q-3 -52 -18.5 -99t-42.5 -85.5t-71 -61t-99 -22.5q-72 0 -179 35l-49 17q-110 36 -178 36z" />
    <glyph glyph-name="lessequal.tab" horiz-adv-x="1253" 
d="M524 721l492 -254v-199l-803 428v47l803 428v-196zM213 164h803v-164h-803v164z" />
    <glyph glyph-name="greaterequal.tab" horiz-adv-x="1253" 
d="M1040 743v-47l-802 -428v199l491 254l-491 254v196zM238 164h802v-164h-802v164z" />
    <glyph glyph-name="space.tab" horiz-adv-x="585" 
 />
    <glyph glyph-name="zero.num" horiz-adv-x="772" 
d="M702 1122q0 -82 -17 -149t-53.5 -121.5t-99 -84.5t-147.5 -30q-152 0 -232.5 99.5t-80.5 255.5q0 63 10.5 118.5t34.5 104t60 83.5t89.5 55t120.5 20q151 0 233 -98.5t82 -252.5zM238 1120q0 -37 2 -66.5t11 -66.5t24 -61t44 -41t68 -17q150 0 150 228q0 38 -2.5 67.5
t-11.5 65.5t-24.5 60t-44.5 40.5t-69 16.5q-44 0 -74.5 -20.5t-45.5 -56.5t-21 -71.5t-6 -77.5z" />
    <glyph glyph-name="one.num" horiz-adv-x="522" 
d="M248 1464h145v-714h-168v553l-166 -97v142z" />
    <glyph glyph-name="two.num" horiz-adv-x="638" 
d="M289 872h286v-122h-548v41l262 260q117 113 117 200q0 46 -24.5 71.5t-70.5 25.5q-52 0 -90.5 -33.5t-56.5 -85.5l-117 51q27 93 99 143t171 50q112 0 182 -54t70 -162q0 -44 -18 -88.5t-53.5 -87.5t-65.5 -73.5t-77 -73.5t-66 -62z" />
    <glyph glyph-name="three.num" horiz-adv-x="688" 
d="M618 956q0 -111 -81.5 -165t-198.5 -54q-49 0 -92.5 9.5t-83.5 29.5t-68.5 55.5t-40.5 83.5l121 52q19 -52 59.5 -80.5t96.5 -28.5q54 0 86.5 25t32.5 78q0 22 -6 39t-12.5 27.5t-23.5 18t-25.5 11t-34 5t-32.5 1.5h-36v106h10q29 0 44 0.5t39 5.5t36.5 14.5t22 28
t9.5 46.5q0 44 -26.5 67t-71.5 23q-109 0 -147 -103l-121 52q31 87 103.5 128.5t168.5 41.5q47 0 90.5 -11t80.5 -33t59 -60.5t22 -88.5q0 -115 -121 -156q66 -14 103.5 -57.5t37.5 -110.5z" />
    <glyph glyph-name="four.num" horiz-adv-x="706" 
d="M655 891h-92v-141h-160v141h-358v59l315 514h203v-456h92v-117zM408 1343l-197 -335h197v335z" />
    <glyph glyph-name="five.num" horiz-adv-x="671" 
d="M600 989q0 -122 -76 -187t-200 -65q-94 0 -168 39t-101 121l121 53q18 -41 57.5 -63.5t85.5 -22.5q54 0 83.5 35t29.5 90q0 54 -29.5 88.5t-83.5 34.5q-83 0 -129 -57h-102l10 409h461v-125h-338l-4 -180q57 68 164 68t163 -65t56 -173z" />
    <glyph glyph-name="six.num" horiz-adv-x="710" 
d="M647 985q0 -121 -78.5 -184.5t-201.5 -63.5q-153 0 -224 92t-71 250q0 64 10 120t34 107t59.5 87.5t89.5 58t122 21.5q82 0 148.5 -33t99.5 -103l-123 -53q-41 66 -123 66q-42 0 -73 -20.5t-47 -56t-23.5 -71t-9.5 -76.5q59 88 174 88q109 0 173 -60.5t64 -168.5z
M244 987q0 -59 32.5 -95t90.5 -36q54 0 86 35t32 90q0 57 -30.5 92t-87.5 35q-55 0 -89 -33t-34 -88z" />
    <glyph glyph-name="seven.num" horiz-adv-x="606" 
d="M573 1464v-59l-260 -655h-166l232 581h-332v133h526z" />
    <glyph glyph-name="eight.num" horiz-adv-x="694" 
d="M631 954q0 -46 -17 -83t-44.5 -61.5t-65 -41.5t-77 -24t-81.5 -7q-52 0 -100.5 12t-90.5 36.5t-67 67t-25 97.5q0 65 35.5 111.5t98.5 68.5q-105 48 -105 148q0 40 15.5 73t41 55t59 37.5t69 22.5t71.5 7q47 0 90.5 -11.5t81.5 -33.5t61 -60.5t23 -87.5q0 -98 -106 -147
q133 -52 133 -179zM248 1266q0 -41 28.5 -65.5t71.5 -24.5q44 0 72.5 24.5t28.5 67.5t-29 66.5t-72 23.5q-44 0 -72 -24.5t-28 -67.5zM229 967q0 -52 33 -80.5t86 -28.5q54 0 86.5 29t32.5 82q0 51 -33.5 79.5t-85.5 28.5t-85.5 -29.5t-33.5 -80.5z" />
    <glyph glyph-name="nine.num" horiz-adv-x="710" 
d="M643 1135q0 -398 -307 -398q-89 0 -161 35t-101 111l119 51q30 -70 137 -70q57 0 91.5 36t45 81t10.5 102q-58 -86 -170 -86q-108 0 -174.5 61.5t-66.5 168.5q0 121 77.5 184.5t200.5 63.5q153 0 226 -91.5t73 -248.5zM227 1231q0 -57 30.5 -91t86.5 -34q54 0 88.5 32
t34.5 85q0 61 -31.5 98t-91.5 37q-55 0 -86 -35.5t-31 -91.5z" />
    <glyph glyph-name="zero.den" horiz-adv-x="772" 
d="M702 373q0 -81 -17.5 -148t-54 -121t-99 -84t-146.5 -30q-153 0 -233 98.5t-80 255.5q0 63 10.5 118.5t34.5 104t60 83.5t89.5 55t120.5 20q151 0 233 -98.5t82 -253.5zM238 371q0 -31 1.5 -55.5t6.5 -55.5t15.5 -53.5t26 -43t41 -31.5t58.5 -11q150 0 150 225
q0 38 -2.5 67.5t-11.5 66t-24.5 61t-44.5 41t-69 16.5q-44 0 -74.5 -21t-45.5 -56.5t-21 -71.5t-6 -78z" />
    <glyph glyph-name="one.den" horiz-adv-x="524" 
d="M248 715h145v-715h-168v553l-166 -96v141z" />
    <glyph glyph-name="two.den" horiz-adv-x="641" 
d="M289 123h286v-123h-548v41l262 260q117 113 117 201q0 46 -24.5 71t-70.5 25q-52 0 -90.5 -33.5t-56.5 -85.5l-117 51q27 93 99 143t171 50q112 0 182 -53.5t70 -161.5q0 -44 -18 -88.5t-53.5 -87.5t-65.5 -73.5t-77 -73.5t-66 -62z" />
    <glyph glyph-name="three.den" horiz-adv-x="690" 
d="M621 209q0 -77 -42.5 -128t-103.5 -71t-137 -20q-104 0 -183 42t-102 134l121 51q35 -106 158 -106q53 0 86 24.5t33 75.5q0 39 -15.5 62.5t-40 30.5t-55 9.5t-61.5 -0.5v109q83 0 111 10q52 19 52 84q0 43 -27.5 65.5t-70.5 22.5q-109 0 -149 -100l-117 51
q31 86 102 128t166 42q47 0 91 -11.5t81 -33.5t59.5 -61t22.5 -89q0 -115 -121 -153q66 -15 104 -58.5t38 -109.5z" />
    <glyph glyph-name="four.den" horiz-adv-x="708" 
d="M655 141h-92v-141h-160v141h-358v60l315 514h203v-457h92v-117zM408 594l-197 -336h197v336z" />
    <glyph glyph-name="five.den" horiz-adv-x="673" 
d="M600 240q0 -121 -77 -185.5t-201 -64.5q-97 0 -170 38t-97 122l123 53q17 -42 55 -65t84 -23q57 0 86 34.5t29 92.5q0 56 -28.5 88t-84.5 32q-86 0 -129 -57h-102l10 410h461v-123h-338l-4 -184q55 69 164 69q107 0 163 -64t56 -173z" />
    <glyph glyph-name="six.den" horiz-adv-x="712" 
d="M647 236q0 -119 -79 -182.5t-201 -63.5q-153 0 -224 92t-71 250q0 80 17 148.5t52.5 124.5t98.5 88t147 32q81 0 147.5 -34t100.5 -103l-123 -51q-41 65 -123 65q-42 0 -73 -21t-47 -57t-23.5 -71.5t-9.5 -75.5q59 88 174 88q107 0 172 -61t65 -168zM244 240
q0 -59 32.5 -96.5t90.5 -37.5q54 0 86 35t32 90q0 57 -30.5 92t-87.5 35q-55 0 -89 -32.5t-34 -85.5z" />
    <glyph glyph-name="seven.den" horiz-adv-x="608" 
d="M573 715v-60l-260 -655h-166l232 582h-332v133h526z" />
    <glyph glyph-name="eight.den" horiz-adv-x="696" 
d="M631 207q0 -46 -17 -83t-44.5 -61.5t-65 -41.5t-77 -24t-81.5 -7q-52 0 -100 11.5t-90 35t-67.5 66t-25.5 98.5q0 65 35.5 111.5t98.5 68.5q-105 50 -105 147q0 94 78 145.5t178 51.5q63 0 119.5 -19.5t96.5 -65t40 -110.5q0 -98 -106 -147q62 -23 97.5 -67.5
t35.5 -108.5zM248 518q0 -43 28.5 -67.5t71.5 -24.5q44 0 72.5 24.5t28.5 67.5t-29 67.5t-72 24.5t-71.5 -24.5t-28.5 -67.5zM229 217q0 -52 33 -80t86 -28q54 0 86.5 28.5t32.5 81.5q0 51 -34 80t-85 29q-52 0 -85.5 -30t-33.5 -81z" />
    <glyph glyph-name="nine.den" horiz-adv-x="712" 
d="M643 387q0 -67 -8 -122.5t-29.5 -108t-55 -88t-88 -57t-126.5 -21.5q-89 0 -162 34t-100 109l119 51q18 -34 56.5 -51.5t80.5 -17.5q57 0 91.5 36t45 81t10.5 102q-58 -86 -170 -86q-108 0 -174.5 61t-66.5 168q0 121 77.5 184.5t200.5 63.5q152 0 225.5 -91t73.5 -247z
M227 481q0 -57 30.5 -91t86.5 -34q54 0 88.5 32.5t34.5 86.5q0 59 -32.5 96t-90.5 37q-55 0 -86 -35.5t-31 -91.5z" />
    <glyph glyph-name="zero.sub" horiz-adv-x="772" 
d="M702 182q0 -82 -17 -149t-53.5 -121.5t-99 -84.5t-147.5 -30q-153 0 -233 99t-80 256q0 80 17.5 146.5t53.5 120t98.5 83.5t145.5 30q151 0 233 -98t82 -252zM238 180q0 -37 2 -66.5t11 -66.5t24 -61t44 -41t68 -17q150 0 150 228q0 38 -2.5 67.5t-11.5 65.5t-24.5 60
t-44.5 40.5t-69 16.5q-44 0 -74.5 -20.5t-45.5 -56.5t-21 -71.5t-6 -77.5z" />
    <glyph glyph-name="one.sub" horiz-adv-x="524" 
d="M248 522h145v-715h-168v553l-166 -96v142z" />
    <glyph glyph-name="two.sub" horiz-adv-x="641" 
d="M289 -68h286v-122h-548v40l262 261q117 113 117 200q0 46 -24.5 70.5t-70.5 24.5q-52 0 -90.5 -33.5t-56.5 -85.5l-117 53q27 93 99 142.5t171 49.5q112 0 182 -53.5t70 -161.5q0 -44 -18 -88.5t-53.5 -87.5t-65.5 -73.5t-77 -73.5t-66 -62z" />
    <glyph glyph-name="three.sub" horiz-adv-x="690" 
d="M621 16q0 -57 -25 -101t-66.5 -69t-90.5 -37t-103 -12q-102 0 -178.5 43.5t-104.5 134.5l117 50q19 -50 61 -78.5t97 -28.5q54 0 88.5 25t34.5 77q0 17 -4 31.5t-8 24.5t-15 18t-17.5 13t-23.5 8t-23.5 4.5t-27 2.5t-26 1h-27.5v106h10q24 0 37 0.5t34 3t33 8.5t25 16
t18.5 27t5.5 40q0 44 -26.5 67t-71.5 23q-109 0 -149 -101l-117 49q31 86 102 128t166 42q103 0 178.5 -48t75.5 -144q0 -115 -121 -156q66 -14 104 -58t38 -110z" />
    <glyph glyph-name="four.sub" horiz-adv-x="708" 
d="M655 -49h-92v-141h-160v141h-358v57l315 516h203v-456h92v-117zM408 403l-197 -335h197v335z" />
    <glyph glyph-name="five.sub" horiz-adv-x="673" 
d="M600 49q0 -122 -77 -187t-201 -65q-60 0 -112 14.5t-95 51.5t-60 94l125 55q14 -42 52 -65t85 -23q57 0 86 33.5t29 91.5q0 56 -29 89.5t-84 33.5q-86 0 -129 -57h-102l10 409h461v-125h-338l-4 -180q57 68 164 68t163 -65t56 -173z" />
    <glyph glyph-name="six.sub" horiz-adv-x="712" 
d="M647 45q0 -120 -78.5 -184t-201.5 -64q-153 0 -224 92t-71 250q0 80 17 148.5t52.5 124.5t98.5 88t147 32q187 0 246 -137l-119 -51q-35 66 -125 66q-42 0 -73 -20.5t-47 -56t-23.5 -71t-9.5 -76.5q59 88 174 88q109 0 173 -60.5t64 -168.5zM244 47q0 -59 32.5 -95
t90.5 -36q54 0 86 35t32 90q0 57 -30.5 92t-87.5 35q-55 0 -89 -33t-34 -88z" />
    <glyph glyph-name="seven.sub" horiz-adv-x="608" 
d="M573 524v-59l-260 -655h-166l232 579h-332v135h526z" />
    <glyph glyph-name="eight.sub" horiz-adv-x="696" 
d="M631 14q0 -46 -17 -83t-44.5 -61.5t-65 -41.5t-77 -24t-81.5 -7q-52 0 -100.5 12t-90.5 36.5t-67 67t-25 97.5q0 65 35.5 111.5t98.5 68.5q-105 48 -105 148q0 65 40.5 110.5t96.5 64.5t119 19q64 0 119.5 -18.5t96 -63.5t40.5 -110q0 -98 -106 -147q133 -52 133 -179z
M248 326q0 -41 28.5 -65.5t71.5 -24.5q44 0 72.5 24.5t28.5 67.5t-29 66.5t-72 23.5q-44 0 -72 -24.5t-28 -67.5zM229 27q0 -52 33 -80.5t86 -28.5q54 0 86.5 29t32.5 82q0 51 -33.5 79.5t-85.5 28.5t-85.5 -29.5t-33.5 -80.5z" />
    <glyph glyph-name="nine.sub" horiz-adv-x="712" 
d="M643 195q0 -398 -307 -398q-56 0 -106 13t-94 47t-62 86l119 51q18 -35 56 -53.5t81 -18.5t73.5 20.5t45.5 55t21.5 70t6.5 75.5q-58 -86 -170 -86q-108 0 -174.5 61.5t-66.5 168.5q0 121 77.5 184.5t200.5 63.5q153 0 226 -91.5t73 -248.5zM227 291q0 -57 30.5 -91
t86.5 -34q54 0 88.5 32t34.5 85q0 61 -31.5 98t-91.5 37q-55 0 -86 -35.5t-31 -91.5z" />
    <glyph glyph-name="plus.sub" horiz-adv-x="727" 
d="M633 102h-205v-213h-129v213h-205v125h205v215h129v-215h205v-125z" />
    <glyph glyph-name="minus.sub" horiz-adv-x="727" 
d="M94 227h539v-125h-539v125z" />
    <glyph glyph-name="zero.sup" horiz-adv-x="772" 
d="M702 1241q0 -82 -17 -149t-53.5 -121.5t-99 -84.5t-147.5 -30q-152 0 -232.5 99t-80.5 255q0 63 10.5 118.5t34.5 104t60 83.5t89.5 55t120.5 20q151 0 233 -98t82 -252zM238 1239q0 -37 2 -66.5t11 -66.5t24 -61t44 -41t68 -17q150 0 150 227q0 38 -2.5 67.5t-11.5 65.5
t-24.5 60t-44.5 40.5t-69 16.5q-44 0 -74.5 -20.5t-45.5 -56t-21 -71t-6 -77.5z" />
    <glyph glyph-name="one.sup" horiz-adv-x="524" 
d="M248 1583h145v-715h-168v553l-166 -96v141z" />
    <glyph glyph-name="two.sup" horiz-adv-x="641" 
d="M289 991h286v-123h-546v41l262 260q117 117 117 201q0 46 -24.5 71t-70.5 25q-52 0 -91.5 -33.5t-55.5 -84.5l-119 51q27 94 99.5 143t172.5 49q110 0 180 -53.5t70 -161.5q0 -44 -17.5 -88t-53.5 -88t-64.5 -73.5t-78 -74t-66.5 -61.5z" />
    <glyph glyph-name="three.sup" horiz-adv-x="690" 
d="M621 1075q0 -57 -25 -101t-66.5 -69t-90.5 -37t-103 -12q-66 0 -121.5 16.5t-100.5 58t-61 103.5l119 49q36 -106 156 -106q54 0 88.5 25t34.5 77q0 17 -4 31.5t-8 24.5t-15 18t-17.5 13t-23.5 8t-23.5 4.5t-27 2.5t-26 1h-27.5v106q83 0 111 10q51 21 52 84
q0 44 -27 67.5t-71 23.5q-109 0 -149 -101l-117 49q31 86 102 128t166 42q103 0 178.5 -48t75.5 -144q0 -115 -121 -156q66 -14 104 -58t38 -110z" />
    <glyph glyph-name="four.sup" horiz-adv-x="708" 
d="M655 1010h-92v-142h-160v142h-358v57l315 516h203v-457h92v-116zM408 1462l-197 -336h197v336z" />
    <glyph glyph-name="five.sup" horiz-adv-x="673" 
d="M600 1108q0 -122 -77 -187t-201 -65q-61 0 -112.5 14.5t-94.5 52t-60 95.5l121 53q14 -43 53 -65.5t88 -22.5q57 0 86 33.5t29 91.5q0 56 -29 89.5t-84 33.5q-86 0 -129 -57h-102l10 409h461v-125h-338l-4 -180q57 68 164 68t163 -65t56 -173z" />
    <glyph glyph-name="six.sup" horiz-adv-x="712" 
d="M647 1104q0 -121 -78.5 -184.5t-201.5 -63.5q-153 0 -224 92t-71 250q0 80 17 148.5t52.5 124.5t98.5 88t147 32q188 0 246 -137l-123 -53q-14 33 -47.5 50t-73.5 17q-42 0 -73 -21t-47 -56t-23.5 -70.5t-9.5 -75.5q59 88 174 88q109 0 173 -60.5t64 -168.5zM244 1106
q0 -59 32.5 -95t90.5 -36q54 0 86 35t32 90q0 57 -30.5 92t-87.5 35q-55 0 -89 -33t-34 -88z" />
    <glyph glyph-name="seven.sup" horiz-adv-x="608" 
d="M573 1583v-59l-260 -656h-166l232 582h-332v133h526z" />
    <glyph glyph-name="eight.sup" horiz-adv-x="696" 
d="M631 1073q0 -46 -17 -83t-44.5 -61.5t-65 -41.5t-77 -24t-81.5 -7q-52 0 -100.5 12t-90.5 36.5t-67 67t-25 97.5q0 65 35.5 111.5t98.5 68.5q-105 48 -105 148q0 65 40.5 110.5t96.5 64.5t119 19q64 0 119.5 -18.5t96 -63.5t40.5 -110q0 -99 -106 -148q133 -52 133 -178z
M248 1384q0 -41 28.5 -65.5t71.5 -24.5q44 0 72.5 24.5t28.5 67.5t-29 67t-72 24q-44 0 -72 -25t-28 -68zM229 1085q0 -52 33 -80t86 -28q54 0 86.5 28.5t32.5 81.5q0 51 -34 80t-85 29q-52 0 -85.5 -30t-33.5 -81z" />
    <glyph glyph-name="nine.sup" horiz-adv-x="712" 
d="M643 1253q0 -67 -8 -122.5t-29.5 -108t-55 -88t-88 -57t-126.5 -21.5q-90 0 -161.5 34.5t-100.5 110.5l119 52q30 -70 137 -70q57 0 91.5 36t45 81t10.5 102q-58 -86 -170 -86q-108 0 -174.5 61.5t-66.5 168.5q0 121 77.5 184t200.5 63q153 0 226 -91.5t73 -248.5z
M227 1350q0 -57 30.5 -91t86.5 -34q54 0 88.5 31.5t34.5 84.5q0 61 -32 98.5t-91 37.5q-55 0 -86 -35.5t-31 -91.5z" />
    <glyph glyph-name="plus.sup" horiz-adv-x="727" 
d="M633 1163h-205v-213h-129v213h-205v125h205v215h129v-215h205v-125z" />
    <glyph glyph-name="minus.sup" horiz-adv-x="727" 
d="M94 1288h539v-125h-539v125z" />
    <glyph glyph-name="slash.alt" horiz-adv-x="256" 
d="M584 1464h147l-1061 -1464h-147z" />
    <glyph glyph-name="grave.uc" horiz-adv-x="819" 
d="M145 1841h250l111 -268h-158z" />
    <glyph glyph-name="dieresis.uc" horiz-adv-x="819" 
d="M743 1724q0 -50 -36.5 -86t-85.5 -36q-50 0 -86.5 36.5t-36.5 85.5t36.5 85t86.5 36t86 -36t36 -85zM319 1724q0 -50 -36.5 -86t-85.5 -36q-50 0 -86.5 36.5t-36.5 85.5t36.5 85t86.5 36t86 -36t36 -85z" />
    <glyph glyph-name="macron.uc" horiz-adv-x="819" 
d="M125 1753h569v-149h-569v149z" />
    <glyph glyph-name="acute.uc" horiz-adv-x="819" 
d="M426 1841h248l-203 -268h-158z" />
    <glyph glyph-name="circumflex.uc" horiz-adv-x="819" 
d="M569 1573l-161 117l-164 -117h-150l223 268h187l221 -268h-156z" />
    <glyph glyph-name="caron.uc" horiz-adv-x="819" 
d="M573 1841h152l-225 -268h-187l-219 268h154l164 -115z" />
    <glyph glyph-name="breve.uc" horiz-adv-x="819" 
d="M698 1843q-8 -119 -90.5 -198.5t-201.5 -79.5q-120 0 -198.5 79t-86.5 199h158q8 -55 41 -89t86 -34q57 0 92.5 33t46.5 90h153z" />
    <glyph glyph-name="dotaccent.uc" horiz-adv-x="819" 
d="M539 1726q0 -52 -38 -89.5t-91 -37.5t-92 37.5t-39 89.5t39 89.5t92 37.5t91 -37.5t38 -89.5z" />
    <glyph glyph-name="ring.uc" horiz-adv-x="819" 
d="M635 1765q0 -90 -67.5 -153.5t-157.5 -63.5t-158 63.5t-68 153.5q0 91 67 155.5t159 64.5t158.5 -64.5t66.5 -155.5zM303 1765q0 -47 30.5 -80.5t76.5 -33.5t76 33.5t30 80.5t-30 82t-76 35q-48 0 -77.5 -34.5t-29.5 -82.5z" />
    <glyph glyph-name="tilde.uc" horiz-adv-x="819" 
d="M299 1663q-31 0 -52 -27t-26 -61h-141q6 64 29.5 119t72 95t113.5 40q38 0 80 -21t79.5 -42t65.5 -21q31 0 52 26.5t26 59.5h141q-5 -47 -20 -90t-41 -80t-66 -59.5t-88 -22.5q-49 0 -122 42t-103 42z" />
    <glyph glyph-name="hungarumlaut.uc" horiz-adv-x="819" 
d="M582 1841h221l-150 -268h-147zM250 1841h219l-147 -268h-150z" />
    <glyph glyph-name="idotaccent" horiz-adv-x="540" 
d="M399 1397q0 -54 -39.5 -91.5t-93.5 -37.5t-92.5 37.5t-38.5 91.5t38.5 91.5t92.5 37.5q55 0 94 -37t39 -92zM164 1071h211v-1071h-211v1071z" />
    <glyph glyph-name="dollar.old" horiz-adv-x="1259" 
d="M1147 408q0 -126 -64 -223t-166.5 -149t-226.5 -59v-251h-127v251q-170 12 -304 113t-179 262l176 76q29 -112 113 -193.5t194 -87.5v496q-76 13 -135.5 31t-117.5 49t-96 72.5t-61.5 103.5t-23.5 141q0 87 37 160.5t98.5 122.5t138.5 78.5t160 34.5v178h127v-180
q329 -29 430 -318l-164 -72q-31 94 -100 153t-166 69v-449q82 -14 143 -30.5t123 -48t101.5 -73.5t64.5 -107.5t25 -149.5zM328 1059q0 -45 12.5 -79.5t32 -57t52 -39.5t63.5 -26.5t75 -18.5v432q-97 -8 -166 -63t-69 -148zM938 387q0 47 -13 84t-33.5 61t-54.5 42
t-67.5 28.5t-79.5 20.5v-478q103 11 175.5 76.5t72.5 165.5z" />
    <glyph glyph-name="Euro.old" horiz-adv-x="1357" 
d="M1266 385q-54 -191 -184.5 -298t-325.5 -107q-231 0 -378.5 149.5t-174.5 384.5h-142v121h136v143h-136v121h142q12 113 55 211.5t110.5 173t165.5 117.5t214 43q192 0 312.5 -92.5t188.5 -278.5l-180 -78q-39 133 -116 204t-208 71q-63 0 -115 -20.5t-88 -55t-63 -83
t-42 -101t-21 -111.5h436l-25 -121h-415v-143h389l-23 -121h-360q8 -74 31.5 -137t63.5 -112t101 -77t138 -28q253 0 342 301z" />
    <glyph glyph-name="sterling.old" horiz-adv-x="1214" 
d="M1128 246q-38 -121 -125 -192.5t-210 -71.5q-69 0 -148 30t-151.5 60t-126.5 30q-49 0 -83 -27t-38 -75h-178q11 95 63.5 168.5t140.5 95.5q23 64 23 121q0 19 -2 40t-4 36t-7 40t-7.5 36t-9.5 40t-9 37h-164v148h121q-33 154 -33 258q0 125 62.5 222.5t166 148.5
t228.5 51q167 0 277.5 -79t172.5 -237l-188 -82q-29 98 -96 159t-164 61q-108 0 -173 -70.5t-65 -179.5q0 -103 29 -252h406v-148h-375q24 -130 24 -231q0 -65 -24 -127q26 -6 133 -48t160 -42q153 0 202 156z" />
    <glyph glyph-name="yen.old" horiz-adv-x="1173" 
d="M1040 299h-331v-299h-220v299h-331v121h331v145h-331v119h301l-410 737h240l317 -606l305 606h215l-389 -737h303v-119h-331v-145h331v-121z" />
    <glyph glyph-name="zero.old" horiz-adv-x="1331" 
d="M1229 604q0 -131 -36.5 -243.5t-105 -198t-176.5 -134t-243 -48.5q-176 0 -306 83.5t-195 222t-65 312.5v70q0 131 37 243t106.5 196.5t178 132.5t242.5 48q177 0 306.5 -82t193 -219.5t63.5 -312.5v-70zM326 672q0 -57 3 -104.5t12 -102t24.5 -97t41.5 -83.5t61.5 -67.5
t86 -43t113.5 -16.5q76 0 135.5 25t96.5 66.5t61 100t33.5 120t9.5 132.5q0 66 -4.5 120.5t-16.5 116.5t-36 108.5t-60 85.5t-92.5 60t-128.5 21q-75 0 -134 -25t-97 -66.5t-63 -99.5t-35.5 -120t-10.5 -131z" />
    <glyph glyph-name="one.old" horiz-adv-x="813" 
d="M403 1268h199v-1268h-219v1049l-313 -215v198z" />
    <glyph glyph-name="two.old" horiz-adv-x="1128" 
d="M412 174h612v-174h-983v66l504 450q54 49 86 81t74 83.5t62.5 105.5t20.5 111q0 102 -62 158.5t-165 56.5q-131 0 -206.5 -77.5t-118.5 -215.5l-166 74q53 183 179 289t310 106q90 0 170.5 -24.5t144 -71t101 -121t37.5 -168.5q0 -43 -12 -86.5t-26.5 -77.5t-46 -76.5
t-51.5 -66.5t-64 -66t-61.5 -57.5t-64.5 -56.5z" />
    <glyph glyph-name="three.old" horiz-adv-x="1226" 
d="M1122 217q0 -108 -44.5 -192.5t-119.5 -135t-167 -76.5t-195 -26q-120 0 -225.5 42t-183 127t-107.5 202l172 73q42 -125 126.5 -197.5t209.5 -72.5q90 0 157 25.5t109.5 85.5t42.5 151q0 42 -7.5 76.5t-19 60t-33 45.5t-40 33t-51 21.5t-55.5 13.5t-62.5 7t-63.5 2.5
t-67 0.5v170q48 -1 77.5 0t72.5 5t69.5 12.5t57 26t47.5 42t28.5 62t11.5 86.5q0 110 -64 168.5t-175 58.5q-125 0 -204.5 -60.5t-121.5 -181.5l-166 72q53 167 184 255.5t310 88.5q70 0 136 -16t123.5 -48t100.5 -78t67.5 -109.5t24.5 -137.5q0 -116 -62 -197t-173 -122
q137 -35 208.5 -128t71.5 -235z" />
    <glyph glyph-name="four.old" horiz-adv-x="1286" 
d="M1214 119h-200v-316h-219v316h-732v84l660 1063h291v-979h200v-168zM797 1096l-482 -809h482v809z" />
    <glyph glyph-name="five.old" horiz-adv-x="1183" 
d="M1083 283q0 -223 -143.5 -361.5t-366.5 -138.5q-88 0 -166 20t-143.5 60.5t-112.5 106.5t-67 153l174 74q68 -238 313 -238q139 0 214 91t75 233q0 135 -74 224t-206 89q-198 0 -314 -133h-106l6 803h840v-185h-666l-2 -426q112 109 303 109q137 0 238.5 -65t152.5 -173
t51 -243z" />
    <glyph glyph-name="six.old" horiz-adv-x="1267" 
d="M1169 471q0 -150 -67.5 -262.5t-184.5 -170.5t-266 -58q-540 0 -540 694q0 117 17 226t59 217t105.5 187.5t164.5 129t229 49.5q161 0 280 -68t175 -211l-178 -78q-34 88 -111 134.5t-174 46.5q-58 0 -107 -19.5t-84 -52t-62 -78.5t-44 -94.5t-28 -105t-15.5 -105.5
t-5.5 -100q57 94 153.5 143t210.5 49q207 0 340 -133t133 -340zM346 483q0 -146 80 -239.5t225 -93.5q135 0 214 88.5t79 224.5q0 141 -78 230t-217 89q-130 0 -216.5 -84.5t-86.5 -214.5z" />
    <glyph glyph-name="seven.old" horiz-adv-x="1091" 
d="M1047 1266v-88l-580 -1375h-229l548 1284h-731v179h992z" />
    <glyph glyph-name="eight.old" horiz-adv-x="1236" 
d="M1139 416q0 -105 -44.5 -189.5t-118.5 -137.5t-166 -81t-192 -28q-98 0 -189.5 28t-166 79.5t-119.5 135.5t-45 187q0 131 78 228.5t207 141.5q-105 39 -167 120.5t-62 191.5q0 92 40.5 168t107 123.5t149 73.5t170.5 26q117 0 220.5 -43t172.5 -133.5t69 -210.5
q0 -110 -62.5 -190.5t-168.5 -123.5q131 -47 209 -140.5t78 -225.5zM371 1085q0 -104 74 -168.5t180 -64.5q109 0 176 63.5t67 171.5q0 102 -72 166t-175 64q-106 0 -178 -63.5t-72 -168.5zM322 424q0 -123 87 -196.5t212 -73.5q129 0 211.5 72.5t82.5 199.5q0 124 -83 195
t-209 71t-213.5 -72.5t-87.5 -195.5z" />
    <glyph glyph-name="nine.old" horiz-adv-x="1267" 
d="M1161 561q0 -85 -7 -162t-24.5 -156t-45 -145t-71.5 -124.5t-101 -99t-136 -64t-174 -23.5q-172 0 -306 77t-190 230l183 78q39 -99 124.5 -153t194.5 -54q329 0 334 551q-58 -95 -155 -142.5t-214 -47.5q-208 0 -343.5 132.5t-135.5 340.5q0 151 68.5 263.5t186 170
t267.5 57.5q131 0 229.5 -40.5t157.5 -106t95.5 -163t49.5 -197t13 -222.5zM319 807q0 -140 80.5 -229t218.5 -89q132 0 220 81t88 212q0 148 -82 243t-228 95q-135 0 -216 -88.5t-81 -224.5z" />
    <glyph glyph-name="florin.tab" 
d="M944 684h-307l-158 -1057h-213l160 1057h-209v162h234q5 33 11.5 86t11 89.5t13.5 86.5t18.5 85t25.5 77t35.5 70.5t48.5 57.5t64 46.5t82 28t103 10.5q76 0 144 -23v-170q-67 23 -129 23q-78 0 -120.5 -49t-53.5 -131l-43 -287h282v-162z" />
    <glyph glyph-name="dollar.oldtab" 
d="M1130 410q0 -126 -63 -223t-165 -149.5t-226 -60.5v-251h-125v254q-167 12 -300.5 112t-178.5 258l170 76q31 -110 116.5 -192.5t192.5 -86.5v500q-75 13 -135 30.5t-118 48.5t-96 72.5t-61.5 104t-23.5 141.5q0 87 36.5 161t97.5 123.5t138.5 79t161.5 34.5v180h125
v-182q320 -28 430 -320l-164 -69q-31 94 -100.5 153t-165.5 68v-451q82 -13 143.5 -30.5t122.5 -49t100.5 -74t63.5 -108t24 -149.5zM315 1065q0 -56 17.5 -95.5t52.5 -64t72.5 -38.5t93.5 -25v432q-97 -7 -166.5 -61.5t-69.5 -147.5zM924 391q0 59 -18 100.5t-55 67
t-76.5 40t-98.5 26.5v-480q103 13 175.5 79.5t72.5 166.5z" />
    <glyph glyph-name="Euro.oldtab" 
d="M1145 379q-43 -184 -160.5 -291.5t-300.5 -107.5q-112 0 -203.5 43.5t-152 118t-96.5 169.5t-46 203h-123v123h119v143h-119v121h123q6 86 29 165t64.5 148.5t97.5 120.5t133.5 81t167.5 30q181 0 286 -92.5t162 -274.5l-161 -73q-16 60 -38 105.5t-55.5 84t-82.5 58.5
t-111 20q-75 0 -132 -32.5t-90 -88t-50.5 -118t-22.5 -134.5h399l-18 -121h-383v-143h356l-20 -123h-332q5 -70 23.5 -131t52.5 -113t90.5 -82t130.5 -30q67 0 119 22.5t87.5 65t59 91.5t41.5 114z" />
    <glyph glyph-name="sterling.oldtab" 
d="M1130 250q-38 -122 -124 -195t-209 -73q-68 0 -145 30t-147.5 60t-123.5 30q-49 0 -83 -27t-38 -75h-178q8 91 61 163.5t138 96.5q22 64 22 125q0 81 -39 229h-162v148h121q-33 139 -33 258q0 124 62.5 221.5t166 149t226.5 51.5q169 0 277 -78.5t165 -239.5l-180 -80
q-29 98 -96 159t-164 61q-110 0 -171.5 -69.5t-61.5 -180.5q0 -124 28 -252h396v-148h-367q25 -136 25 -231q0 -63 -25 -127q17 -5 126 -47.5t163 -42.5q154 0 203 156z" />
    <glyph glyph-name="yen.oldtab" 
d="M1063 305h-328v-305h-217v305h-325v121h325v143h-325v121h301l-390 731h234l297 -596l285 596h204l-368 -731h307v-121h-328v-143h328v-121z" />
    <glyph glyph-name="zero.oldtab" 
d="M1126 539q0 -118 -34 -219.5t-97 -177.5t-160.5 -119t-218.5 -43q-159 0 -277 74.5t-177.5 199t-59.5 281.5v200q0 157 59.5 281t177.5 198t277 74q158 0 275 -73t176 -196.5t59 -279.5v-200zM322 535q0 -76 15.5 -140.5t49 -118t92.5 -84t139 -30.5t138.5 31t90 86
t46 118.5t14.5 139.5v200q0 59 -9 111.5t-30.5 101.5t-54 84.5t-83 56.5t-114.5 21q-79 0 -138 -31.5t-92 -85.5t-48.5 -118.5t-15.5 -139.5v-202z" />
    <glyph glyph-name="one.oldtab" 
d="M649 1268h199v-1268h-219v1049l-406 -289v198z" />
    <glyph glyph-name="two.oldtab" horiz-adv-x="1232" 
d="M467 174h612v-174h-983v66l504 450q55 49 86.5 81t74 84t63 105.5t20.5 110.5q0 101 -63 158t-165 57q-132 0 -208 -77.5t-117 -215.5l-168 74q54 183 180 289t311 106q90 0 170.5 -24.5t144 -71t101 -121t37.5 -168.5q0 -42 -12 -85.5t-27 -77.5t-46.5 -76.5
t-52.5 -67.5t-64 -66.5t-61 -57.5l-63 -56z" />
    <glyph glyph-name="three.oldtab" horiz-adv-x="1236" 
d="M1128 215q0 -87 -29 -159.5t-79 -122t-117.5 -84t-143 -50.5t-157.5 -16q-183 0 -326.5 99t-189.5 272l174 75q40 -125 124.5 -198.5t209.5 -73.5q138 0 223.5 65t85.5 199q0 43 -7.5 77.5t-18.5 60t-33 45.5t-40 32.5t-51 21.5t-55 13.5t-62.5 6.5t-63.5 2.5t-68 0.5
v170q153 0 215 16q126 34 147 161q4 27 4 57q0 110 -65 168.5t-176 58.5q-125 0 -204.5 -60.5t-121.5 -181.5l-166 72q53 166 185 255t309 89q120 0 221 -43t167 -133.5t66 -212.5q0 -229 -237 -319q137 -35 208.5 -128t71.5 -235z" />
    <glyph glyph-name="four.oldtab" 
d="M1151 111h-182v-308h-213v308h-690v77l614 1078h289v-994h182v-161zM758 1094l-455 -822h455v822z" />
    <glyph glyph-name="five.oldtab" 
d="M1116 283q0 -222 -143 -361t-365 -139q-119 0 -217 34t-172 112t-100 194l170 74q71 -238 317 -238q139 0 214 91t75 233q0 136 -75 224.5t-208 88.5q-197 0 -311 -133h-108l6 803h839v-185h-665l-2 -426q112 109 303 109q137 0 238.5 -65t152.5 -173t51 -243z" />
    <glyph glyph-name="six.oldtab" horiz-adv-x="1230" 
d="M1133 469q0 -222 -138 -357t-360 -135q-520 0 -520 707q0 92 12 181.5t37 181t69 168.5t103.5 137.5t145 94.5t188.5 34q156 0 269 -68.5t167 -210.5l-170 -78q-35 88 -108 134.5t-169 46.5q-66 0 -119.5 -26t-88 -71.5t-60 -100t-39 -120.5t-19.5 -122t-7 -115
q54 94 147 143t205 49q203 0 329 -134.5t126 -338.5zM338 483q0 -145 77.5 -238t219.5 -93q133 0 210 88t77 223q0 139 -76.5 229t-212.5 90q-130 0 -212.5 -84.5t-82.5 -214.5z" />
    <glyph glyph-name="seven.oldtab" 
d="M1110 1266v-88l-596 -1375h-227l561 1284h-721v179h983z" />
    <glyph glyph-name="eight.oldtab" 
d="M1114 416q0 -103 -41 -187t-110 -137.5t-158.5 -82.5t-188.5 -29q-97 0 -186 28.5t-159 81.5t-112 136t-42 184q0 133 72 229t200 141q-104 38 -160.5 119.5t-56.5 192.5q0 119 64 210t163.5 136t216.5 45t216.5 -44.5t163 -134.5t63.5 -208q0 -111 -57.5 -191.5
t-161.5 -122.5q128 -45 201 -139.5t73 -226.5zM383 1085q0 -103 68 -168t172 -65q105 0 166 66t61 172q0 99 -67.5 163t-166.5 64q-101 0 -167 -65.5t-66 -166.5zM334 422q0 -121 80 -194.5t202 -73.5q125 0 203 74t78 198q0 123 -76.5 194.5t-199.5 71.5q-125 0 -206 -73.5
t-81 -196.5z" />
    <glyph glyph-name="nine.oldtab" horiz-adv-x="1226" 
d="M1112 563q0 -81 -6 -155t-22.5 -153.5t-42 -146t-67 -126.5t-95.5 -102t-130 -66.5t-167 -24.5q-167 0 -292.5 78t-176.5 229l170 78q37 -99 118 -154t187 -55q58 0 105.5 20t80 52.5t56.5 79.5t37.5 94.5t22 105t11 104t2.5 97.5q-53 -93 -145 -141.5t-203 -48.5
q-201 0 -328 134.5t-127 336.5q0 224 136.5 358.5t359.5 134.5q92 0 166.5 -22t127.5 -59t93 -93t64 -116.5t39 -137t20.5 -147.5t5.5 -154zM311 809q0 -137 75.5 -228.5t209.5 -91.5q129 0 210 83t81 212q0 145 -75 241.5t-216 96.5q-132 0 -208.5 -89.5t-76.5 -223.5z" />
    <glyph glyph-name="a.alt" horiz-adv-x="1267" 
d="M897 178q-51 -88 -147.5 -143t-198.5 -55q-110 0 -200 44t-147.5 119t-88.5 170.5t-31 202.5q0 88 19 171t58.5 156.5t96 129t135.5 87.5t172 32q106 0 193 -47t139 -138v164h213v-1071h-213v178zM303 541q0 -74 15 -140t47 -123.5t90 -91.5t137 -34t140 30.5t98 83.5
t56 119.5t19 142.5q0 63 -8.5 117.5t-30 106.5t-54.5 89t-85.5 59t-120.5 22q-80 0 -140 -32t-94.5 -87t-51.5 -120.5t-17 -141.5z" />
    <glyph glyph-name="t.alt" horiz-adv-x="710" 
d="M651 905h-225v-905h-213v905h-164v166h164v211l213 92v-303h225v-166z" />
    <glyph glyph-name="germandbls.alt" horiz-adv-x="1292" 
d="M1225 317q0 -159 -101.5 -247t-263.5 -88q-128 0 -227.5 59.5t-130.5 175.5l157 68q22 -62 77 -102t120 -40q77 0 116.5 42t39.5 120q0 42 -24.5 78t-63.5 63t-86.5 53t-94.5 55t-86 62t-63.5 80.5t-24.5 104.5q0 55 29.5 107t71.5 91.5t83.5 77.5t71 82.5t29.5 89.5
q0 87 -59.5 126.5t-151.5 39.5q-135 0 -203.5 -80t-68.5 -217v-1118h-213v1112q0 213 136 342t349 129q61 0 119 -11t112.5 -35.5t95 -60.5t65 -90t24.5 -120q0 -65 -30 -122.5t-72.5 -98t-84.5 -76.5t-72 -73.5t-30 -74.5q0 -24 25 -49t65 -49.5t89 -52t97.5 -62.5
t88.5 -75t65 -96t25 -120z" />
    <glyph glyph-name="aacute.alt" horiz-adv-x="1267" 
d="M653 1552h246l-213 -309h-156zM897 178q-51 -88 -147.5 -143t-198.5 -55q-110 0 -200 44t-147.5 119t-88.5 170.5t-31 202.5q0 88 19 171t58.5 156.5t96 129t135.5 87.5t172 32q106 0 193 -47t139 -138v164h213v-1071h-213v178zM303 541q0 -74 15 -140t47 -123.5
t90 -91.5t137 -34t140 30.5t98 83.5t56 119.5t19 142.5q0 63 -8.5 117.5t-30 106.5t-54.5 89t-85.5 59t-120.5 22q-80 0 -140 -32t-94.5 -87t-51.5 -120.5t-17 -141.5z" />
    <glyph glyph-name="abreve.alt" horiz-adv-x="1267" 
d="M911 1536q-6 -121 -88 -202t-202 -81t-198.5 81t-86.5 202h156q8 -58 40.5 -91.5t88.5 -33.5q58 0 94 33.5t45 91.5h151zM897 178q-51 -88 -147.5 -143t-198.5 -55q-110 0 -200 44t-147.5 119t-88.5 170.5t-31 202.5q0 88 19 171t58.5 156.5t96 129t135.5 87.5t172 32
q106 0 193 -47t139 -138v164h213v-1071h-213v178zM303 541q0 -74 15 -140t47 -123.5t90 -91.5t137 -34t140 30.5t98 83.5t56 119.5t19 142.5q0 63 -8.5 117.5t-30 106.5t-54.5 89t-85.5 59t-120.5 22q-80 0 -140 -32t-94.5 -87t-51.5 -120.5t-17 -141.5z" />
    <glyph glyph-name="acircumflex.alt" horiz-adv-x="1267" 
d="M784 1243l-161 146l-164 -146h-150l228 303h178l223 -303h-154zM897 178q-51 -88 -147.5 -143t-198.5 -55q-110 0 -200 44t-147.5 119t-88.5 170.5t-31 202.5q0 88 19 171t58.5 156.5t96 129t135.5 87.5t172 32q106 0 193 -47t139 -138v164h213v-1071h-213v178zM303 541
q0 -74 15 -140t47 -123.5t90 -91.5t137 -34t140 30.5t98 83.5t56 119.5t19 142.5q0 63 -8.5 117.5t-30 106.5t-54.5 89t-85.5 59t-120.5 22q-80 0 -140 -32t-94.5 -87t-51.5 -120.5t-17 -141.5z" />
    <glyph glyph-name="adieresis.alt" horiz-adv-x="1267" 
d="M948 1397q0 -51 -36 -86t-87 -35t-87 35t-36 86t36 86t87 35t87 -35t36 -86zM553 1397q0 -50 -36.5 -85.5t-86.5 -35.5q-51 0 -87 35t-36 86t36 86t87 35q50 0 86.5 -35.5t36.5 -85.5zM897 178q-51 -88 -147.5 -143t-198.5 -55q-110 0 -200 44t-147.5 119t-88.5 170.5
t-31 202.5q0 88 19 171t58.5 156.5t96 129t135.5 87.5t172 32q106 0 193 -47t139 -138v164h213v-1071h-213v178zM303 541q0 -74 15 -140t47 -123.5t90 -91.5t137 -34t140 30.5t98 83.5t56 119.5t19 142.5q0 63 -8.5 117.5t-30 106.5t-54.5 89t-85.5 59t-120.5 22
q-80 0 -140 -32t-94.5 -87t-51.5 -120.5t-17 -141.5z" />
    <glyph glyph-name="agrave.alt" horiz-adv-x="1267" 
d="M346 1552h246l123 -309h-156zM897 178q-51 -88 -147.5 -143t-198.5 -55q-110 0 -200 44t-147.5 119t-88.5 170.5t-31 202.5q0 88 19 171t58.5 156.5t96 129t135.5 87.5t172 32q106 0 193 -47t139 -138v164h213v-1071h-213v178zM303 541q0 -74 15 -140t47 -123.5t90 -91.5
t137 -34t140 30.5t98 83.5t56 119.5t19 142.5q0 63 -8.5 117.5t-30 106.5t-54.5 89t-85.5 59t-120.5 22q-80 0 -140 -32t-94.5 -87t-51.5 -120.5t-17 -141.5z" />
    <glyph glyph-name="amacron.alt" horiz-adv-x="1267" 
d="M346 1458h555v-147h-555v147zM897 178q-51 -88 -147.5 -143t-198.5 -55q-110 0 -200 44t-147.5 119t-88.5 170.5t-31 202.5q0 88 19 171t58.5 156.5t96 129t135.5 87.5t172 32q106 0 193 -47t139 -138v164h213v-1071h-213v178zM303 541q0 -74 15 -140t47 -123.5t90 -91.5
t137 -34t140 30.5t98 83.5t56 119.5t19 142.5q0 63 -8.5 117.5t-30 106.5t-54.5 89t-85.5 59t-120.5 22q-80 0 -140 -32t-94.5 -87t-51.5 -120.5t-17 -141.5z" />
    <glyph glyph-name="aogonek.alt" horiz-adv-x="1267" 
d="M1133 -346q-61 -27 -144 -27q-88 0 -153.5 40.5t-65.5 123.5q0 66 44.5 119t111.5 88l-29 31v149q-51 -87 -147.5 -141.5t-198.5 -54.5q-110 0 -200 43.5t-147.5 118t-88.5 170t-31 202.5q0 117 32 220t93 183t157.5 126.5t217.5 46.5q98 0 181.5 -50t131.5 -135v164h213
v-1059q-149 -88 -149 -178q0 -70 73 -70q54 0 99 19v-129zM303 541q0 -74 15 -140t47 -123.5t90 -91.5t137 -34t140 30.5t98 83.5t56 119.5t19 142.5q0 63 -8.5 117.5t-30 106.5t-54.5 89t-85.5 59t-120.5 22q-80 0 -140 -32t-94.5 -87t-51.5 -120.5t-17 -141.5z" />
    <glyph glyph-name="aring.alt" horiz-adv-x="1267" 
d="M838 1434q0 -90 -68 -153.5t-158 -63.5t-156.5 63.5t-66.5 153.5t66.5 153.5t156.5 63.5t158 -63.5t68 -153.5zM508 1434q0 -46 29 -80.5t75 -34.5t76.5 34t30.5 81t-30.5 80.5t-76.5 33.5t-75 -34t-29 -80zM897 178q-51 -88 -147.5 -143t-198.5 -55q-110 0 -200 44
t-147.5 119t-88.5 170.5t-31 202.5q0 88 19 171t58.5 156.5t96 129t135.5 87.5t172 32q106 0 193 -47t139 -138v164h213v-1071h-213v178zM303 541q0 -74 15 -140t47 -123.5t90 -91.5t137 -34t140 30.5t98 83.5t56 119.5t19 142.5q0 63 -8.5 117.5t-30 106.5t-54.5 89
t-85.5 59t-120.5 22q-80 0 -140 -32t-94.5 -87t-51.5 -120.5t-17 -141.5z" />
    <glyph glyph-name="aringacute.alt" horiz-adv-x="1267" 
d="M657 1966h248l-203 -268h-157zM838 1399q0 -90 -68 -153.5t-158 -63.5t-156.5 63.5t-66.5 153.5t66.5 153.5t156.5 63.5t158 -63.5t68 -153.5zM508 1399q0 -46 29 -80.5t75 -34.5t76.5 34t30.5 81t-30.5 80.5t-76.5 33.5t-75 -34t-29 -80zM897 178q-51 -88 -147.5 -143
t-198.5 -55q-110 0 -200 44t-147.5 119t-88.5 170.5t-31 202.5q0 88 19 171t58.5 156.5t96 129t135.5 87.5t172 32q106 0 193 -47t139 -138v164h213v-1071h-213v178zM303 541q0 -74 15 -140t47 -123.5t90 -91.5t137 -34t140 30.5t98 83.5t56 119.5t19 142.5q0 63 -8.5 117.5
t-30 106.5t-54.5 89t-85.5 59t-120.5 22q-80 0 -140 -32t-94.5 -87t-51.5 -120.5t-17 -141.5z" />
    <glyph glyph-name="atilde.alt" horiz-adv-x="1267" 
d="M510 1337q-31 0 -51 -26t-27 -60h-139q6 64 29 119t71 95t113 40q48 0 121.5 -42t103.5 -42q31 0 51 26.5t27 61.5h139q-6 -64 -29 -119.5t-71 -96t-113 -40.5q-49 0 -122 42t-103 42zM897 178q-51 -88 -147.5 -143t-198.5 -55q-110 0 -200 44t-147.5 119t-88.5 170.5
t-31 202.5q0 88 19 171t58.5 156.5t96 129t135.5 87.5t172 32q106 0 193 -47t139 -138v164h213v-1071h-213v178zM303 541q0 -74 15 -140t47 -123.5t90 -91.5t137 -34t140 30.5t98 83.5t56 119.5t19 142.5q0 63 -8.5 117.5t-30 106.5t-54.5 89t-85.5 59t-120.5 22
q-80 0 -140 -32t-94.5 -87t-51.5 -120.5t-17 -141.5z" />
    <glyph glyph-name="tbar.alt" horiz-adv-x="710" 
d="M651 551h-225v-551h-213v551h-164v141h164v213h-164v166h164v211l213 92v-303h225v-166h-225v-213h225v-141z" />
    <glyph glyph-name="tcaron.alt" horiz-adv-x="710" 
d="M567 1575h211l-100 -358h-133zM651 905h-225v-905h-213v905h-164v166h164v211l213 92v-303h225v-166z" />
    <glyph glyph-name="tcommaaccent.alt" horiz-adv-x="710" 
d="M651 905h-225v-905h-213v905h-164v166h164v211l213 92v-303h225v-166zM244 -72l196 -47l-182 -338l-127 56z" />
    <glyph glyph-name="f.short" horiz-adv-x="712" 
d="M664 905h-252v-905h-213v905h-150v166h150q0 62 1 97.5t5 91t13 88.5t24.5 75.5t41 67t60 48t83.5 34t110 10.5q92 0 161 -27l-65 -151q-54 8 -78 8q-74 0 -108.5 -47t-34.5 -123v-172h252v-166z" />
    <glyph glyph-name="f_f.short" horiz-adv-x="1306" 
d="M807 905h-395v-905h-213v905h-150v166h150q0 51 1 85.5t4.5 81t10 78t19 69t29.5 62.5t43 50t58.5 39.5t77 23.5t97.5 9q81 0 155 -27l-63 -151q-50 8 -72 8q-75 0 -111 -46.5t-36 -123.5v-158h395q0 62 1 97.5t5 91t13 88.5t24.5 75.5t41 67t60 48t83.5 34t110 10.5
q81 0 155 -27l-65 -151q-50 8 -72 8q-74 0 -108.5 -47t-34.5 -123v-172h252v-166h-252v-905h-213v905z" />
    <glyph glyph-name="questiondown.uc" horiz-adv-x="1026" 
d="M725 1331q0 -61 -44 -104t-106 -43t-105.5 43t-43.5 104t44 103.5t105 42.5t105.5 -42.5t44.5 -103.5zM958 324q-36 -159 -160.5 -250.5t-291.5 -91.5q-180 0 -296 89.5t-116 264.5q0 57 20 109.5t52.5 93.5t72 80.5t80 77.5t74 77t56.5 86.5t26 97.5v52v26h193v-88
q0 -81 -36.5 -153.5t-89 -126.5t-104.5 -104t-88.5 -107t-36.5 -115q0 -92 53 -139t146 -47q105 0 179.5 66.5t101.5 172.5z" />
    <glyph glyph-name="exclamdown.uc" horiz-adv-x="610" 
d="M455 1331q0 -61 -44 -104t-106 -43q-61 0 -105 43t-44 104t44 103.5t105 42.5t105.5 -42.5t44.5 -103.5zM219 1036h168l35 -1036h-238z" />
    <glyph glyph-name="hyphen.uc" horiz-adv-x="763" 
d="M119 764h526v-189h-526v189z" />
    <glyph glyph-name="endash.uc" horiz-adv-x="1083" 
d="M92 748h899v-158h-899v158z" />
    <glyph glyph-name="emdash.uc" horiz-adv-x="1839" 
d="M92 748h1655v-158h-1655v158z" />
    <glyph glyph-name="guilsinglleft.uc" horiz-adv-x="653" 
d="M557 1004l-254 -388l254 -387h-184l-264 387l264 388h184z" />
    <glyph glyph-name="guilsinglright.uc" horiz-adv-x="653" 
d="M281 1004l264 -388l-264 -387h-185l252 387l-252 388h185z" />
    <glyph glyph-name="guillemotleft.uc" horiz-adv-x="1015" 
d="M920 1004l-254 -388l254 -387h-183l-264 387l264 388h183zM555 1004l-254 -388l254 -387h-182l-264 387l264 388h182z" />
    <glyph glyph-name="guillemotright.uc" horiz-adv-x="1015" 
d="M643 1004l264 -388l-264 -387h-182l254 387l-254 388h182zM279 1004l262 -388l-262 -387h-183l252 387l-252 388h183z" />
    <glyph glyph-name="parenleft.uc" horiz-adv-x="673" 
d="M324 700q0 -240 82.5 -473t230.5 -428h-193q-159 187 -247 422t-88 479q0 245 87.5 480.5t247.5 423.5h193q-148 -196 -230.5 -430t-82.5 -474z" />
    <glyph glyph-name="parenright.uc" horiz-adv-x="673" 
d="M565 702q0 -245 -88 -480t-248 -423h-192q150 196 231.5 428.5t81.5 474.5q0 241 -82 474.5t-231 427.5h192q160 -189 248 -423.5t88 -478.5z" />
    <glyph glyph-name="bracketleft.uc" horiz-adv-x="751" 
d="M383 -12h283v-164h-496v1771h496v-163h-283v-1444z" />
    <glyph glyph-name="bracketright.uc" horiz-adv-x="751" 
d="M88 1595h494v-1771h-494v164h281v1444h-281v163z" />
    <glyph glyph-name="braceleft.uc" horiz-adv-x="796" 
d="M475 166q0 -59 16 -97.5t49 -58t72 -26.5t97 -7v-159q-70 0 -128 7t-118 27.5t-100.5 53.5t-66.5 89.5t-26 131.5q0 56 13.5 164t13.5 162q0 178 -219 178v155q219 0 219 179q0 52 -14.5 154t-14.5 153q0 80 24.5 139.5t63.5 94.5t98.5 56t119 28t135.5 7v-157
q-58 -1 -96 -8t-72 -26t-50 -57t-16 -96q0 -53 8 -114l9 -77q8 -62 8 -116q0 -187 -197 -237q106 -26 151.5 -89t45.5 -174q0 -47 -12.5 -140t-12.5 -140z" />
    <glyph glyph-name="braceright.uc" horiz-adv-x="796" 
d="M528 145q0 -80 -24.5 -139.5t-63.5 -95t-98 -56.5t-118.5 -28.5t-135.5 -7.5v159q66 0 106.5 8t70.5 31.5t42 64.5t12 107q0 47 -12 142t-12 143q0 189 199 236q-197 47 -197 247q0 56 11 165t11 165q0 47 -20.5 79.5t-57.5 47.5t-72 20.5t-81 6.5v157q86 0 149.5 -8.5
t120.5 -32.5t92 -64t55.5 -105t20.5 -154q0 -45 -13 -134t-13 -134q0 -179 219 -179v-155q-219 0 -219 -178q0 -47 9 -115l10 -77q9 -70 9 -116z" />
    <glyph glyph-name="slash.uc" horiz-adv-x="839" 
d="M606 1593h185l-570 -1765h-184z" />
    <glyph glyph-name="backslash.uc" horiz-adv-x="839" 
d="M47 1593h184l570 -1765h-187z" />
    <glyph glyph-name="bar.uc" horiz-adv-x="524" 
d="M180 1593h164v-1765h-164v1765z" />
    <glyph glyph-name="at.uc" horiz-adv-x="1875" 
d="M1544 115q-101 -123 -263.5 -183.5t-340.5 -60.5q-238 0 -427.5 101t-298 287.5t-108.5 424.5q0 177 67.5 336.5t182 273.5t274.5 181t337 67q162 0 307 -50.5t255 -142.5t175 -231t65 -305q0 -74 -13 -145t-43 -139t-74 -119t-110 -82t-147 -31q-220 0 -243 170
q-44 -81 -122.5 -131.5t-168.5 -50.5q-152 0 -237 98.5t-85 253.5q0 117 45 221t137 173t212 69q79 0 143.5 -32t91.5 -99l14 114h197l-59 -510q-4 -28 -4 -45q0 -108 92 -108q53 0 94.5 27.5t65 69t38.5 96.5t20 102.5t5 95.5q0 142 -50 255.5t-138 186.5t-206 111.5
t-257 38.5q-206 0 -366 -92.5t-246.5 -255.5t-86.5 -369q0 -306 184 -491t490 -185q144 0 261 36t216 122zM727 641q0 -87 43 -147t127 -60q75 0 130.5 49t80.5 117.5t25 140.5q0 95 -48.5 150t-142.5 55q-56 0 -99.5 -28.5t-67.5 -75t-36 -98t-12 -103.5z" />
    <glyph glyph-name="uni20B9.old" horiz-adv-x="1126" 
d="M793 928q-23 -120 -108 -210t-204 -126l416 -592h-266l-350 549h-191v158h26q53 0 81 0.5t78.5 4.5t80 12t69 24t63.5 39t46 59t33 82h-477v153h479q-9 56 -31.5 97.5t-54.5 65t-73 39t-85.5 20t-92.5 7t-94 -0.5h-48v155h944v-155h-377q117 -87 136 -228h241v-153h-241z
" />
    <glyph glyph-name="uni20B9.oldtab" horiz-adv-x="1230" 
d="M844 928q-23 -120 -108 -210t-204 -126l416 -592h-266l-350 549h-211v158h43q34 -2 70 -0.5t71.5 2.5t69.5 7.5t65.5 16t59.5 26.5t50.5 39.5t40 55.5t27.5 74h-497v153h500q-8 46 -25 82t-37.5 60t-53 41t-61 26t-71 14t-73.5 6t-79 1h-24l-52 -2h-24v155h985v-155h-397
q55 -41 90.5 -100.5t44.5 -127.5h262v-153h-262z" />
    </font>
</defs>
</svg>
