<?xml version="1.0" standalone="no"?>
<!DOCTYPE svg PUBLIC "-//W3C//DTD SVG 1.1//EN" "http://www.w3.org/Graphics/SVG/1.1/DTD/svg11.dtd" >
<svg xmlns="http://www.w3.org/2000/svg" xmlns:xlink="http://www.w3.org/1999/xlink" version="1.1">
<metadata>
Created by FontForge 20170731 at Fri May  7 08:54:36 2021
 By Aleksey,,,
(c) 2020 Zoho Corporation Pvt. Ltd. All rights reserved.
</metadata>
<defs>
<font id="ZohoPuvi-Bold" horiz-adv-x="1236" >
  <font-face 
    font-family="Zoho Puvi"
    font-weight="700"
    font-stretch="normal"
    units-per-em="2048"
    panose-1="2 11 7 3 3 2 2 6 2 3"
    ascent="1638"
    descent="-410"
    x-height="1071"
    cap-height="1464"
    bbox="-483 -467 2390 2310"
    underline-thickness="163"
    underline-position="-367"
    unicode-range="U+000D-FB02"
  />
<missing-glyph horiz-adv-x="1015" 
 />
    <glyph glyph-name=".notdef" horiz-adv-x="1015" 
 />
    <glyph glyph-name="uni0000" horiz-adv-x="991" 
 />
    <glyph glyph-name="uni0000" horiz-adv-x="991" 
 />
    <glyph glyph-name="uni000D" unicode="&#xd;" horiz-adv-x="649" 
 />
    <glyph glyph-name="space" unicode=" " horiz-adv-x="360" 
 />
    <glyph glyph-name="exclam" unicode="!" horiz-adv-x="655" 
d="M164 1464h332l-45 -1007h-242zM514 158q0 -75 -55.5 -125.5t-130.5 -50.5t-131 50.5t-56 125.5t56 126.5t131 51.5q77 0 131.5 -51t54.5 -127z" />
    <glyph glyph-name="quotedbl" unicode="&#x22;" horiz-adv-x="888" 
d="M500 1464h286l-36 -540h-211zM102 1464h287l-39 -540h-209z" />
    <glyph glyph-name="numbersign" unicode="#" horiz-adv-x="1210" 
d="M659 410h-198l-55 -410h-207l55 410h-176v208h203l30 228h-184v209h213l55 409h207l-55 -409h198l58 409h207l-58 -409h181v-209h-207l-31 -228h188v-208h-217l-55 -410h-207zM504 864l-41 -264h239l43 264h-241z" />
    <glyph glyph-name="dollar" unicode="$" horiz-adv-x="1308" 
d="M1223 444q0 -104 -40 -190t-108.5 -143t-157.5 -90.5t-190 -40.5v-256h-145v256q-90 6 -169.5 29t-149.5 64t-120.5 108t-72.5 155l254 108q27 -95 93 -152.5t165 -74.5v395q-86 13 -153 32t-131 53t-105.5 80.5t-67 116.5t-25.5 159q0 100 40 180t108.5 131.5t153 81.5
t180.5 37v182h145v-184q352 -32 455 -310l-238 -104q-58 148 -217 178v-366q87 -14 153 -31.5t133.5 -50.5t111 -78t71 -115t27.5 -160zM395 1079q0 -45 13.5 -76.5t41.5 -50.5t57.5 -29.5t74.5 -19.5v346q-78 -9 -132.5 -52.5t-54.5 -117.5zM920 410q0 44 -15 76t-44 52
t-59.5 31.5t-74.5 20.5v-373q82 16 137.5 65.5t55.5 127.5z" />
    <glyph glyph-name="percent" unicode="%" horiz-adv-x="1669" 
d="M799 1124q0 -156 -106 -260t-263 -104q-158 0 -263.5 101t-105.5 259q0 153 108.5 256t262.5 103t260.5 -101.5t106.5 -253.5zM1231 1464h184l-973 -1464h-184zM289 1122q0 -77 35.5 -127.5t107.5 -50.5q70 0 104.5 52t34.5 126q0 75 -34 125.5t-105 50.5
q-72 0 -107.5 -51t-35.5 -125zM1608 344q0 -157 -105.5 -262t-263.5 -105t-263.5 101.5t-105.5 259.5q0 152 108 256t261 104q154 0 261.5 -100t107.5 -254zM1098 340q0 -75 35 -125.5t106 -50.5q73 0 107 50.5t34 125.5q0 77 -34 126.5t-107 49.5q-71 0 -106 -50.5
t-35 -125.5z" />
    <glyph glyph-name="ampersand" unicode="&#x26;" horiz-adv-x="1511" 
d="M979 131q-167 -151 -399 -151q-102 0 -190 26.5t-157 78t-109 135t-40 188.5q0 272 326 430q-103 146 -103 276q0 71 23.5 131t64.5 102.5t95.5 72.5t117 44.5t129.5 14.5q76 0 146 -20.5t127 -60t91 -103.5t34 -144q0 -239 -299 -367l198 -239l131 256l219 -94
l-194 -367l274 -340h-379zM596 1110q0 -50 26.5 -96t71.5 -99q84 41 130 90.5t46 129.5q0 57 -36 94t-93 37q-69 0 -107 -43t-38 -113zM395 440q0 -102 62.5 -159.5t165.5 -57.5q121 0 202 99l-278 337q-75 -40 -113.5 -90.5t-38.5 -128.5z" />
    <glyph glyph-name="quotesingle" unicode="'" horiz-adv-x="499" 
d="M102 1464h295l-39 -540h-217z" />
    <glyph glyph-name="parenleft" unicode="(" horiz-adv-x="731" 
d="M381 641q0 -259 80 -488.5t237 -455.5h-243q-363 431 -363 944t363 944h243q-317 -441 -317 -944z" />
    <glyph glyph-name="parenright" unicode=")" horiz-adv-x="731" 
d="M639 645q0 -515 -360 -944h-244q315 439 315 944q0 259 -79.5 490t-235.5 454h244q360 -429 360 -944z" />
    <glyph glyph-name="asterisk" unicode="*" horiz-adv-x="897" 
d="M578 1116l178 -198l-183 -132l-127 240l-124 -240l-183 132l178 198l-243 39l61 211l230 -104l-35 260h239l-37 -260l230 104l61 -211z" />
    <glyph glyph-name="plus" unicode="+" horiz-adv-x="1136" 
d="M1059 586h-369v-400h-241v400h-369v223h369v399h241v-399h369v-223z" />
    <glyph glyph-name="comma" unicode="," horiz-adv-x="618" 
d="M231 330l279 -105l-279 -477l-180 76z" />
    <glyph glyph-name="hyphen" unicode="-" horiz-adv-x="753" 
d="M115 694h524v-235h-524v235z" />
    <glyph glyph-name="period" unicode="." horiz-adv-x="608" 
d="M487 162q0 -76 -53.5 -128t-130.5 -52q-76 0 -129 52t-53 128q0 75 53 126.5t129 51.5t130 -51t54 -127z" />
    <glyph glyph-name="slash" unicode="/" horiz-adv-x="874" 
d="M606 1589h244l-631 -1892h-242z" />
    <glyph glyph-name="zero" unicode="0" horiz-adv-x="1476" 
d="M1380 705q0 -154 -40 -284.5t-118 -230.5t-202.5 -156.5t-282.5 -56.5q-214 0 -371.5 108.5t-224.5 309.5q-45 137 -45 371q0 150 41.5 280t120.5 228t202.5 154.5t278.5 56.5q214 0 370 -105.5t224 -304.5q47 -138 47 -370zM428 698q0 -70 7.5 -130.5t29 -123
t55.5 -106.5t91.5 -72t133.5 -28q61 0 109 19t80 47.5t54.5 74.5t34.5 88t18.5 101.5t8 101t1.5 98.5q0 68 -7 128t-28 123t-54 108t-89.5 73.5t-131.5 28.5q-61 0 -110 -18.5t-81.5 -47t-56 -74t-36 -88t-19.5 -101t-8.5 -101.5t-1.5 -101z" />
    <glyph glyph-name="one" unicode="1" horiz-adv-x="890" 
d="M408 1464h290v-1464h-331v1137l-297 -185v283z" />
    <glyph glyph-name="two" unicode="2" horiz-adv-x="1222" 
d="M541 252h594v-252h-1106v125l536 496q105 98 168.5 198t63.5 213q0 94 -50.5 146.5t-144.5 52.5q-103 0 -169.5 -72.5t-94.5 -181.5l-254 110q41 198 182.5 298t349.5 100q107 0 198 -28t161 -81.5t109.5 -140t39.5 -195.5q0 -287 -278 -526z" />
    <glyph glyph-name="three" unicode="3" horiz-adv-x="1302" 
d="M1206 426q0 -95 -31.5 -172t-85 -128t-127 -85t-154 -49t-169.5 -15q-100 0 -188 19.5t-166.5 61t-134.5 114t-80 170.5l252 111q28 -105 103 -168.5t181 -63.5q53 0 99 11.5t83.5 35.5t59.5 66t22 98q0 31 -4.5 57.5t-13.5 46t-21.5 35.5t-28 27t-34 19.5t-39 13
t-42.5 7.5t-45.5 3.5t-47.5 1.5t-48 0h-9h-8h-9v221h27h64t59.5 3.5t58 10.5t47.5 21.5t40.5 35t23.5 52t10 72.5q0 87 -66 134.5t-157 47.5q-194 0 -262 -207l-242 105q25 88 78 156t124.5 108.5t154 61t173.5 20.5q76 0 147.5 -14t138 -45t116 -76.5t79 -113t29.5 -149.5
q0 -230 -241 -317q134 -30 209 -119.5t75 -224.5z" />
    <glyph glyph-name="four" unicode="4" horiz-adv-x="1351" 
d="M1290 301h-192v-301h-322v301h-719v121l633 1042h408v-925h192v-238zM782 1214l-393 -675h393v675z" />
    <glyph glyph-name="five" unicode="5" horiz-adv-x="1247" 
d="M1153 487q0 -161 -75.5 -278t-201 -174.5t-284.5 -57.5q-124 0 -225.5 31t-182.5 108t-114 195l254 111q37 -103 91.5 -147t159.5 -44q114 0 179 72.5t65 188.5q0 117 -68.5 186.5t-185.5 69.5q-85 0 -147.5 -27t-116.5 -90h-184l20 833h928v-252h-680l-6 -366
q112 135 326 135q213 0 330.5 -138t117.5 -356z" />
    <glyph glyph-name="six" unicode="6" horiz-adv-x="1347" 
d="M1262 481q0 -121 -44 -218t-121.5 -159t-179 -94.5t-219.5 -32.5q-136 0 -241 37.5t-172.5 102t-110.5 159.5t-60.5 201t-17.5 236q0 120 22.5 230.5t72.5 210t122 172.5t177.5 116t232.5 43q172 0 305 -69t209 -214l-248 -110q-82 143 -252 143q-70 0 -125.5 -29.5
t-89 -75.5t-56 -109t-31.5 -123t-11 -124q113 182 354 182q214 0 349 -130.5t135 -344.5zM444 487q0 -120 66 -195t184 -75q112 0 177 73.5t65 186.5q0 116 -64 188t-178 72q-110 0 -180 -70t-70 -180z" />
    <glyph glyph-name="seven" unicode="7" horiz-adv-x="1150" 
d="M1120 1464v-133l-528 -1331h-342l481 1196h-672v268h1061z" />
    <glyph glyph-name="eight" unicode="8" horiz-adv-x="1316" 
d="M1231 422q0 -92 -33 -168t-88 -126.5t-129.5 -85t-155 -50t-166.5 -15.5q-85 0 -165 14.5t-155 48t-130.5 82.5t-89 124.5t-33.5 167.5q0 134 71 228t199 138q-101 41 -157 119t-56 186q0 80 31 147t82.5 113t119 78t140 47t146.5 15q75 0 147 -14.5t139 -46t117.5 -76.5
t80.5 -112.5t30 -148.5q0 -105 -56.5 -183t-156.5 -122q126 -44 197 -136t71 -224zM453 1063q0 -87 61 -139t150 -52q91 0 147.5 51.5t56.5 141.5q0 86 -59.5 137t-146.5 51q-91 0 -150 -50.5t-59 -139.5zM416 444q0 -105 68 -165t175 -60q109 0 176.5 60t67.5 167
q0 106 -66.5 165t-174.5 59t-177 -60t-69 -166z" />
    <glyph glyph-name="nine" unicode="9" horiz-adv-x="1349" 
d="M1251 727q0 -125 -19.5 -233t-65 -204t-115 -163.5t-174.5 -107t-238 -39.5q-85 0 -162.5 14.5t-151.5 46t-132 89t-87 136.5l250 109q58 -144 273 -144q71 0 125 29t85.5 73.5t51.5 108t27 120.5t8 122q-115 -178 -351 -178q-218 0 -353.5 128.5t-135.5 344.5
q0 122 44.5 220t122 160t180 95t220.5 33q139 0 244.5 -40t171.5 -107.5t108 -167t58 -207t16 -238.5zM408 987q0 -114 64.5 -187t176.5 -73q111 0 180.5 68t69.5 178q0 122 -65 198t-185 76q-112 0 -176.5 -73t-64.5 -187z" />
    <glyph glyph-name="colon" unicode=":" horiz-adv-x="622" 
d="M494 756q0 -76 -54 -128.5t-131 -52.5q-76 0 -128 52t-52 129q0 76 52 127t128 51t130.5 -51t54.5 -127zM494 162q0 -76 -54 -128t-131 -52t-128.5 52t-51.5 128t52 127t128 51t130.5 -51t54.5 -127z" />
    <glyph glyph-name="semicolon" unicode=";" horiz-adv-x="643" 
d="M530 756q0 -76 -53.5 -128.5t-130.5 -52.5q-76 0 -128 52t-52 129q0 76 52 127t128 51t130 -51t54 -127zM213 330l276 -105l-278 -477l-178 76z" />
    <glyph glyph-name="less" unicode="&#x3c;" horiz-adv-x="1050" 
d="M489 662l445 -259v-266l-836 494v59l836 492v-271z" />
    <glyph glyph-name="equal" unicode="=" horiz-adv-x="1093" 
d="M84 977h926v-213h-926v213zM84 565h926v-211h-926v211z" />
    <glyph glyph-name="greater" unicode="&#x3e;" horiz-adv-x="1050" 
d="M954 690v-59l-835 -492v271l442 249l-442 259v266z" />
    <glyph glyph-name="question" unicode="?" horiz-adv-x="1091" 
d="M627 508v-51h-275v61q0 57 19 110.5t49 94.5t66.5 80t73 74t66.5 68.5t49 71.5t19 75q0 151 -155 151q-98 0 -157 -49.5t-89 -146.5q-72 31 -89 38l-60 25q-18 7 -50 21.5t-39 17.5q30 111 107.5 188.5t178 112.5t216.5 35q92 0 171 -21t143.5 -63.5t101.5 -115.5
t37 -169q0 -60 -20.5 -115.5t-54 -99t-73.5 -84.5t-81 -78t-74.5 -73t-55.5 -76.5t-24 -81.5zM674 158q0 -74 -56 -125t-131 -51q-77 0 -132.5 50t-55.5 126q0 78 55 128t133 50q75 0 131 -51.5t56 -126.5z" />
    <glyph glyph-name="at" unicode="@" horiz-adv-x="1890" 
d="M1591 -57q-112 -131 -284 -194.5t-361 -63.5q-185 0 -345.5 60t-276 167.5t-182 265t-66.5 344.5q0 185 71 351t192.5 284t288 187t351.5 69q133 0 257 -32t229 -95.5t183.5 -152t122.5 -209t44 -258.5q0 -81 -14.5 -157.5t-47 -148t-80.5 -124.5t-120 -85t-160 -32
q-240 0 -277 170q-42 -85 -117 -131.5t-170 -46.5q-159 0 -245 103.5t-86 266.5q0 90 27 175.5t76.5 153.5t127.5 109.5t172 41.5q179 0 234 -130l14 113h254l-66 -543q-4 -20 -4 -43q0 -102 97 -102q54 0 95.5 29.5t65.5 73.5t39.5 102t21 107.5t5.5 97.5q0 145 -52.5 262
t-145 192t-214.5 114.5t-264 39.5q-160 0 -298 -57.5t-234 -158t-150.5 -239.5t-54.5 -299q0 -211 88 -369t247.5 -242.5t370.5 -84.5q319 0 510 176zM758 492q0 -75 37.5 -128t109.5 -53q50 0 90 25.5t63 67t35.5 88t12.5 92.5q0 176 -162 176q-64 0 -108 -45t-61 -103
t-17 -120z" />
    <glyph glyph-name="A" unicode="A" horiz-adv-x="1482" 
d="M997 305h-544l-95 -305h-311l481 1464h433l475 -1464h-346zM725 1194l-201 -653h400z" />
    <glyph glyph-name="B" unicode="B" horiz-adv-x="1398" 
d="M1319 410q0 -92 -27.5 -163.5t-74 -117.5t-113 -75.5t-140 -41.5t-159.5 -12h-643v1464h616q486 0 486 -389q0 -247 -238 -313q148 -29 220.5 -115t72.5 -237zM485 1237v-375h240q114 0 168.5 43t54.5 154q0 52 -17 88t-49 55t-70 27t-89 8h-238zM485 649v-420h269
q115 0 176 51t61 164q0 114 -67.5 159.5t-186.5 45.5h-252z" />
    <glyph glyph-name="C" unicode="C" horiz-adv-x="1525" 
d="M1464 395q-41 -141 -141 -237t-227 -138.5t-275 -42.5q-355 0 -545 202t-190 560q0 212 91 382t257.5 268t378.5 98q221 0 386.5 -97.5t246.5 -293.5l-270 -117q-44 108 -135.5 177t-204.5 69q-104 0 -183 -42t-125 -114t-69 -159t-23 -185q0 -78 14.5 -148t46 -131
t77.5 -105t113.5 -69.5t150.5 -25.5q137 0 222.5 67t133.5 199z" />
    <glyph glyph-name="D" unicode="D" horiz-adv-x="1536" 
d="M1450 731q0 -353 -206.5 -542t-563.5 -189h-518v1464h520q366 0 567 -185t201 -548zM494 1206v-948h176q231 0 332.5 124.5t101.5 360.5q0 231 -105 347t-333 116h-172z" />
    <glyph glyph-name="E" unicode="E" horiz-adv-x="1267" 
d="M492 258h698v-258h-1028v1464h995v-258h-665v-342h540v-241h-540v-365z" />
    <glyph glyph-name="F" unicode="F" horiz-adv-x="1210" 
d="M1016 567h-522v-567h-332v1464h981v-260h-649v-387h522v-250z" />
    <glyph glyph-name="G" unicode="G" horiz-adv-x="1574" 
d="M1489 236q-124 -127 -297.5 -193t-360.5 -66q-350 0 -547.5 205.5t-197.5 556.5q0 161 55.5 300t153 237.5t236.5 154.5t300 56q223 0 379.5 -91.5t245.5 -289.5l-272 -119q-53 123 -135 180.5t-213 57.5q-86 0 -155.5 -28t-115 -75.5t-76 -113t-44 -137.5t-13.5 -152
q0 -104 22.5 -189.5t69.5 -153.5t127.5 -105.5t188.5 -37.5q209 0 352 109v201h-330v241h627v-548z" />
    <glyph glyph-name="H" unicode="H" horiz-adv-x="1593" 
d="M1102 604h-608v-604h-332v1464h332v-598h608v598h332v-1464h-332v604z" />
    <glyph glyph-name="I" unicode="I" horiz-adv-x="673" 
d="M170 1464h334v-1464h-334v1464z" />
    <glyph glyph-name="J" unicode="J" horiz-adv-x="944" 
d="M801 473q0 -239 -121 -365t-361 -126q-156 0 -243 45v254q87 -35 184 -35q110 0 158.5 59.5t48.5 171.5v987h334v-991z" />
    <glyph glyph-name="K" unicode="K" horiz-adv-x="1433" 
d="M1020 0l-526 657v-657h-332v1464h332v-630l532 632h352l-600 -694l629 -772h-387z" />
    <glyph glyph-name="L" unicode="L" horiz-adv-x="1175" 
d="M494 260h616v-260h-948v1464h332v-1204z" />
    <glyph glyph-name="M" unicode="M" horiz-adv-x="1914" 
d="M866 0l-407 1028v-1028h-297v1464h438l365 -958l356 958h430v-1464h-330v1028l-405 -1028h-150z" />
    <glyph glyph-name="N" unicode="N" horiz-adv-x="1581" 
d="M1087 0l-630 1042v-1042h-295v1464h385l577 -964v964h295v-1464h-332z" />
    <glyph glyph-name="O" unicode="O" horiz-adv-x="1679" 
d="M1593 731q0 -165 -55.5 -305.5t-154.5 -239t-239.5 -154t-305.5 -55.5q-225 0 -396 95.5t-263.5 268.5t-92.5 398q0 161 57.5 300t157 237t239.5 153.5t300 55.5q338 0 545.5 -208t207.5 -546zM432 725q0 -96 26.5 -182t76 -153.5t129.5 -107.5t180 -40q84 0 153 27.5
t114.5 75t76.5 112t45 136t14 150.5q0 98 -25 183t-73.5 152t-128 106t-180.5 39q-87 0 -156.5 -26.5t-116 -72t-77.5 -109.5t-44.5 -136t-13.5 -154z" />
    <glyph glyph-name="P" unicode="P" horiz-adv-x="1310" 
d="M604 530q-36 0 -112 2v-532h-330v1464h526q99 0 181 -15.5t153 -50.5t120 -89.5t77 -135.5t28 -184q0 -83 -19 -150t-51 -114t-81 -82.5t-102 -56.5t-120.5 -34t-130.5 -17.5t-139 -4.5zM492 1212v-448h188q124 0 186 54.5t62 176.5q0 217 -248 217h-188z" />
    <glyph glyph-name="Q" unicode="Q" horiz-adv-x="1679" 
d="M1352 156l149 -160l-188 -186l-199 210q-133 -43 -276 -43q-225 0 -396 95.5t-263.5 268.5t-92.5 398q0 161 57.5 300t157 237t239.5 153.5t300 55.5q338 0 545.5 -208t207.5 -546q0 -169 -60 -320t-181 -255zM432 725q0 -98 25.5 -184.5t74.5 -156t129.5 -110.5
t182.5 -41q29 0 69 5l-131 143l193 180l172 -186q100 138 100 368q0 98 -25 183t-73.5 152t-128 106t-180.5 39q-87 0 -156.5 -26.5t-116 -72t-77.5 -109.5t-44.5 -136t-13.5 -154z" />
    <glyph glyph-name="R" unicode="R" horiz-adv-x="1404" 
d="M655 565h-163v-565h-330v1464h545q119 0 216.5 -23t178 -73.5t125.5 -140.5t45 -215q0 -149 -78 -248.5t-223 -140.5l387 -623h-352zM492 1210v-419h196q260 0 260 219q0 59 -20.5 99.5t-58.5 62t-81 30t-100 8.5h-196z" />
    <glyph glyph-name="S" unicode="S" horiz-adv-x="1308" 
d="M1223 444q0 -90 -31 -166.5t-85 -131t-125.5 -93.5t-152 -57.5t-165.5 -18.5q-102 0 -191 17.5t-171.5 56t-143 109.5t-88.5 170l266 116q70 -227 328 -227q98 0 169.5 50.5t71.5 144.5q0 54 -27.5 91t-74 56.5t-107 32t-127.5 23.5t-133.5 25.5t-127 44t-107 72.5
t-74 117t-27.5 173q0 86 30 158.5t81.5 123t120 86t144.5 52t157 16.5q89 0 171.5 -17t158.5 -53t135 -99t90 -147l-250 -108q-46 89 -124.5 134.5t-180.5 45.5q-42 0 -79 -8.5t-69.5 -27t-51.5 -52t-19 -78.5q0 -54 27.5 -90t74.5 -55t107.5 -30.5t128 -22.5t134.5 -25.5
t127.5 -43.5t107.5 -72.5t74.5 -118t27.5 -173.5z" />
    <glyph glyph-name="T" unicode="T" horiz-adv-x="1230" 
d="M1178 1206h-396v-1206h-333v1206h-396v258h1125v-258z" />
    <glyph glyph-name="U" unicode="U" horiz-adv-x="1521" 
d="M1372 584q0 -299 -158.5 -453t-459.5 -154q-294 0 -449 150.5t-155 443.5v893h333v-872q0 -64 6 -112.5t23.5 -95t47.5 -76.5t79.5 -48t116.5 -18q70 0 121.5 18.5t82 49t48.5 79t24 98.5t6 117v860h334v-880z" />
    <glyph glyph-name="V" unicode="V" horiz-adv-x="1443" 
d="M1090 1464h311l-488 -1464h-381l-489 1464h350l348 -1124z" />
    <glyph glyph-name="W" unicode="W" horiz-adv-x="2078" 
d="M1317 0l-285 1012l-289 -1012h-319l-377 1464h336l250 -1011l270 1011h283l280 -1018l258 1018h308l-377 -1464h-338z" />
    <glyph glyph-name="X" unicode="X" horiz-adv-x="1480" 
d="M1038 0l-317 545l-315 -545h-340l464 752l-430 712h375l279 -487l276 487h340l-418 -702l463 -762h-377z" />
    <glyph glyph-name="Y" unicode="Y" horiz-adv-x="1314" 
d="M1284 1464l-446 -843v-621h-334v621l-473 843h364l287 -571l281 571h321z" />
    <glyph glyph-name="Z" unicode="Z" horiz-adv-x="1267" 
d="M494 260h690v-260h-1143v129l729 1077h-651v258h1089v-129z" />
    <glyph glyph-name="bracketleft" unicode="[" horiz-adv-x="827" 
d="M453 -84h288v-219h-585v1892h585v-219h-288v-1454z" />
    <glyph glyph-name="backslash" unicode="\" horiz-adv-x="874" 
d="M25 1589h241l631 -1892h-242z" />
    <glyph glyph-name="bracketright" unicode="]" horiz-adv-x="827" 
d="M88 1589h584v-1892h-584v219h287v1454h-287v219z" />
    <glyph glyph-name="asciicircum" unicode="^" horiz-adv-x="1056" 
d="M727 817l-201 406l-202 -406h-256l327 647h267l329 -647h-264z" />
    <glyph glyph-name="underscore" unicode="_" horiz-adv-x="866" 
d="M2 -166h862v-162h-862v162z" />
    <glyph glyph-name="grave" unicode="`" horiz-adv-x="827" 
d="M109 1542h311l117 -325h-215z" />
    <glyph glyph-name="a" unicode="a" horiz-adv-x="1163" 
d="M748 129q-105 -152 -324 -152q-159 0 -258.5 82t-99.5 238q0 71 25.5 127t60.5 92t97.5 61t111.5 37t129 18.5t122.5 7.5t118.5 1h3.5h4h4.5q0 49 -2.5 80t-13 65t-29.5 52.5t-53.5 30.5t-83.5 12q-75 0 -135 -35.5t-84 -102.5l-227 99q26 70 77 121t117 79t135 41
t144 13q102 0 182.5 -22t141 -68.5t92.5 -124t32 -183.5v-698h-288v129zM356 313q0 -67 43 -98t113 -31q96 0 163.5 49t67.5 142v90h-114q-32 0 -57.5 -1.5t-60 -6t-59.5 -15t-48 -26.5t-35.5 -42.5t-12.5 -60.5z" />
    <glyph glyph-name="b" unicode="b" horiz-adv-x="1333" 
d="M1262 530q0 -111 -30.5 -209.5t-89 -176t-151 -122.5t-207.5 -45q-111 0 -209.5 50t-142.5 143v-170h-297v1556h297v-653q52 90 148.5 141.5t203.5 51.5q119 0 212 -46t150 -126t86.5 -180t29.5 -214zM422 528q0 -142 67.5 -230.5t206.5 -88.5q74 0 127.5 27t82.5 75.5
t42 106t13 127.5q0 65 -15.5 121.5t-46.5 102.5t-84 72.5t-121 26.5q-73 0 -127.5 -27.5t-85 -76.5t-45 -107.5t-14.5 -128.5z" />
    <glyph glyph-name="c" unicode="c" horiz-adv-x="1173" 
d="M1114 299q-47 -161 -181.5 -241.5t-311.5 -80.5q-256 0 -403.5 152.5t-147.5 409.5q0 243 155 400t398 157q83 0 157 -17t139 -52.5t113.5 -95t73.5 -138.5l-229 -101q-63 170 -248 170q-71 0 -122.5 -28t-79.5 -77.5t-41 -106.5t-13 -124q0 -68 13.5 -124.5t43 -102.5
t82 -72t123.5 -26q195 0 260 194z" />
    <glyph glyph-name="d" unicode="d" horiz-adv-x="1333" 
d="M901 178q-48 -92 -147.5 -146.5t-206.5 -54.5q-118 0 -210.5 45.5t-149.5 124t-86 178t-29 212.5q0 111 31.5 210.5t90 178t151.5 124.5t208 46q112 0 204.5 -46.5t143.5 -138.5v645h295v-1556h-295v178zM375 526q0 -138 64 -227.5t196 -89.5q59 0 106 18t78 49
t51.5 74.5t29.5 92t9 104.5q0 68 -14.5 124.5t-45 101.5t-83.5 70t-123 25q-75 0 -129 -27.5t-83.5 -77t-42.5 -108t-13 -129.5z" />
    <glyph glyph-name="e" unicode="e" horiz-adv-x="1210" 
d="M1116 229q-30 -70 -83 -120.5t-120 -78.5t-136.5 -40.5t-147.5 -12.5q-257 0 -408 152t-151 410q0 242 154.5 399.5t396.5 157.5q166 0 291.5 -75t187.5 -222q27 -66 35 -135.5t8 -165.5v-29h-772q6 -129 72.5 -205t193.5 -76q93 0 156 30.5t104 107.5zM621 891
q-106 0 -168.5 -65.5t-77.5 -174.5h479q-15 240 -233 240z" />
    <glyph glyph-name="f" unicode="f" horiz-adv-x="788" 
d="M713 860h-234v-860h-295v860h-141v211h141v123q0 185 98.5 280t284.5 95q89 0 172 -39l-84 -195q-15 8 -43 8q-37 0 -63 -12t-40 -28.5t-21.5 -46t-9 -53t-1.5 -60.5q0 -10 1.5 -34.5t0.5 -37.5h234v-211z" />
    <glyph glyph-name="g" unicode="g" horiz-adv-x="1310" 
d="M1176 84q0 -127 -43.5 -221t-122 -149.5t-178.5 -82t-222 -26.5q-398 0 -501 258l233 102q60 -143 268 -143q271 0 271 262v162q-52 -91 -146 -145t-198 -54q-147 0 -255 73t-160 190.5t-52 262.5q0 104 33 198.5t92 166.5t149 115t197 43q236 0 340 -185v160h295v-987z
M373 559q0 -124 65.5 -206.5t186.5 -82.5q131 0 197.5 86.5t66.5 221.5q0 130 -65.5 211t-192.5 81q-68 0 -119 -24.5t-81 -68t-44 -98t-14 -120.5z" />
    <glyph glyph-name="h" unicode="h" horiz-adv-x="1288" 
d="M655 854q-107 0 -165 -63.5t-58 -172.5v-618h-297v1556h297v-655q49 95 147.5 145t211.5 50q122 0 206.5 -54.5t124 -146t39.5 -213.5v-682h-297v639q0 103 -53.5 159t-155.5 56z" />
    <glyph glyph-name="i" unicode="i" horiz-adv-x="583" 
d="M459 1378q0 -70 -49 -115.5t-121 -45.5q-70 0 -119 46t-49 115q0 70 48.5 116t119.5 46q72 0 121 -46t49 -116zM143 1071h295v-1071h-295v1071z" />
    <glyph glyph-name="j" unicode="j" horiz-adv-x="583" 
d="M459 1378q0 -70 -49 -115.5t-121 -45.5q-70 0 -119 46t-49 115q0 70 48.5 116t119.5 46q72 0 121 -46t49 -116zM438 -18q0 -104 -31.5 -176.5t-92.5 -112.5t-136 -57.5t-176 -18.5v221q71 4 106 38t35 104v1091h295v-1089z" />
    <glyph glyph-name="k" unicode="k" horiz-adv-x="1144" 
d="M786 0l-354 506v-506h-297v1556h297v-938l344 453h316l-390 -487l420 -584h-336z" />
    <glyph glyph-name="l" unicode="l" horiz-adv-x="581" 
d="M143 1485l295 129v-1614h-295v1485z" />
    <glyph glyph-name="m" unicode="m" horiz-adv-x="1918" 
d="M639 852q-99 0 -153 -59.5t-54 -159.5v-633h-297v1071h297v-164q47 89 140.5 139t197.5 50q224 0 299 -187q63 90 161 138.5t210 48.5q91 0 160 -32t110 -88.5t61.5 -129.5t20.5 -160v-686h-295v653q0 92 -43.5 145.5t-134.5 53.5q-99 0 -153 -59.5t-54 -159.5v-633h-295
v653q0 92 -43.5 145.5t-134.5 53.5z" />
    <glyph glyph-name="n" unicode="n" horiz-adv-x="1277" 
d="M655 854q-107 0 -165 -63.5t-58 -172.5v-618h-297v1071h297v-170q49 95 147.5 145t211.5 50q92 0 162.5 -31.5t113 -88.5t63.5 -131t21 -163v-682h-297v639q0 102 -49 158.5t-150 56.5z" />
    <glyph glyph-name="o" unicode="o" horiz-adv-x="1269" 
d="M1198 530q0 -247 -158 -400t-407 -153q-253 0 -408 155.5t-155 408.5q0 245 159.5 400t405.5 155q254 0 408.5 -156.5t154.5 -409.5zM373 530q0 -53 8.5 -99.5t28 -89t49 -72.5t75 -48t101.5 -18q73 0 126 28t81.5 77.5t41.5 107t13 127.5q0 66 -14 122.5t-44 103.5
t-82 74t-122 27q-72 0 -125 -28t-82 -77.5t-42 -107.5t-13 -127z" />
    <glyph glyph-name="p" unicode="p" horiz-adv-x="1333" 
d="M784 -23q-110 0 -206 48t-146 139v-529h-297v1436h297v-168q52 90 148.5 141.5t203.5 51.5q119 0 212 -46t150 -126t86.5 -180t29.5 -214q0 -111 -30.5 -209.5t-89 -176t-151 -122.5t-207.5 -45zM422 528q0 -142 67.5 -230.5t206.5 -88.5q74 0 127.5 27t82.5 75.5t42 106
t13 127.5q0 65 -15.5 121.5t-46.5 102.5t-84 72.5t-121 26.5q-73 0 -127.5 -27.5t-85 -76.5t-45 -107.5t-14.5 -128.5z" />
    <glyph glyph-name="q" unicode="q" horiz-adv-x="1333" 
d="M901 1071h295v-1436h-295v537q-47 -89 -148 -142t-206 -53q-118 0 -210.5 45.5t-149.5 124t-86 178t-29 212.5q0 111 31.5 210.5t90 178t151.5 124.5t208 46q112 0 204.5 -46.5t143.5 -138.5v160zM375 526q0 -134 65.5 -225.5t194.5 -91.5q59 0 106 18t78 49t51.5 74.5
t29.5 92t9 104.5q0 68 -14.5 124.5t-45 101.5t-83.5 70t-123 25q-75 0 -129 -27.5t-83.5 -77t-42.5 -108t-13 -129.5z" />
    <glyph glyph-name="r" unicode="r" horiz-adv-x="845" 
d="M778 811q-79 0 -137 -12t-107.5 -41t-75.5 -84.5t-26 -136.5v-537h-297v1071h297v-205q102 217 346 221v-276z" />
    <glyph glyph-name="s" unicode="s" horiz-adv-x="1042" 
d="M981 330q0 -78 -25 -139t-67 -100.5t-100.5 -65.5t-122 -37t-136.5 -11t-141.5 12t-136.5 38t-119.5 76.5t-75.5 119.5l226 99q29 -68 97 -103t148 -35q168 0 168 117q0 42 -34 68.5t-87.5 40t-119 25t-131 32t-119 52.5t-87.5 94t-34 149q0 82 37.5 148t99 105.5
t135.5 60t152 20.5q69 0 133.5 -11t128.5 -35t113 -70.5t73 -109.5l-217 -94q-25 62 -88.5 89.5t-140.5 27.5q-59 0 -105.5 -27.5t-46.5 -83.5q0 -40 34.5 -64.5t89.5 -37t121 -23.5t132.5 -31t121.5 -52t89.5 -94t34.5 -150z" />
    <glyph glyph-name="t" unicode="t" horiz-adv-x="780" 
d="M707 8q-85 -28 -181 -28q-346 0 -346 337v543h-137v211h137v232l295 129v-361h225v-211h-225v-516q0 -127 119 -127q63 0 113 21v-230z" />
    <glyph glyph-name="u" unicode="u" horiz-adv-x="1271" 
d="M842 168q-50 -95 -143 -143t-207 -48q-179 0 -272 111t-93 293v690h295v-649q0 -215 186 -215q108 0 171 63.5t63 171.5v629h295v-1071h-295v168z" />
    <glyph glyph-name="v" unicode="v" horiz-adv-x="1179" 
d="M860 1071h287l-389 -1071h-334l-391 1071h317l256 -766z" />
    <glyph glyph-name="w" unicode="w" horiz-adv-x="1708" 
d="M1042 0l-184 672l-199 -672h-294l-328 1071h311l193 -721l209 721h243l191 -721l205 721h284l-340 -1071h-291z" />
    <glyph glyph-name="x" unicode="x" horiz-adv-x="1183" 
d="M801 0l-226 360l-231 -360h-305l367 547l-343 524h340l201 -321l197 321h307l-342 -502l377 -569h-342z" />
    <glyph glyph-name="y" unicode="y" horiz-adv-x="1165" 
d="M848 1071h285l-580 -1436h-287l189 474l-422 962h319l256 -643z" />
    <glyph glyph-name="z" unicode="z" horiz-adv-x="1030" 
d="M434 229h537v-229h-938v115l553 727h-500v229h905v-115z" />
    <glyph glyph-name="braceleft" unicode="{" horiz-adv-x="837" 
d="M543 96q0 -104 49 -142t158 -40v-215q-84 0 -151.5 8.5t-135 32.5t-112.5 63.5t-73 106.5t-28 156q0 58 12 135l6 39q13 84 13 135q0 166 -207 166v211q207 0 207 166q0 39 -13 137l-6 39q-12 90 -12 137q0 75 18.5 133.5t54.5 97.5t80 65.5t103.5 40.5t116.5 19.5
t127 5.5v-217q-107 -2 -157 -39t-50 -139q0 -53 8 -117l8 -77q8 -64 8 -117q0 -189 -198 -240q198 -45 198 -239q0 -53 -8 -117l-8 -78q-8 -64 -8 -117z" />
    <glyph glyph-name="bar" unicode="|" horiz-adv-x="544" 
d="M166 1589h213v-1892h-213v1892z" />
    <glyph glyph-name="braceright" unicode="}" horiz-adv-x="837" 
d="M588 66q0 -89 -28 -156t-73.5 -106.5t-113 -63.5t-135.5 -32.5t-152 -8.5v215q110 2 159.5 39t49.5 143q0 53 -8 117l-8 78q-9 72 -9 117q0 194 199 239q-199 51 -199 240q0 45 9 117l8 77q8 64 8 117q0 105 -49.5 140.5t-159.5 37.5v217q69 0 126.5 -5.5t117 -19.5
t104 -40.5t80.5 -65.5t55 -97.5t19 -133.5q0 -39 -13 -137l-6 -39q-12 -90 -12 -137q0 -166 205 -166v-211q-205 0 -205 -166q0 -58 12 -135l6 -39q13 -84 13 -135z" />
    <glyph glyph-name="asciitilde" unicode="~" horiz-adv-x="1015" 
d="M367 545q-40 0 -63.5 -28t-29.5 -71h-200q4 65 20.5 123.5t47 112t82.5 85.5t120 32q53 0 113.5 -24.5t111.5 -48.5t80 -24q40 0 63 29.5t29 71.5h201q-2 -62 -19 -122t-48 -113t-83.5 -86t-117.5 -33q-53 0 -114 24t-112.5 48t-80.5 24z" />
    <glyph glyph-name="uni00A0" unicode="&#xa0;" horiz-adv-x="557" 
 />
    <glyph glyph-name="exclamdown" unicode="&#xa1;" horiz-adv-x="681" 
d="M528 1067q0 -76 -54.5 -127t-131.5 -51t-132.5 51t-55.5 127q0 74 57 125t131 51q77 0 131.5 -50t54.5 -126zM219 768h242l45 -1008h-332z" />
    <glyph glyph-name="cent" unicode="&#xa2;" horiz-adv-x="1185" 
d="M1133 301q-43 -143 -156 -223.5t-270 -95.5v-258h-146v258q-236 22 -363.5 170t-127.5 387q0 224 134 375t357 178v196h146v-196q153 -13 263.5 -87.5t153.5 -213.5l-225 -97q-21 67 -71.5 111t-120.5 61v-671q173 37 213 198zM365 526q0 -76 16.5 -138.5t62 -116
t117.5 -72.5v665q-196 -54 -196 -338z" />
    <glyph glyph-name="sterling" unicode="&#xa3;" horiz-adv-x="1290" 
d="M1225 264q-37 -136 -131.5 -209t-235.5 -73q-69 0 -151 28.5t-157.5 57t-129.5 28.5q-47 0 -77.5 -24.5t-35.5 -71.5h-252q11 114 64.5 200.5t152.5 121.5q19 60 19 116q0 68 -29 170h-178v203h117q-31 112 -31 221t43 196.5t115.5 142.5t166 84.5t197.5 29.5
q121 0 218 -31.5t171.5 -107t106.5 -191.5l-254 -111q-25 95 -81 141t-153 46q-92 0 -146 -59.5t-54 -153.5q0 -90 20 -207h391v-203h-350q14 -100 14 -170q0 -61 -24 -125q23 -7 75.5 -27.5t93 -31t79.5 -10.5q76 0 120 28t60 99z" />
    <glyph glyph-name="yen" unicode="&#xa5;" horiz-adv-x="1259" 
d="M1143 322h-336v-322h-332v322h-336v135h336v125h-336v137h295l-395 745h360l254 -555l248 555h318l-373 -745h297v-137h-336v-125h336v-135z" />
    <glyph glyph-name="brokenbar" unicode="&#xa6;" horiz-adv-x="552" 
d="M166 1589h213v-831h-213v831zM166 614h213v-917h-213v917z" />
    <glyph glyph-name="section" unicode="&#xa7;" horiz-adv-x="1224" 
d="M1028 78q0 -85 -37.5 -154.5t-99.5 -113.5t-138 -67.5t-157 -23.5q-69 0 -133.5 13.5t-124.5 41t-105.5 77.5t-66.5 116l196 86q27 -65 92 -95t144 -30q66 0 109 31.5t43 95.5q0 40 -29 70.5t-76.5 48t-108 36t-123.5 35t-123.5 46t-108 66.5t-76.5 99t-29 142
q0 103 60.5 173.5t164.5 105.5q-104 93 -104 245q0 86 37 156.5t98.5 114.5t138 68t158.5 24q67 0 131 -13.5t123 -41t103.5 -77t64.5 -114.5l-201 -88q-24 60 -88 90.5t-137 30.5q-66 0 -108 -31.5t-42 -95.5q0 -43 29 -74t76.5 -48t108 -35t123.5 -33t123.5 -43.5t108 -65
t76.5 -99.5t29 -145q0 -100 -61.5 -171t-161.5 -109q102 -89 102 -244zM362 635q0 -30 22 -57.5t54 -46t78.5 -36t82.5 -27.5t80.5 -21.5t59.5 -16.5q123 28 123 131q0 24 -13 45.5t-31.5 38t-49.5 32.5t-57 26.5t-64.5 22.5t-60.5 17.5t-57.5 14t-43.5 10.5
q-56 -9 -89.5 -43t-33.5 -90z" />
    <glyph glyph-name="dieresis" unicode="&#xa8;" horiz-adv-x="851" 
d="M786 1376q0 -62 -44.5 -104.5t-106.5 -42.5t-107 42.5t-45 104.5t45 105t107 43t106.5 -43t44.5 -105zM369 1376q0 -62 -45 -104.5t-107 -42.5t-106.5 42.5t-44.5 104.5t44.5 105t106.5 43t107 -43t45 -105z" />
    <glyph glyph-name="copyright" unicode="&#xa9;" horiz-adv-x="1734" 
d="M1642 735q0 -159 -61 -301.5t-165 -245t-247.5 -162t-302.5 -59.5q-211 0 -388 100.5t-280.5 276.5t-103.5 387q0 159 61.5 301t165.5 244t247.5 161.5t301.5 59.5q212 0 389 -100t280 -275t103 -387zM211 731q0 -184 84.5 -336.5t235 -240.5t335.5 -88q187 0 338 88
t235.5 241t84.5 340q0 138 -49.5 261t-135.5 211.5t-208 140t-261 51.5q-140 0 -263 -51.5t-209.5 -140.5t-136.5 -212.5t-50 -263.5zM1247 543q-35 -116 -133.5 -174t-226.5 -58q-208 0 -313 110t-105 318q0 181 115.5 297.5t296.5 116.5q82 0 150.5 -20t125 -70t80.5 -127
l-176 -76q-20 66 -63.5 92.5t-116.5 26.5q-53 0 -90.5 -22t-56.5 -60t-27.5 -80t-8.5 -92q0 -104 44 -171t143 -67q78 0 124.5 29t69.5 100z" />
    <glyph glyph-name="ordfeminine" unicode="&#xaa;" horiz-adv-x="974" 
d="M618 711q-85 -121 -256 -121q-127 0 -207.5 66t-80.5 190q0 55 18.5 98t45.5 71t72 48t84 30t96 15.5t92.5 6.5t89.5 1h42q0 85 -31.5 130.5t-113.5 45.5q-54 0 -99.5 -23t-66.5 -69l-190 82q89 201 368 201q65 0 122 -10.5t107.5 -35t86 -61t56.5 -91.5t21 -124v-551
h-256v101zM336 866q0 -92 110 -92q70 0 119 34t49 101v64h-88q-190 0 -190 -107z" />
    <glyph glyph-name="guillemotleft" unicode="&#xab;" horiz-adv-x="1030" 
d="M938 915l-250 -380l250 -381h-211l-260 381l260 380h211zM571 915l-249 -380l249 -381h-211l-260 381l260 380h211z" />
    <glyph glyph-name="registered" unicode="&#xae;" horiz-adv-x="1089" 
d="M1008 1030q0 -192 -135 -323.5t-328 -131.5q-192 0 -328.5 131t-136.5 322t136.5 324t328.5 133q191 0 327 -132t136 -323zM168 1028q0 -162 107.5 -268.5t269.5 -106.5q163 0 270 107t107 270q0 167 -105 272t-272 105q-165 0 -271 -107t-106 -272zM537 973h-33v-162
h-127v449h174q182 0 182 -142q0 -85 -82 -123l109 -184h-131zM504 1163v-108h41q65 0 65 55q0 53 -65 53h-41z" />
    <glyph glyph-name="macron" unicode="&#xaf;" horiz-adv-x="851" 
d="M127 1458h596v-178h-596v178z" />
    <glyph glyph-name="degree" unicode="&#xb0;" horiz-adv-x="940" 
d="M821 1139q0 -140 -105 -240t-245 -100t-246 100.5t-106 239.5q0 143 104.5 243.5t247.5 100.5q144 0 247 -100t103 -244zM281 1139q0 -86 53 -145.5t137 -59.5q83 0 133.5 60t50.5 145q0 88 -49 148.5t-135 60.5t-138 -61t-52 -148z" />
    <glyph glyph-name="plusminus" unicode="&#xb1;" horiz-adv-x="1161" 
d="M1071 709h-369v-351h-241v351h-369v221h369v352h241v-352h369v-221zM92 205h983v-205h-983v205z" />
    <glyph glyph-name="twosuperior" unicode="&#xb2;" horiz-adv-x="706" 
d="M367 881h276v-160h-614v80l262 223q52 44 90.5 98.5t38.5 106.5q0 37 -20.5 58.5t-57.5 21.5q-45 0 -85.5 -29.5t-57.5 -73.5l-156 70q27 100 113 149.5t196 49.5q79 0 141 -22t103 -75.5t41 -134.5q0 -44 -17 -86t-51 -81.5t-63 -68t-74.5 -68t-64.5 -58.5z" />
    <glyph glyph-name="threesuperior" unicode="&#xb3;" horiz-adv-x="751" 
d="M684 942q0 -64 -26.5 -111t-72 -73t-98.5 -38.5t-114 -12.5q-70 0 -130.5 15t-114.5 57t-73 106l158 67q32 -88 147 -88q44 0 71.5 20.5t27.5 63.5q0 18 -4.5 31.5t-10.5 22.5t-18.5 15t-21 9t-26 4.5t-26.5 2t-29 0t-26 -0.5v131h22.5h24.5t23 1t23.5 3t20 6t18.5 10
t13 14.5t10 20.5t3 27q0 35 -23 54.5t-59 19.5q-109 0 -137 -84l-160 72q22 59 72 98t107 54.5t122 15.5q53 0 101 -10t92 -32.5t70 -64t26 -98.5q0 -62 -35 -103.5t-96 -56.5q66 -12 107.5 -57t41.5 -111z" />
    <glyph glyph-name="acute" unicode="&#xb4;" horiz-adv-x="851" 
d="M420 1542h311l-213 -325h-215z" />
    <glyph glyph-name="paragraph" unicode="&#xb6;" horiz-adv-x="1187" 
d="M860 1339h-155v-1544h-150v891q-98 0 -179.5 20.5t-148 64t-104 119.5t-37.5 179q0 99 34.5 175.5t96 124t142 71.5t176.5 24h477v-1669h-152v1544z" />
    <glyph glyph-name="periodcentered" unicode="&#xb7;" horiz-adv-x="632" 
d="M500 670q0 -75 -55 -128t-130 -53q-76 0 -129 52.5t-53 128.5q0 75 53 126.5t129 51.5t130.5 -51t54.5 -127z" />
    <glyph glyph-name="cedilla" unicode="&#xb8;" horiz-adv-x="851" 
d="M670 -270q0 -93 -68 -139t-166 -46q-78 0 -145.5 30.5t-93.5 94.5l116 51q11 -26 45.5 -40.5t67.5 -14.5q31 0 51.5 18.5t20.5 49.5q0 30 -19.5 46.5t-50.5 16.5q-37 0 -63 -20l-74 71l92 152h133l-59 -98q89 9 151 -37.5t62 -134.5z" />
    <glyph glyph-name="onesuperior" unicode="&#xb9;" horiz-adv-x="577" 
d="M258 1464h195v-743h-226v528l-168 -90v182z" />
    <glyph glyph-name="ordmasculine" unicode="&#xba;" horiz-adv-x="1079" 
d="M997 1047q0 -207 -125.5 -332t-332.5 -125q-197 0 -327 119.5t-130 314.5q0 210 125 334.5t334 124.5q198 0 327 -120t129 -316zM352 1044q0 -253 189 -253q52 0 89.5 20t58 55t29.5 76t9 90q0 250 -186 250q-98 0 -143.5 -67.5t-45.5 -170.5z" />
    <glyph glyph-name="guillemotright" unicode="&#xbb;" horiz-adv-x="1030" 
d="M672 915l258 -380l-258 -381h-211l248 381l-248 380h211zM305 915l258 -380l-258 -381h-211l248 381l-248 380h211z" />
    <glyph glyph-name="onequarter" unicode="&#xbc;" horiz-adv-x="1550" 
d="M1233 1464h172l-1106 -1464h-172zM252 1464h194v-743h-225v528l-168 -90v182zM1499 152h-96v-152h-215v152h-371v81l318 510h268v-440h96v-151zM1194 592l-174 -289h174v289z" />
    <glyph glyph-name="onehalf" unicode="&#xbd;" horiz-adv-x="1564" 
d="M1206 1464h172l-1106 -1464h-172zM252 1464h194v-743h-225v528l-168 -90v182zM1251 162h254v-162h-614v80l262 225q50 45 89.5 100.5t39.5 104.5q0 37 -20.5 58.5t-57.5 21.5q-53 0 -81 -25.5t-46 -79.5l-159 70q27 102 106 150.5t190 48.5q79 0 141 -22t103 -75.5
t41 -134.5q0 -30 -7.5 -60t-25.5 -60.5t-33 -53t-44.5 -53.5t-44.5 -46t-49.5 -46.5t-43.5 -40.5z" />
    <glyph glyph-name="threequarters" unicode="&#xbe;" horiz-adv-x="1579" 
d="M666 942q0 -64 -27 -111t-73 -73t-99 -38.5t-113 -12.5q-252 0 -305 178l154 67q20 -51 51.5 -69.5t87.5 -18.5q44 0 71 20.5t27 63.5q0 14 -3 25t-7 19.5t-12.5 15t-15 10.5t-19 7t-19 4.5t-21.5 2t-21.5 0.5h-22.5h-20v131h22.5h24.5t23 1t23 3t19.5 6t18.5 10t13 14.5
t10 20.5t3 27q0 35 -23 54.5t-59 19.5q-97 0 -131 -80l-149 66q31 88 107.5 129t176.5 41q53 0 101 -10t92 -32.5t70 -64t26 -98.5q0 -63 -34.5 -104t-96.5 -56q66 -12 108 -57t42 -111zM1309 1464h172l-1106 -1464h-172zM1524 152h-97v-152h-215v152h-370v81l317 510h268
v-440h97v-151zM1219 592l-175 -289h175v289z" />
    <glyph glyph-name="questiondown" unicode="&#xbf;" horiz-adv-x="1122" 
d="M803 1067q0 -75 -56 -126.5t-131 -51.5q-74 0 -130 52t-56 126t55.5 125t130.5 51q77 0 132 -50t55 -126zM1055 76q-21 -83 -72.5 -148t-120.5 -105t-149 -60.5t-164 -20.5q-91 0 -170.5 21t-145 63.5t-103.5 115.5t-38 169q0 63 21.5 118.5t55.5 97.5t75.5 81.5t82.5 78
t75 78.5t55 92.5t20 110.5h275q0 -74 -7 -111q-13 -70 -53 -134t-86.5 -111.5t-91.5 -91.5t-74.5 -91.5t-29.5 -93.5q0 -76 40.5 -114.5t116.5 -38.5q90 0 167.5 53t101.5 137z" />
    <glyph glyph-name="Agrave" unicode="&#xc0;" horiz-adv-x="1482" 
d="M440 1847h320l106 -284h-223zM997 305h-544l-95 -305h-311l481 1464h433l475 -1464h-346zM725 1194l-201 -653h400z" />
    <glyph glyph-name="Aacute" unicode="&#xc1;" horiz-adv-x="1482" 
d="M721 1847h321l-206 -284h-224zM997 305h-544l-95 -305h-311l481 1464h433l475 -1464h-346zM725 1194l-201 -653h400z" />
    <glyph glyph-name="Acircumflex" unicode="&#xc2;" horiz-adv-x="1482" 
d="M877 1563l-140 108l-141 -108h-209l229 284h252l222 -284h-213zM997 305h-544l-95 -305h-311l481 1464h433l475 -1464h-346zM725 1194l-201 -653h400z" />
    <glyph glyph-name="Atilde" unicode="&#xc3;" horiz-adv-x="1482" 
d="M629 1640q-29 0 -47.5 -22t-24.5 -53h-176q4 54 19.5 102.5t42 91t71 67.5t100.5 25q52 0 130 -38.5t108 -38.5q28 0 46 22t24 53h178q-4 -53 -20 -101.5t-44 -90.5t-72.5 -67t-99.5 -25q-54 0 -132 37.5t-103 37.5zM997 305h-544l-95 -305h-311l481 1464h433l475 -1464
h-346zM725 1194l-201 -653h400z" />
    <glyph glyph-name="Adieresis" unicode="&#xc4;" horiz-adv-x="1482" 
d="M670 1724q0 -61 -45 -105t-107 -44q-61 0 -106 44t-45 105q0 62 44.5 105t106.5 43q61 0 106.5 -43t45.5 -105zM1110 1724q0 -61 -45 -105t-107 -44t-105.5 43.5t-43.5 105.5t43.5 105t105.5 43t107 -43t45 -105zM997 305h-544l-95 -305h-311l481 1464h433l475 -1464
h-346zM725 1194l-201 -653h400z" />
    <glyph glyph-name="Aring" unicode="&#xc5;" horiz-adv-x="1482" 
d="M975 1763q0 -93 -71 -160t-165 -67t-164.5 67t-70.5 160q0 95 69.5 162.5t165.5 67.5t166 -67.5t70 -162.5zM639 1763q0 -45 27.5 -76.5t72.5 -31.5q44 0 72.5 32t28.5 76q0 45 -28.5 78t-72.5 33t-72 -33t-28 -78zM997 305h-544l-95 -305h-311l481 1464h433l475 -1464
h-346zM725 1194l-201 -653h400z" />
    <glyph glyph-name="AE" unicode="&#xc6;" horiz-adv-x="2021" 
d="M965 344h-447l-158 -344h-321l696 1464h1176v-258h-615v-342h490v-241h-490v-365h650v-258h-981v344zM915 1206l-290 -633h340v633h-50z" />
    <glyph glyph-name="Ccedilla" unicode="&#xc7;" horiz-adv-x="1525" 
d="M1014 -268q0 -93 -68.5 -139t-165.5 -46q-95 0 -161.5 47t-77.5 138h151q5 -29 27 -46.5t51 -17.5q32 0 52 18t20 50q0 30 -20 46.5t-50 16.5q-37 0 -63 -20l-74 71l80 132q-210 21 -353 124t-209.5 262.5t-66.5 370.5q0 212 91 382t257.5 268t378.5 98q220 0 386 -97.5
t247 -293.5l-270 -117q-46 108 -136.5 177t-203.5 69q-104 0 -183 -42t-125 -114t-69 -159t-23 -185q0 -78 14.5 -148t46 -131t77.5 -105t113.5 -69.5t150.5 -25.5q136 0 222 67.5t134 198.5l270 -117q-41 -136 -136 -231.5t-216.5 -139.5t-265.5 -47l-45 -73
q90 9 151.5 -37t61.5 -135z" />
    <glyph glyph-name="Egrave" unicode="&#xc8;" horiz-adv-x="1267" 
d="M375 1847h319l107 -284h-223zM492 258h698v-258h-1028v1464h995v-258h-665v-342h540v-241h-540v-365z" />
    <glyph glyph-name="Eacute" unicode="&#xc9;" horiz-adv-x="1267" 
d="M655 1847h322l-207 -284h-223zM492 258h698v-258h-1028v1464h995v-258h-665v-342h540v-241h-540v-365z" />
    <glyph glyph-name="Ecircumflex" unicode="&#xca;" horiz-adv-x="1267" 
d="M811 1563l-139 108l-142 -108h-208l229 284h252l221 -284h-213zM492 258h698v-258h-1028v1464h995v-258h-665v-342h540v-241h-540v-365z" />
    <glyph glyph-name="Edieresis" unicode="&#xcb;" horiz-adv-x="1267" 
d="M604 1724q0 -61 -44.5 -105t-106.5 -44q-61 0 -106.5 44t-45.5 105q0 62 45 105t107 43q61 0 106 -43t45 -105zM1044 1724q0 -61 -44.5 -105t-106.5 -44t-106 44t-44 105q0 62 44 105t106 43t106.5 -43t44.5 -105zM492 258h698v-258h-1028v1464h995v-258h-665v-342h540
v-241h-540v-365z" />
    <glyph glyph-name="Igrave" unicode="&#xcc;" horiz-adv-x="673" 
d="M37 1847h319l107 -284h-223zM170 1464h334v-1464h-334v1464z" />
    <glyph glyph-name="Iacute" unicode="&#xcd;" horiz-adv-x="673" 
d="M317 1847h322l-207 -284h-223zM170 1464h334v-1464h-334v1464z" />
    <glyph glyph-name="Icircumflex" unicode="&#xce;" horiz-adv-x="673" 
d="M473 1563l-139 108l-141 -108h-209l229 284h252l221 -284h-213zM170 1464h334v-1464h-334v1464z" />
    <glyph glyph-name="Idieresis" unicode="&#xcf;" horiz-adv-x="673" 
d="M266 1724q0 -61 -44.5 -105t-106.5 -44q-61 0 -106.5 44t-45.5 105q0 62 45 105t107 43q61 0 106 -43t45 -105zM707 1724q0 -61 -45 -105t-107 -44q-61 0 -105 43.5t-44 105.5t43.5 105t105.5 43t107 -43t45 -105zM170 1464h334v-1464h-334v1464z" />
    <glyph glyph-name="Eth" unicode="&#xd0;" horiz-adv-x="1591" 
d="M1489 748q0 -365 -202 -556.5t-568 -191.5h-518v621h-133v229h133v614h520q176 0 316 -44.5t241.5 -132t156 -224.5t54.5 -315zM528 621v-363h181q434 0 434 469q0 239 -100.5 359t-335.5 120h-179v-356h310v-229h-310z" />
    <glyph glyph-name="Ntilde" unicode="&#xd1;" horiz-adv-x="1581" 
d="M711 1640q-29 0 -47.5 -22t-24.5 -53h-176q4 54 19.5 102.5t42 91t71 67.5t100.5 25q52 0 130 -38.5t108 -38.5q28 0 46 22t24 53h178q-4 -53 -20 -101.5t-44 -90.5t-72.5 -67t-99.5 -25q-54 0 -132 37.5t-103 37.5zM1087 0l-630 1042v-1042h-295v1464h385l577 -964v964
h295v-1464h-332z" />
    <glyph glyph-name="Ograve" unicode="&#xd2;" horiz-adv-x="1679" 
d="M539 1847h319l107 -284h-224zM1593 748q0 -226 -92 -401t-264 -272.5t-399 -97.5q-219 0 -390 93t-266.5 263t-95.5 390t94.5 393.5t267 271t392.5 97.5q217 0 388 -91t268 -259.5t97 -386.5zM432 741q0 -79 15 -151t47.5 -136t80 -111t116.5 -74t153 -27q82 0 150 26
t114 71.5t78 107.5t46.5 132.5t14.5 147.5q0 80 -14 152t-45.5 135.5t-78 109.5t-115.5 72.5t-154 26.5q-103 0 -182.5 -38.5t-128 -106t-73 -153t-24.5 -184.5z" />
    <glyph glyph-name="Oacute" unicode="&#xd3;" horiz-adv-x="1679" 
d="M819 1847h322l-207 -284h-223zM1593 748q0 -226 -92 -401t-264 -272.5t-399 -97.5q-219 0 -390 93t-266.5 263t-95.5 390t94.5 393.5t267 271t392.5 97.5q217 0 388 -91t268 -259.5t97 -386.5zM432 741q0 -79 15 -151t47.5 -136t80 -111t116.5 -74t153 -27q82 0 150 26
t114 71.5t78 107.5t46.5 132.5t14.5 147.5q0 80 -14 152t-45.5 135.5t-78 109.5t-115.5 72.5t-154 26.5q-103 0 -182.5 -38.5t-128 -106t-73 -153t-24.5 -184.5z" />
    <glyph glyph-name="Ocircumflex" unicode="&#xd4;" horiz-adv-x="1679" 
d="M975 1563l-139 108l-142 -108h-209l230 284h252l221 -284h-213zM1593 748q0 -226 -92 -401t-264 -272.5t-399 -97.5q-219 0 -390 93t-266.5 263t-95.5 390t94.5 393.5t267 271t392.5 97.5q217 0 388 -91t268 -259.5t97 -386.5zM432 741q0 -79 15 -151t47.5 -136t80 -111
t116.5 -74t153 -27q82 0 150 26t114 71.5t78 107.5t46.5 132.5t14.5 147.5q0 80 -14 152t-45.5 135.5t-78 109.5t-115.5 72.5t-154 26.5q-103 0 -182.5 -38.5t-128 -106t-73 -153t-24.5 -184.5z" />
    <glyph glyph-name="Otilde" unicode="&#xd5;" horiz-adv-x="1679" 
d="M727 1640q-29 0 -47.5 -22t-24.5 -53h-176q4 54 19.5 102.5t42.5 91t71.5 67.5t100.5 25q52 0 129.5 -38.5t107.5 -38.5q28 0 46 22t24 53h178q-4 -53 -20 -101.5t-43.5 -90.5t-72 -67t-99.5 -25t-133 37.5t-103 37.5zM1593 748q0 -226 -92 -401t-264 -272.5t-399 -97.5
q-219 0 -390 93t-266.5 263t-95.5 390t94.5 393.5t267 271t392.5 97.5q217 0 388 -91t268 -259.5t97 -386.5zM432 741q0 -79 15 -151t47.5 -136t80 -111t116.5 -74t153 -27q82 0 150 26t114 71.5t78 107.5t46.5 132.5t14.5 147.5q0 80 -14 152t-45.5 135.5t-78 109.5
t-115.5 72.5t-154 26.5q-103 0 -182.5 -38.5t-128 -106t-73 -153t-24.5 -184.5z" />
    <glyph glyph-name="Odieresis" unicode="&#xd6;" horiz-adv-x="1679" 
d="M768 1724q0 -61 -45 -105t-107 -44q-61 0 -106 44t-45 105q0 62 44.5 105t106.5 43q61 0 106.5 -43t45.5 -105zM1208 1724q0 -61 -44.5 -105t-106.5 -44t-106 44t-44 105q0 62 44 105t106 43t106.5 -43t44.5 -105zM1593 748q0 -226 -92 -401t-264 -272.5t-399 -97.5
q-219 0 -390 93t-266.5 263t-95.5 390t94.5 393.5t267 271t392.5 97.5q217 0 388 -91t268 -259.5t97 -386.5zM432 741q0 -79 15 -151t47.5 -136t80 -111t116.5 -74t153 -27q82 0 150 26t114 71.5t78 107.5t46.5 132.5t14.5 147.5q0 80 -14 152t-45.5 135.5t-78 109.5
t-115.5 72.5t-154 26.5q-103 0 -182.5 -38.5t-128 -106t-73 -153t-24.5 -184.5z" />
    <glyph glyph-name="multiply" unicode="&#xd7;" horiz-adv-x="1101" 
d="M709 686l317 -315l-162 -160l-315 317l-311 -313l-158 158l313 313l-317 315l157 160l316 -317l315 313l158 -158z" />
    <glyph glyph-name="Oslash" unicode="&#xd8;" horiz-adv-x="1679" 
d="M838 -23q-278 0 -478 148l-178 -191l-110 109l178 190q-164 194 -164 490q0 220 94.5 393.5t267 271t392.5 97.5q256 0 454 -133l156 166l111 -111l-150 -160q90 -100 136 -229t46 -270q0 -227 -91.5 -401.5t-263.5 -272t-400 -97.5zM428 741q0 -155 47 -266l621 664
q-102 84 -256 84q-104 0 -184 -38t-129 -105.5t-74 -153t-25 -185.5zM567 344q108 -102 277 -102q102 0 182 39.5t128 108t72.5 154t24.5 183.5q0 170 -57 287z" />
    <glyph glyph-name="Ugrave" unicode="&#xd9;" horiz-adv-x="1521" 
d="M459 1847h319l107 -284h-223zM1372 584q0 -297 -160 -452t-458 -155q-291 0 -447.5 152t-156.5 442v893h333v-872q0 -81 11 -139t39 -108.5t84 -76.5t139 -26q87 0 145 26.5t87 79t39.5 112t10.5 144.5v860h334v-880z" />
    <glyph glyph-name="Uacute" unicode="&#xda;" horiz-adv-x="1521" 
d="M739 1847h322l-207 -284h-223zM1372 584q0 -297 -160 -452t-458 -155q-291 0 -447.5 152t-156.5 442v893h333v-872q0 -81 11 -139t39 -108.5t84 -76.5t139 -26q87 0 145 26.5t87 79t39.5 112t10.5 144.5v860h334v-880z" />
    <glyph glyph-name="Ucircumflex" unicode="&#xdb;" horiz-adv-x="1521" 
d="M895 1563l-139 108l-142 -108h-208l229 284h252l221 -284h-213zM1372 584q0 -297 -160 -452t-458 -155q-291 0 -447.5 152t-156.5 442v893h333v-872q0 -81 11 -139t39 -108.5t84 -76.5t139 -26q87 0 145 26.5t87 79t39.5 112t10.5 144.5v860h334v-880z" />
    <glyph glyph-name="Udieresis" unicode="&#xdc;" horiz-adv-x="1521" 
d="M688 1724q0 -61 -44.5 -105t-106.5 -44q-61 0 -106.5 44t-45.5 105q0 62 45 105t107 43q61 0 106 -43t45 -105zM1128 1724q0 -61 -44.5 -105t-106.5 -44t-106 44t-44 105q0 62 44 105t106 43t106.5 -43t44.5 -105zM1372 584q0 -297 -160 -452t-458 -155
q-291 0 -447.5 152t-156.5 442v893h333v-872q0 -81 11 -139t39 -108.5t84 -76.5t139 -26q87 0 145 26.5t87 79t39.5 112t10.5 144.5v860h334v-880z" />
    <glyph glyph-name="Yacute" unicode="&#xdd;" horiz-adv-x="1335" 
d="M657 1847h322l-207 -284h-223zM1305 1464l-457 -833v-631h-334v631l-483 833h364l297 -561l291 561h322z" />
    <glyph glyph-name="Thorn" unicode="&#xde;" horiz-adv-x="1290" 
d="M678 299h-186v-299h-330v1464h330v-252h176q96 0 176 -13.5t152.5 -46t122.5 -83t79 -129.5t29 -180q0 -99 -28 -177.5t-77 -131t-119 -87.5t-150.5 -50t-174.5 -15zM492 971v-439h167q116 0 182 53t66 167q0 120 -62.5 169.5t-185.5 49.5h-167z" />
    <glyph glyph-name="germandbls" unicode="&#xdf;" horiz-adv-x="1275" 
d="M1208 471q0 -230 -115.5 -360.5t-342.5 -130.5q-108 0 -193 26l90 207q24 -3 46 -3q107 0 160.5 71t53.5 192q0 297 -325 297v225q98 -2 165.5 50.5t67.5 148.5q0 184 -188 184q-96 0 -146.5 -63.5t-50.5 -161.5v-1153h-295v1130q0 145 68.5 249t181 154t256.5 50
q93 0 172.5 -21.5t144 -64.5t101.5 -117t37 -170q0 -110 -68 -192.5t-176 -116.5q161 -37 258.5 -152t97.5 -278z" />
    <glyph glyph-name="agrave" unicode="&#xe0;" horiz-adv-x="1163" 
d="M276 1542h312l117 -325h-216zM748 129q-105 -152 -324 -152q-159 0 -258.5 82t-99.5 238q0 71 25.5 127t60.5 92t97.5 61t111.5 37t129 18.5t122.5 7.5t118.5 1h3.5h4h4.5q0 49 -2.5 80t-13 65t-29.5 52.5t-53.5 30.5t-83.5 12q-75 0 -135 -35.5t-84 -102.5l-227 99
q26 70 77 121t117 79t135 41t144 13q102 0 182.5 -22t141 -68.5t92.5 -124t32 -183.5v-698h-288v129zM356 313q0 -66 43.5 -97.5t112.5 -31.5q94 0 162.5 50t68.5 141v90h-114q-32 0 -57.5 -1.5t-60 -6t-59.5 -15t-48 -26.5t-35.5 -42.5t-12.5 -60.5z" />
    <glyph glyph-name="aacute" unicode="&#xe1;" horiz-adv-x="1163" 
d="M584 1542h311l-213 -325h-215zM748 129q-105 -152 -324 -152q-159 0 -258.5 82t-99.5 238q0 71 25.5 127t60.5 92t97.5 61t111.5 37t129 18.5t122.5 7.5t118.5 1h3.5h4h4.5q0 49 -2.5 80t-13 65t-29.5 52.5t-53.5 30.5t-83.5 12q-75 0 -135 -35.5t-84 -102.5l-227 99
q26 70 77 121t117 79t135 41t144 13q102 0 182.5 -22t141 -68.5t92.5 -124t32 -183.5v-698h-288v129zM356 313q0 -66 43.5 -97.5t112.5 -31.5q94 0 162.5 50t68.5 141v90h-114q-32 0 -57.5 -1.5t-60 -6t-59.5 -15t-48 -26.5t-35.5 -42.5t-12.5 -60.5z" />
    <glyph glyph-name="acircumflex" unicode="&#xe2;" horiz-adv-x="1163" 
d="M711 1219l-142 129l-143 -129h-203l240 319h223l234 -319h-209zM748 129q-105 -152 -324 -152q-159 0 -258.5 82t-99.5 238q0 71 25.5 127t60.5 92t97.5 61t111.5 37t129 18.5t122.5 7.5t118.5 1h3.5h4h4.5q0 49 -2.5 80t-13 65t-29.5 52.5t-53.5 30.5t-83.5 12
q-75 0 -135 -35.5t-84 -102.5l-227 99q26 70 77 121t117 79t135 41t144 13q102 0 182.5 -22t141 -68.5t92.5 -124t32 -183.5v-698h-288v129zM356 313q0 -66 43.5 -97.5t112.5 -31.5q94 0 162.5 50t68.5 141v90h-114q-32 0 -57.5 -1.5t-60 -6t-59.5 -15t-48 -26.5
t-35.5 -42.5t-12.5 -60.5z" />
    <glyph glyph-name="atilde" unicode="&#xe3;" horiz-adv-x="1163" 
d="M938 1516q-4 -53 -19 -101.5t-41 -92.5t-69.5 -70.5t-99.5 -26.5q-42 0 -87 19.5t-83 39t-62 19.5q-28 0 -46.5 -22.5t-24.5 -53.5h-170q4 54 18 102t39.5 91.5t68.5 69.5t99 26q52 0 128.5 -38t106.5 -38q28 0 46 22.5t24 53.5h172zM748 129q-105 -152 -324 -152
q-159 0 -258.5 82t-99.5 238q0 71 25.5 127t60.5 92t97.5 61t111.5 37t129 18.5t122.5 7.5t118.5 1h3.5h4h4.5q0 49 -2.5 80t-13 65t-29.5 52.5t-53.5 30.5t-83.5 12q-75 0 -135 -35.5t-84 -102.5l-227 99q26 70 77 121t117 79t135 41t144 13q102 0 182.5 -22t141 -68.5
t92.5 -124t32 -183.5v-698h-288v129zM356 313q0 -66 43.5 -97.5t112.5 -31.5q94 0 162.5 50t68.5 141v90h-114q-32 0 -57.5 -1.5t-60 -6t-59.5 -15t-48 -26.5t-35.5 -42.5t-12.5 -60.5z" />
    <glyph glyph-name="adieresis" unicode="&#xe4;" horiz-adv-x="1163" 
d="M946 1376q0 -62 -44.5 -104.5t-106.5 -42.5t-107 42.5t-45 104.5t45 105t107 43t106.5 -43t44.5 -105zM528 1376q0 -62 -44.5 -104.5t-106.5 -42.5t-107 42.5t-45 104.5t45 105t107 43t106.5 -43t44.5 -105zM748 129q-105 -152 -324 -152q-159 0 -258.5 82t-99.5 238
q0 71 25.5 127t60.5 92t97.5 61t111.5 37t129 18.5t122.5 7.5t118.5 1h3.5h4h4.5q0 49 -2.5 80t-13 65t-29.5 52.5t-53.5 30.5t-83.5 12q-75 0 -135 -35.5t-84 -102.5l-227 99q26 70 77 121t117 79t135 41t144 13q102 0 182.5 -22t141 -68.5t92.5 -124t32 -183.5v-698h-288
v129zM356 313q0 -66 43.5 -97.5t112.5 -31.5q94 0 162.5 50t68.5 141v90h-114q-32 0 -57.5 -1.5t-60 -6t-59.5 -15t-48 -26.5t-35.5 -42.5t-12.5 -60.5z" />
    <glyph glyph-name="aring" unicode="&#xe5;" horiz-adv-x="1163" 
d="M819 1425q0 -94 -69.5 -160.5t-163.5 -66.5q-95 0 -164.5 66.5t-69.5 160.5t70 160t164 66t163.5 -66t69.5 -160zM487 1425q0 -44 27.5 -76t71.5 -32t71 31.5t27 76.5t-27 77t-71 32t-71.5 -32.5t-27.5 -76.5zM748 129q-105 -152 -324 -152q-159 0 -258.5 82t-99.5 238
q0 71 25.5 127t60.5 92t97.5 61t111.5 37t129 18.5t122.5 7.5t118.5 1h3.5h4h4.5q0 49 -2.5 80t-13 65t-29.5 52.5t-53.5 30.5t-83.5 12q-75 0 -135 -35.5t-84 -102.5l-227 99q26 70 77 121t117 79t135 41t144 13q102 0 182.5 -22t141 -68.5t92.5 -124t32 -183.5v-698h-288
v129zM356 313q0 -66 43.5 -97.5t112.5 -31.5q94 0 162.5 50t68.5 141v90h-114q-32 0 -57.5 -1.5t-60 -6t-59.5 -15t-48 -26.5t-35.5 -42.5t-12.5 -60.5z" />
    <glyph glyph-name="ae" unicode="&#xe6;" horiz-adv-x="1847" 
d="M1767 248q-26 -73 -76 -127t-116 -84.5t-136.5 -45t-148.5 -14.5q-132 0 -244 49t-178 150q-139 -199 -422 -199q-79 0 -146 18.5t-120.5 56t-83.5 100.5t-30 145q0 73 25.5 129.5t61 93t98 62t112 38t130 19t123 7.5t119.5 1h3h3h4q0 60 -6 98t-24.5 71.5t-56.5 49
t-99 15.5q-74 0 -131.5 -35t-81.5 -103l-227 99q26 70 74.5 121t111.5 79t130.5 41t142.5 13q251 0 342 -144q134 144 350 144q245 0 377.5 -148t132.5 -397v-80h-752q6 -127 73 -205t191 -78q185 0 267 150zM1270 891q-104 0 -164.5 -68.5t-73.5 -175.5h459
q-19 244 -221 244zM356 319q0 -135 156 -135q98 0 165.5 48.5t67.5 142.5v94h-120q-32 0 -56.5 -1.5t-58.5 -6t-59 -15t-48 -26t-35 -41.5t-12 -60z" />
    <glyph glyph-name="ccedilla" unicode="&#xe7;" horiz-adv-x="1173" 
d="M815 -268q0 -93 -67.5 -139t-165.5 -46q-95 0 -162 47t-78 138h152q5 -29 26.5 -46.5t50.5 -17.5q31 0 51.5 18.5t20.5 49.5q0 30 -20 46.5t-50 16.5q-37 0 -63 -20l-74 71l80 134q-144 22 -246 99.5t-151 193.5t-49 262q0 243 155 400t398 157q83 0 157 -17t139 -52.5
t113.5 -95t73.5 -138.5l-229 -101q-66 170 -248 170q-71 0 -122.5 -28t-79.5 -77.5t-41 -106.5t-13 -124q0 -68 13.5 -124.5t43 -102.5t82 -72t123.5 -26q192 0 260 194l219 -96q-29 -105 -101 -177.5t-164 -106.5t-202 -38l-45 -73q90 9 151.5 -37t61.5 -135z" />
    <glyph glyph-name="egrave" unicode="&#xe8;" horiz-adv-x="1210" 
d="M305 1542h311l117 -325h-215zM1116 229q-30 -70 -83 -120.5t-120 -78.5t-136.5 -40.5t-147.5 -12.5q-257 0 -408 152t-151 410q0 242 154.5 399.5t396.5 157.5q166 0 291.5 -75t187.5 -222q27 -66 35 -135.5t8 -165.5v-29h-772q6 -129 72.5 -205t193.5 -76q93 0 156 30.5
t104 107.5zM621 891q-104 0 -166 -66t-80 -174h479q-13 240 -233 240z" />
    <glyph glyph-name="eacute" unicode="&#xe9;" horiz-adv-x="1210" 
d="M612 1542h312l-213 -325h-215zM1116 229q-30 -70 -83 -120.5t-120 -78.5t-136.5 -40.5t-147.5 -12.5q-257 0 -408 152t-151 410q0 242 154.5 399.5t396.5 157.5q166 0 291.5 -75t187.5 -222q27 -66 35 -135.5t8 -165.5v-29h-772q6 -129 72.5 -205t193.5 -76
q93 0 156 30.5t104 107.5zM621 891q-104 0 -166 -66t-80 -174h479q-13 240 -233 240z" />
    <glyph glyph-name="ecircumflex" unicode="&#xea;" horiz-adv-x="1210" 
d="M754 1219l-142 129l-143 -129h-203l240 319h223l234 -319h-209zM1116 229q-30 -70 -83 -120.5t-120 -78.5t-136.5 -40.5t-147.5 -12.5q-257 0 -408 152t-151 410q0 242 154.5 399.5t396.5 157.5q166 0 291.5 -75t187.5 -222q27 -66 35 -135.5t8 -165.5v-29h-772
q6 -129 72.5 -205t193.5 -76q93 0 156 30.5t104 107.5zM621 891q-104 0 -166 -66t-80 -174h479q-13 240 -233 240z" />
    <glyph glyph-name="edieresis" unicode="&#xeb;" horiz-adv-x="1210" 
d="M975 1376q0 -62 -45 -104.5t-107 -42.5t-106.5 42.5t-44.5 104.5t44.5 105t106.5 43t107 -43t45 -105zM557 1376q0 -62 -44.5 -104.5t-106.5 -42.5t-107 42.5t-45 104.5t45 105t107 43t106.5 -43t44.5 -105zM1116 229q-30 -70 -83 -120.5t-120 -78.5t-136.5 -40.5
t-147.5 -12.5q-257 0 -408 152t-151 410q0 242 154.5 399.5t396.5 157.5q166 0 291.5 -75t187.5 -222q27 -66 35 -135.5t8 -165.5v-29h-772q6 -129 72.5 -205t193.5 -76q93 0 156 30.5t104 107.5zM621 891q-104 0 -166 -66t-80 -174h479q-13 240 -233 240z" />
    <glyph glyph-name="igrave" unicode="&#xec;" horiz-adv-x="583" 
d="M-16 1542h311l117 -325h-215zM143 1071h295v-1071h-295v1071z" />
    <glyph glyph-name="iacute" unicode="&#xed;" horiz-adv-x="583" 
d="M291 1542h311l-213 -325h-215zM143 1071h295v-1071h-295v1071z" />
    <glyph glyph-name="icircumflex" unicode="&#xee;" horiz-adv-x="583" 
d="M432 1219l-141 129l-144 -129h-202l239 319h224l233 -319h-209zM143 1071h295v-1071h-295v1071z" />
    <glyph glyph-name="idieresis" unicode="&#xef;" horiz-adv-x="583" 
d="M645 1376q0 -62 -44.5 -104.5t-106.5 -42.5t-106 43t-44 104q0 62 44 105t106 43t106.5 -43t44.5 -105zM238 1376q0 -62 -45 -104.5t-107 -42.5t-105.5 43t-43.5 104q0 62 43.5 105t105.5 43t107 -43t45 -105zM143 1071h295v-1071h-295v1071z" />
    <glyph glyph-name="eth" unicode="&#xf0;" horiz-adv-x="1269" 
d="M1198 563q0 -261 -155 -423.5t-414 -162.5q-248 0 -403.5 155t-155.5 403q0 108 32.5 207t92.5 175.5t153 122t205 45.5q155 0 252 -110q-67 144 -213 291l-266 -115l-54 117l217 94q-103 89 -251 194h337q87 -51 144 -96l203 88l51 -118l-142 -62q169 -156 268 -351.5
t99 -408.5v-45zM373 547q0 -70 12.5 -128t41 -108.5t81.5 -79t127 -28.5q70 0 122 26.5t82 73t44 103t14 122.5q0 69 -12.5 127t-41 108t-81 78.5t-125.5 28.5q-134 0 -199 -91.5t-65 -231.5z" />
    <glyph glyph-name="ntilde" unicode="&#xf1;" horiz-adv-x="1277" 
d="M985 1516q-4 -53 -19 -101.5t-41 -92.5t-69.5 -70.5t-99.5 -26.5q-42 0 -87 19.5t-83 39t-62 19.5q-28 0 -46.5 -22.5t-24.5 -53.5h-170q4 54 18 102t39.5 91.5t68.5 69.5t99 26q52 0 128.5 -38t106.5 -38q28 0 46 22.5t24 53.5h172zM655 854q-105 0 -164 -64.5
t-59 -171.5v-618h-297v1071h297v-170q50 96 143 145.5t205 49.5q183 0 277 -113.5t94 -300.5v-682h-297v639q0 215 -199 215z" />
    <glyph glyph-name="ograve" unicode="&#xf2;" horiz-adv-x="1269" 
d="M324 1542h311l117 -325h-215zM1198 547q0 -256 -155 -413t-410 -157q-245 0 -404 151.5t-159 395.5q0 256 155 414t410 158q161 0 289 -68t201 -193.5t73 -287.5zM373 547q0 -55 7.5 -103t26 -93.5t47.5 -77.5t75.5 -51t105.5 -19q70 0 122 26.5t82 73t44 103t14 122.5
q0 55 -7.5 102.5t-26.5 92.5t-48 77t-75 51t-105 19q-69 0 -121 -26.5t-82 -72.5t-44.5 -102t-14.5 -122z" />
    <glyph glyph-name="oacute" unicode="&#xf3;" horiz-adv-x="1269" 
d="M631 1542h311l-213 -325h-215zM1198 547q0 -256 -155 -413t-410 -157q-245 0 -404 151.5t-159 395.5q0 256 155 414t410 158q161 0 289 -68t201 -193.5t73 -287.5zM373 547q0 -55 7.5 -103t26 -93.5t47.5 -77.5t75.5 -51t105.5 -19q70 0 122 26.5t82 73t44 103t14 122.5
q0 55 -7.5 102.5t-26.5 92.5t-48 77t-75 51t-105 19q-69 0 -121 -26.5t-82 -72.5t-44.5 -102t-14.5 -122z" />
    <glyph glyph-name="ocircumflex" unicode="&#xf4;" horiz-adv-x="1269" 
d="M772 1219l-141 129l-144 -129h-202l239 319h224l233 -319h-209zM1198 547q0 -256 -155 -413t-410 -157q-245 0 -404 151.5t-159 395.5q0 256 155 414t410 158q161 0 289 -68t201 -193.5t73 -287.5zM373 547q0 -55 7.5 -103t26 -93.5t47.5 -77.5t75.5 -51t105.5 -19
q70 0 122 26.5t82 73t44 103t14 122.5q0 55 -7.5 102.5t-26.5 92.5t-48 77t-75 51t-105 19q-69 0 -121 -26.5t-82 -72.5t-44.5 -102t-14.5 -122z" />
    <glyph glyph-name="otilde" unicode="&#xf5;" horiz-adv-x="1269" 
d="M985 1516q-4 -53 -19 -101.5t-41 -92.5t-69.5 -70.5t-99.5 -26.5q-42 0 -87 19.5t-83 39t-62 19.5q-28 0 -46.5 -22.5t-24.5 -53.5h-170q4 54 18 102t39.5 91.5t68.5 69.5t99 26q52 0 128.5 -38t106.5 -38q28 0 46 22.5t24 53.5h172zM1198 547q0 -256 -155 -413
t-410 -157q-245 0 -404 151.5t-159 395.5q0 256 155 414t410 158q161 0 289 -68t201 -193.5t73 -287.5zM373 547q0 -55 7.5 -103t26 -93.5t47.5 -77.5t75.5 -51t105.5 -19q70 0 122 26.5t82 73t44 103t14 122.5q0 55 -7.5 102.5t-26.5 92.5t-48 77t-75 51t-105 19
q-69 0 -121 -26.5t-82 -72.5t-44.5 -102t-14.5 -122z" />
    <glyph glyph-name="odieresis" unicode="&#xf6;" horiz-adv-x="1269" 
d="M993 1376q0 -62 -44.5 -104.5t-106.5 -42.5t-107 42.5t-45 104.5t45 105t107 43t106.5 -43t44.5 -105zM575 1376q0 -62 -44.5 -104.5t-106.5 -42.5t-107 42.5t-45 104.5t45 105t107 43t106.5 -43t44.5 -105zM1198 547q0 -256 -155 -413t-410 -157q-245 0 -404 151.5
t-159 395.5q0 256 155 414t410 158q161 0 289 -68t201 -193.5t73 -287.5zM373 547q0 -55 7.5 -103t26 -93.5t47.5 -77.5t75.5 -51t105.5 -19q70 0 122 26.5t82 73t44 103t14 122.5q0 55 -7.5 102.5t-26.5 92.5t-48 77t-75 51t-105 19q-69 0 -121 -26.5t-82 -72.5t-44.5 -102
t-14.5 -122z" />
    <glyph glyph-name="divide" unicode="&#xf7;" horiz-adv-x="1140" 
d="M741 1106q0 -71 -50 -119.5t-122 -48.5q-71 0 -120.5 48.5t-49.5 119.5t49.5 119.5t120.5 48.5q73 0 122.5 -48t49.5 -120zM80 805h981v-213h-981v213zM741 291q0 -71 -50 -119.5t-122 -48.5q-71 0 -120.5 48.5t-49.5 119.5q0 70 49.5 119t120.5 49q70 0 121 -49t51 -119
z" />
    <glyph glyph-name="oslash" unicode="&#xf8;" horiz-adv-x="1269" 
d="M633 -23q-194 0 -340 99l-143 -154l-101 90l144 154q-123 146 -123 358q0 256 155 414t410 158q190 0 330 -95l135 146l100 -90l-133 -144q131 -144 131 -366q0 -256 -155 -413t-410 -157zM371 547q0 -110 20 -166l404 436q-64 53 -160 53q-134 0 -199 -91.5t-65 -231.5z
M463 260q67 -59 172 -59q56 0 101.5 18t75 48t50 72.5t29 89t8.5 99.5q0 97 -27 174z" />
    <glyph glyph-name="ugrave" unicode="&#xf9;" horiz-adv-x="1271" 
d="M330 1542h311l117 -325h-215zM842 168q-50 -96 -139 -143.5t-201 -47.5q-182 0 -278.5 110t-96.5 294v690h295v-649q0 -102 48 -158.5t148 -56.5q105 0 164.5 64.5t59.5 170.5v629h295v-1071h-295v168z" />
    <glyph glyph-name="uacute" unicode="&#xfa;" horiz-adv-x="1271" 
d="M637 1542h311l-213 -325h-215zM842 168q-50 -96 -139 -143.5t-201 -47.5q-182 0 -278.5 110t-96.5 294v690h295v-649q0 -102 48 -158.5t148 -56.5q105 0 164.5 64.5t59.5 170.5v629h295v-1071h-295v168z" />
    <glyph glyph-name="ucircumflex" unicode="&#xfb;" horiz-adv-x="1271" 
d="M778 1219l-141 129l-143 -129h-203l239 319h224l233 -319h-209zM842 168q-50 -96 -139 -143.5t-201 -47.5q-182 0 -278.5 110t-96.5 294v690h295v-649q0 -102 48 -158.5t148 -56.5q105 0 164.5 64.5t59.5 170.5v629h295v-1071h-295v168z" />
    <glyph glyph-name="udieresis" unicode="&#xfc;" horiz-adv-x="1271" 
d="M999 1376q0 -62 -44.5 -104.5t-106.5 -42.5t-107 42.5t-45 104.5t45 105t107 43t106.5 -43t44.5 -105zM582 1376q0 -62 -45 -104.5t-107 -42.5t-106.5 42.5t-44.5 104.5t44.5 105t106.5 43t107 -43t45 -105zM842 168q-50 -96 -139 -143.5t-201 -47.5q-182 0 -278.5 110
t-96.5 294v690h295v-649q0 -102 48 -158.5t148 -56.5q105 0 164.5 64.5t59.5 170.5v629h295v-1071h-295v168z" />
    <glyph glyph-name="yacute" unicode="&#xfd;" horiz-adv-x="1169" 
d="M602 1542h311l-213 -325h-215zM852 1071h285l-580 -1436h-287l189 474l-426 962h319l260 -643z" />
    <glyph glyph-name="thorn" unicode="&#xfe;" horiz-adv-x="1312" 
d="M774 -23q-107 0 -199.5 48.5t-142.5 138.5v-529h-297v1921h297v-653q53 89 146 141t196 52q114 0 205 -45t147 -122t85.5 -174.5t29.5 -207.5q0 -90 -16.5 -172t-53 -155.5t-90 -127t-132.5 -84.5t-175 -31zM422 545q0 -71 13 -128t42 -105.5t82 -75.5t127 -27
q70 0 121 25.5t79 71t41 100.5t13 122q0 68 -12.5 125t-40.5 107.5t-79.5 79t-123.5 28.5q-69 0 -121 -26.5t-82 -72.5t-44.5 -102t-14.5 -122z" />
    <glyph glyph-name="ydieresis" unicode="&#xff;" horiz-adv-x="1169" 
d="M965 1376q0 -62 -45 -104.5t-107 -42.5t-106.5 42.5t-44.5 104.5t44.5 105t106.5 43t107 -43t45 -105zM547 1376q0 -62 -45 -104.5t-107 -42.5t-106.5 42.5t-44.5 104.5t44.5 105t106.5 43t107 -43t45 -105zM852 1071h285l-580 -1436h-287l189 474l-426 962h319l260 -643
z" />
    <glyph glyph-name="Amacron" unicode="&#x100;" horiz-adv-x="1482" 
d="M430 1778h619v-187h-619v187zM997 305h-544l-95 -305h-311l481 1464h433l475 -1464h-346zM725 1194l-201 -653h400z" />
    <glyph glyph-name="amacron" unicode="&#x101;" horiz-adv-x="1163" 
d="M285 1458h596v-178h-596v178zM748 129q-105 -152 -324 -152q-159 0 -258.5 82t-99.5 238q0 71 25.5 127t60.5 92t97.5 61t111.5 37t129 18.5t122.5 7.5t118.5 1h3.5h4h4.5q0 49 -2.5 80t-13 65t-29.5 52.5t-53.5 30.5t-83.5 12q-75 0 -135 -35.5t-84 -102.5l-227 99
q26 70 77 121t117 79t135 41t144 13q102 0 182.5 -22t141 -68.5t92.5 -124t32 -183.5v-698h-288v129zM356 313q0 -67 43 -98t113 -31q96 0 163.5 49t67.5 142v90h-114q-32 0 -57.5 -1.5t-60 -6t-59.5 -15t-48 -26.5t-35.5 -42.5t-12.5 -60.5z" />
    <glyph glyph-name="Abreve" unicode="&#x102;" horiz-adv-x="1482" 
d="M1055 1849q-8 -134 -96 -216.5t-222 -82.5q-135 0 -220 81.5t-93 217.5h199q18 -106 114 -106q49 0 80.5 28t40.5 78h197zM997 305h-544l-95 -305h-311l481 1464h433l475 -1464h-346zM725 1194l-201 -653h400z" />
    <glyph glyph-name="abreve" unicode="&#x103;" horiz-adv-x="1163" 
d="M895 1530q-8 -137 -93.5 -221t-221.5 -84q-137 0 -220.5 83t-91.5 222h195q6 -52 36 -81.5t81 -29.5q52 0 84 29t41 82h190zM748 129q-105 -152 -324 -152q-159 0 -258.5 82t-99.5 238q0 71 25.5 127t60.5 92t97.5 61t111.5 37t129 18.5t122.5 7.5t118.5 1h3.5h4h4.5
q0 49 -2.5 80t-13 65t-29.5 52.5t-53.5 30.5t-83.5 12q-75 0 -135 -35.5t-84 -102.5l-227 99q26 70 77 121t117 79t135 41t144 13q102 0 182.5 -22t141 -68.5t92.5 -124t32 -183.5v-698h-288v129zM356 313q0 -67 43 -98t113 -31q96 0 163.5 49t67.5 142v90h-114
q-32 0 -57.5 -1.5t-60 -6t-59.5 -15t-48 -26.5t-35.5 -42.5t-12.5 -60.5z" />
    <glyph glyph-name="Aogonek" unicode="&#x104;" horiz-adv-x="1482" 
d="M1436 -342q-67 -31 -166 -31q-43 0 -82.5 8.5t-76.5 26.5t-59 51.5t-22 79.5q0 66 50 119.5t120 87.5h-110l-93 305h-544l-95 -305h-311l481 1464h433l469 -1444q-2 -1 -17 -11t-19 -12.5t-18 -12.5t-19.5 -14.5t-17 -14.5t-16.5 -17t-13 -17.5t-11 -19.5t-6 -20t-3 -22
q0 -62 68 -62q38 0 78 15v-154zM725 1194l-201 -653h400z" />
    <glyph glyph-name="aogonek" unicode="&#x105;" horiz-adv-x="1163" 
d="M1051 -342q-67 -31 -166 -31q-57 0 -106 14t-86.5 52.5t-37.5 97.5q0 69 49 122t121 87h-77v129q-107 -152 -324 -152q-159 0 -258.5 82t-99.5 238q0 71 25.5 127t61 92t98 61t112 37t129.5 18.5t122.5 7.5t118.5 1h10q0 50 -2 78.5t-11 64t-27 53.5t-51.5 31t-82.5 13
q-74 0 -131.5 -35t-81.5 -103l-227 99q26 70 74.5 121t111.5 79t130.5 41t142.5 13q102 0 182.5 -22t141 -68.5t92.5 -124t32 -183.5v-682q-27 -18 -44.5 -31t-40.5 -35t-34.5 -46t-11.5 -49q0 -64 68 -64q41 0 78 14v-147zM356 313q0 -66 43.5 -97.5t112.5 -31.5
q94 0 162.5 50t68.5 141v90h-114q-32 0 -57.5 -1.5t-60 -6t-59.5 -15t-48 -26.5t-35.5 -42.5t-12.5 -60.5z" />
    <glyph glyph-name="Cacute" unicode="&#x106;" horiz-adv-x="1525" 
d="M793 1847h321l-207 -284h-223zM1464 395q-41 -141 -141 -237t-227 -138.5t-275 -42.5q-355 0 -545 202t-190 560q0 212 91 382t257.5 268t378.5 98q221 0 386.5 -97.5t246.5 -293.5l-270 -117q-44 108 -135.5 177t-204.5 69q-104 0 -183 -42t-125 -114t-69 -159t-23 -185
q0 -78 14.5 -148t46 -131t77.5 -105t113.5 -69.5t150.5 -25.5q137 0 222.5 67t133.5 199z" />
    <glyph glyph-name="cacute" unicode="&#x107;" horiz-adv-x="1173" 
d="M598 1542h311l-213 -325h-215zM1114 299q-47 -161 -181.5 -241.5t-311.5 -80.5q-256 0 -403.5 152.5t-147.5 409.5q0 243 155 400t398 157q83 0 157 -17t139 -52.5t113.5 -95t73.5 -138.5l-229 -101q-63 170 -248 170q-71 0 -122.5 -28t-79.5 -77.5t-41 -106.5t-13 -124
q0 -68 13.5 -124.5t43 -102.5t82 -72t123.5 -26q195 0 260 194z" />
    <glyph glyph-name="Ccircumflex" unicode="&#x108;" horiz-adv-x="1525" 
d="M948 1563l-139 108l-141 -108h-209l229 284h252l221 -284h-213zM1464 395q-41 -141 -141 -237t-227 -138.5t-275 -42.5q-355 0 -545 202t-190 560q0 212 91 382t257.5 268t378.5 98q221 0 386.5 -97.5t246.5 -293.5l-270 -117q-44 108 -135.5 177t-204.5 69
q-104 0 -183 -42t-125 -114t-69 -159t-23 -185q0 -78 14.5 -148t46 -131t77.5 -105t113.5 -69.5t150.5 -25.5q137 0 222.5 67t133.5 199z" />
    <glyph glyph-name="ccircumflex" unicode="&#x109;" horiz-adv-x="1173" 
d="M727 1219l-141 129l-144 -129h-202l239 319h223l234 -319h-209zM1114 299q-47 -161 -181.5 -241.5t-311.5 -80.5q-256 0 -403.5 152.5t-147.5 409.5q0 243 155 400t398 157q83 0 157 -17t139 -52.5t113.5 -95t73.5 -138.5l-229 -101q-63 170 -248 170q-71 0 -122.5 -28
t-79.5 -77.5t-41 -106.5t-13 -124q0 -68 13.5 -124.5t43 -102.5t82 -72t123.5 -26q195 0 260 194z" />
    <glyph glyph-name="Cdotaccent" unicode="&#x10a;" horiz-adv-x="1525" 
d="M971 1731q0 -66 -49 -112t-115 -46q-68 0 -117 45t-49 113t49 112.5t117 44.5q66 0 115 -45.5t49 -111.5zM1464 395q-41 -141 -141 -237t-227 -138.5t-275 -42.5q-355 0 -545 202t-190 560q0 212 91 382t257.5 268t378.5 98q221 0 386.5 -97.5t246.5 -293.5l-270 -117
q-44 108 -135.5 177t-204.5 69q-104 0 -183 -42t-125 -114t-69 -159t-23 -185q0 -78 14.5 -148t46 -131t77.5 -105t113.5 -69.5t150.5 -25.5q137 0 222.5 67t133.5 199z" />
    <glyph glyph-name="cdotaccent" unicode="&#x10b;" horiz-adv-x="1173" 
d="M752 1382q0 -68 -47.5 -112.5t-116.5 -44.5q-68 0 -117 44.5t-49 112.5t49 113t117 45t116 -45t48 -113zM1114 299q-47 -161 -181.5 -241.5t-311.5 -80.5q-256 0 -403.5 152.5t-147.5 409.5q0 243 155 400t398 157q83 0 157 -17t139 -52.5t113.5 -95t73.5 -138.5
l-229 -101q-63 170 -248 170q-71 0 -122.5 -28t-79.5 -77.5t-41 -106.5t-13 -124q0 -68 13.5 -124.5t43 -102.5t82 -72t123.5 -26q195 0 260 194z" />
    <glyph glyph-name="Ccaron" unicode="&#x10c;" horiz-adv-x="1525" 
d="M952 1847h209l-229 -284h-252l-221 284h213l141 -106zM1464 395q-41 -141 -141 -237t-227 -138.5t-275 -42.5q-355 0 -545 202t-190 560q0 212 91 382t257.5 268t378.5 98q221 0 386.5 -97.5t246.5 -293.5l-270 -117q-44 108 -135.5 177t-204.5 69q-104 0 -183 -42
t-125 -114t-69 -159t-23 -185q0 -78 14.5 -148t46 -131t77.5 -105t113.5 -69.5t150.5 -25.5q137 0 222.5 67t133.5 199z" />
    <glyph glyph-name="ccaron" unicode="&#x10d;" horiz-adv-x="1173" 
d="M731 1538h205l-240 -319h-223l-233 319h209l141 -129zM1114 299q-47 -161 -181.5 -241.5t-311.5 -80.5q-256 0 -403.5 152.5t-147.5 409.5q0 243 155 400t398 157q83 0 157 -17t139 -52.5t113.5 -95t73.5 -138.5l-229 -101q-63 170 -248 170q-71 0 -122.5 -28
t-79.5 -77.5t-41 -106.5t-13 -124q0 -68 13.5 -124.5t43 -102.5t82 -72t123.5 -26q195 0 260 194z" />
    <glyph glyph-name="Dcaron" unicode="&#x10e;" horiz-adv-x="1536" 
d="M840 1847h209l-230 -284h-252l-221 284h213l141 -106zM1450 748q0 -365 -202 -556.5t-568 -191.5h-518v1464h520q176 0 316 -44.5t241.5 -132t156 -224.5t54.5 -315zM494 1206v-948h176q222 0 328 121.5t106 347.5q0 239 -101.5 359t-336.5 120h-172z" />
    <glyph glyph-name="dcaron" unicode="&#x10f;" horiz-adv-x="1537" 
d="M901 178q-49 -93 -143 -147t-201 -54q-115 0 -208 43.5t-153 118t-92 172.5t-32 209q0 115 31.5 217t90.5 183t154.5 128.5t214.5 47.5q238 0 338 -185v645h295v-1556h-295v178zM1300 1556h244l-100 -356h-164zM375 543q0 -68 15 -126.5t46 -106t84.5 -74.5t124.5 -27
q69 0 121.5 26t82.5 71.5t45 101.5t15 122q0 338 -256 338q-138 0 -208 -91.5t-70 -233.5z" />
    <glyph glyph-name="Dcroat" unicode="&#x110;" horiz-adv-x="1591" 
d="M1489 748q0 -365 -202 -556.5t-568 -191.5h-518v621h-133v229h133v614h520q176 0 316 -44.5t241.5 -132t156 -224.5t54.5 -315zM528 621v-363h181q434 0 434 469q0 239 -100.5 359t-335.5 120h-179v-356h310v-229h-310z" />
    <glyph glyph-name="dcroat" unicode="&#x111;" horiz-adv-x="1333" 
d="M901 178q-49 -93 -143 -147t-201 -54q-115 0 -208 43.5t-153 118t-92 172.5t-32 209q0 115 31.5 217t90.5 183t154.5 128.5t214.5 47.5q238 0 338 -185v312h-334v170h334v163h295v-163h131v-170h-131v-1223h-295v178zM375 543q0 -68 15 -126.5t46 -106t84.5 -74.5
t124.5 -27q69 0 121.5 26t82.5 71.5t45 101.5t15 122q0 338 -256 338q-138 0 -208 -91.5t-70 -233.5z" />
    <glyph glyph-name="Emacron" unicode="&#x112;" horiz-adv-x="1267" 
d="M365 1778h618v-187h-618v187zM492 258h698v-258h-1028v1464h995v-258h-665v-342h540v-241h-540v-365z" />
    <glyph glyph-name="emacron" unicode="&#x113;" horiz-adv-x="1210" 
d="M315 1458h596v-178h-596v178zM1110 229q-31 -69 -83 -119.5t-117.5 -78.5t-134.5 -41t-146 -13q-251 0 -405 147.5t-154 397.5q0 166 66.5 295.5t192.5 204t292 74.5q248 0 385 -147.5t137 -397.5v-82h-772q4 -127 73 -204t193 -77q93 0 154 30.5t100 107.5zM621 891
q-104 0 -166 -66t-80 -174h479q-13 240 -233 240z" />
    <glyph glyph-name="Ebreve" unicode="&#x114;" horiz-adv-x="1267" 
d="M993 1849q-8 -134 -95.5 -216.5t-221.5 -82.5q-135 0 -220.5 81.5t-93.5 217.5h199q18 -106 115 -106q49 0 80.5 28t40.5 78h196zM492 258h698v-258h-1028v1464h995v-258h-665v-342h540v-241h-540v-365z" />
    <glyph glyph-name="ebreve" unicode="&#x115;" horiz-adv-x="1210" 
d="M920 1530q-8 -136 -94 -220.5t-222 -84.5q-139 0 -221 82.5t-90 222.5h194q5 -53 35 -82t82 -29t84.5 30t40.5 81h191zM1116 229q-30 -70 -83 -120.5t-120 -78.5t-136.5 -40.5t-147.5 -12.5q-257 0 -408 152t-151 410q0 242 154.5 399.5t396.5 157.5q166 0 291.5 -75
t187.5 -222q27 -66 35 -135.5t8 -165.5v-29h-772q6 -129 72.5 -205t193.5 -76q93 0 156 30.5t104 107.5zM621 891q-106 0 -168.5 -65.5t-77.5 -174.5h479q-15 240 -233 240z" />
    <glyph glyph-name="Edotaccent" unicode="&#x116;" horiz-adv-x="1267" 
d="M838 1731q0 -66 -49 -112t-115 -46q-68 0 -117 45t-49 113t49 112.5t117 44.5q66 0 115 -45.5t49 -111.5zM492 258h698v-258h-1028v1464h995v-258h-665v-342h540v-241h-540v-365z" />
    <glyph glyph-name="edotaccent" unicode="&#x117;" horiz-adv-x="1210" 
d="M782 1382q0 -66 -50 -111.5t-116 -45.5q-68 0 -116.5 44.5t-48.5 112.5q0 69 48 113.5t117 44.5q68 0 117 -45t49 -113zM1110 229q-31 -69 -83 -119.5t-117.5 -78.5t-134.5 -41t-146 -13q-251 0 -405 147.5t-154 397.5q0 166 66.5 295.5t192.5 204t292 74.5
q248 0 385 -147.5t137 -397.5v-82h-772q4 -127 73 -204t193 -77q93 0 154 30.5t100 107.5zM621 891q-104 0 -166 -66t-80 -174h479q-13 240 -233 240z" />
    <glyph glyph-name="Eogonek" unicode="&#x118;" horiz-adv-x="1267" 
d="M1161 -342q-66 -31 -170 -31q-42 0 -81 8.5t-75 26.5t-57.5 52t-21.5 79q0 66 50 119.5t120 87.5h-764v1464h995v-258h-665v-342h540v-241h-540v-365h698v-258h-70q-29 -22 -48 -38.5t-37.5 -45.5t-18.5 -57q0 -62 67 -62q38 0 78 15v-154z" />
    <glyph glyph-name="eogonek" unicode="&#x119;" horiz-adv-x="1210" 
d="M983 -342q-62 -31 -162 -31q-41 0 -79 8t-73.5 25.5t-57 50.5t-21.5 78q0 107 158 197q-51 -9 -119 -9q-251 0 -405 147.5t-154 397.5q0 166 66.5 295.5t192.5 204t292 74.5q248 0 385 -147.5t137 -397.5v-82h-772q6 -128 74 -204.5t192 -76.5q94 0 167 37t103 117
l221 -98q-14 -32 -50 -75t-75.5 -83.5t-77.5 -81.5t-62.5 -80t-24.5 -69q0 -64 67 -64q41 0 78 14v-147zM621 891q-104 0 -166 -66t-80 -174h479q-13 240 -233 240z" />
    <glyph glyph-name="Ecaron" unicode="&#x11a;" horiz-adv-x="1267" 
d="M819 1847h209l-229 -284h-252l-221 284h213l141 -106zM492 258h698v-258h-1028v1464h995v-258h-665v-342h540v-241h-540v-365z" />
    <glyph glyph-name="ecaron" unicode="&#x11b;" horiz-adv-x="1210" 
d="M758 1538h205l-240 -319h-223l-234 319h209l141 -129zM1110 229q-31 -69 -83 -119.5t-117.5 -78.5t-134.5 -41t-146 -13q-251 0 -405 147.5t-154 397.5q0 166 66.5 295.5t192.5 204t292 74.5q248 0 385 -147.5t137 -397.5v-82h-772q4 -127 73 -204t193 -77q93 0 154 30.5
t100 107.5zM621 891q-104 0 -166 -66t-80 -174h479q-13 240 -233 240z" />
    <glyph glyph-name="Gcircumflex" unicode="&#x11c;" horiz-adv-x="1574" 
d="M961 1563l-140 108l-141 -108h-209l229 284h252l222 -284h-213zM1489 236q-124 -127 -297.5 -193t-360.5 -66q-350 0 -547.5 205.5t-197.5 556.5q0 161 55.5 300t153 237.5t236.5 154.5t300 56q223 0 379.5 -91.5t245.5 -289.5l-272 -119q-53 123 -135 180.5t-213 57.5
q-86 0 -155.5 -28t-115 -75.5t-76 -113t-44 -137.5t-13.5 -152q0 -104 22.5 -189.5t69.5 -153.5t127.5 -105.5t188.5 -37.5q209 0 352 109v201h-330v241h627v-548z" />
    <glyph glyph-name="gcircumflex" unicode="&#x11d;" horiz-adv-x="1310" 
d="M760 1219l-142 129l-143 -129h-203l240 319h223l234 -319h-209zM1176 84q0 -101 -29 -182t-79.5 -136t-122.5 -91.5t-155.5 -53t-179.5 -16.5q-398 0 -501 258l233 102q60 -143 268 -143q131 0 201 66t70 196v162q-52 -91 -146 -145t-198 -54q-143 0 -250.5 70
t-162 185.5t-54.5 256.5q0 107 31.5 203.5t89.5 171t148.5 118.5t201.5 44q235 0 340 -185v160h295v-987zM373 575q0 -132 63 -218.5t189 -86.5q125 0 194.5 82.5t69.5 210.5q0 138 -62.5 222.5t-195.5 84.5q-126 0 -192 -82.5t-66 -212.5z" />
    <glyph glyph-name="Gbreve" unicode="&#x11e;" horiz-adv-x="1574" 
d="M1139 1849q-8 -134 -96 -216.5t-222 -82.5q-135 0 -220 81.5t-93 217.5h199q18 -106 114 -106q49 0 80.5 28t40.5 78h197zM1489 236q-124 -127 -297.5 -193t-360.5 -66q-350 0 -547.5 205.5t-197.5 556.5q0 161 55.5 300t153 237.5t236.5 154.5t300 56q223 0 379.5 -91.5
t245.5 -289.5l-272 -119q-53 123 -135 180.5t-213 57.5q-86 0 -155.5 -28t-115 -75.5t-76 -113t-44 -137.5t-13.5 -152q0 -104 22.5 -189.5t69.5 -153.5t127.5 -105.5t188.5 -37.5q209 0 352 109v201h-330v241h627v-548z" />
    <glyph glyph-name="gbreve" unicode="&#x11f;" horiz-adv-x="1310" 
d="M969 1530q-8 -136 -94 -220.5t-222 -84.5q-137 0 -220 83t-91 222h195q6 -52 35.5 -81.5t80.5 -29.5q52 0 84 29t41 82h191zM1176 84q0 -127 -43.5 -221t-122 -149.5t-178.5 -82t-222 -26.5q-398 0 -501 258l233 102q60 -143 268 -143q271 0 271 262v162
q-52 -91 -146 -145t-198 -54q-147 0 -255 73t-160 190.5t-52 262.5q0 104 33 198.5t92 166.5t149 115t197 43q236 0 340 -185v160h295v-987zM373 559q0 -124 65.5 -206.5t186.5 -82.5q131 0 197.5 86.5t66.5 221.5q0 130 -65.5 211t-192.5 81q-68 0 -119 -24.5t-81 -68
t-44 -98t-14 -120.5z" />
    <glyph glyph-name="Gdotaccent" unicode="&#x120;" horiz-adv-x="1574" 
d="M987 1731q0 -66 -49 -112t-115 -46q-68 0 -117 45t-49 113t49 112.5t117 44.5q66 0 115 -45.5t49 -111.5zM1489 236q-124 -127 -297.5 -193t-360.5 -66q-350 0 -547.5 205.5t-197.5 556.5q0 161 55.5 300t153 237.5t236.5 154.5t300 56q223 0 379.5 -91.5t245.5 -289.5
l-272 -119q-53 123 -135 180.5t-213 57.5q-86 0 -155.5 -28t-115 -75.5t-76 -113t-44 -137.5t-13.5 -152q0 -104 22.5 -189.5t69.5 -153.5t127.5 -105.5t188.5 -37.5q209 0 352 109v201h-330v241h627v-548z" />
    <glyph glyph-name="gdotaccent" unicode="&#x121;" horiz-adv-x="1310" 
d="M786 1382q0 -66 -49.5 -111.5t-115.5 -45.5q-68 0 -117 44.5t-49 112.5t48.5 113t117.5 45q68 0 116.5 -45t48.5 -113zM1176 84q0 -101 -29 -182t-79.5 -136t-122.5 -91.5t-155.5 -53t-179.5 -16.5q-398 0 -501 258l233 102q60 -143 268 -143q131 0 201 66t70 196v162
q-52 -91 -146 -145t-198 -54q-143 0 -250.5 70t-162 185.5t-54.5 256.5q0 107 31.5 203.5t89.5 171t148.5 118.5t201.5 44q235 0 340 -185v160h295v-987zM373 575q0 -132 63 -218.5t189 -86.5q125 0 194.5 82.5t69.5 210.5q0 138 -62.5 222.5t-195.5 84.5q-126 0 -192 -82.5
t-66 -212.5z" />
    <glyph glyph-name="uni0122" unicode="&#x122;" horiz-adv-x="1574" 
d="M1489 236q-124 -127 -297.5 -193t-360.5 -66q-350 0 -547.5 205.5t-197.5 556.5q0 161 55.5 300t153 237.5t236.5 154.5t300 56q223 0 379.5 -91.5t245.5 -289.5l-272 -119q-53 123 -135 180.5t-213 57.5q-86 0 -155.5 -28t-115 -75.5t-76 -113t-44 -137.5t-13.5 -152
q0 -104 22.5 -189.5t69.5 -153.5t127.5 -105.5t188.5 -37.5q209 0 352 109v201h-330v241h627v-548zM707 -63l266 -43l-195 -361l-168 55z" />
    <glyph glyph-name="uni0123" unicode="&#x123;" horiz-adv-x="1310" 
d="M686 1587l168 -53l-96 -348l-266 43zM1176 84q0 -101 -29 -182t-79.5 -136t-122.5 -91.5t-155.5 -53t-179.5 -16.5q-398 0 -501 258l233 102q60 -143 268 -143q131 0 201 66t70 196v162q-52 -91 -146 -145t-198 -54q-143 0 -250.5 70t-162 185.5t-54.5 256.5
q0 107 31.5 203.5t89.5 171t148.5 118.5t201.5 44q235 0 340 -185v160h295v-987zM373 575q0 -132 63 -218.5t189 -86.5q125 0 194.5 82.5t69.5 210.5q0 138 -62.5 222.5t-195.5 84.5q-126 0 -192 -82.5t-66 -212.5z" />
    <glyph glyph-name="Hcircumflex" unicode="&#x124;" horiz-adv-x="1593" 
d="M934 1563l-139 108l-142 -108h-209l230 284h252l221 -284h-213zM1102 604h-608v-604h-332v1464h332v-598h608v598h332v-1464h-332v604z" />
    <glyph glyph-name="hcircumflex" unicode="&#x125;" horiz-adv-x="1267" 
d="M780 1669l-141 129l-143 -129h-203l239 320h224l233 -320h-209zM655 854q-105 0 -164 -64.5t-59 -171.5v-618h-297v1556h297v-655q50 96 143 145.5t205 49.5q182 0 271.5 -113.5t89.5 -300.5v-682h-297v639q0 104 -44 159.5t-145 55.5z" />
    <glyph glyph-name="Hbar" unicode="&#x126;" horiz-adv-x="1593" 
d="M1102 604h-608v-604h-332v1047h-131v174h131v243h332v-243h608v243h332v-243h131v-174h-131v-1047h-332v604zM494 1047v-181h608v181h-608z" />
    <glyph glyph-name="hbar" unicode="&#x127;" horiz-adv-x="1267" 
d="M655 854q-105 0 -164 -64.5t-59 -171.5v-618h-297v1223h-129v170h129v163h297v-163h334v-170h-334v-322q50 96 143 145.5t205 49.5q182 0 271.5 -113.5t89.5 -300.5v-682h-297v639q0 104 -44 159.5t-145 55.5z" />
    <glyph glyph-name="Itilde" unicode="&#x128;" horiz-adv-x="673" 
d="M229 1640q-29 0 -47 -22t-24 -53h-176q4 54 19.5 102.5t42 91t71 67.5t100.5 25q52 0 130 -38.5t108 -38.5q28 0 45.5 22t23.5 53h178q-4 -53 -20 -101.5t-43.5 -90.5t-72 -67t-99.5 -25t-133 37.5t-103 37.5zM170 1464h334v-1464h-334v1464z" />
    <glyph glyph-name="itilde" unicode="&#x129;" horiz-adv-x="583" 
d="M645 1516q-4 -53 -19 -101.5t-41 -92.5t-69.5 -70.5t-99.5 -26.5q-42 0 -87 19.5t-83 39t-62 19.5q-28 0 -46.5 -22.5t-24.5 -53.5h-170q4 54 18 102t39.5 91.5t68.5 69.5t99 26q52 0 128.5 -38t106.5 -38q28 0 46 22.5t24 53.5h172zM143 1071h295v-1071h-295v1071z" />
    <glyph glyph-name="Imacron" unicode="&#x12a;" horiz-adv-x="673" 
d="M27 1778h618v-187h-618v187zM170 1464h334v-1464h-334v1464z" />
    <glyph glyph-name="imacron" unicode="&#x12b;" horiz-adv-x="583" 
d="M59 1458h463v-178h-463v178zM143 1071h295v-1071h-295v1071z" />
    <glyph glyph-name="Ibreve" unicode="&#x12c;" horiz-adv-x="673" 
d="M655 1849q-8 -134 -95.5 -216.5t-221.5 -82.5q-135 0 -220 81.5t-93 217.5h198q18 -106 115 -106q49 0 80.5 28t40.5 78h196zM170 1464h334v-1464h-334v1464z" />
    <glyph glyph-name="ibreve" unicode="&#x12d;" horiz-adv-x="583" 
d="M606 1530q-8 -136 -93.5 -220.5t-221.5 -84.5q-137 0 -220 84t-91 221h194q6 -52 36 -81.5t81 -29.5q52 0 84.5 30t40.5 81h190zM143 1071h295v-1071h-295v1071z" />
    <glyph glyph-name="Iogonek" unicode="&#x12e;" horiz-adv-x="673" 
d="M520 -342q-68 -31 -168 -31q-42 0 -81 8.5t-75.5 26.5t-58.5 52t-22 79q0 66 50 119.5t120 87.5h-74v1464h293v-1446q-31 -22 -44 -31.5t-38 -32.5t-36 -46t-11 -49q0 -62 67 -62q38 0 78 15v-154z" />
    <glyph glyph-name="iogonek" unicode="&#x12f;" horiz-adv-x="583" 
d="M459 1378q0 -69 -50 -115t-120 -46t-119 46t-49 115q0 70 49 116t119 46q72 0 121 -46t49 -116zM459 -342q-64 -31 -164 -31q-59 0 -107.5 14t-85 53t-36.5 99q0 68 49 121t121 86h-93v1071h295v-1057q-35 -24 -57.5 -42.5t-45 -51.5t-22.5 -65t19 -48t51 -16q48 0 76 14
v-147z" />
    <glyph glyph-name="Idotaccent" unicode="&#x130;" horiz-adv-x="673" 
d="M502 1731q0 -66 -49 -112t-115 -46q-68 0 -117 45t-49 113t49 112.5t117 44.5q66 0 115 -45.5t49 -111.5zM170 1464h334v-1464h-334v1464z" />
    <glyph glyph-name="dotlessi" unicode="&#x131;" horiz-adv-x="583" 
d="M143 1071h295v-1071h-295v1071z" />
    <glyph glyph-name="IJ" unicode="&#x132;" horiz-adv-x="1544" 
d="M1401 473q0 -237 -122 -364t-359 -127q-160 0 -244 45v254q86 -35 184 -35q207 0 207 231v987h334v-991zM170 1464h334v-1464h-334v1464z" />
    <glyph glyph-name="ij" unicode="&#x133;" horiz-adv-x="1157" 
d="M1032 1378q0 -69 -50 -115t-120 -46t-119 46t-49 115q0 70 49 116t119 46q72 0 121 -46t49 -116zM459 1378q0 -69 -50 -115t-120 -46t-119 46t-49 115q0 70 49 116t119 46q72 0 121 -46t49 -116zM1012 -18q0 -104 -31.5 -176.5t-92.5 -112.5t-136.5 -57.5t-176.5 -18.5
v221q142 8 142 142v1091h295v-1089zM143 1071h295v-1071h-295v1071z" />
    <glyph glyph-name="Jcircumflex" unicode="&#x134;" horiz-adv-x="944" 
d="M766 1563l-139 108l-142 -108h-209l230 284h252l221 -284h-213zM801 473q0 -237 -122.5 -364t-359.5 -127q-159 0 -243 45v254q86 -35 184 -35q207 0 207 231v987h334v-991z" />
    <glyph glyph-name="jcircumflex" unicode="&#x135;" horiz-adv-x="583" 
d="M430 1219l-141 129l-144 -129h-202l239 319h224l233 -319h-209zM438 -18q0 -104 -31.5 -176.5t-92 -112.5t-136 -57.5t-176.5 -18.5v221q141 8 141 142v1091h295v-1089z" />
    <glyph glyph-name="uni0136" unicode="&#x136;" horiz-adv-x="1433" 
d="M1020 0l-526 657v-657h-332v1464h332v-630l532 632h352l-600 -694l629 -772h-387zM612 -63l267 -43l-195 -361l-168 55z" />
    <glyph glyph-name="uni0137" unicode="&#x137;" horiz-adv-x="1144" 
d="M786 0l-354 506v-506h-297v1556h297v-938l344 453h316l-390 -487l420 -584h-336zM481 -63l267 -43l-195 -361l-168 55z" />
    <glyph glyph-name="Lacute" unicode="&#x139;" horiz-adv-x="1175" 
d="M315 1847h322l-207 -284h-223zM494 260h616v-260h-948v1464h332v-1204z" />
    <glyph glyph-name="lacute" unicode="&#x13a;" horiz-adv-x="581" 
d="M270 2003h312l-213 -326h-215zM143 1485l295 129v-1614h-295v1485z" />
    <glyph glyph-name="uni013B" unicode="&#x13b;" horiz-adv-x="1175" 
d="M494 260h616v-260h-948v1464h332v-1204zM516 -63l266 -43l-194 -361l-168 55z" />
    <glyph glyph-name="uni013C" unicode="&#x13c;" horiz-adv-x="581" 
d="M143 1485l295 129v-1614h-295v1485zM176 -63l266 -43l-194 -361l-168 55z" />
    <glyph glyph-name="Lcaron" unicode="&#x13d;" horiz-adv-x="1175" 
d="M494 260h616v-260h-948v1464h332v-1204zM729 1464h262l-123 -346h-178z" />
    <glyph glyph-name="lcaron" unicode="&#x13e;" horiz-adv-x="581" 
d="M143 1485l295 129v-1614h-295v1485zM543 1556h243l-100 -356h-164z" />
    <glyph glyph-name="Ldot" unicode="&#x13f;" horiz-adv-x="1210" 
d="M494 260h616v-260h-948v1464h332v-1204zM1124 809q0 -76 -53.5 -128t-130.5 -52q-76 0 -129 52t-53 128q0 74 53.5 126t128.5 52q76 0 130 -51t54 -127z" />
    <glyph glyph-name="ldot" unicode="&#x140;" horiz-adv-x="845" 
d="M143 1485l295 129v-1614h-295v1485zM889 741q0 -76 -53.5 -128t-130.5 -52q-76 0 -129.5 52.5t-53.5 127.5q0 74 54 126.5t129 52.5q76 0 130 -51.5t54 -127.5z" />
    <glyph glyph-name="Lslash" unicode="&#x141;" horiz-adv-x="1214" 
d="M532 260h617v-260h-948v532l-133 -47v191l133 47v741h331v-624l383 137v-193l-383 -135v-389z" />
    <glyph glyph-name="lslash" unicode="&#x142;" horiz-adv-x="649" 
d="M614 864l-143 -73v-791h-295v639l-135 -68v203l135 68v643l295 129v-621l143 74v-203z" />
    <glyph glyph-name="Nacute" unicode="&#x143;" horiz-adv-x="1581" 
d="M803 1847h321l-206 -284h-224zM1087 0l-630 1042v-1042h-295v1464h385l577 -964v964h295v-1464h-332z" />
    <glyph glyph-name="nacute" unicode="&#x144;" horiz-adv-x="1277" 
d="M631 1542h311l-213 -325h-215zM655 854q-105 0 -164 -64.5t-59 -171.5v-618h-297v1071h297v-170q50 96 143 145.5t205 49.5q183 0 277 -113.5t94 -300.5v-682h-297v639q0 215 -199 215z" />
    <glyph glyph-name="uni0145" unicode="&#x145;" horiz-adv-x="1581" 
d="M1087 0l-630 1042v-1042h-295v1464h385l577 -964v964h295v-1464h-332zM659 -63l267 -43l-195 -361l-168 55z" />
    <glyph glyph-name="uni0146" unicode="&#x146;" horiz-adv-x="1277" 
d="M655 854q-105 0 -164 -64.5t-59 -171.5v-618h-297v1071h297v-170q50 96 143 145.5t205 49.5q183 0 277 -113.5t94 -300.5v-682h-297v639q0 215 -199 215zM516 -63l266 -43l-194 -361l-168 55z" />
    <glyph glyph-name="Ncaron" unicode="&#x147;" horiz-adv-x="1581" 
d="M963 1847h208l-229 -284h-252l-221 284h213l141 -106zM1087 0l-630 1042v-1042h-295v1464h385l577 -964v964h295v-1464h-332z" />
    <glyph glyph-name="ncaron" unicode="&#x148;" horiz-adv-x="1277" 
d="M776 1538h205l-240 -319h-223l-233 319h209l141 -129zM655 854q-105 0 -164 -64.5t-59 -171.5v-618h-297v1071h297v-170q50 96 143 145.5t205 49.5q183 0 277 -113.5t94 -300.5v-682h-297v639q0 215 -199 215z" />
    <glyph glyph-name="napostrophe" unicode="&#x149;" horiz-adv-x="1431" 
d="M100 1489l265 -94l-265 -473l-170 69zM809 854q-105 0 -164 -64.5t-59 -171.5v-618h-297v1071h297v-170q50 96 143 145.5t205 49.5q183 0 277 -113.5t94 -300.5v-682h-297v639q0 215 -199 215z" />
    <glyph glyph-name="Eng" unicode="&#x14a;" horiz-adv-x="1560" 
d="M1399 37q0 -210 -124.5 -321t-336.5 -111q-144 0 -236 45v244q92 -35 172 -35q83 0 134.5 40t60.5 121l-606 1043v-1063h-301v1464h389l547 -960v960h301v-1427z" />
    <glyph glyph-name="eng" unicode="&#x14b;" horiz-adv-x="1277" 
d="M1151 -18q0 -104 -31.5 -176.5t-92 -112.5t-136 -57.5t-176.5 -18.5v221q69 4 104 38.5t35 103.5v659q0 104 -43.5 159.5t-144.5 55.5q-108 0 -171 -64t-63 -172v-618h-297v1071h297v-170q49 95 147.5 145t211.5 50q182 0 271 -113.5t89 -300.5v-700z" />
    <glyph glyph-name="Omacron" unicode="&#x14c;" horiz-adv-x="1679" 
d="M528 1778h619v-187h-619v187zM1593 748q0 -226 -92 -401t-264 -272.5t-399 -97.5q-219 0 -390 93t-266.5 263t-95.5 390t94.5 393.5t267 271t392.5 97.5q217 0 388 -91t268 -259.5t97 -386.5zM432 741q0 -79 15 -151t47.5 -136t80 -111t116.5 -74t153 -27q82 0 150 26
t114 71.5t78 107.5t46.5 132.5t14.5 147.5q0 80 -14 152t-45.5 135.5t-78 109.5t-115.5 72.5t-154 26.5q-103 0 -182.5 -38.5t-128 -106t-73 -153t-24.5 -184.5z" />
    <glyph glyph-name="omacron" unicode="&#x14d;" horiz-adv-x="1269" 
d="M334 1458h596v-178h-596v178zM1198 547q0 -256 -155 -413t-410 -157q-245 0 -404 151.5t-159 395.5q0 256 155 414t410 158q161 0 289 -68t201 -193.5t73 -287.5zM373 547q0 -55 7.5 -103t26 -93.5t47.5 -77.5t75.5 -51t105.5 -19q70 0 122 26.5t82 73t44 103t14 122.5
q0 55 -7.5 102.5t-26.5 92.5t-48 77t-75 51t-105 19q-69 0 -121 -26.5t-82 -72.5t-44.5 -102t-14.5 -122z" />
    <glyph glyph-name="Obreve" unicode="&#x14e;" horiz-adv-x="1679" 
d="M1153 1849q-8 -134 -95.5 -216.5t-221.5 -82.5q-135 0 -220.5 81.5t-93.5 217.5h199q18 -106 115 -106q49 0 80 28t40 78h197zM1593 748q0 -226 -92 -401t-264 -272.5t-399 -97.5q-219 0 -390 93t-266.5 263t-95.5 390t94.5 393.5t267 271t392.5 97.5q217 0 388 -91
t268 -259.5t97 -386.5zM432 741q0 -79 15 -151t47.5 -136t80 -111t116.5 -74t153 -27q82 0 150 26t114 71.5t78 107.5t46.5 132.5t14.5 147.5q0 80 -14 152t-45.5 135.5t-78 109.5t-115.5 72.5t-154 26.5q-103 0 -182.5 -38.5t-128 -106t-73 -153t-24.5 -184.5z" />
    <glyph glyph-name="obreve" unicode="&#x14f;" horiz-adv-x="1269" 
d="M946 1530q-8 -136 -93.5 -220.5t-221.5 -84.5q-137 0 -220.5 84t-91.5 221h195q6 -52 36 -81.5t81 -29.5q52 0 84.5 30t40.5 81h190zM1198 547q0 -256 -155 -413t-410 -157q-245 0 -404 151.5t-159 395.5q0 256 155 414t410 158q161 0 289 -68t201 -193.5t73 -287.5z
M373 547q0 -55 7.5 -103t26 -93.5t47.5 -77.5t75.5 -51t105.5 -19q70 0 122 26.5t82 73t44 103t14 122.5q0 55 -7.5 102.5t-26.5 92.5t-48 77t-75 51t-105 19q-69 0 -121 -26.5t-82 -72.5t-44.5 -102t-14.5 -122z" />
    <glyph glyph-name="Ohungarumlaut" unicode="&#x150;" horiz-adv-x="1679" 
d="M614 1847h271l-150 -284h-200zM983 1847h270l-151 -284h-199zM1593 748q0 -226 -92 -401t-264 -272.5t-399 -97.5q-219 0 -390 93t-266.5 263t-95.5 390t94.5 393.5t267 271t392.5 97.5q217 0 388 -91t268 -259.5t97 -386.5zM432 741q0 -79 15 -151t47.5 -136t80 -111
t116.5 -74t153 -27q82 0 150 26t114 71.5t78 107.5t46.5 132.5t14.5 147.5q0 80 -14 152t-45.5 135.5t-78 109.5t-115.5 72.5t-154 26.5q-103 0 -182.5 -38.5t-128 -106t-73 -153t-24.5 -184.5z" />
    <glyph glyph-name="ohungarumlaut" unicode="&#x151;" horiz-adv-x="1269" 
d="M780 1542h254l-155 -325h-185zM436 1542h252l-156 -325h-182zM1198 547q0 -256 -155 -413t-410 -157q-245 0 -404 151.5t-159 395.5q0 256 155 414t410 158q161 0 289 -68t201 -193.5t73 -287.5zM373 547q0 -55 7.5 -103t26 -93.5t47.5 -77.5t75.5 -51t105.5 -19
q70 0 122 26.5t82 73t44 103t14 122.5q0 55 -7.5 102.5t-26.5 92.5t-48 77t-75 51t-105 19q-69 0 -121 -26.5t-82 -72.5t-44.5 -102t-14.5 -122z" />
    <glyph glyph-name="OE" unicode="&#x152;" horiz-adv-x="2015" 
d="M1292 258h647v-258h-1087q-357 0 -561.5 182t-204.5 535q0 362 201.5 554.5t566.5 192.5h1051v-258h-613v-342h488v-241h-488v-365zM432 737q0 -240 100.5 -359.5t335.5 -119.5h95v948h-99q-432 0 -432 -469z" />
    <glyph glyph-name="oe" unicode="&#x153;" horiz-adv-x="2033" 
d="M1948 229q-30 -69 -83.5 -120t-121 -79t-137.5 -40.5t-146 -12.5q-127 0 -238.5 45.5t-181.5 139.5q-71 -92 -177 -138.5t-230 -46.5q-245 0 -404 151.5t-159 395.5q0 256 155 414t410 158q124 0 231 -47.5t178 -141.5q71 94 175 141.5t225 47.5q248 0 385 -147.5
t137 -397.5v-82h-774q6 -127 78.5 -204t197.5 -77q194 0 263 136zM1444 891q-104 0 -167.5 -66.5t-78.5 -173.5h477q-6 114 -63 177t-168 63zM373 547q0 -70 12.5 -128t41 -108.5t81.5 -79t127 -28.5q70 0 122 26.5t82 73t44 103t14 122.5q0 55 -7.5 102.5t-26.5 92.5
t-48 77t-75 51t-105 19q-69 0 -121 -26.5t-82 -72.5t-44.5 -102t-14.5 -122z" />
    <glyph glyph-name="Racute" unicode="&#x154;" horiz-adv-x="1404" 
d="M666 1847h321l-207 -284h-223zM655 565h-163v-565h-330v1464h545q92 0 172 -13.5t153.5 -46t125.5 -82t83 -127t31 -175.5q0 -309 -301 -397l387 -623h-352zM492 1210v-419h206q250 0 250 210q0 119 -63 164t-187 45h-206z" />
    <glyph glyph-name="racute" unicode="&#x155;" horiz-adv-x="845" 
d="M459 1542h311l-213 -325h-215zM778 811q-77 1 -136.5 -11t-108.5 -41.5t-75 -85.5t-26 -136v-537h-297v1071h297v-205q52 112 136.5 165.5t209.5 55.5v-276z" />
    <glyph glyph-name="uni0156" unicode="&#x156;" horiz-adv-x="1404" 
d="M655 565h-163v-565h-330v1464h545q92 0 172 -13.5t153.5 -46t125.5 -82t83 -127t31 -175.5q0 -309 -301 -397l387 -623h-352zM492 1210v-419h206q250 0 250 210q0 119 -63 164t-187 45h-206zM606 -63l266 -43l-194 -361l-168 55z" />
    <glyph glyph-name="uni0157" unicode="&#x157;" horiz-adv-x="845" 
d="M778 811q-77 1 -136.5 -11t-108.5 -41.5t-75 -85.5t-26 -136v-537h-297v1071h297v-205q52 112 136.5 165.5t209.5 55.5v-276zM170 -63l266 -43l-194 -361l-168 55z" />
    <glyph glyph-name="Rcaron" unicode="&#x158;" horiz-adv-x="1404" 
d="M825 1847h209l-229 -284h-252l-221 284h213l141 -106zM655 565h-163v-565h-330v1464h545q92 0 172 -13.5t153.5 -46t125.5 -82t83 -127t31 -175.5q0 -309 -301 -397l387 -623h-352zM492 1210v-419h206q250 0 250 210q0 119 -63 164t-187 45h-206z" />
    <glyph glyph-name="rcaron" unicode="&#x159;" horiz-adv-x="845" 
d="M604 1538h205l-240 -319h-223l-233 319h209l141 -129zM778 811q-77 1 -136.5 -11t-108.5 -41.5t-75 -85.5t-26 -136v-537h-297v1071h297v-205q52 112 136.5 165.5t209.5 55.5v-276z" />
    <glyph glyph-name="Sacute" unicode="&#x15a;" horiz-adv-x="1318" 
d="M629 1847h321l-207 -284h-223zM1223 444q0 -90 -31 -166.5t-85 -131t-125.5 -93.5t-152 -57.5t-165.5 -18.5q-102 0 -191 17.5t-171.5 56t-143 109.5t-88.5 170l266 116q70 -227 328 -227q98 0 169.5 50.5t71.5 144.5q0 54 -27.5 91t-74 56.5t-107 32t-127.5 23.5
t-133.5 25.5t-127 44t-107 72.5t-74 117t-27.5 173q0 86 30 158.5t81.5 123t120 86t144.5 52t157 16.5q89 0 171.5 -17t158.5 -53t135 -99t90 -147l-250 -108q-46 89 -124.5 134.5t-180.5 45.5q-42 0 -79 -8.5t-69.5 -27t-51.5 -52t-19 -78.5q0 -54 27.5 -90t74.5 -55
t107.5 -30.5t128 -22.5t134.5 -25.5t127.5 -43.5t107.5 -72.5t74.5 -118t27.5 -173.5z" />
    <glyph glyph-name="sacute" unicode="&#x15b;" horiz-adv-x="1036" 
d="M512 1542h311l-213 -325h-215zM981 330q0 -78 -25 -139t-67 -100.5t-100.5 -65.5t-122 -37t-136.5 -11t-141.5 12t-136.5 38t-119.5 76.5t-75.5 119.5l226 99q29 -68 97 -103t148 -35q168 0 168 117q0 42 -34 68.5t-87.5 40t-119 25t-131 32t-119 52.5t-87.5 94t-34 149
q0 82 37.5 148t99 105.5t135.5 60t152 20.5q69 0 133.5 -11t128.5 -35t113 -70.5t73 -109.5l-217 -94q-25 62 -88.5 89.5t-140.5 27.5q-59 0 -105.5 -27.5t-46.5 -83.5q0 -40 34.5 -64.5t89.5 -37t121 -23.5t132.5 -31t121.5 -52t89.5 -94t34.5 -150z" />
    <glyph glyph-name="Scircumflex" unicode="&#x15c;" horiz-adv-x="1318" 
d="M784 1563l-139 108l-141 -108h-209l229 284h252l221 -284h-213zM1223 444q0 -90 -31 -166.5t-85 -131t-125.5 -93.5t-152 -57.5t-165.5 -18.5q-102 0 -191 17.5t-171.5 56t-143 109.5t-88.5 170l266 116q70 -227 328 -227q98 0 169.5 50.5t71.5 144.5q0 54 -27.5 91
t-74 56.5t-107 32t-127.5 23.5t-133.5 25.5t-127 44t-107 72.5t-74 117t-27.5 173q0 86 30 158.5t81.5 123t120 86t144.5 52t157 16.5q89 0 171.5 -17t158.5 -53t135 -99t90 -147l-250 -108q-46 89 -124.5 134.5t-180.5 45.5q-42 0 -79 -8.5t-69.5 -27t-51.5 -52t-19 -78.5
q0 -54 27.5 -90t74.5 -55t107.5 -30.5t128 -22.5t134.5 -25.5t127.5 -43.5t107.5 -72.5t74.5 -118t27.5 -173.5z" />
    <glyph glyph-name="scircumflex" unicode="&#x15d;" horiz-adv-x="1036" 
d="M651 1219l-141 129l-143 -129h-203l239 319h224l233 -319h-209zM981 330q0 -78 -25 -139t-67 -100.5t-100.5 -65.5t-122 -37t-136.5 -11t-141.5 12t-136.5 38t-119.5 76.5t-75.5 119.5l226 99q29 -68 97 -103t148 -35q168 0 168 117q0 42 -34 68.5t-87.5 40t-119 25
t-131 32t-119 52.5t-87.5 94t-34 149q0 82 37.5 148t99 105.5t135.5 60t152 20.5q69 0 133.5 -11t128.5 -35t113 -70.5t73 -109.5l-217 -94q-25 62 -88.5 89.5t-140.5 27.5q-59 0 -105.5 -27.5t-46.5 -83.5q0 -40 34.5 -64.5t89.5 -37t121 -23.5t132.5 -31t121.5 -52
t89.5 -94t34.5 -150z" />
    <glyph glyph-name="Scedilla" unicode="&#x15e;" horiz-adv-x="1318" 
d="M850 -270q0 -93 -68.5 -139t-165.5 -46q-95 0 -161.5 47t-77.5 138h151q5 -29 26.5 -46.5t51.5 -17.5q32 0 52 18t20 50q0 30 -20 46.5t-50 16.5q-37 0 -63 -20l-74 71l82 136q-86 7 -161 30.5t-140 64t-112 104.5t-70 147l266 116q38 -118 119.5 -172.5t208.5 -54.5
q98 0 169.5 50.5t71.5 144.5q0 54 -27.5 91t-74 56.5t-107 32t-127.5 23.5t-133.5 25.5t-127 44t-107 72.5t-74 117t-27.5 173q0 106 46 191.5t122.5 137.5t170 79.5t194.5 27.5q89 0 171.5 -17t158.5 -53t135 -99t90 -147l-250 -108q-98 180 -305 180q-93 0 -156 -39.5
t-63 -126.5q0 -54 27.5 -90t74.5 -55t107.5 -30.5t128 -22.5t134.5 -25.5t127.5 -43.5t107.5 -72.5t74.5 -118t27.5 -173.5q0 -110 -46 -199.5t-123.5 -146.5t-174 -88t-201.5 -33h4l-45 -75q90 9 151.5 -37t61.5 -135z" />
    <glyph glyph-name="scedilla" unicode="&#x15f;" horiz-adv-x="1036" 
d="M719 -270q0 -93 -68 -139t-166 -46q-95 0 -161.5 47t-77.5 138h151q6 -29 27 -46.5t51 -17.5q31 0 51.5 18.5t20.5 49.5q0 30 -20 46.5t-50 16.5q-37 0 -63 -20l-74 71l82 136h6q-302 37 -371 239l226 99q28 -68 97 -103t148 -35q44 0 79 8.5t62 36t27 72.5
q0 42 -34 68.5t-87.5 40t-119 25t-131 32t-119 52.5t-87.5 94t-34 149q0 82 37.5 148t99 105.5t135.5 60t152 20.5q69 0 133.5 -11t128.5 -35t113 -70.5t73 -109.5l-217 -94q-25 62 -89 89.5t-140 27.5q-61 0 -106.5 -27.5t-45.5 -83.5q0 -40 34.5 -64.5t89.5 -37t121 -23.5
t132.5 -31t121.5 -52t89.5 -94t34.5 -150q0 -75 -23.5 -135t-63.5 -100t-96 -66.5t-118 -38.5t-133 -13h4l-45 -75q90 9 151.5 -37t61.5 -135z" />
    <glyph glyph-name="Scaron" unicode="&#x160;" horiz-adv-x="1318" 
d="M788 1847h209l-229 -284h-252l-221 284h213l141 -106zM1223 444q0 -90 -31 -166.5t-85 -131t-125.5 -93.5t-152 -57.5t-165.5 -18.5q-102 0 -191 17.5t-171.5 56t-143 109.5t-88.5 170l266 116q70 -227 328 -227q98 0 169.5 50.5t71.5 144.5q0 54 -27.5 91t-74 56.5
t-107 32t-127.5 23.5t-133.5 25.5t-127 44t-107 72.5t-74 117t-27.5 173q0 86 30 158.5t81.5 123t120 86t144.5 52t157 16.5q89 0 171.5 -17t158.5 -53t135 -99t90 -147l-250 -108q-46 89 -124.5 134.5t-180.5 45.5q-42 0 -79 -8.5t-69.5 -27t-51.5 -52t-19 -78.5
q0 -54 27.5 -90t74.5 -55t107.5 -30.5t128 -22.5t134.5 -25.5t127.5 -43.5t107.5 -72.5t74.5 -118t27.5 -173.5z" />
    <glyph glyph-name="scaron" unicode="&#x161;" horiz-adv-x="1042" 
d="M655 1538h205l-239 -319h-224l-233 319h209l141 -129zM981 330q0 -78 -25 -139t-67 -100.5t-100.5 -65.5t-122 -37t-136.5 -11t-141.5 12t-136.5 38t-119.5 76.5t-75.5 119.5l226 99q29 -68 97 -103t148 -35q168 0 168 117q0 42 -34 68.5t-87.5 40t-119 25t-131 32
t-119 52.5t-87.5 94t-34 149q0 82 37.5 148t99 105.5t135.5 60t152 20.5q69 0 133.5 -11t128.5 -35t113 -70.5t73 -109.5l-217 -94q-25 62 -88.5 89.5t-140.5 27.5q-59 0 -105.5 -27.5t-46.5 -83.5q0 -40 34.5 -64.5t89.5 -37t121 -23.5t132.5 -31t121.5 -52t89.5 -94
t34.5 -150z" />
    <glyph glyph-name="Tcaron" unicode="&#x164;" horiz-adv-x="1230" 
d="M756 1847h209l-230 -284h-252l-221 284h213l141 -106zM1178 1206h-396v-1206h-333v1206h-396v258h1125v-258z" />
    <glyph glyph-name="tcaron" unicode="&#x165;" horiz-adv-x="780" 
d="M608 1556h244l-100 -356h-164zM707 8q-80 -28 -181 -28q-168 0 -257 85t-89 252v543h-137v211h137v232l295 129v-361h225v-211h-225v-516q0 -127 119 -127q58 0 113 21v-230z" />
    <glyph glyph-name="Tbar" unicode="&#x166;" horiz-adv-x="1230" 
d="M1055 614h-273v-614h-333v614h-273v217h273v375h-396v258h1125v-258h-396v-375h273v-217z" />
    <glyph glyph-name="tbar" unicode="&#x167;" horiz-adv-x="780" 
d="M707 6q-97 -26 -183 -26q-167 0 -255.5 85t-88.5 252v195h-137v174h137v174h-137v211h137v232l295 129v-361h225v-211h-225v-174h225v-174h-225v-168q0 -127 119 -127q67 0 113 19v-230z" />
    <glyph glyph-name="Utilde" unicode="&#x168;" horiz-adv-x="1521" 
d="M647 1640q-29 0 -47.5 -22t-24.5 -53h-176q4 54 19.5 102.5t42.5 91t71.5 67.5t100.5 25q52 0 129.5 -38.5t107.5 -38.5q28 0 46 22t24 53h178q-4 -53 -20 -101.5t-43.5 -90.5t-72 -67t-99.5 -25t-133 37.5t-103 37.5zM1372 584q0 -297 -160 -452t-458 -155
q-291 0 -447.5 152t-156.5 442v893h333v-872q0 -81 11 -139t39 -108.5t84 -76.5t139 -26q87 0 145 26.5t87 79t39.5 112t10.5 144.5v860h334v-880z" />
    <glyph glyph-name="utilde" unicode="&#x169;" horiz-adv-x="1271" 
d="M991 1516q-4 -53 -19 -101.5t-41 -92.5t-69.5 -70.5t-99.5 -26.5q-42 0 -87 19.5t-83 39t-62 19.5q-28 0 -46.5 -22.5t-24.5 -53.5h-170q4 54 18 102t39.5 91.5t68.5 69.5t99 26q52 0 129 -38t107 -38q28 0 45.5 22.5t23.5 53.5h172zM842 168q-50 -96 -139 -143.5
t-201 -47.5q-182 0 -278.5 110t-96.5 294v690h295v-649q0 -102 48 -158.5t148 -56.5q105 0 164.5 64.5t59.5 170.5v629h295v-1071h-295v168z" />
    <glyph glyph-name="Umacron" unicode="&#x16a;" horiz-adv-x="1521" 
d="M449 1778h618v-187h-618v187zM1372 584q0 -297 -160 -452t-458 -155q-291 0 -447.5 152t-156.5 442v893h333v-872q0 -81 11 -139t39 -108.5t84 -76.5t139 -26q87 0 145 26.5t87 79t39.5 112t10.5 144.5v860h334v-880z" />
    <glyph glyph-name="umacron" unicode="&#x16b;" horiz-adv-x="1271" 
d="M340 1458h596v-178h-596v178zM842 168q-50 -96 -139 -143.5t-201 -47.5q-182 0 -278.5 110t-96.5 294v690h295v-649q0 -102 48 -158.5t148 -56.5q105 0 164.5 64.5t59.5 170.5v629h295v-1071h-295v168z" />
    <glyph glyph-name="Ubreve" unicode="&#x16c;" horiz-adv-x="1521" 
d="M1073 1849q-8 -134 -95.5 -216.5t-221.5 -82.5q-135 0 -220.5 81.5t-93.5 217.5h199q18 -106 115 -106q49 0 80.5 28t40.5 78h196zM1372 584q0 -297 -160 -452t-458 -155q-291 0 -447.5 152t-156.5 442v893h333v-872q0 -81 11 -139t39 -108.5t84 -76.5t139 -26
q87 0 145 26.5t87 79t39.5 112t10.5 144.5v860h334v-880z" />
    <glyph glyph-name="ubreve" unicode="&#x16d;" horiz-adv-x="1271" 
d="M952 1530q-8 -136 -93.5 -220.5t-221.5 -84.5q-137 0 -220 84t-91 221h194q6 -52 36 -81.5t81 -29.5q52 0 84.5 30t40.5 81h190zM842 168q-50 -96 -139 -143.5t-201 -47.5q-182 0 -278.5 110t-96.5 294v690h295v-649q0 -102 48 -158.5t148 -56.5q105 0 164.5 64.5
t59.5 170.5v629h295v-1071h-295v168z" />
    <glyph glyph-name="Uring" unicode="&#x16e;" horiz-adv-x="1521" 
d="M993 1722q0 -93 -70.5 -160t-164.5 -67t-165 67t-71 160q0 95 70 162.5t166 67.5t165.5 -67.5t69.5 -162.5zM657 1722q0 -45 28 -76.5t73 -31.5q44 0 72 32t28 76q0 45 -28 78t-72 33t-72.5 -33t-28.5 -78zM1372 584q0 -297 -160 -452t-458 -155q-291 0 -447.5 152
t-156.5 442v893h333v-872q0 -81 11 -139t39 -108.5t84 -76.5t139 -26q87 0 145 26.5t87 79t39.5 112t10.5 144.5v860h334v-880z" />
    <glyph glyph-name="uring" unicode="&#x16f;" horiz-adv-x="1271" 
d="M868 1374q0 -94 -69.5 -160.5t-163.5 -66.5q-95 0 -164.5 66.5t-69.5 160.5t70 159.5t164 65.5t163.5 -65.5t69.5 -159.5zM537 1374q0 -45 27 -76.5t71 -31.5t71 31.5t27 76.5t-27 77t-71 32t-71 -32t-27 -77zM842 168q-50 -96 -139 -143.5t-201 -47.5q-182 0 -278.5 110
t-96.5 294v690h295v-649q0 -102 48 -158.5t148 -56.5q105 0 164.5 64.5t59.5 170.5v629h295v-1071h-295v168z" />
    <glyph glyph-name="Uhungarumlaut" unicode="&#x170;" horiz-adv-x="1521" 
d="M535 1847h270l-150 -284h-200zM903 1847h271l-152 -284h-199zM1372 584q0 -297 -160 -452t-458 -155q-291 0 -447.5 152t-156.5 442v893h333v-872q0 -81 11 -139t39 -108.5t84 -76.5t139 -26q87 0 145 26.5t87 79t39.5 112t10.5 144.5v860h334v-880z" />
    <glyph glyph-name="uhungarumlaut" unicode="&#x171;" horiz-adv-x="1271" 
d="M786 1542h254l-155 -325h-185zM442 1542h252l-155 -325h-183zM842 168q-50 -96 -139 -143.5t-201 -47.5q-182 0 -278.5 110t-96.5 294v690h295v-649q0 -102 48 -158.5t148 -56.5q105 0 164.5 64.5t59.5 170.5v629h295v-1071h-295v168z" />
    <glyph glyph-name="Uogonek" unicode="&#x172;" horiz-adv-x="1521" 
d="M1008 -342q-66 -31 -170 -31q-57 0 -107 14t-88.5 52.5t-38.5 97.5q0 106 129 186q-285 5 -434 157.5t-149 436.5v893h333v-872q0 -81 11 -139t39 -108.5t84 -76.5t139 -26q70 0 121.5 18.5t82 49t48.5 78.5t24 98t6 118v860h334v-880q0 -100 -17.5 -182.5t-47 -138.5
t-67.5 -100t-80.5 -72.5t-85 -51t-80.5 -41t-67.5 -37.5t-47 -44.5t-17.5 -57.5q0 -30 19 -46t49 -16q38 0 78 15v-154z" />
    <glyph glyph-name="uogonek" unicode="&#x173;" horiz-adv-x="1271" 
d="M1153 -342q-64 -31 -164 -31q-59 0 -107.5 14t-85 53t-36.5 99q0 68 49.5 121t120.5 86h-88v168q-50 -95 -139.5 -143t-200.5 -48q-182 0 -278.5 110t-96.5 294v690h295v-649q0 -101 48.5 -158t147.5 -57q104 0 164 65t60 170v629h295v-1053q-30 -22 -44 -33t-38.5 -34.5
t-35.5 -47t-11 -48.5q0 -31 19 -47.5t50 -16.5q48 0 76 14v-147z" />
    <glyph glyph-name="Wcircumflex" unicode="&#x174;" horiz-adv-x="2078" 
d="M1178 1563l-140 108l-141 -108h-209l230 284h251l222 -284h-213zM1317 0l-285 1012l-289 -1012h-319l-377 1464h336l250 -1011l270 1011h283l280 -1018l258 1018h308l-377 -1464h-338z" />
    <glyph glyph-name="wcircumflex" unicode="&#x175;" horiz-adv-x="1699" 
d="M987 1219l-141 129l-144 -129h-202l239 319h224l233 -319h-209zM1036 0l-182 672l-197 -672h-295l-325 1071h311l191 -721l206 721h244l189 -721l202 721h285l-338 -1071h-291z" />
    <glyph glyph-name="Ycircumflex" unicode="&#x176;" horiz-adv-x="1335" 
d="M813 1563l-139 108l-142 -108h-208l229 284h252l221 -284h-213zM1305 1464l-457 -833v-631h-334v631l-483 833h364l297 -561l291 561h322z" />
    <glyph glyph-name="ycircumflex" unicode="&#x177;" horiz-adv-x="1169" 
d="M733 1219l-141 129l-143 -129h-203l239 319h224l233 -319h-209zM852 1071h285l-580 -1436h-287l189 474l-426 962h319l260 -643z" />
    <glyph glyph-name="Ydieresis" unicode="&#x178;" horiz-adv-x="1335" 
d="M606 1724q0 -61 -44.5 -105t-106.5 -44q-61 0 -106.5 44t-45.5 105q0 62 45 105t107 43q61 0 106 -43t45 -105zM1047 1724q0 -61 -45 -105t-107 -44t-106 44t-44 105q0 62 44 105t106 43t107 -43t45 -105zM1305 1464l-457 -833v-631h-334v631l-483 833h364l297 -561
l291 561h322z" />
    <glyph glyph-name="Zacute" unicode="&#x179;" horiz-adv-x="1267" 
d="M623 1847h321l-207 -284h-223zM494 260h690v-260h-1143v129l729 1077h-651v258h1089v-129z" />
    <glyph glyph-name="zacute" unicode="&#x17a;" horiz-adv-x="1030" 
d="M489 1542h312l-213 -325h-215zM434 229h537v-229h-938v115l553 727h-500v229h905v-115z" />
    <glyph glyph-name="Zdotaccent" unicode="&#x17b;" horiz-adv-x="1267" 
d="M807 1731q0 -66 -49 -112t-115 -46q-68 0 -117 45t-49 113t49 112.5t117 44.5q66 0 115 -45.5t49 -111.5zM494 260h690v-260h-1143v129l729 1077h-651v258h1089v-129z" />
    <glyph glyph-name="zdotaccent" unicode="&#x17c;" horiz-adv-x="1030" 
d="M680 1382q0 -68 -47.5 -112.5t-116.5 -44.5q-68 0 -117 44.5t-49 112.5t49 113t117 45t116 -45t48 -113zM434 229h537v-229h-938v115l553 727h-500v229h905v-115z" />
    <glyph glyph-name="Zcaron" unicode="&#x17d;" horiz-adv-x="1267" 
d="M782 1847h209l-229 -284h-252l-221 284h213l141 -106zM494 260h690v-260h-1143v129l729 1077h-651v258h1089v-129z" />
    <glyph glyph-name="zcaron" unicode="&#x17e;" horiz-adv-x="1030" 
d="M670 1538h204l-239 -319h-223l-234 319h209l141 -129zM434 229h537v-229h-938v115l553 727h-500v229h905v-115z" />
    <glyph glyph-name="florin" unicode="&#x192;" horiz-adv-x="886" 
d="M786 639h-276l-148 -1012h-294l147 1012h-160v209h191q6 37 15 109q11 79 17 118t21.5 105.5t33.5 101t50.5 79.5t74 67.5t102.5 38.5t138 16q95 0 154 -23v-225q-44 18 -117 18q-136 0 -157 -153l-37 -252h245v-209z" />
    <glyph glyph-name="Aringacute" unicode="&#x1fa;" horiz-adv-x="1482" 
d="M743 2310h322l-207 -285h-223zM985 1753q0 -93 -70.5 -160t-164.5 -67t-165 67t-71 160q0 95 70 162t166 67t165.5 -67t69.5 -162zM649 1753q0 -45 28 -76.5t73 -31.5q44 0 72 32t28 76q0 45 -28 78t-72 33t-72.5 -33t-28.5 -78zM997 305h-544l-95 -305h-311l481 1464
h433l475 -1464h-346zM725 1194l-201 -653h400z" />
    <glyph glyph-name="aringacute" unicode="&#x1fb;" horiz-adv-x="1163" 
d="M594 1980h321l-206 -284h-224zM821 1403q0 -94 -69.5 -160.5t-163.5 -66.5q-95 0 -164.5 66.5t-69.5 160.5t70 159.5t164 65.5t163.5 -65.5t69.5 -159.5zM489 1403q0 -45 27.5 -77t71.5 -32t71 32t27 77q0 44 -27 76t-71 32t-71.5 -32t-27.5 -76zM748 129
q-107 -152 -324 -152q-159 0 -258.5 82t-99.5 238q0 71 25.5 127t61 92t98.5 61t112.5 37t129.5 18.5t122.5 7.5t117.5 1h10q0 49 -2 78t-11.5 64t-27 53.5t-51 31.5t-82.5 13q-74 0 -131.5 -35t-81.5 -103l-227 99q26 70 74.5 121t111.5 79t130.5 41t142.5 13
q102 0 182.5 -22t141 -68.5t92.5 -124t32 -183.5v-698h-288v129zM356 313q0 -66 43.5 -97.5t112.5 -31.5q94 0 162.5 50t68.5 141v90h-114q-32 0 -57.5 -1.5t-60 -6t-59.5 -15t-48 -26.5t-35.5 -42.5t-12.5 -60.5z" />
    <glyph glyph-name="AEacute" unicode="&#x1fc;" horiz-adv-x="2021" 
d="M1239 1847h322l-207 -284h-224zM965 344h-447l-158 -344h-321l696 1464h1176v-258h-615v-342h490v-241h-490v-365h650v-258h-981v344zM915 1206l-290 -633h340v633h-50z" />
    <glyph glyph-name="aeacute" unicode="&#x1fd;" horiz-adv-x="1847" 
d="M944 1542h311l-213 -325h-215zM1757 248q-26 -73 -76 -127t-116 -84.5t-136.5 -45t-148.5 -14.5q-279 0 -412 199q-139 -199 -422 -199q-79 0 -146 18.5t-120.5 56t-83.5 100.5t-30 145q0 73 25.5 129.5t61 93t98 62t112 38t130 19t123 7.5t119.5 1h3h3h4
q0 121 -44.5 177.5t-161.5 56.5q-74 0 -131.5 -35t-81.5 -103l-228 99q26 70 74.5 121t111.5 79t130.5 41t142.5 13q270 0 363 -144q134 144 350 144q245 0 377.5 -148t132.5 -397v-80h-752q6 -129 68 -206t186 -77q184 0 266 150zM1270 891q-104 0 -164.5 -68.5
t-73.5 -175.5h459q-19 244 -221 244zM356 319q0 -135 156 -135q98 0 165.5 48.5t67.5 142.5v94h-120q-32 0 -56.5 -1.5t-58.5 -6t-59 -15t-48 -26t-35 -41.5t-12 -60z" />
    <glyph glyph-name="Oslashacute" unicode="&#x1fe;" horiz-adv-x="1679" 
d="M821 1847h322l-207 -284h-223zM838 -23q-278 0 -478 148l-178 -191l-110 109l178 190q-164 194 -164 490q0 220 94.5 393.5t267 271t392.5 97.5q256 0 454 -133l156 166l111 -111l-150 -160q90 -100 136 -229t46 -270q0 -227 -91.5 -401.5t-263.5 -272t-400 -97.5z
M428 741q0 -155 47 -266l621 664q-102 84 -256 84q-104 0 -184 -38t-129 -105.5t-74 -153t-25 -185.5zM567 344q108 -102 277 -102q102 0 182 39.5t128 108t72.5 154t24.5 183.5q0 170 -57 287z" />
    <glyph glyph-name="oslashacute" unicode="&#x1ff;" horiz-adv-x="1269" 
d="M631 1542h311l-213 -325h-215zM633 -23q-194 0 -340 99l-143 -154l-101 90l144 154q-123 146 -123 358q0 256 155 414t410 158q190 0 330 -95l135 146l100 -90l-133 -144q131 -144 131 -366q0 -256 -155 -413t-410 -157zM371 547q0 -110 20 -166l404 436q-64 53 -160 53
q-134 0 -199 -91.5t-65 -231.5zM463 260q67 -59 172 -59q56 0 101.5 18t75 48t50 72.5t29 89t8.5 99.5q0 97 -27 174z" />
    <glyph glyph-name="uni0218" unicode="&#x218;" horiz-adv-x="1323" 
d="M1223 444q0 -90 -31 -166.5t-85 -131t-125.5 -93.5t-152 -57.5t-165.5 -18.5q-102 0 -191 17.5t-171.5 56t-143 109.5t-88.5 170l266 116q70 -227 328 -227q98 0 169.5 50.5t71.5 144.5q0 54 -27.5 91t-74 56.5t-107 32t-127.5 23.5t-133.5 25.5t-127 44t-107 72.5
t-74 117t-27.5 173q0 86 30 158.5t81.5 123t120 86t144.5 52t157 16.5q89 0 171.5 -17t158.5 -53t135 -99t90 -147l-250 -108q-46 89 -124.5 134.5t-180.5 45.5q-42 0 -79 -8.5t-69.5 -27t-51.5 -52t-19 -78.5q0 -54 27.5 -90t74.5 -55t107.5 -30.5t128 -22.5t134.5 -25.5
t127.5 -43.5t107.5 -72.5t74.5 -118t27.5 -173.5zM530 -63l267 -43l-195 -361l-168 55z" />
    <glyph glyph-name="uni0219" unicode="&#x219;" horiz-adv-x="1036" 
d="M981 330q0 -78 -25 -139t-67 -100.5t-100.5 -65.5t-122 -37t-136.5 -11t-141.5 12t-136.5 38t-119.5 76.5t-75.5 119.5l226 99q29 -68 97 -103t148 -35q168 0 168 117q0 42 -34 68.5t-87.5 40t-119 25t-131 32t-119 52.5t-87.5 94t-34 149q0 82 37.5 148t99 105.5
t135.5 60t152 20.5q69 0 133.5 -11t128.5 -35t113 -70.5t73 -109.5l-217 -94q-25 62 -88.5 89.5t-140.5 27.5q-59 0 -105.5 -27.5t-46.5 -83.5q0 -40 34.5 -64.5t89.5 -37t121 -23.5t132.5 -31t121.5 -52t89.5 -94t34.5 -150zM395 -63l267 -43l-195 -361l-168 55z" />
    <glyph glyph-name="uni021A" unicode="&#x21a;" horiz-adv-x="1232" 
d="M1178 1206h-396v-1206h-333v1206h-396v258h1125v-258zM498 -63l266 -43l-195 -361l-168 55z" />
    <glyph glyph-name="uni021B" unicode="&#x21b;" horiz-adv-x="780" 
d="M707 8q-80 -28 -181 -28q-168 0 -257 85t-89 252v543h-137v211h137v232l295 129v-361h225v-211h-225v-516q0 -127 119 -127q58 0 113 21v-230zM303 -63l266 -43l-194 -361l-168 55z" />
    <glyph glyph-name="uni0237" unicode="&#x237;" horiz-adv-x="583" 
d="M438 -18q0 -104 -31.5 -176.5t-92 -112.5t-136 -57.5t-176.5 -18.5v221q141 8 141 142v1091h295v-1089z" />
    <glyph glyph-name="circumflex" unicode="&#x2c6;" horiz-adv-x="851" 
d="M565 1219l-141 129l-143 -129h-203l239 319h224l233 -319h-209z" />
    <glyph glyph-name="caron" unicode="&#x2c7;" horiz-adv-x="851" 
d="M569 1538h205l-239 -319h-224l-233 319h209l141 -129z" />
    <glyph glyph-name="breve" unicode="&#x2d8;" horiz-adv-x="851" 
d="M739 1530q-8 -137 -93.5 -221t-221.5 -84q-137 0 -220 83t-91 222h194q6 -52 36 -81.5t81 -29.5q52 0 84 29t41 82h190z" />
    <glyph glyph-name="dotaccent" unicode="&#x2d9;" horiz-adv-x="851" 
d="M590 1382q0 -68 -47.5 -112.5t-116.5 -44.5q-68 0 -117 44.5t-49 112.5t49 113t117 45t116 -45t48 -113z" />
    <glyph glyph-name="ring" unicode="&#x2da;" horiz-adv-x="851" 
d="M664 1425q0 -93 -71 -160t-165 -67t-164.5 67t-70.5 160q0 94 70 162t165 68t165.5 -68t70.5 -162zM328 1425q0 -45 27.5 -76.5t72.5 -31.5q44 0 72 32t28 76q0 45 -28 78t-72 33t-72 -33t-28 -78z" />
    <glyph glyph-name="ogonek" unicode="&#x2db;" horiz-adv-x="851" 
d="M606 -342q-64 -31 -166 -31q-56 0 -105 14t-86.5 52.5t-37.5 95.5q0 125 172 211h184q-34 -26 -51 -40.5t-36 -44.5t-19 -60q0 -64 67 -64q56 0 78 14v-147z" />
    <glyph glyph-name="tilde" unicode="&#x2dc;" horiz-adv-x="851" 
d="M778 1516q-4 -53 -19 -101.5t-41 -92.5t-69.5 -70.5t-99.5 -26.5q-40 0 -84 19.5t-82.5 39t-65.5 19.5q-28 0 -46.5 -22.5t-24.5 -53.5h-170q4 54 17.5 102t39 92t68.5 69.5t100 25.5q50 0 127.5 -38t108.5 -38q29 0 46 22t23 54h172z" />
    <glyph glyph-name="hungarumlaut" unicode="&#x2dd;" horiz-adv-x="851" 
d="M590 1542h254l-156 -325h-184zM246 1542h252l-156 -325h-182z" />
    <glyph glyph-name="uni0394" unicode="&#x394;" horiz-adv-x="1527" 
d="M998 1464l453 -1411v-53h-1395v53l459 1411h483zM744 1212l-292 -945h582z" />
    <glyph glyph-name="Sigma" unicode="&#x3a3;" horiz-adv-x="1265" 
d="M495 272h667v-272h-1070v202l385 535l-378 484v243h1030v-257h-633l362 -447z" />
    <glyph glyph-name="uni03A9" unicode="&#x3a9;" horiz-adv-x="1685" 
d="M457 744q0 -189 68 -325.5t220 -243.5v-175h-655v269h238q-113 78 -177.5 211.5t-64.5 275.5q0 161 58.5 298.5t160.5 231.5t242 146.5t300 52.5q158 0 297 -50t242 -140t162.5 -224.5t59.5 -295.5q0 -152 -61.5 -288.5t-179.5 -217.5h237v-269h-657v175q291 192 291 553
q0 98 -22 181.5t-67 150.5t-122 105t-180 38q-100 0 -176 -36t-122 -100t-69 -145.5t-23 -177.5z" />
    <glyph glyph-name="lambda" unicode="&#x3bb;" horiz-adv-x="1247" 
d="M1208 7q-60 -20 -141 -20q-127 0 -199.5 65t-116.5 194l-156 451l-231 -697h-330l415 1058q-6 17 -19 56.5t-21 61.5t-25 53.5t-35.5 48.5t-47.5 30t-65 13q-38 0 -118 -22v236q85 31 203 31q66 0 119 -16.5t89 -42.5t67.5 -70.5t52 -88.5t44.5 -108l337 -910
q13 -37 38 -62.5t61 -25.5q39 0 79 9v-244z" />
    <glyph glyph-name="uni03BC" unicode="&#x3bc;" horiz-adv-x="1277" 
d="M607 -3q-110 0 -161 85v-444h-317v1433h317v-657q0 -197 176 -197q102 0 156.5 61t54.5 164v629h317v-1071h-313v152q-30 -75 -89.5 -115t-140.5 -40z" />
    <glyph glyph-name="pi" unicode="&#x3c0;" horiz-adv-x="1323" 
d="M823 836h-326v-836h-318v836h-139v235h1241v-235h-140v-836h-318v836z" />
    <glyph glyph-name="Wgrave" unicode="&#x1e80;" horiz-adv-x="2078" 
d="M745 1847h320l106 -284h-223zM1317 0l-285 1012l-289 -1012h-319l-377 1464h336l250 -1011l270 1011h283l280 -1018l258 1018h308l-377 -1464h-338z" />
    <glyph glyph-name="wgrave" unicode="&#x1e81;" horiz-adv-x="1699" 
d="M557 1542h311l117 -325h-215zM1036 0l-182 672l-197 -672h-295l-325 1071h311l191 -721l206 721h244l189 -721l202 721h285l-338 -1071h-291z" />
    <glyph glyph-name="Wacute" unicode="&#x1e82;" horiz-adv-x="2078" 
d="M1038 1847h322l-207 -284h-223zM1317 0l-285 1012l-289 -1012h-319l-377 1464h336l250 -1011l270 1011h283l280 -1018l258 1018h308l-377 -1464h-338z" />
    <glyph glyph-name="wacute" unicode="&#x1e83;" horiz-adv-x="1699" 
d="M874 1542h312l-213 -325h-215zM1036 0l-182 672l-197 -672h-295l-325 1071h311l191 -721l206 721h244l189 -721l202 721h285l-338 -1071h-291z" />
    <glyph glyph-name="Wdieresis" unicode="&#x1e84;" horiz-adv-x="2078" 
d="M975 1724q0 -61 -45 -105t-107 -44q-61 0 -106 44t-45 105q0 62 44.5 105t106.5 43q61 0 106.5 -43t45.5 -105zM1415 1724q0 -61 -44.5 -105t-106.5 -44t-106 44t-44 105q0 62 44 105t106 43t106.5 -43t44.5 -105zM1317 0l-285 1012l-289 -1012h-319l-377 1464h336
l250 -1011l270 1011h283l280 -1018l258 1018h308l-377 -1464h-338z" />
    <glyph glyph-name="wdieresis" unicode="&#x1e85;" horiz-adv-x="1699" 
d="M1225 1376q0 -62 -45 -104.5t-107 -42.5t-106.5 42.5t-44.5 104.5t44.5 105t106.5 43t107 -43t45 -105zM807 1376q0 -62 -45 -104.5t-107 -42.5t-106.5 42.5t-44.5 104.5t44.5 105t106.5 43t107 -43t45 -105zM1036 0l-182 672l-197 -672h-295l-325 1071h311l191 -721
l206 721h244l189 -721l202 721h285l-338 -1071h-291z" />
    <glyph glyph-name="Ygrave" unicode="&#x1ef2;" horiz-adv-x="1335" 
d="M387 1847h320l106 -284h-223zM1305 1464l-457 -833v-631h-334v631l-483 833h364l297 -561l291 561h322z" />
    <glyph glyph-name="ygrave" unicode="&#x1ef3;" horiz-adv-x="1169" 
d="M291 1542h311l117 -325h-215zM852 1071h285l-580 -1436h-287l189 474l-426 962h319l260 -643z" />
    <glyph glyph-name="uni2009" unicode="&#x2009;" horiz-adv-x="206" 
 />
    <glyph glyph-name="endash" unicode="&#x2013;" horiz-adv-x="1404" 
d="M127 680h1149v-209h-1149v209z" />
    <glyph glyph-name="emdash" unicode="&#x2014;" horiz-adv-x="1996" 
d="M127 680h1741v-209h-1741v209z" />
    <glyph glyph-name="quoteleft" unicode="&#x2018;" horiz-adv-x="602" 
d="M338 1489l170 -70l-170 -497l-264 96z" />
    <glyph glyph-name="quoteright" unicode="&#x2019;" horiz-adv-x="602" 
d="M264 1489l264 -94l-264 -473l-170 69z" />
    <glyph glyph-name="quotesinglbase" unicode="&#x201a;" horiz-adv-x="624" 
d="M272 346l265 -96l-267 -473l-168 69z" />
    <glyph glyph-name="quotedblleft" unicode="&#x201c;" horiz-adv-x="1028" 
d="M338 1489l170 -70l-170 -497l-264 96zM766 1489l170 -70l-170 -497l-264 96z" />
    <glyph glyph-name="quotedblright" unicode="&#x201d;" horiz-adv-x="1028" 
d="M264 1489l264 -94l-264 -473l-170 69zM692 1489l264 -94l-266 -473l-168 69z" />
    <glyph glyph-name="quotedblbase" unicode="&#x201e;" horiz-adv-x="1052" 
d="M272 344l265 -94l-265 -473l-170 69zM700 344l265 -94l-267 -473l-168 69z" />
    <glyph glyph-name="dagger" unicode="&#x2020;" horiz-adv-x="839" 
d="M766 1001h-223v-565h-246v565h-225v216h225v247h246v-247h223v-216z" />
    <glyph glyph-name="daggerdbl" unicode="&#x2021;" horiz-adv-x="839" 
d="M766 664h-223v-228h-246v228h-225v198h225v176h-225v199h225v227h246v-227h223v-199h-223v-176h223v-198z" />
    <glyph glyph-name="bullet" unicode="&#x2022;" horiz-adv-x="739" 
d="M647 623q0 -117 -79.5 -197t-196.5 -80t-198 80t-81 197t81 196.5t198 79.5t196.5 -79.5t79.5 -196.5z" />
    <glyph glyph-name="ellipsis" unicode="&#x2026;" horiz-adv-x="1796" 
d="M1665 162q0 -75 -54.5 -127.5t-129.5 -52.5q-76 0 -129.5 52t-53.5 128q0 75 53.5 126.5t129.5 51.5t130 -51t54 -127zM1083 162q0 -75 -54.5 -127.5t-129.5 -52.5q-76 0 -129 52t-53 128q0 75 53 126.5t129 51.5t130 -51t54 -127zM500 162q0 -75 -55 -127.5t-130 -52.5
q-76 0 -129 52t-53 128q0 75 53 126.5t129 51.5t130.5 -51t54.5 -127z" />
    <glyph glyph-name="perthousand" unicode="&#x2030;" horiz-adv-x="2463" 
d="M801 1133q0 -156 -104 -257.5t-261 -101.5q-156 0 -259 98.5t-103 253.5q0 150 106.5 251.5t257.5 101.5q154 0 258.5 -97t104.5 -249zM1233 1464h184l-973 -1464h-184zM301 1128q0 -73 34 -122.5t103 -49.5q68 0 101.5 50t33.5 122t-33 121t-102 49t-103 -49t-34 -121z
M1589 338q0 -157 -102.5 -259t-259.5 -102q-156 0 -259.5 100t-103.5 255q0 151 105.5 251.5t257.5 100.5q154 0 258 -97t104 -249zM2390 338q0 -157 -102.5 -259t-259.5 -102q-156 0 -259.5 100t-103.5 255q0 151 105.5 251.5t257.5 100.5q154 0 258 -97t104 -249z
M1890 334q0 -73 34.5 -122.5t103.5 -49.5q71 0 104 49t33 123q0 72 -34 121t-103 49t-103.5 -49t-34.5 -121zM1090 334q0 -73 34 -122.5t103 -49.5q70 0 102.5 49.5t32.5 122.5q0 72 -33 121t-102 49t-103 -49t-34 -121z" />
    <glyph glyph-name="minute" unicode="&#x2032;" horiz-adv-x="516" 
d="M141 1464h287l-123 -540h-209z" />
    <glyph glyph-name="second" unicode="&#x2033;" horiz-adv-x="913" 
d="M539 1464h286l-123 -540h-208zM141 1464h287l-123 -540h-209z" />
    <glyph glyph-name="guilsinglleft" unicode="&#x2039;" horiz-adv-x="671" 
d="M580 915l-250 -380l250 -381h-220l-260 381l260 380h220z" />
    <glyph glyph-name="guilsinglright" unicode="&#x203a;" horiz-adv-x="671" 
d="M313 915l258 -380l-258 -381h-219l248 381l-248 380h219z" />
    <glyph glyph-name="fraction" unicode="&#x2044;" horiz-adv-x="311" 
d="M623 1464h172l-1106 -1464h-172z" />
    <glyph glyph-name="Euro" unicode="&#x20ac;" horiz-adv-x="1425" 
d="M1350 387q-113 -410 -557 -410q-252 0 -407.5 148.5t-190.5 402.5h-138v136h129v127h-129v135h138q34 250 195 404.5t409 154.5q203 0 345 -93.5t193 -283.5l-256 -111q-35 117 -101 176.5t-183 59.5q-65 0 -116.5 -25t-84 -69t-52 -97t-28.5 -116h381l-25 -135h-362
v-127h340l-25 -136h-309q18 -134 86.5 -213t196.5 -79q229 0 299 262z" />
    <glyph glyph-name="uni20B9" unicode="&#x20b9;" horiz-adv-x="1187" 
d="M854 922q-25 -110 -100.5 -197t-180.5 -125l433 -600h-390l-356 549h-201v184q18 0 54 -1q157 -2 226 16q137 38 177 174h-457v182h459q-6 37 -22 65.5t-35.5 47t-51 31.5t-57 19.5t-65 10t-63 4t-62.5 0.5q-14 0 -49 -1.5t-54 -0.5v184h1055v-184h-356q36 -35 57.5 -76
t40.5 -100h258v-182h-260z" />
    <glyph glyph-name="trademark" unicode="&#x2122;" horiz-adv-x="1556" 
d="M1044 805l-170 426v-426h-157v659h223l143 -374l146 374h227v-659h-182v426l-172 -426h-58zM623 1321h-181v-516h-182v516h-180v143h543v-143z" />
    <glyph glyph-name="onethird" unicode="&#x2153;" horiz-adv-x="1605" 
d="M1219 1464h172l-1106 -1464h-172zM252 1464h194v-743h-225v528l-168 -100v182zM1542 221q0 -64 -26.5 -111t-72.5 -73t-99 -38.5t-113 -12.5q-252 0 -305 178l153 67q20 -51 52 -69.5t88 -18.5q44 0 71 20.5t27 63.5q0 15 -3 27.5t-10.5 21t-13.5 15t-19.5 10t-20 6
t-24.5 3.5t-23.5 1h-25.5h-22v131h22.5h24.5t23 1t23.5 3t20 6t18.5 10t13 14.5t10 20.5t3 27q0 35 -23 54.5t-59 19.5q-97 0 -131 -80l-150 66q31 88 108 129t177 41q53 0 101 -10t92 -32.5t70 -64t26 -98.5q0 -63 -34.5 -104t-96.5 -56q66 -12 107.5 -57t41.5 -111z" />
    <glyph glyph-name="twothirds" unicode="&#x2154;" horiz-adv-x="1695" 
d="M383 881h254v-160h-614v29l262 274q3 3 17 18t19.5 20.5t18.5 20.5t19 23.5t17 22.5t16 25t11 24t8.5 26t2.5 25q0 37 -20.5 58.5t-57.5 21.5q-45 0 -68.5 -34t-27.5 -83h-203q6 138 88 210.5t221 72.5q122 0 203.5 -57.5t81.5 -174.5q0 -37 -12.5 -74.5t-28.5 -65.5
t-46.5 -63t-51 -55t-57.5 -54.5t-52 -49.5zM1339 1464h172l-1105 -1464h-173zM1632 221q0 -64 -26.5 -111t-72.5 -73t-99 -38.5t-113 -12.5q-252 0 -305 178l153 67q20 -51 52 -69.5t88 -18.5q44 0 71 20.5t27 63.5q0 15 -3 27.5t-10.5 21t-13.5 15t-19.5 10t-20 6
t-24.5 3.5t-23.5 1h-25.5h-22v131h22.5h24.5t23 1t23.5 3t20 6t18.5 10t13 14.5t10 20.5t3 27q0 35 -23 54.5t-59 19.5q-97 0 -131 -80l-150 66q31 88 108 129t177 41q53 0 101 -10t92 -32.5t70 -64t26 -98.5q0 -63 -34.5 -104t-96.5 -56q66 -12 107.5 -57t41.5 -111z" />
    <glyph glyph-name="oneeighth" unicode="&#x215b;" horiz-adv-x="1591" 
d="M1208 1464h172l-1106 -1464h-172zM252 1464h194v-743h-225v528l-168 -100v182zM1534 215q0 -63 -28.5 -109t-77 -71t-101.5 -36t-113 -11q-59 0 -111 10.5t-101 33.5t-78 68.5t-29 108.5q0 67 36 114t101 68q-106 44 -106 154q0 55 27 97t71.5 65.5t93 35t99.5 11.5
t99.5 -11t92 -34t70 -65t26.5 -97q0 -111 -106 -154q135 -44 135 -178zM1128 526q0 -35 26.5 -57.5t62.5 -22.5t61 23t25 59t-24.5 58t-61.5 22t-63 -23t-26 -59zM1114 231q0 -41 29 -66.5t71 -25.5q44 0 72.5 25t28.5 69t-28.5 68.5t-72.5 24.5q-43 0 -71.5 -26.5
t-28.5 -68.5z" />
    <glyph glyph-name="threeeighths" unicode="&#x215c;" horiz-adv-x="1654" 
d="M666 942q0 -64 -27 -111t-73 -73t-99 -38.5t-113 -12.5q-252 0 -305 178l154 67q20 -51 51.5 -69.5t87.5 -18.5q44 0 71 20.5t27 63.5q0 14 -3 25t-7 19.5t-12.5 15t-15 10.5t-19 7t-19 4.5t-21.5 2t-21.5 0.5h-22.5h-20v131h22.5h24.5t23 1t23 3t19.5 6t18.5 10t13 14.5
t10 20.5t3 27q0 35 -23 54.5t-59 19.5q-97 0 -131 -80l-149 66q31 88 107.5 129t176.5 41q53 0 101 -10t92 -32.5t70 -64t26 -98.5q0 -63 -34.5 -104t-96.5 -56q66 -12 108 -57t42 -111zM1294 1464h172l-1106 -1464h-172zM1597 215q0 -63 -28.5 -109t-76.5 -71t-101.5 -36
t-112.5 -11q-46 0 -88.5 6t-85.5 21.5t-74.5 39.5t-51.5 63.5t-20 90.5q0 66 36.5 113.5t101.5 68.5q-107 45 -107 154q0 55 27 97t71.5 65.5t93 35t99.5 11.5t99.5 -11t92.5 -34t70.5 -65t26.5 -97q0 -111 -107 -154q135 -44 135 -178zM1192 526q0 -36 26 -58t62 -22t61 23
t25 59t-24.5 58t-61.5 22t-62.5 -23t-25.5 -59zM1178 231q0 -41 29 -66.5t71 -25.5q44 0 72 25t28 69t-28 68.5t-72 24.5q-43 0 -71.5 -26.5t-28.5 -68.5z" />
    <glyph glyph-name="fiveeighths" unicode="&#x215d;" horiz-adv-x="1642" 
d="M662 977q0 -131 -87.5 -200.5t-222.5 -69.5q-65 0 -122 14.5t-107.5 53.5t-69.5 99l170 74q41 -78 125 -78q44 0 67 30t23 75q0 46 -24.5 73t-69.5 27q-71 0 -104 -53h-160l16 442h522v-159h-364l-6 -172q62 84 184 84q108 0 169 -65.5t61 -174.5zM1282 1464h172
l-1106 -1464h-172zM1587 215q0 -63 -28.5 -109t-76.5 -71t-101.5 -36t-112.5 -11q-46 0 -88.5 6t-85.5 21.5t-74.5 39.5t-51.5 63.5t-20 90.5q0 67 36 114t101 68q-106 44 -106 154q0 55 27 97t71.5 65.5t93 35t99.5 11.5t99.5 -11t92.5 -34t70.5 -65t26.5 -97
q0 -111 -107 -154q135 -44 135 -178zM1182 526q0 -36 26 -58t62 -22t61 23t25 59t-24.5 58t-61.5 22t-62.5 -23t-25.5 -59zM1167 231q0 -41 29.5 -66.5t71.5 -25.5q44 0 72 25t28 69t-28 68.5t-72 24.5q-43 0 -72 -26.5t-29 -68.5z" />
    <glyph glyph-name="seveneighths" unicode="&#x215e;" horiz-adv-x="1583" 
d="M1182 1464h172l-1106 -1464h-172zM637 1464v-88l-270 -655h-224l234 567h-330v176h590zM1526 215q0 -63 -28.5 -109t-77 -71t-101.5 -36t-113 -11q-59 0 -111 10.5t-101 33.5t-78 68.5t-29 108.5q0 67 36 114t101 68q-106 44 -106 154q0 55 27 97t71 65.5t92.5 35
t99.5 11.5t99.5 -11t92.5 -34t70.5 -65t26.5 -97q0 -111 -106 -154q135 -44 135 -178zM1120 526q0 -36 26 -58t62 -22t61 23t25 59t-24.5 58t-61.5 22t-62.5 -23t-25.5 -59zM1106 231q0 -41 29 -66.5t71 -25.5q44 0 72.5 25t28.5 69t-28.5 68.5t-72.5 24.5
q-43 0 -71.5 -26.5t-28.5 -68.5z" />
    <glyph glyph-name="minus" unicode="&#x2212;" horiz-adv-x="1140" 
d="M80 813h981v-231h-981v231z" />
    <glyph glyph-name="approxequal" unicode="&#x2248;" horiz-adv-x="1157" 
d="M373 813q-80 0 -94 -92h-181q5 64 21.5 118t46 100.5t80 73.5t116.5 27q74 0 212.5 -42t211.5 -42q38 0 62.5 26t30.5 65h180q-3 -60 -19.5 -114.5t-47 -102t-80.5 -75.5t-113 -28q-75 0 -187 35l-53 16q-112 35 -186 35zM373 373q-80 0 -94 -92h-181q5 64 21.5 118
t46 101.5t80 74.5t116.5 27q73 0 212.5 -43t211.5 -43q40 0 63.5 25.5t29.5 66.5h180q-3 -60 -19.5 -114.5t-47 -101.5t-80.5 -75t-113 -28q-65 0 -187 34l-53 16q-122 34 -186 34z" />
    <glyph glyph-name="notequal" unicode="&#x2260;" horiz-adv-x="1118" 
d="M1022 354h-477l-74 -192h-207l74 192h-242v211h324l76 199h-400v213h482l75 192h207l-76 -192h238v-213h-320l-75 -199h395v-211z" />
    <glyph glyph-name="lessequal" unicode="&#x2264;" horiz-adv-x="1075" 
d="M537 772l409 -207v-270l-835 446v60l835 446v-266zM111 205h835v-205h-835v205z" />
    <glyph glyph-name="greaterequal" unicode="&#x2265;" horiz-adv-x="1075" 
d="M967 801v-60l-836 -446v270l410 207l-410 209v266zM131 205h836v-205h-836v205z" />
    <glyph glyph-name="uni24C5" unicode="&#x24c5;" horiz-adv-x="1759" 
d="M1655 735q0 -213 -103.5 -390t-281.5 -277.5t-391 -100.5q-158 0 -300.5 59.5t-246.5 161t-165 243.5t-61 300q0 159 61.5 301t165.5 244t248 161.5t302 59.5q212 0 389 -100t280 -275t103 -387zM223 731q0 -138 50 -260.5t137 -211.5t209 -141t260 -52q140 0 263 52
t209 141t135.5 212.5t49.5 263.5q0 185 -84 337t-234 239.5t-335 87.5q-187 0 -338.5 -87.5t-236.5 -240.5t-85 -340zM1235 877q0 -53 -13 -95t-32.5 -70t-53 -47.5t-64.5 -30t-77.5 -16t-81 -7t-86.5 -1.5v-284h-221v821h303q148 0 237 -64t89 -206zM827 979v-219h74
q125 0 125 110q0 59 -32 84t-93 25h-74z" />
    <glyph glyph-name="f_f" unicode="&#xfb00;" horiz-adv-x="1413" 
d="M829 860h-350v-860h-295v860h-141v211h141v111q0 183 99 277.5t282 94.5q91 0 172 -38l-84 -195q-15 8 -43 8q-66 0 -98.5 -37t-32.5 -104v-117h350v123q0 183 99.5 279t283.5 96q89 0 172 -39l-84 -195q-15 8 -43 8q-66 0 -99.5 -37.5t-33.5 -103.5v-131h234v-211h-234
v-860h-295v860z" />
    <glyph glyph-name="fi" unicode="&#xfb01;" horiz-adv-x="1333" 
d="M711 860h-232v-860h-295v860h-141v211h141v123q0 183 98.5 279t282.5 96q89 0 172 -39l-84 -195q-15 8 -43 8q-64 0 -97.5 -38t-33.5 -103v-131h232v-211zM1206 1378q0 -69 -50 -115t-120 -46t-119 46t-49 115q0 70 49 116t119 46q72 0 121 -46t49 -116zM891 1071h295
v-1071h-295v1071z" />
    <glyph glyph-name="fl" unicode="&#xfb02;" horiz-adv-x="1331" 
d="M711 860h-232v-860h-295v860h-141v211h141v123q0 183 98.5 279t282.5 96q89 0 172 -39l-84 -195q-15 8 -43 8q-64 0 -97.5 -38t-33.5 -103v-131h232v-211zM891 1556h295v-1556h-295v1556z" />
    <glyph glyph-name="dollar.tab" 
d="M1163 442q0 -204 -133.5 -324.5t-343.5 -137.5v-256h-143v256q-182 13 -312.5 102t-173.5 256l242 104q29 -99 87 -155t157 -72v397q-84 14 -149.5 34t-126 54.5t-100.5 81t-63.5 115.5t-23.5 156q0 78 25 145t68 116t101.5 85.5t126.5 57t142 26.5v182h143v-184
q349 -33 432 -316l-229 -100q-38 153 -203 180v-366q87 -14 152.5 -32.5t129.5 -52t104.5 -79t65.5 -115t25 -158.5zM360 1079q0 -83 46.5 -120t136.5 -56v346q-77 -9 -130 -53t-53 -117zM870 410q0 85 -46 122t-138 56v-373q82 15 133 65t51 130z" />
    <glyph glyph-name="Euro.tab" 
d="M1151 365q-76 -388 -485 -388q-125 0 -222.5 41t-160 116t-97.5 174.5t-41 221.5h-108v136h108v125h-108v137h108q7 160 67.5 284t179.5 198.5t280 74.5q188 0 306.5 -89.5t156.5 -271.5l-232 -100q-28 107 -79 162t-152 55q-215 0 -232 -313h355l-25 -137h-330v-125h308
l-25 -136h-283q3 -51 10 -92t23.5 -82.5t41.5 -69t66 -44.5t95 -17q108 0 163 62.5t83 177.5z" />
    <glyph glyph-name="sterling.tab" 
d="M1163 274q-31 -138 -120 -215t-228 -77q-66 0 -144 28.5t-148 57t-117 28.5q-98 0 -105 -96h-240q9 106 57.5 193t137.5 124q18 48 18 121q0 77 -26 178h-160v187h109q-29 114 -29 229q0 207 139.5 330t349.5 123q396 0 467 -338l-231 -100q-25 96 -77 140t-148 44
q-95 0 -145 -58t-50 -155q0 -79 23 -215h368v-187h-336q17 -85 17 -180q0 -66 -23 -123q18 -6 71.5 -26.5t91.5 -30.5t75 -10q73 0 116 29t62 98z" />
    <glyph glyph-name="yen.tab" 
d="M1112 332h-324v-332h-323v332h-318v135h318v125h-318v137h297l-366 735h336l229 -518l219 518h297l-352 -735h305v-137h-324v-125h324v-135z" />
    <glyph glyph-name="zero.tab" 
d="M1157 590q0 -133 -32 -242.5t-96 -193.5t-169 -130.5t-242 -46.5q-136 0 -240 45.5t-168.5 127.5t-97 191t-32.5 241v292q0 131 33.5 240.5t98.5 193t170 130.5t239 47q136 0 239.5 -44.5t168 -125t96.5 -188.5t32 -240v-297zM393 584q0 -46 3 -83t11 -79.5t24.5 -73.5
t41 -57.5t63.5 -40.5t89 -14q44 0 78.5 11.5t57 29t39 47t25 56.5t13 67t5.5 68.5t1 70.5v297q0 55 -3.5 97.5t-17 92t-37 82t-65.5 54.5t-100 22t-101 -22.5t-67 -56t-38 -83t-18 -93.5t-4 -99v-293z" />
    <glyph glyph-name="one.tab" 
d="M598 1464h301v-1464h-332v1135l-377 -263v283z" />
    <glyph glyph-name="two.tab" 
d="M551 258h569v-258h-1054v131l493 487q89 89 160.5 207.5t71.5 216.5q0 88 -45 139.5t-132 51.5q-46 0 -82.5 -14.5t-60.5 -37.5t-43.5 -58.5t-31 -69.5t-21.5 -78l-256 112q39 200 169 299t337 99q105 0 193 -25.5t156 -76.5t106 -134t38 -192q0 -56 -17 -115t-42.5 -111
t-67.5 -110.5t-80.5 -103.5t-92.5 -100.5t-92.5 -92.5t-92.5 -88t-82 -78z" />
    <glyph glyph-name="three.tab" 
d="M1145 428q0 -93 -28.5 -169t-78 -128t-118.5 -87t-147.5 -51t-166.5 -16q-99 0 -183.5 20t-156 62.5t-121.5 115t-73 169.5l245 107q31 -115 96.5 -171.5t180.5 -56.5q108 0 167.5 51.5t59.5 157.5q0 31 -4.5 57.5t-12.5 46t-20 35.5t-26.5 27t-32 19.5t-37 13t-41 7.5
t-44 3.5t-46 1.5t-47.5 0h-9.5h-8.5h-9v221h22h50t47.5 1.5t47 5t41.5 10t39 16t31 24t25.5 33.5t14.5 45t6 58q0 90 -50 135t-141 45q-101 0 -168 -53.5t-92 -153.5l-237 105q48 173 183 261.5t321 88.5q96 0 181 -23.5t154 -70t109.5 -125t40.5 -179.5q0 -117 -61.5 -197
t-174.5 -120q131 -30 202 -119t71 -223z" />
    <glyph glyph-name="four.tab" 
d="M1167 301h-155v-301h-299v301h-654v111l570 1052h383v-936h155v-227zM717 1208l-363 -680h363v680z" />
    <glyph glyph-name="five.tab" 
d="M1128 498q0 -243 -145.5 -382t-390.5 -139q-94 0 -173 18.5t-146.5 58t-114.5 107.5t-68 161l244 106q28 -108 85.5 -150t170.5 -42t166 72.5t53 189.5q0 113 -59.5 181.5t-171.5 68.5q-172 0 -265 -119h-178l19 835h890v-252h-651l-6 -372q115 137 309 137
q106 0 189 -36.5t135.5 -102t80 -152t27.5 -188.5z" />
    <glyph glyph-name="six.tab" 
d="M1165 483q0 -233 -145 -369.5t-379 -136.5q-423 0 -528 398q-15 56 -22 125.5t-8 111t-1 127.5q0 117 20 223t65.5 202.5t113 167t169 112t226.5 41.5q108 0 194.5 -27.5t155 -94.5t96.5 -169l-231 -102q-27 80 -80 115.5t-139 35.5q-58 0 -104.5 -21.5t-76.5 -60
t-51 -83.5t-31.5 -102t-15.5 -104t-6 -100q106 178 330 178q206 0 327 -130t121 -337zM391 489q0 -118 64.5 -192t181.5 -74q107 0 170 72t63 180q0 112 -62 183t-173 71q-108 0 -176 -66t-68 -174z" />
    <glyph glyph-name="seven.tab" 
d="M1149 1464v-131l-543 -1333h-338l500 1200h-662v264h1043z" />
    <glyph glyph-name="eight.tab" 
d="M1159 422q0 -111 -45 -198.5t-122.5 -140t-172.5 -79.5t-201 -27q-104 0 -198.5 26.5t-171.5 78t-122.5 137.5t-45.5 195q0 131 66 224t190 142q-98 42 -149.5 120t-51.5 183q0 77 27.5 143.5t75 113.5t110 80t132.5 49t143 16q93 0 178 -25.5t154 -73.5t110 -126
t41 -175q0 -105 -53 -182t-150 -121q123 -45 189.5 -137.5t66.5 -222.5zM422 1063q0 -86 58.5 -138.5t144.5 -52.5q88 0 143 52t55 139q0 84 -57.5 135t-142.5 51q-86 0 -143.5 -50.5t-57.5 -135.5zM385 444q0 -101 66.5 -160t169.5 -59q104 0 168.5 58.5t64.5 162.5
q0 105 -63 163.5t-168 58.5q-106 0 -172 -59.5t-66 -164.5z" />
    <glyph glyph-name="nine.tab" 
d="M1155 700q0 -117 -18 -219.5t-60.5 -196t-107 -160t-163.5 -105.5t-224 -39q-85 0 -157.5 16t-137 50t-112 93.5t-71.5 141.5l234 102q32 -90 87 -126t153 -36q276 0 276 469q-107 -176 -334 -176q-206 0 -327 128.5t-121 336.5q0 233 145 370.5t379 137.5
q121 0 216.5 -33t159.5 -91t105.5 -142t59.5 -181t18 -213v-127zM367 991q0 -114 61.5 -184t173.5 -70q108 0 176 65.5t68 172.5q0 118 -65 193t-181 75q-110 0 -171.5 -70t-61.5 -182z" />
    <glyph glyph-name="cent.tab" 
d="M1155 301q-41 -142 -155.5 -223t-268.5 -96v-258h-145v258q-236 22 -364 170t-128 387q0 224 134 375t358 178v196h145v-196q150 -13 261.5 -89t154.5 -212l-223 -97q-46 139 -193 172v-671q158 34 211 200zM389 526q0 -76 17 -138.5t62.5 -116t117.5 -72.5v665
q-197 -55 -197 -338z" />
    <glyph glyph-name="percent.tab" horiz-adv-x="1646" 
d="M608 1137q0 -61 -16.5 -121.5t-47.5 -113.5t-83.5 -85.5t-118.5 -32.5q-65 0 -117 32t-83 84t-47.5 112t-16.5 121q0 81 28.5 158t91.5 132.5t146 55.5q84 0 146 -54.5t90 -130.5t28 -157zM983 1464h137l-884 -1464h-138zM244 1135q0 -29 4 -55.5t13.5 -55.5t31 -46
t51.5 -17t51 18t31 46.5t14 55.5t4 54q0 39 -6.5 74t-30.5 66.5t-63 31.5q-30 0 -51.5 -16.5t-31 -45t-13.5 -54.5t-4 -56zM1190 332q0 -62 -16 -123t-47 -114t-84 -85.5t-119 -32.5q-65 0 -117.5 32t-83.5 84t-47.5 112t-16.5 121q0 60 17 120t49 111.5t84.5 84t116.5 32.5
q84 0 146 -54.5t90 -130.5t28 -157zM823 328q0 -29 4 -55.5t14.5 -54.5t32 -45t52.5 -17q30 0 50.5 17.5t30 46t13.5 54.5t4 54t-4 54t-13.5 54.5t-30 46t-50.5 17.5t-52 -17t-32 -44.5t-14.5 -54.5t-4.5 -56z" />
    <glyph glyph-name="plus.tab" 
d="M1100 586h-361v-391h-241v391h-359v223h359v391h241v-391h361v-223z" />
    <glyph glyph-name="minus.tab" 
d="M137 813h965v-231h-965v231z" />
    <glyph glyph-name="multiply.tab" 
d="M776 686l318 -315l-160 -160l-316 317l-313 -313l-158 158l314 313l-316 315l158 160l315 -317l314 313l160 -158z" />
    <glyph glyph-name="divide.tab" 
d="M788 1106q0 -71 -49.5 -119.5t-120.5 -48.5t-120 48.5t-49 119.5t49 119.5t120 48.5t120.5 -48.5t49.5 -119.5zM129 805h981v-213h-981v213zM788 291q0 -71 -49.5 -119.5t-120.5 -48.5t-120 48.5t-49 119.5q0 70 49 119t120 49t120.5 -49t49.5 -119z" />
    <glyph glyph-name="equal.tab" 
d="M164 977h909v-213h-909v213zM164 565h909v-211h-909v211z" />
    <glyph glyph-name="less.tab" 
d="M582 662l462 -259v-266l-862 494v59l862 492v-271z" />
    <glyph glyph-name="greater.tab" 
d="M1055 690v-59l-860 -502v270l460 260l-460 269v266z" />
    <glyph glyph-name="parenleft.tab" horiz-adv-x="622" 
d="M358 641q0 -500 244 -944h-225q-291 428 -291 944t291 944h225q-244 -436 -244 -944z" />
    <glyph glyph-name="parenright.tab" horiz-adv-x="622" 
d="M537 641q0 -516 -291 -944h-226q244 438 244 944q0 508 -244 944h226q291 -428 291 -944z" />
    <glyph glyph-name="bracketleft.tab" horiz-adv-x="622" 
d="M387 -100h184v-203h-456v1892h456v-203h-184v-1486z" />
    <glyph glyph-name="bracketright.tab" horiz-adv-x="622" 
d="M51 1589h457v-1892h-457v203h185v1486h-185v203z" />
    <glyph glyph-name="braceleft.tab" horiz-adv-x="622" 
d="M410 57q0 -88 36 -122.5t125 -36.5v-199q-78 0 -138 8t-116 30.5t-92 59.5t-57 97.5t-21 142.5q0 72 19 165l8 47q19 93 19 165q0 112 -150 137v192q150 25 150 136q0 63 -19 167l-8 47q-19 105 -19 167q0 82 21.5 142t57.5 96t92 58t115.5 29.5t137.5 7.5v-200
q-87 -2 -124 -35t-37 -119q0 -58 18 -173.5t18 -174.5q0 -99 -48.5 -153.5t-147.5 -90.5q99 -31 147.5 -86t48.5 -153q0 -56 -15 -154l-6 -43q-15 -98 -15 -154z" />
    <glyph glyph-name="braceright.tab" horiz-adv-x="622" 
d="M475 37q0 -82 -21.5 -142.5t-57.5 -97.5t-91.5 -59.5t-115.5 -30.5t-138 -8v199q91 2 126.5 36t35.5 123q0 58 -15 154l-7 43q-15 96 -15 154q0 98 48.5 152t148.5 87q-97 33 -147 90t-50 154q0 58 15 152l7 43q15 94 15 153q0 86 -37.5 119t-124.5 35v200
q78 0 137.5 -7.5t115.5 -29.5t92 -58t57.5 -96t21.5 -142q0 -75 -18 -167l-8 -47q-19 -97 -19 -167q0 -111 150 -136v-192q-150 -25 -150 -137q0 -72 19 -165l8 -47q18 -88 18 -165z" />
    <glyph glyph-name="period.tab" horiz-adv-x="622" 
d="M494 162q0 -76 -54 -128t-131 -52t-128.5 52t-51.5 128t52 127t128 51t130.5 -51t54.5 -127z" />
    <glyph glyph-name="comma.tab" horiz-adv-x="622" 
d="M231 330l277 -105l-279 -477l-178 76z" />
    <glyph glyph-name="colon.tab" horiz-adv-x="622" 
d="M494 756q0 -76 -54 -128.5t-131 -52.5q-76 0 -128 52t-52 129q0 76 52 127t128 51t130.5 -51t54.5 -127zM494 162q0 -76 -54 -128t-131 -52t-128.5 52t-51.5 128t52 127t128 51t130.5 -51t54.5 -127z" />
    <glyph glyph-name="semicolon.tab" horiz-adv-x="622" 
d="M504 756q0 -76 -54 -128.5t-131 -52.5q-76 0 -128 52t-52 129q0 76 52 127t128 51t130.5 -51t54.5 -127zM195 330l276 -105l-278 -477l-179 76z" />
    <glyph glyph-name="uni20B9.tab" 
d="M881 922q-25 -110 -100.5 -197t-180.5 -125l432 -600h-389l-356 549h-201v184q17 0 59.5 -0.5t63.5 -0.5t60 2t61 7t54.5 13.5t53 22.5t42.5 33.5t37.5 48t25.5 63.5h-457v182h459q-6 37 -22 65.5t-36 47t-51.5 31.5t-57 19.5t-65 10t-63 4t-62.5 0.5q-14 0 -48.5 -1.5
t-53.5 -0.5v184h1055v-184h-357q62 -59 99 -176h258v-182h-260z" />
    <glyph glyph-name="space_uni0326" horiz-adv-x="851" 
d="M334 -63l266 -43l-194 -361l-168 55z" />
    <glyph glyph-name="caron.alt" horiz-adv-x="851" 
d="M369 1556h243l-100 -356h-164z" />
    <glyph glyph-name="space_uni0326.alt" horiz-adv-x="851" 
d="M475 1587l168 -53l-96 -348l-266 43z" />
    <glyph glyph-name="registered.alt" horiz-adv-x="1734" 
d="M1642 735q0 -213 -103.5 -390t-281.5 -277.5t-391 -100.5q-211 0 -388 100.5t-280.5 276.5t-103.5 387q0 159 61.5 301t165.5 244t247.5 161.5t301.5 59.5q212 0 389 -100t280 -275t103 -387zM211 731q0 -184 84.5 -336.5t235 -240.5t335.5 -88q187 0 338 88t235.5 241
t84.5 340q0 138 -49.5 261t-135.5 211.5t-208 140t-261 51.5q-140 0 -263 -51.5t-209.5 -140.5t-136.5 -212.5t-50 -263.5zM844 629h-68v-301h-219v821h313q69 0 124.5 -12.5t103 -40.5t74 -79.5t26.5 -123.5q0 -167 -154 -221l203 -344h-227zM776 981v-207h84
q123 0 123 105q0 58 -30.5 80t-90.5 22h-86z" />
    <glyph glyph-name="perthousand.tab" horiz-adv-x="2080" 
d="M682 1145q0 -146 -80 -246t-223 -100q-142 0 -221.5 97.5t-79.5 242.5q0 143 81 241.5t222 98.5q140 0 220.5 -96t80.5 -238zM1100 1464h180l-954 -1464h-181zM283 1141q0 -174 98 -174q96 0 96 174t-96 174q-98 0 -98 -174zM2003 324q0 -146 -80 -246.5t-223 -100.5
t-222 98t-79 244q0 142 81.5 240t221.5 98t220.5 -95.5t80.5 -237.5zM1337 324q0 -147 -79 -247t-222 -100t-222 98t-79 244q0 142 81 240t220 98q140 0 220.5 -95.5t80.5 -237.5zM1604 322q0 -177 98 -177q96 0 96 177q0 172 -96 172q-98 0 -98 -172zM940 322
q0 -177 96 -177q97 0 97 177q0 172 -97 172q-96 0 -96 -172z" />
    <glyph glyph-name="plusminus.tab" horiz-adv-x="1261" 
d="M1120 709h-368v-351h-242v351h-369v221h369v352h242v-352h368v-221zM141 205h983v-205h-983v205z" />
    <glyph glyph-name="notequal.tab" horiz-adv-x="1261" 
d="M1094 354h-478l-73 -192h-207l74 192h-242v211h321l76 199h-397v213h481l76 192h207l-76 -192h238v-213h-322l-76 -199h398v-211z" />
    <glyph glyph-name="approxequal.tab" horiz-adv-x="1261" 
d="M428 813q-80 0 -94 -92h-180q4 48 15 92.5t32.5 86.5t50.5 72.5t72 49t94 18.5q68 0 183 -33l51 -17q118 -34 184 -34q38 0 62 25.5t30 65.5h180q-3 -60 -19.5 -114.5t-47 -102t-80.5 -75.5t-113 -28q-72 0 -210 43t-210 43zM428 373q-80 0 -94 -92h-180q5 62 22 116.5
t47 102t80 75t115 27.5q68 0 183 -35l51 -16q115 -35 184 -35q40 0 63 25.5t29 66.5h180q-3 -60 -19.5 -114.5t-47 -101.5t-80.5 -75t-113 -28q-62 0 -184 34l-52 16q-122 34 -184 34z" />
    <glyph glyph-name="lessequal.tab" horiz-adv-x="1261" 
d="M629 772l409 -207v-270l-835 446v60l835 446v-266zM203 205h835v-205h-835v205z" />
    <glyph glyph-name="greaterequal.tab" horiz-adv-x="1261" 
d="M1059 801v-60l-836 -446v270l410 207l-410 209v266zM223 205h836v-205h-836v205z" />
    <glyph glyph-name="space.tab" horiz-adv-x="618" 
 />
    <glyph glyph-name="zero.num" horiz-adv-x="843" 
d="M774 1106q0 -183 -89 -291t-267 -108q-168 0 -258 101.5t-90 272.5q0 178 89 286t263 108q166 0 259 -100.5t93 -268.5zM293 1102q0 -27 1.5 -48t5 -49t12.5 -48.5t22.5 -39t36 -28.5t51.5 -10q129 0 129 204q0 34 -1.5 59.5t-9 58.5t-21 54.5t-39 36.5t-60.5 15
q-127 0 -127 -205z" />
    <glyph glyph-name="one.num" horiz-adv-x="577" 
d="M258 1464h195v-743h-226v528l-168 -90v182z" />
    <glyph glyph-name="two.num" horiz-adv-x="706" 
d="M367 881h276v-160h-614v80l262 223q52 44 90.5 98.5t38.5 106.5q0 37 -20.5 58.5t-57.5 21.5q-45 0 -85.5 -29.5t-57.5 -73.5l-156 70q27 100 113 149.5t196 49.5q79 0 141 -22t103 -75.5t41 -134.5q0 -44 -17 -86t-51 -81.5t-63 -68t-74.5 -68t-64.5 -58.5z" />
    <glyph glyph-name="three.num" horiz-adv-x="751" 
d="M684 942q0 -64 -26.5 -111t-72 -73t-98.5 -38.5t-114 -12.5q-70 0 -130.5 15t-114.5 57t-73 106l154 65q24 -48 59 -67t90 -19q43 0 72 21t29 63q0 18 -4.5 31.5t-10.5 22.5t-18.5 15t-21 9t-26 4.5t-26.5 2t-29 0t-26 -0.5v131h22.5h24.5t23 1t23.5 3t20 6t18.5 10
t13 14.5t10 20.5t3 27q0 36 -22.5 55t-59.5 19q-107 0 -144 -80l-153 66q30 87 114.5 128.5t186.5 41.5q53 0 101 -10t92 -32.5t70 -64t26 -98.5q0 -62 -35 -103.5t-96 -56.5q66 -12 107.5 -57t41.5 -111z" />
    <glyph glyph-name="four.num" horiz-adv-x="782" 
d="M727 862h-96v-141h-215v141h-371v74l317 528h269v-452h96v-150zM422 1313l-174 -301h174v301z" />
    <glyph glyph-name="five.num" horiz-adv-x="735" 
d="M668 977q0 -132 -87 -201t-223 -69q-64 0 -120.5 13t-108 50.5t-72.5 95.5l158 68q16 -29 54 -46.5t75 -17.5q49 0 74.5 27.5t25.5 77.5q0 46 -24.5 73t-69.5 27q-69 0 -104 -53h-160l16 442h523v-159h-365l-6 -172q57 84 184 84q111 0 170.5 -64t59.5 -176z" />
    <glyph glyph-name="six.num" horiz-adv-x="780" 
d="M719 969q0 -128 -90 -195t-223 -67q-170 0 -253 96.5t-83 269.5q0 115 35.5 203.5t115.5 143.5t197 55q96 0 174 -32.5t110 -109.5l-157 -67q-30 49 -107 49q-52 0 -86 -32.5t-46 -73.5t-15 -93q58 86 178 86q114 0 182 -60.5t68 -172.5zM303 969q0 -48 26 -79.5
t74 -31.5q45 0 73 30.5t28 76.5q0 47 -26.5 76.5t-74.5 29.5q-44 0 -72 -29t-28 -73z" />
    <glyph glyph-name="seven.num" horiz-adv-x="679" 
d="M643 1464v-84l-270 -659h-223l231 567h-328v176h590z" />
    <glyph glyph-name="eight.num" horiz-adv-x="761" 
d="M700 936q0 -63 -28.5 -110t-76.5 -71.5t-101.5 -36t-112.5 -11.5q-46 0 -88.5 6t-85.5 21.5t-74.5 39.5t-51.5 63.5t-20 90.5q0 66 37 114t101 70q-107 45 -107 154q0 54 27 96t71 66t93.5 35.5t99.5 11.5q53 0 101.5 -11t92 -34.5t69.5 -65.5t26 -98q0 -107 -107 -152
q63 -21 99 -67.5t36 -110.5zM295 1247q0 -36 26 -58t62 -22q37 0 61.5 22.5t24.5 57.5q0 36 -24.5 58t-61.5 22q-36 0 -62 -22t-26 -58zM281 952q0 -42 28.5 -67t71.5 -25q44 0 72 25t28 69q0 43 -28 68t-72 25t-72 -25.5t-28 -69.5z" />
    <glyph glyph-name="nine.num" horiz-adv-x="780" 
d="M715 1112q0 -405 -344 -405q-96 0 -179.5 34.5t-117.5 110.5l153 66q29 -48 123 -48q39 0 68 16.5t44.5 45t22.5 60.5t7 69q-62 -82 -170 -82q-116 0 -187.5 59.5t-71.5 173.5q0 128 89.5 195.5t222.5 67.5q168 0 254 -96.5t86 -266.5zM276 1217q0 -47 26 -76t73 -29
q44 0 73 28t29 72q0 51 -26 82t-76 31q-45 0 -72 -31t-27 -77z" />
    <glyph glyph-name="zero.den" horiz-adv-x="843" 
d="M774 387q0 -183 -89 -291t-267 -108q-168 0 -258 101.5t-90 272.5q0 178 89 286t263 108q166 0 259 -100.5t93 -268.5zM293 383q0 -27 1.5 -48t5 -49t12.5 -48.5t22.5 -39t36 -28.5t51.5 -10q129 0 129 205q0 34 -1.5 59t-9 58.5t-21 54.5t-39 36t-60.5 15
q-127 0 -127 -205z" />
    <glyph glyph-name="one.den" horiz-adv-x="579" 
d="M258 743h195v-743h-226v528l-168 -90v183z" />
    <glyph glyph-name="two.den" horiz-adv-x="706" 
d="M367 160h276v-160h-614v80l262 223q52 44 90.5 98.5t38.5 106.5q0 37 -20.5 58.5t-57.5 21.5q-45 0 -85.5 -29.5t-57.5 -73.5l-156 70q27 100 113 149.5t196 49.5q79 0 141 -22t103 -75.5t41 -134.5q0 -44 -17 -86t-51 -81.5t-63 -68t-74.5 -68t-64.5 -58.5z" />
    <glyph glyph-name="three.den" horiz-adv-x="751" 
d="M684 223q0 -64 -26.5 -111t-72 -73t-98.5 -38.5t-114 -12.5q-70 0 -130.5 15t-114.5 57t-73 106l154 65q24 -48 59 -67t90 -19q43 0 72 21t29 63q0 18 -4.5 31.5t-10.5 22.5t-18.5 15t-21 9t-26 4.5t-26.5 2t-29 0t-26 -0.5v131h22.5h24.5t23 1t23.5 3t20 6t18.5 10
t13 14.5t10 20.5t3 27q0 36 -22.5 55t-59.5 19q-107 0 -144 -80l-153 66q30 87 114.5 128.5t186.5 41.5q53 0 101 -10t92 -32.5t70 -64t26 -98.5q0 -62 -35 -103.5t-96 -56.5q66 -12 107.5 -57t41.5 -111z" />
    <glyph glyph-name="four.den" horiz-adv-x="784" 
d="M727 141h-96v-141h-215v141h-371v74l317 528h269v-452h96v-150zM422 592l-174 -301h174v301z" />
    <glyph glyph-name="five.den" horiz-adv-x="737" 
d="M668 258q0 -132 -87 -201t-223 -69q-64 0 -120.5 13t-108 50.5t-72.5 95.5l158 68q16 -29 54 -46t75 -17q49 0 74.5 27t25.5 77q0 46 -24.5 73t-69.5 27q-69 0 -104 -53h-160l16 442h523v-159h-365l-6 -172q57 84 184 84q111 0 170.5 -64t59.5 -176z" />
    <glyph glyph-name="six.den" horiz-adv-x="782" 
d="M719 250q0 -128 -90 -195t-223 -67q-170 0 -253 96.5t-83 269.5q0 115 35.5 203.5t115.5 143.5t197 55q96 0 174 -32.5t110 -109.5l-157 -67q-30 49 -107 49q-52 0 -86 -32.5t-46 -73.5t-15 -93q58 86 178 86q112 0 181 -61t69 -172zM303 250q0 -48 26 -79.5t74 -31.5
q45 0 73 30.5t28 76.5q0 47 -26.5 76.5t-74.5 29.5q-44 0 -72 -29t-28 -73z" />
    <glyph glyph-name="seven.den" horiz-adv-x="679" 
d="M643 743v-84l-270 -659h-223l231 567h-328v176h590z" />
    <glyph glyph-name="eight.den" horiz-adv-x="761" 
d="M700 217q0 -63 -28.5 -110t-76.5 -71.5t-101.5 -36t-112.5 -11.5q-46 0 -88.5 6t-85.5 21.5t-74.5 39.5t-51.5 63.5t-20 90.5q0 66 37 114t101 70q-107 45 -107 154q0 54 27 96t71 66t93.5 35.5t99.5 11.5q53 0 101.5 -11t92 -34.5t69.5 -65.5t26 -98q0 -107 -107 -152
q63 -21 99 -67.5t36 -110.5zM295 528q0 -35 26 -57t62 -22q37 0 61.5 22t24.5 57q0 36 -24.5 58t-61.5 22q-36 0 -62 -22t-26 -58zM281 233q0 -42 28.5 -67t71.5 -25q44 0 72 25.5t28 69.5q0 43 -28 67.5t-72 24.5t-72 -25.5t-28 -69.5z" />
    <glyph glyph-name="nine.den" horiz-adv-x="782" 
d="M715 393q0 -405 -344 -405q-96 0 -179.5 34.5t-117.5 110.5l153 66q29 -47 123 -47q39 0 68 16.5t44.5 44.5t22.5 60t7 69q-62 -82 -170 -82q-116 0 -187.5 60t-71.5 174q0 128 89.5 195t222.5 67q168 0 254 -96.5t86 -266.5zM276 498q0 -47 26 -76t73 -29q44 0 73 28
t29 73q0 51 -26 81.5t-76 30.5q-45 0 -72 -31t-27 -77z" />
    <glyph glyph-name="zero.sub" horiz-adv-x="843" 
d="M774 166q0 -183 -89 -291t-267 -108q-170 0 -259 100.5t-89 273.5q0 178 89 286t263 108q166 0 259 -100.5t93 -268.5zM293 162q0 -27 1.5 -48t5 -49t12.5 -48.5t22.5 -39t36 -28.5t51.5 -10q129 0 129 204q0 34 -1.5 59.5t-9 58.5t-21 54.5t-39 36.5t-60.5 15
q-127 0 -127 -205z" />
    <glyph glyph-name="one.sub" horiz-adv-x="579" 
d="M258 522h195v-743h-226v528l-168 -90v182z" />
    <glyph glyph-name="two.sub" horiz-adv-x="706" 
d="M367 -61h276v-160h-614v80l262 223q52 44 90.5 98.5t38.5 106.5q0 37 -20.5 58.5t-57.5 21.5q-45 0 -85.5 -29.5t-57.5 -73.5l-156 70q27 100 112.5 149t196.5 49q80 0 141.5 -21.5t102.5 -75t41 -134.5q0 -44 -17 -86t-51 -81.5t-63 -68t-74.5 -68t-64.5 -58.5z" />
    <glyph glyph-name="three.sub" horiz-adv-x="751" 
d="M684 2q0 -64 -26.5 -111t-72 -73t-98.5 -38.5t-114 -12.5q-70 0 -130.5 15t-114.5 57t-73 106l154 65q24 -48 59 -67t90 -19q43 0 72 21t29 63q0 18 -4.5 31.5t-10.5 22.5t-18.5 15t-21 9t-26 4.5t-26.5 2t-29 0t-26 -0.5v131h22.5h24.5t23 1t23.5 3t20 6t18.5 10
t13 14.5t10 20.5t3 27q0 36 -22.5 55t-59.5 19q-107 0 -144 -80l-153 66q30 87 114.5 128.5t186.5 41.5q53 0 101 -10t92 -32.5t70 -64t26 -98.5q0 -62 -35 -103.5t-96 -56.5q66 -12 107.5 -57t41.5 -111z" />
    <glyph glyph-name="four.sub" horiz-adv-x="784" 
d="M727 -80h-96v-141h-215v141h-371v74l317 528h269v-452h96v-150zM422 371l-174 -301h174v301z" />
    <glyph glyph-name="five.sub" horiz-adv-x="737" 
d="M668 37q0 -133 -86.5 -201.5t-223.5 -68.5q-64 0 -120.5 13t-108 50.5t-72.5 95.5l158 68q15 -30 53.5 -47t75.5 -17q49 0 74.5 27.5t25.5 77.5q0 46 -24.5 73t-69.5 27q-69 0 -104 -53h-160l16 442h523v-159h-365l-6 -172q56 83 184 83q111 0 170.5 -63.5t59.5 -175.5z
" />
    <glyph glyph-name="six.sub" horiz-adv-x="782" 
d="M719 29q0 -128 -90.5 -195t-222.5 -67q-170 0 -253 96.5t-83 269.5q0 115 35.5 203.5t115.5 143.5t197 55q96 0 174 -32.5t110 -109.5l-157 -67q-30 49 -107 49q-52 0 -86 -32.5t-46 -73.5t-15 -93q58 86 178 86q114 0 182 -60.5t68 -172.5zM303 29q0 -48 26 -79.5
t74 -31.5q45 0 73 30.5t28 76.5q0 47 -26.5 76.5t-74.5 29.5q-44 0 -72 -29t-28 -73z" />
    <glyph glyph-name="seven.sub" horiz-adv-x="679" 
d="M643 522v-84l-270 -659h-223l231 567h-328v176h590z" />
    <glyph glyph-name="eight.sub" horiz-adv-x="761" 
d="M700 -4q0 -63 -28.5 -110t-76.5 -71.5t-101.5 -36t-112.5 -11.5q-46 0 -88.5 6t-85.5 21.5t-74.5 39.5t-51.5 63.5t-20 90.5q0 66 37 114t101 70q-107 45 -107 154q0 54 27 96t71 66t93.5 35.5t99.5 11.5q53 0 101.5 -11t92 -34.5t69.5 -65.5t26 -98q0 -107 -107 -152
q63 -21 99 -67.5t36 -110.5zM295 307q0 -36 26 -58t62 -22q37 0 61.5 22.5t24.5 57.5q0 36 -24.5 58t-61.5 22q-36 0 -62 -22t-26 -58zM281 12q0 -42 28.5 -67t71.5 -25q44 0 72 25t28 69q0 43 -28 67.5t-72 24.5t-72 -25t-28 -69z" />
    <glyph glyph-name="nine.sub" horiz-adv-x="782" 
d="M715 172q0 -405 -344 -405q-96 0 -179.5 34.5t-117.5 110.5l153 65q13 -24 51 -37.5t72 -13.5q75 0 108.5 57t33.5 138q-62 -82 -170 -82q-116 0 -187.5 59.5t-71.5 173.5q0 128 89.5 195.5t222.5 67.5q168 0 254 -96.5t86 -266.5zM276 276q0 -47 25.5 -75.5t73.5 -28.5
q44 0 73 28t29 72q0 51 -26 82t-76 31q-45 0 -72 -31t-27 -78z" />
    <glyph glyph-name="plus.sub" horiz-adv-x="751" 
d="M659 78h-202v-207h-164v207h-201v160h201v208h164v-208h202v-160z" />
    <glyph glyph-name="minus.sub" horiz-adv-x="751" 
d="M92 238h567v-160h-567v160z" />
    <glyph glyph-name="zero.sup" horiz-adv-x="843" 
d="M774 1225q0 -183 -89 -291.5t-267 -108.5q-168 0 -258 102t-90 273q0 178 88.5 285.5t263.5 107.5q166 0 259 -100t93 -268zM293 1221q0 -33 1.5 -58.5t9 -58.5t20.5 -54.5t38 -37t60 -15.5q129 0 129 205q0 34 -1.5 59t-9 58.5t-21 54.5t-39 36t-60.5 15
q-127 0 -127 -204z" />
    <glyph glyph-name="one.sup" horiz-adv-x="579" 
d="M258 1583h195v-743h-226v528l-168 -90v182z" />
    <glyph glyph-name="two.sup" horiz-adv-x="706" 
d="M369 999h276v-159h-614v80l262 223q50 43 89.5 98.5t39.5 106.5q0 36 -21 57.5t-57 21.5q-46 0 -87 -29t-56 -73l-158 70q29 101 114 149.5t197 48.5q122 0 203.5 -57t81.5 -174q0 -44 -17 -86t-51 -82t-63 -68.5t-74.5 -68t-64.5 -58.5z" />
    <glyph glyph-name="three.sup" horiz-adv-x="751" 
d="M684 1061q0 -51 -18 -92t-47.5 -67.5t-70 -44t-84 -25t-91.5 -7.5q-51 0 -98.5 9t-92.5 29t-78.5 56t-48.5 85l154 65q24 -48 59 -67t90 -19q43 0 72 21t29 63q0 18 -4.5 31.5t-10.5 22.5t-18.5 15t-21 9t-26 4.5t-26.5 2t-29 0t-26 -0.5v131h22.5h24.5t23 1t23.5 3t20 6
t18.5 10t13 14.5t10 20.5t3 27q0 36 -22.5 55t-59.5 19q-107 0 -144 -80l-153 65q30 87 114.5 128.5t186.5 41.5q53 0 101 -10t92 -32t70 -63.5t26 -98.5q0 -62 -35 -103.5t-96 -56.5q66 -12 107.5 -57t41.5 -111z" />
    <glyph glyph-name="four.sup" horiz-adv-x="784" 
d="M727 981h-96v-141h-215v141h-371v74l317 528h269v-453h96v-149zM422 1432l-174 -302h174v302z" />
    <glyph glyph-name="five.sup" horiz-adv-x="737" 
d="M668 1096q0 -132 -87 -201.5t-223 -69.5q-47 0 -91 8t-86.5 25.5t-75 50t-48.5 76.5l158 68q16 -29 54 -46.5t75 -17.5q49 0 74.5 27.5t25.5 77.5q0 46 -24.5 73t-69.5 27q-69 0 -104 -53h-160l16 442h523v-160h-365l-6 -172q57 84 184 84q111 0 170.5 -63.5t59.5 -175.5
z" />
    <glyph glyph-name="six.sup" horiz-adv-x="782" 
d="M719 1087q0 -128 -90 -195t-223 -67q-170 0 -253 96.5t-83 270.5q0 177 87.5 289t260.5 112q95 0 175 -32.5t109 -108.5l-157 -70q-31 52 -107 52q-51 0 -85 -32.5t-46.5 -74t-15.5 -92.5q58 86 178 86q114 0 182 -60.5t68 -173.5zM303 1087q0 -48 26 -79t74 -31
q45 0 73 30t28 76q0 47 -27 77t-74 30q-44 0 -72 -29.5t-28 -73.5z" />
    <glyph glyph-name="seven.sup" horiz-adv-x="679" 
d="M643 1583v-84l-270 -659h-223l231 567h-328v176h590z" />
    <glyph glyph-name="eight.sup" horiz-adv-x="761" 
d="M700 1055q0 -63 -28.5 -110t-76.5 -72t-101.5 -36.5t-112.5 -11.5t-111.5 10.5t-101.5 34t-78 69t-29 108.5q0 66 37 114t101 70q-107 45 -107 153q0 54 27 96t71 66t93.5 35.5t99.5 11.5q53 0 101.5 -11t92 -34.5t69.5 -65.5t26 -98q0 -106 -107 -151q63 -21 99 -67.5
t36 -110.5zM295 1366q0 -36 26 -58t62 -22q37 0 61.5 22.5t24.5 57.5q0 36 -24.5 58t-61.5 22q-36 0 -62 -22t-26 -58zM281 1071q0 -42 28.5 -67t71.5 -25q44 0 72 25t28 69q0 43 -28 67.5t-72 24.5t-72 -25t-28 -69z" />
    <glyph glyph-name="nine.sup" horiz-adv-x="782" 
d="M715 1231q0 -406 -344 -406q-96 0 -179.5 35t-117.5 111l153 65q29 -47 123 -47q39 0 68 16.5t44.5 45t22.5 60.5t7 69q-62 -82 -170 -82q-116 0 -187.5 59.5t-71.5 173.5q0 128 89.5 195t222.5 67q168 0 254 -96.5t86 -265.5zM276 1335q0 -47 25.5 -75.5t73.5 -28.5
q44 0 73 28t29 72q0 51 -26 82t-76 31q-45 0 -72 -31t-27 -78z" />
    <glyph glyph-name="plus.sup" horiz-adv-x="751" 
d="M659 1137h-202v-207h-164v207h-201v159h201v209h164v-209h202v-159z" />
    <glyph glyph-name="minus.sup" horiz-adv-x="751" 
d="M92 1296h567v-159h-567v159z" />
    <glyph glyph-name="slash.alt" horiz-adv-x="311" 
d="M623 1464h172l-1106 -1464h-172z" />
    <glyph glyph-name="grave.uc" horiz-adv-x="827" 
d="M119 1847h319l107 -284h-223z" />
    <glyph glyph-name="dieresis.uc" horiz-adv-x="827" 
d="M344 1724q0 -61 -44.5 -105t-106.5 -44q-61 0 -106.5 44t-45.5 105q0 62 45 105t107 43q61 0 106 -43t45 -105zM784 1724q0 -61 -44.5 -105t-106.5 -44t-106 44t-44 105q0 62 44 105t106 43t106.5 -43t44.5 -105z" />
    <glyph glyph-name="macron.uc" horiz-adv-x="827" 
d="M104 1778h619v-187h-619v187z" />
    <glyph glyph-name="acute.uc" horiz-adv-x="827" 
d="M391 1847h322l-207 -284h-223z" />
    <glyph glyph-name="circumflex.uc" horiz-adv-x="827" 
d="M551 1563l-139 108l-142 -108h-209l230 284h252l221 -284h-213z" />
    <glyph glyph-name="caron.uc" horiz-adv-x="827" 
d="M555 1847h209l-229 -284h-252l-222 284h213l142 -106z" />
    <glyph glyph-name="breve.uc" horiz-adv-x="827" 
d="M729 1849q-8 -134 -95.5 -216.5t-221.5 -82.5q-135 0 -220.5 81.5t-93.5 217.5h199q18 -106 115 -106q49 0 80 28t40 78h197z" />
    <glyph glyph-name="dotaccent.uc" horiz-adv-x="827" 
d="M578 1731q0 -66 -49 -112t-115 -46q-68 0 -117 45t-49 113t49 112.5t117 44.5q66 0 115 -45.5t49 -111.5z" />
    <glyph glyph-name="ring.uc" horiz-adv-x="827" 
d="M649 1763q0 -93 -70.5 -160t-164.5 -67t-165 67t-71 160q0 95 70 162.5t166 67.5t165.5 -67.5t69.5 -162.5zM313 1763q0 -45 28 -76.5t73 -31.5q44 0 72 32t28 76q0 45 -28 78t-72 33t-72.5 -33t-28.5 -78z" />
    <glyph glyph-name="tilde.uc" horiz-adv-x="827" 
d="M303 1640q-29 0 -47.5 -22t-24.5 -53h-176q4 54 19.5 102.5t42.5 91t71.5 67.5t100.5 25q52 0 129.5 -38.5t107.5 -38.5q28 0 46 22t24 53h178q-4 -53 -20 -101.5t-43.5 -90.5t-72 -67t-99.5 -25t-133 37.5t-103 37.5z" />
    <glyph glyph-name="hungarumlaut.uc" horiz-adv-x="827" 
d="M207 1847h270l-149 -284h-201zM575 1847h271l-152 -284h-198z" />
    <glyph glyph-name="idotaccent" horiz-adv-x="583" 
d="M459 1378q0 -69 -50 -115t-120 -46t-119 46t-49 115q0 70 49 116t119 46q72 0 121 -46t49 -116zM143 1071h295v-1071h-295v1071z" />
    <glyph glyph-name="dollar.old" horiz-adv-x="1294" 
d="M1196 430q0 -135 -66.5 -235.5t-173 -152.5t-239.5 -62v-248h-146v245q-91 6 -170 29t-149 64.5t-120.5 109t-72.5 156.5l254 108q25 -97 91.5 -154.5t166.5 -72.5v379q-84 13 -148 31t-125 50.5t-100.5 77.5t-63 112.5t-23.5 154.5q0 94 38.5 171.5t104 128t146.5 80.5
t171 36v178h146v-180q170 -13 285 -83t169 -218l-237 -105q-57 146 -217 176v-352q85 -14 149 -31t129 -49.5t106.5 -76t68 -111.5t26.5 -156zM393 1047q0 -43 12.5 -73t39.5 -48.5t54.5 -29t71.5 -19.5v333q-74 -9 -126 -51t-52 -112zM901 397q0 36 -10 63t-24.5 44
t-41.5 30.5t-49 20.5t-59 16v-362q80 16 132 63.5t52 124.5z" />
    <glyph glyph-name="Euro.old" horiz-adv-x="1404" 
d="M1327 387q-113 -410 -557 -410q-245 0 -398 145t-184 390h-133v133h127v121h-127v131h133q17 116 65 216.5t122 175t177 117t222 42.5q203 0 345.5 -93.5t193.5 -283.5l-256 -110q-35 117 -101.5 176t-183.5 59q-122 0 -187.5 -84t-84.5 -215h370l-24 -131h-352v-121h329
l-22 -133h-301q16 -123 80 -199.5t182 -76.5q130 0 205 66t108 196z" />
    <glyph glyph-name="sterling.old" horiz-adv-x="1286" 
d="M1198 264q-37 -136 -131.5 -209t-235.5 -73q-73 0 -155 28t-153.5 56t-116.5 28q-44 0 -73 -25t-34 -69h-246q9 106 62 192t147 119q19 59 19 113q0 69 -27 166h-172v196h113q-29 107 -29 215q0 104 41.5 189.5t112 140.5t161.5 85t191 30q121 0 217.5 -31.5t171 -107
t106.5 -191.5l-254 -110q-25 95 -80.5 140.5t-152.5 45.5q-90 0 -142.5 -58t-52.5 -149q0 -83 21 -199h379v-196h-342q14 -98 14 -166q0 -61 -22 -121q18 -5 66.5 -22.5t86.5 -27t68 -9.5q85 0 132 25.5t64 101.5z" />
    <glyph glyph-name="yen.old" horiz-adv-x="1241" 
d="M1118 322h-325v-322h-322v322h-326v131h326v122h-326v132h287l-393 714h346l258 -530l252 530h309l-375 -714h289v-132h-325v-122h325v-131z" />
    <glyph glyph-name="zero.old" horiz-adv-x="1366" 
d="M1282 612q0 -186 -69.5 -328.5t-206.5 -224.5t-324 -82q-185 0 -321.5 80.5t-206.5 222t-70 324.5v58q0 183 71 324.5t208 222.5t321 81q277 0 437.5 -171t160.5 -449v-58zM401 666q0 -49 2 -88.5t9 -87.5t19 -84.5t33.5 -72.5t51 -59.5t73 -38t97.5 -14.5q65 0 115 22.5
t80.5 59.5t50 88.5t26.5 104t7 112.5q0 49 -2 88t-9 87t-18.5 84t-33 72t-50.5 59.5t-72 38t-96 14.5q-65 0 -115.5 -22.5t-81.5 -58.5t-51 -87t-27.5 -104t-7.5 -113z" />
    <glyph glyph-name="one.old" horiz-adv-x="864" 
d="M401 1268h273v-1268h-312v958l-290 -188v268z" />
    <glyph glyph-name="two.old" horiz-adv-x="1175" 
d="M569 233h518v-233h-1052v51l483 457q111 105 154 158q90 113 90 208q0 86 -50.5 131.5t-138.5 45.5q-105 0 -176.5 -67.5t-101.5 -174.5l-227 98q51 185 189 284t333 99q76 0 145.5 -14.5t132 -45.5t108 -76.5t72.5 -112t27 -146.5q0 -42 -11 -84t-23.5 -74t-42.5 -73.5
t-46.5 -63.5t-59.5 -64.5t-57 -55.5t-61 -56z" />
    <glyph glyph-name="three.old" horiz-adv-x="1259" 
d="M1176 227q0 -91 -30 -166t-82 -125.5t-122.5 -85t-148.5 -50t-164 -15.5q-135 0 -244 35.5t-194.5 119.5t-122.5 212l235 102q82 -234 313 -234q114 0 180 55.5t66 168.5q0 35 -6 63.5t-17 49t-26.5 37t-34.5 26.5t-41.5 17.5t-46.5 10.5t-50 5.5t-53 2t-53 -0.5h-30v211
q139 0 190 12q118 27 138 137q4 23 4 51q0 91 -53.5 141t-145.5 50q-103 0 -177.5 -55.5t-111.5 -153.5l-233 102q58 170 200 255t330 85q95 0 180 -23t155 -69t111.5 -123.5t41.5 -177.5q0 -233 -236 -322q279 -69 279 -348z" />
    <glyph glyph-name="four.old" horiz-adv-x="1339" 
d="M1280 96h-195v-289h-309v289h-731v105l643 1065h397v-955h195v-215zM782 1028l-415 -717h415v717z" />
    <glyph glyph-name="five.old" horiz-adv-x="1230" 
d="M1147 289q0 -158 -73 -273.5t-195.5 -173t-278.5 -57.5q-89 0 -170.5 18t-155 55.5t-128.5 103t-80 151.5l235 100q75 -188 297 -188q112 0 174 75t62 189q0 112 -65.5 183t-178.5 71q-180 0 -277 -119h-176l19 844h907v-248h-672l-6 -387q111 129 324 129
q206 0 322 -132t116 -341z" />
    <glyph glyph-name="six.old" horiz-adv-x="1310" 
d="M1229 469q0 -119 -43.5 -213.5t-119.5 -155t-175.5 -92t-214.5 -31.5q-125 0 -224.5 34t-166 94t-110.5 146.5t-63.5 187t-19.5 220.5q0 122 19 235.5t64.5 222.5t114 189.5t175.5 129.5t240 49q79 0 152.5 -16t140.5 -48.5t119 -88.5t79 -130l-235 -102
q-38 71 -107.5 108t-153.5 37q-51 0 -93 -18t-71.5 -47t-52 -70.5t-36 -84.5t-22.5 -93.5t-12.5 -92.5t-4.5 -87q110 180 348 180q209 0 341 -127.5t132 -335.5zM422 475q0 -117 68 -191.5t184 -74.5q111 0 177.5 72.5t66.5 183.5q0 113 -66 185.5t-178 72.5
q-107 0 -179.5 -70.5t-72.5 -177.5z" />
    <glyph glyph-name="seven.old" horiz-adv-x="1142" 
d="M1106 1266v-127l-555 -1332h-330l510 1205h-678v254h1053z" />
    <glyph glyph-name="eight.old" horiz-adv-x="1284" 
d="M1202 420q0 -113 -48.5 -200.5t-130 -139t-178.5 -77.5t-204 -26q-83 0 -161 15t-151.5 48.5t-128 82.5t-87.5 123t-33 164q0 131 77 225t205 139q-103 41 -163 120.5t-60 186.5q0 99 44.5 178.5t117.5 127.5t161.5 73t182.5 25q74 0 145 -15t136 -47t114 -78t78 -113
t29 -147q0 -109 -59.5 -186.5t-163.5 -122.5q126 -45 202 -136.5t76 -219.5zM434 1063q0 -88 62.5 -142.5t150.5 -54.5q90 0 148.5 55t58.5 144q0 87 -60.5 141t-148.5 54q-91 0 -151 -54t-60 -143zM395 438q0 -104 71 -165.5t177 -61.5t176 61.5t70 165.5t-69.5 165
t-174.5 61t-177.5 -61t-72.5 -165z" />
    <glyph glyph-name="nine.old" horiz-adv-x="1310" 
d="M1219 600q0 -94 -7.5 -177t-26.5 -167t-48.5 -152.5t-77.5 -129t-110 -101.5t-147.5 -64.5t-189.5 -23.5q-82 0 -159 16.5t-147 50.5t-124.5 93t-81.5 137l244 104q36 -77 112 -119t165 -42q55 0 99 18t72.5 44.5t50 70.5t32.5 82.5t18 94.5t9 93t3 90
q-57 -90 -147.5 -136t-200.5 -46q-207 0 -340 125.5t-133 331.5q0 120 43 215.5t118.5 156.5t175 93t216.5 32q127 0 226.5 -34.5t165.5 -95.5t109.5 -148.5t62 -189t18.5 -222.5zM393 805q0 -113 66 -186.5t178 -73.5q108 0 180 70t72 178q0 119 -67 192.5t-185 73.5
q-109 0 -176.5 -72t-67.5 -182z" />
    <glyph glyph-name="florin.tab" 
d="M983 639h-297l-147 -1012h-295l147 1012h-192v209h223q5 31 12 94q11 80 17 120t21.5 108.5t33.5 104t50.5 82.5t74.5 69.5t103.5 39.5t139.5 17q95 0 154 -23v-225q-44 18 -117 18q-135 0 -157 -153l-37 -252h266v-209z" />
    <glyph glyph-name="dollar.oldtab" 
d="M1163 430q0 -100 -37 -183t-101 -138.5t-148.5 -88.5t-182.5 -40v-248h-141v250q-86 6 -162.5 28.5t-144.5 62.5t-117 104.5t-70 148.5l234 106q27 -87 99 -149t161 -72v385q-83 13 -146.5 31.5t-124 51.5t-99 77.5t-62 112t-23.5 153.5q0 94 37.5 171.5t101.5 128
t144.5 80.5t171.5 36v178h141v-180q165 -15 272.5 -85t178.5 -216l-238 -101q-30 73 -84.5 119.5t-128.5 52.5v-352q84 -13 148 -31t127 -50.5t103.5 -76.5t65.5 -111.5t25 -154.5zM377 1047q0 -43 12.5 -73t38.5 -48.5t54 -29t71 -19.5v333q-74 -9 -125 -50.5t-51 -112.5z
M877 397q0 44 -13 75t-41.5 49.5t-55 28.5t-73.5 21v-362q78 15 130.5 64t52.5 124z" />
    <glyph glyph-name="Euro.oldtab" 
d="M1157 365q-76 -388 -485 -388q-120 0 -214.5 40.5t-156 113t-95.5 169.5t-40 214h-105v133h105v121h-105v131h105q7 153 66.5 275.5t175.5 197t270 74.5q188 0 306.5 -89.5t156.5 -271.5l-232 -100q-28 107 -79 162t-152 55q-215 0 -225 -303h344l-23 -131h-321v-121h297
l-23 -133h-274q2 -47 8 -85t20.5 -77.5t37.5 -66t61 -43.5t88 -17q119 0 176 59t84 181z" />
    <glyph glyph-name="sterling.oldtab" 
d="M1145 274q-31 -138 -120 -215t-228 -77q-70 0 -146 28t-139.5 56t-103.5 28q-45 0 -72.5 -24.5t-32.5 -69.5h-250q6 95 57.5 178t135.5 121q20 53 20 125t-26 166h-160v198h102q-26 96 -26 211q0 101 40.5 186.5t109 142t158 87.5t187.5 31q396 0 467 -338l-231 -100
q-25 96 -77 140t-148 44q-92 0 -138.5 -56.5t-46.5 -150.5q0 -95 17 -197h350v-198h-316q13 -89 13 -166q0 -51 -21 -121q18 -5 62 -21.5t79 -26t64 -9.5q80 0 127.5 27t67.5 100z" />
    <glyph glyph-name="yen.oldtab" 
d="M1100 338h-316v-338h-313v338h-309v133h309v121h-309v133h289l-369 696h328l233 -499l225 499h287l-352 -696h297v-133h-316v-121h316v-133z" />
    <glyph glyph-name="zero.oldtab" 
d="M1149 551q0 -167 -60.5 -295.5t-182.5 -203.5t-290 -75q-250 0 -389 157.5t-139 410.5v182q0 249 142.5 406t387.5 157q248 0 389.5 -153.5t141.5 -403.5v-182zM393 545q0 -50 6 -93t22 -85t41 -71.5t66 -48t95 -18.5q221 0 221 318v180q0 317 -223 317q-228 0 -228 -315
v-184z" />
    <glyph glyph-name="one.oldtab" 
d="M621 1268h274v-1268h-311v958l-381 -260v271z" />
    <glyph glyph-name="two.oldtab" horiz-adv-x="1251" 
d="M610 233h518v-233h-1052v51l483 457q104 99 139 139q105 122 105 227q0 86 -50.5 131.5t-138.5 45.5q-105 0 -176.5 -67.5t-101.5 -174.5l-227 98q51 185 189 284t333 99q76 0 145.5 -14.5t132 -45.5t108 -76.5t72.5 -112t27 -146.5q0 -67 -24 -131.5t-69.5 -122.5
t-87.5 -101.5t-100 -97.5q-4 -3 -5.5 -4.5t-4.5 -4t-5.5 -5l-4.5 -4.5z" />
    <glyph glyph-name="three.oldtab" horiz-adv-x="1261" 
d="M1176 227q0 -91 -30 -166t-82 -125.5t-122.5 -85t-148.5 -50t-164 -15.5q-135 0 -244 35.5t-194.5 119.5t-122.5 212l235 102q82 -234 313 -234q114 0 180 55.5t66 168.5q0 35 -6 63.5t-17 49t-26.5 37t-34.5 26.5t-41.5 17.5t-46.5 10.5t-50 5.5t-53 2t-53 -0.5h-30v211
q139 0 190 12q118 27 138 137q4 23 4 51q0 91 -53.5 141t-145.5 50q-103 0 -177.5 -55.5t-111.5 -153.5l-233 102q58 170 200 255t330 85q95 0 180 -23t155 -69t111.5 -123.5t41.5 -177.5q0 -233 -236 -322q279 -69 279 -348z" />
    <glyph glyph-name="four.oldtab" 
d="M1169 96h-168v-289h-296v289h-652v103l565 1067h383v-957h168v-213zM711 1018l-373 -709h373v709z" />
    <glyph glyph-name="five.oldtab" horiz-adv-x="1239" 
d="M1135 289q0 -233 -145.5 -368.5t-379.5 -135.5q-118 0 -219 31.5t-182 107.5t-111 189l226 100q72 -188 284 -188q108 0 167 76.5t59 187.5t-62 182.5t-172 71.5q-172 0 -264 -119h-170l18 844h871v-248h-645l-7 -387q107 129 312 129q102 0 183 -37t132.5 -102t78 -150
t26.5 -184z" />
    <glyph glyph-name="six.oldtab" horiz-adv-x="1243" 
d="M1163 463q0 -228 -143.5 -360t-372.5 -132q-122 0 -218 40.5t-157 107t-100.5 160.5t-55.5 194t-16 213q0 112 18.5 220t62 213t107.5 184t163.5 127.5t222.5 48.5q160 0 286 -70.5t173 -212.5l-220 -102q-34 70 -98.5 107.5t-144.5 37.5q-67 0 -118 -35.5t-79 -87
t-46.5 -123t-24.5 -129t-7 -119.5q52 88 137 134.5t189 46.5q201 0 321.5 -130t120.5 -333zM406 477q0 -115 64 -190.5t177 -75.5q105 0 168.5 73t63.5 179q0 112 -62 186t-172 74q-106 0 -172.5 -69.5t-66.5 -176.5z" />
    <glyph glyph-name="seven.oldtab" horiz-adv-x="1239" 
d="M1141 1266v-127l-557 -1332h-324l512 1205h-668v254h1037z" />
    <glyph glyph-name="eight.oldtab" 
d="M1147 420q0 -109 -43.5 -195.5t-117.5 -139.5t-167 -80.5t-198 -27.5q-103 0 -196 26.5t-168.5 77.5t-120 136t-44.5 193q0 130 70 224t194 140q-102 41 -155.5 119.5t-53.5 187.5q0 96 40 174.5t107 127.5t151.5 75.5t177.5 26.5q124 0 229 -43.5t173.5 -136.5
t68.5 -220q0 -108 -54.5 -187t-154.5 -122q123 -44 192.5 -135.5t69.5 -220.5zM426 1065q0 -86 56.5 -142.5t142.5 -56.5q89 0 140.5 55.5t51.5 145.5q0 85 -54.5 140t-139.5 55q-86 0 -141.5 -55t-55.5 -142zM389 436q0 -99 66 -162t166 -63q103 0 166 61.5t63 165.5
q0 102 -62.5 164t-164.5 62q-103 0 -168.5 -62.5t-65.5 -165.5z" />
    <glyph glyph-name="nine.oldtab" horiz-adv-x="1232" 
d="M1135 600q0 -815 -564 -815q-166 0 -296 74.5t-179 222.5l226 104q32 -76 102.5 -118.5t155.5 -42.5q41 0 75.5 11.5t59 29t45 47.5t33 57t22.5 68t15 70t8 74.5t4 70t2 65.5q-53 -89 -136.5 -135.5t-187.5 -46.5q-200 0 -320 128t-120 329q0 231 141 364t373 133
q123 0 217.5 -37.5t155 -100t99 -152.5t54 -187.5t15.5 -212.5zM367 805q0 -111 59.5 -185.5t167.5 -74.5q104 0 168.5 71.5t64.5 176.5q0 114 -60.5 190t-172.5 76q-105 0 -166 -73.5t-61 -180.5z" />
    <glyph glyph-name="a.alt" horiz-adv-x="1292" 
d="M862 174q-49 -90 -140.5 -143.5t-193.5 -53.5q-111 0 -200 45t-144 122t-83.5 173t-28.5 203q0 110 28.5 210.5t83 183.5t146 132.5t207.5 49.5q223 0 325 -183v158h295v-1071h-295v174zM375 543q0 -64 11.5 -119.5t37 -105.5t74.5 -79.5t116 -29.5t117.5 26.5t80 72.5
t44 102t14.5 120q0 338 -245 338q-67 0 -117.5 -27.5t-78.5 -74.5t-41 -103t-13 -120z" />
    <glyph glyph-name="t.alt" horiz-adv-x="753" 
d="M702 860h-208v-860h-297v860h-154v211h154v232l297 129v-361h208v-211z" />
    <glyph glyph-name="germandbls.alt" horiz-adv-x="1368" 
d="M1307 332q0 -169 -108 -259.5t-281 -90.5q-87 0 -160 20.5t-134 72.5t-87 132l206 92q22 -54 63 -84.5t97 -30.5q59 0 89 32t30 91q0 49 -45 88.5t-109 71t-128 67.5t-109 96.5t-45 139.5q0 55 26 106.5t63.5 91.5t75 77t63.5 78t26 79q0 146 -178 146q-114 0 -173 -65
t-59 -179v-1104h-295v1098q0 151 73 260.5t191.5 162t266.5 52.5q66 0 129 -10.5t124.5 -35.5t107 -62t73.5 -95t28 -131q0 -65 -27 -122t-66 -96.5t-78 -73.5t-66 -67t-27 -63q0 -25 33 -51t82 -49t106.5 -59t106.5 -77t82 -106t33 -143z" />
    <glyph glyph-name="aacute.alt" horiz-adv-x="1292" 
d="M643 1542h311l-213 -325h-215zM862 174q-49 -90 -140.5 -143.5t-193.5 -53.5q-111 0 -200 45t-144 122t-83.5 173t-28.5 203q0 110 28.5 210.5t83 183.5t146 132.5t207.5 49.5q223 0 325 -183v158h295v-1071h-295v174zM375 543q0 -64 11.5 -119.5t37 -105.5t74.5 -79.5
t116 -29.5t117.5 26.5t80 72.5t44 102t14.5 120q0 338 -245 338q-67 0 -117.5 -27.5t-78.5 -74.5t-41 -103t-13 -120z" />
    <glyph glyph-name="abreve.alt" horiz-adv-x="1292" 
d="M961 1530q-8 -136 -94 -220.5t-222 -84.5q-137 0 -220 84t-91 221h194q6 -52 36 -81.5t81 -29.5q52 0 84.5 30t40.5 81h191zM862 174q-49 -90 -140.5 -143.5t-193.5 -53.5q-111 0 -200 45t-144 122t-83.5 173t-28.5 203q0 110 28.5 210.5t83 183.5t146 132.5t207.5 49.5
q223 0 325 -183v158h295v-1071h-295v174zM375 543q0 -64 11.5 -119.5t37 -105.5t74.5 -79.5t116 -29.5t117.5 26.5t80 72.5t44 102t14.5 120q0 338 -245 338q-67 0 -117.5 -27.5t-78.5 -74.5t-41 -103t-13 -120z" />
    <glyph glyph-name="acircumflex.alt" horiz-adv-x="1292" 
d="M786 1219l-141 129l-143 -129h-203l240 319h223l233 -319h-209zM862 174q-49 -90 -140.5 -143.5t-193.5 -53.5q-111 0 -200 45t-144 122t-83.5 173t-28.5 203q0 110 28.5 210.5t83 183.5t146 132.5t207.5 49.5q223 0 325 -183v158h295v-1071h-295v174zM375 543
q0 -64 11.5 -119.5t37 -105.5t74.5 -79.5t116 -29.5t117.5 26.5t80 72.5t44 102t14.5 120q0 338 -245 338q-67 0 -117.5 -27.5t-78.5 -74.5t-41 -103t-13 -120z" />
    <glyph glyph-name="adieresis.alt" horiz-adv-x="1292" 
d="M1010 1376q0 -62 -45 -104.5t-107 -42.5t-106.5 42.5t-44.5 104.5t44.5 105t106.5 43t107 -43t45 -105zM592 1376q0 -62 -45 -104.5t-107 -42.5t-106.5 42.5t-44.5 104.5t44.5 105t106.5 43t107 -43t45 -105zM862 174q-49 -90 -140.5 -143.5t-193.5 -53.5q-111 0 -200 45
t-144 122t-83.5 173t-28.5 203q0 110 28.5 210.5t83 183.5t146 132.5t207.5 49.5q223 0 325 -183v158h295v-1071h-295v174zM375 543q0 -64 11.5 -119.5t37 -105.5t74.5 -79.5t116 -29.5t117.5 26.5t80 72.5t44 102t14.5 120q0 338 -245 338q-67 0 -117.5 -27.5t-78.5 -74.5
t-41 -103t-13 -120z" />
    <glyph glyph-name="agrave.alt" horiz-adv-x="1292" 
d="M338 1542h311l117 -325h-215zM862 174q-49 -90 -140.5 -143.5t-193.5 -53.5q-111 0 -200 45t-144 122t-83.5 173t-28.5 203q0 110 28.5 210.5t83 183.5t146 132.5t207.5 49.5q223 0 325 -183v158h295v-1071h-295v174zM375 543q0 -64 11.5 -119.5t37 -105.5t74.5 -79.5
t116 -29.5t117.5 26.5t80 72.5t44 102t14.5 120q0 338 -245 338q-67 0 -117.5 -27.5t-78.5 -74.5t-41 -103t-13 -120z" />
    <glyph glyph-name="amacron.alt" horiz-adv-x="1292" 
d="M348 1458h596v-178h-596v178zM862 174q-49 -90 -140.5 -143.5t-193.5 -53.5q-111 0 -200 45t-144 122t-83.5 173t-28.5 203q0 110 28.5 210.5t83 183.5t146 132.5t207.5 49.5q223 0 325 -183v158h295v-1071h-295v174zM375 543q0 -64 11.5 -119.5t37 -105.5t74.5 -79.5
t116 -29.5t117.5 26.5t80 72.5t44 102t14.5 120q0 338 -245 338q-67 0 -117.5 -27.5t-78.5 -74.5t-41 -103t-13 -120z" />
    <glyph glyph-name="aogonek.alt" horiz-adv-x="1292" 
d="M1171 -342q-64 -31 -163 -31q-43 0 -81.5 8.5t-73 26.5t-55 52t-20.5 79q0 68 49.5 121t120.5 86h-86v174q-46 -89 -139 -143t-195 -54q-111 0 -200 45t-144 122t-83.5 173t-28.5 203q0 110 28.5 210.5t83 183.5t146 132.5t207.5 49.5q218 0 325 -183v158h295v-1053
q-26 -17 -44 -31t-40.5 -36t-34.5 -46.5t-12 -49.5q0 -64 68 -64q40 0 77 14v-147zM375 543q0 -64 11.5 -119.5t37 -105.5t74.5 -79.5t116 -29.5t117.5 26.5t80 72.5t44 102t14.5 120q0 338 -245 338q-67 0 -117.5 -27.5t-78.5 -74.5t-41 -103t-13 -120z" />
    <glyph glyph-name="aring.alt" horiz-adv-x="1292" 
d="M872 1425q0 -94 -69.5 -160.5t-163.5 -66.5t-163.5 66.5t-69.5 160.5t69.5 160t163.5 66t163.5 -66t69.5 -160zM541 1425q0 -45 27 -76.5t71 -31.5t71 31.5t27 76.5t-27 77t-71 32t-71 -32t-27 -77zM862 174q-49 -90 -140.5 -143.5t-193.5 -53.5q-111 0 -200 45t-144 122
t-83.5 173t-28.5 203q0 110 28.5 210.5t83 183.5t146 132.5t207.5 49.5q223 0 325 -183v158h295v-1071h-295v174zM375 543q0 -64 11.5 -119.5t37 -105.5t74.5 -79.5t116 -29.5t117.5 26.5t80 72.5t44 102t14.5 120q0 338 -245 338q-67 0 -117.5 -27.5t-78.5 -74.5t-41 -103
t-13 -120z" />
    <glyph glyph-name="aringacute.alt" horiz-adv-x="1292" 
d="M647 1980h322l-207 -284h-223zM872 1403q0 -94 -69.5 -160.5t-163.5 -66.5t-163.5 66.5t-69.5 160.5t69.5 159.5t163.5 65.5t163.5 -65.5t69.5 -159.5zM541 1403q0 -45 27 -77t71 -32t71 32t27 77q0 44 -27 76t-71 32t-71 -32t-27 -76zM862 174q-49 -90 -140.5 -143.5
t-193.5 -53.5q-111 0 -200 45t-144 122t-83.5 173t-28.5 203q0 110 28.5 210.5t83 183.5t146 132.5t207.5 49.5q223 0 325 -183v158h295v-1071h-295v174zM375 543q0 -64 11.5 -119.5t37 -105.5t74.5 -79.5t116 -29.5t117.5 26.5t80 72.5t44 102t14.5 120q0 338 -245 338
q-67 0 -117.5 -27.5t-78.5 -74.5t-41 -103t-13 -120z" />
    <glyph glyph-name="atilde.alt" horiz-adv-x="1292" 
d="M997 1516q-4 -53 -19 -101.5t-41 -92.5t-69.5 -70.5t-99.5 -26.5q-42 0 -86.5 19.5t-82.5 39t-62 19.5q-28 0 -47 -23t-25 -53h-170q4 54 18 102t39.5 91.5t68.5 69.5t99 26q52 0 129 -38t107 -38q28 0 45.5 22.5t23.5 53.5h172zM862 174q-49 -90 -140.5 -143.5
t-193.5 -53.5q-111 0 -200 45t-144 122t-83.5 173t-28.5 203q0 110 28.5 210.5t83 183.5t146 132.5t207.5 49.5q223 0 325 -183v158h295v-1071h-295v174zM375 543q0 -64 11.5 -119.5t37 -105.5t74.5 -79.5t116 -29.5t117.5 26.5t80 72.5t44 102t14.5 120q0 338 -245 338
q-67 0 -117.5 -27.5t-78.5 -74.5t-41 -103t-13 -120z" />
    <glyph glyph-name="tbar.alt" horiz-adv-x="753" 
d="M702 512h-208v-512h-297v512h-154v174h154v174h-154v211h154v232l297 129v-361h208v-211h-208v-174h208v-174z" />
    <glyph glyph-name="tcaron.alt" horiz-adv-x="753" 
d="M614 1556h244l-100 -356h-164zM702 860h-208v-860h-297v860h-154v211h154v232l297 129v-361h208v-211z" />
    <glyph glyph-name="uni021B.alt" horiz-adv-x="753" 
d="M702 860h-208v-860h-297v860h-154v211h154v232l297 129v-361h208v-211zM229 -63l267 -43l-195 -361l-168 55z" />
    <glyph glyph-name="f.short" horiz-adv-x="792" 
d="M711 860h-232v-860h-295v860h-141v211h141v123q0 183 98.5 279t282.5 96q104 0 193 -35l-86 -197q-30 6 -62 6q-64 0 -97.5 -38t-33.5 -103v-131h232v-211z" />
    <glyph glyph-name="f_f.short" horiz-adv-x="1390" 
d="M829 860h-350v-860h-295v860h-141v211h141v111q0 183 99 277.5t282 94.5q91 0 172 -38l-84 -195q-15 8 -43 8q-66 0 -98.5 -37t-32.5 -104v-117h350v123q0 183 98.5 279t282.5 96q89 0 172 -39l-84 -195q-15 8 -43 8q-66 0 -98.5 -37t-32.5 -104v-131h232v-211h-232v-860
h-295v860z" />
    <glyph glyph-name="questiondown.uc" horiz-adv-x="1083" 
d="M791 1307q0 -75 -56 -127t-131 -52t-130.5 52t-55.5 127q0 74 55.5 125t130.5 51t131 -50.5t56 -125.5zM1028 324q-51 -163 -184.5 -253.5t-306.5 -90.5q-91 0 -170.5 21t-145 63.5t-103.5 115.5t-38 168q0 84 40 158.5t96.5 129.5t113 107.5t96.5 116t40 131.5l-1 17
h274v-62q0 -58 -19 -111t-49 -94.5t-66.5 -80t-73 -73t-66.5 -68t-49 -71t-19 -75.5q0 -75 41 -113.5t117 -38.5q80 0 139 60.5t92 146.5z" />
    <glyph glyph-name="exclamdown.uc" horiz-adv-x="657" 
d="M516 1307q0 -75 -55.5 -127t-130.5 -52q-74 0 -131.5 52.5t-57.5 126.5t57 125t132 51t130.5 -51t55.5 -125zM207 1008h242l45 -1008h-332z" />
    <glyph glyph-name="hyphen.uc" horiz-adv-x="806" 
d="M115 791h577v-244h-577v244z" />
    <glyph glyph-name="endash.uc" horiz-adv-x="1103" 
d="M96 766h912v-188h-912v188z" />
    <glyph glyph-name="emdash.uc" horiz-adv-x="1900" 
d="M96 766h1708v-188h-1708v188z" />
    <glyph glyph-name="guilsinglleft.uc" horiz-adv-x="647" 
d="M567 1010l-250 -394l250 -393h-219l-260 393l260 394h219z" />
    <glyph glyph-name="guilsinglright.uc" horiz-adv-x="647" 
d="M301 1010l258 -394l-258 -393h-219l248 393l-248 394h219z" />
    <glyph glyph-name="guillemotleft.uc" horiz-adv-x="1005" 
d="M926 1010l-250 -394l250 -393h-211l-260 393l260 394h211zM559 1010l-250 -394l250 -393h-211l-260 393l260 394h211z" />
    <glyph glyph-name="guillemotright.uc" horiz-adv-x="1005" 
d="M659 1010l259 -394l-259 -393h-210l247 393l-247 394h210zM293 1010l258 -394l-258 -393h-211l248 393l-248 394h211z" />
    <glyph glyph-name="parenleft.uc" horiz-adv-x="710" 
d="M385 702q0 -240 76 -471.5t217 -431.5h-244q-162 193 -249 424.5t-87 478.5q0 248 87 479.5t249 424.5h244q-141 -200 -217 -432t-76 -472z" />
    <glyph glyph-name="parenright.uc" horiz-adv-x="710" 
d="M614 702q0 -247 -87.5 -478t-250.5 -425h-241q140 202 215.5 432.5t75.5 470.5t-75.5 471t-215.5 433h241q164 -193 251 -423.5t87 -480.5z" />
    <glyph glyph-name="bracketleft.uc" horiz-adv-x="806" 
d="M453 35h268v-219h-565v1783h565v-219h-268v-1345z" />
    <glyph glyph-name="bracketright.uc" horiz-adv-x="806" 
d="M88 1599h563v-1783h-563v219h266v1345h-266v219z" />
    <glyph glyph-name="braceleft.uc" horiz-adv-x="837" 
d="M543 188q0 -49 15 -81.5t46.5 -48t63.5 -21.5t82 -8v-217q-79 0 -143 6.5t-133.5 28t-116 57t-77 98.5t-30.5 148q0 49 15 130l6 36q16 86 16 130t-18.5 76t-50.5 48.5t-67 24t-77 7.5v211q41 0 76.5 7.5t67.5 24t50.5 48.5t18.5 76t-16 130l-6 37q-15 81 -15 130
q0 72 20 127.5t57.5 91.5t82.5 60t105.5 36t114.5 16.5t120 4.5v-218q-39 -1 -65.5 -4t-55.5 -12.5t-46 -25t-28.5 -44t-11.5 -67.5q0 -43 9 -108l10 -71q9 -65 9 -108q0 -94 -56.5 -152.5t-152.5 -82.5q94 -20 151.5 -80t57.5 -154q0 -42 -9 -107l-10 -72q-9 -65 -9 -108z
" />
    <glyph glyph-name="braceright.uc" horiz-adv-x="837" 
d="M588 154q0 -85 -30 -148.5t-77 -99.5t-116.5 -58t-134 -29t-144.5 -7v217q40 2 65.5 5t55 12.5t46.5 25.5t28.5 44t11.5 68q0 43 -9 110l-11 72q-9 67 -9 109q0 93 58 152.5t153 81.5q-96 25 -153.5 83.5t-57.5 151.5q0 48 14.5 145t14.5 146q0 38 -11.5 65.5t-29 43
t-47 24.5t-55.5 12t-64 4v218q56 0 102.5 -3t99.5 -12t95 -24t81.5 -40.5t65.5 -60t42 -84.5t16 -112q0 -38 -15 -130l-6 -37q-14 -86 -14 -130q0 -58 32 -94.5t76 -49t101 -12.5v-211q-91 0 -150 -35.5t-59 -120.5q0 -44 14 -128l6 -36q15 -90 15 -128z" />
    <glyph glyph-name="slash.uc" horiz-adv-x="874" 
d="M606 1591h244l-590 -1763h-244z" />
    <glyph glyph-name="backslash.uc" horiz-adv-x="874" 
d="M25 1591h241l590 -1763h-244z" />
    <glyph glyph-name="bar.uc" horiz-adv-x="544" 
d="M166 1591h213v-1763h-213v1763z" />
    <glyph glyph-name="at.uc" horiz-adv-x="1890" 
d="M1583 104q-111 -126 -281.5 -188.5t-355.5 -62.5q-243 0 -437.5 100t-307.5 288t-113 433q0 183 70 346t189 278.5t283.5 182.5t346.5 67q131 0 253 -31t225.5 -93t180.5 -148.5t120.5 -205t43.5 -255.5q0 -80 -14 -155t-46.5 -145t-79.5 -122t-118 -83t-158 -31
q-238 0 -272 165q-42 -83 -115.5 -128.5t-165.5 -45.5q-156 0 -240.5 103t-84.5 262q0 88 26.5 171.5t75 150.5t125 108t168.5 41q78 0 140 -30.5t89 -96.5l15 111h252l-64 -535q-2 -9 -2 -41q0 -100 90 -100q53 0 93.5 29t63.5 72.5t38 100.5t19.5 105.5t4.5 95.5
q0 142 -51.5 256t-142 186.5t-209.5 111t-258 38.5q-212 0 -376.5 -95t-254.5 -262t-90 -378q0 -313 189 -497.5t503 -184.5q312 0 500 170zM764 645q0 -74 36 -126t107 -52q64 0 110 44.5t65.5 104t19.5 121.5q0 79 -40 124.5t-118 45.5q-61 0 -104 -44t-59.5 -100.5
t-16.5 -117.5z" />
    <glyph glyph-name="uni20B9.old" horiz-adv-x="1187" 
d="M854 922q-25 -110 -100.5 -197t-180.5 -125l433 -600h-390l-356 549h-201v184q18 0 54 -1q157 -2 226 16q137 38 177 174h-457v182h459q-6 37 -22 65.5t-35.5 47t-51 31.5t-57 19.5t-65 10t-63 4t-62.5 0.5q-14 0 -49 -1.5t-54 -0.5v184h1055v-184h-356q36 -35 57.5 -76
t40.5 -100h258v-182h-260z" />
    <glyph glyph-name="uni20B9.oldtab" 
d="M881 922q-25 -110 -100.5 -197t-180.5 -125l432 -600h-389l-356 549h-201v184q17 0 60 -0.5t63.5 -0.5t60 2t61.5 7t54 13.5t52.5 22.5t43 34t37.5 48t25 63h-457v182h459q-6 37 -22 65.5t-36 47t-51.5 31.5t-57 19.5t-65 10t-63 4t-62.5 0.5q-14 0 -48.5 -1.5
t-53.5 -0.5v184h1055v-184h-357q62 -59 99 -176h258v-182h-260z" />
    </font>
</defs>
</svg>
